M48
; DRILL file {KiCad (5.1.0)-1} date 6/6/2019 12:32:51 PM
; FORMAT={-:-/ absolute / metric / decimal}
; #@! TF.CreationDate,2019-06-06T12:32:51+01:00
; #@! TF.GenerationSoftware,Kicad,Pcbnew,(5.1.0)-1
; #@! TF.FileFunction,Plated,1,2,PTH
FMAT,2
METRIC
T1C0.762
T2C0.800
T3C1.000
T4C3.200
%
G90
G05
T1
X91.516Y-118.821
X94.056Y-118.821
X96.596Y-118.821
X99.136Y-118.821
X91.465Y-122.369
X94.005Y-122.369
X96.545Y-122.369
X99.085Y-122.369
X106.049Y-124.195
X106.049Y-148.195
X129.489Y-120.421
X132.029Y-120.421
X134.569Y-120.421
X137.109Y-120.421
X91.415Y-114.91
X93.955Y-114.91
X96.495Y-114.91
X99.035Y-114.91
X129.083Y-105.738
X131.623Y-105.738
X134.163Y-105.738
X136.703Y-105.738
X139.243Y-105.738
X91.415Y-111.277
X93.955Y-111.277
X96.495Y-111.277
X99.035Y-111.277
X129.565Y-133.833
X129.565Y-138.913
X132.105Y-136.373
X89.56Y-104.521
X92.1Y-104.521
X94.64Y-104.521
X89.56Y-100.355
X92.1Y-100.355
X94.64Y-100.355
T2
X99.873Y-104.521
X110.033Y-104.521
X100.0Y-100.355
X110.16Y-100.355
X133.909Y-113.868
X133.909Y-115.868
X129.286Y-99.371
X129.286Y-101.371
T3
X117.985Y-104.534
X117.985Y-107.304
X117.985Y-110.074
X117.985Y-112.844
X117.985Y-115.614
X117.985Y-118.384
X117.985Y-121.154
X117.985Y-123.924
X117.985Y-126.694
X117.985Y-129.464
X117.985Y-132.234
X117.985Y-135.004
X117.985Y-137.774
X120.825Y-105.919
X120.825Y-108.689
X120.825Y-111.459
X120.825Y-114.229
X120.825Y-116.999
X120.825Y-119.769
X120.825Y-122.539
X120.825Y-125.309
X120.825Y-128.079
X120.825Y-130.849
X120.825Y-133.619
X120.825Y-136.389
T4
X119.405Y-97.604
X119.405Y-144.704
T0
M30
