G04 #@! TF.GenerationSoftware,KiCad,Pcbnew,(5.1.0)-1*
G04 #@! TF.CreationDate,2019-06-06T12:32:48+01:00*
G04 #@! TF.ProjectId,Eco-PCB-2,45636f2d-5043-4422-9d32-2e6b69636164,rev?*
G04 #@! TF.SameCoordinates,Original*
G04 #@! TF.FileFunction,Copper,L1,Top*
G04 #@! TF.FilePolarity,Positive*
%FSLAX46Y46*%
G04 Gerber Fmt 4.6, Leading zero omitted, Abs format (unit mm)*
G04 Created by KiCad (PCBNEW (5.1.0)-1) date 2019-06-06 12:32:48*
%MOMM*%
%LPD*%
G04 APERTURE LIST*
%ADD10R,1.600000X1.600000*%
%ADD11C,1.600000*%
%ADD12C,4.000000*%
%ADD13C,1.524000*%
%ADD14O,1.600000X1.600000*%
%ADD15C,0.762000*%
%ADD16C,0.250000*%
G04 APERTURE END LIST*
D10*
X117985400Y-104533800D03*
D11*
X117985400Y-107303800D03*
X117985400Y-110073800D03*
X117985400Y-112843800D03*
X117985400Y-115613800D03*
X117985400Y-118383800D03*
X117985400Y-121153800D03*
X117985400Y-123923800D03*
X117985400Y-126693800D03*
X117985400Y-129463800D03*
X117985400Y-132233800D03*
X117985400Y-135003800D03*
X117985400Y-137773800D03*
X120825400Y-105918800D03*
X120825400Y-108688800D03*
X120825400Y-111458800D03*
X120825400Y-114228800D03*
X120825400Y-116998800D03*
X120825400Y-119768800D03*
X120825400Y-122538800D03*
X120825400Y-125308800D03*
X120825400Y-128078800D03*
X120825400Y-130848800D03*
X120825400Y-133618800D03*
X120825400Y-136388800D03*
D12*
X119405400Y-144703800D03*
X119405400Y-97603800D03*
D13*
X129489200Y-120421400D03*
X132029200Y-120421400D03*
X134569200Y-120421400D03*
X137109200Y-120421400D03*
D11*
X133908800Y-113868200D03*
X133908800Y-115868200D03*
X129286000Y-99371400D03*
X129286000Y-101371400D03*
D13*
X91414600Y-111277400D03*
X93954600Y-111277400D03*
X96494600Y-111277400D03*
X99034600Y-111277400D03*
X91414600Y-114909600D03*
X93954600Y-114909600D03*
X96494600Y-114909600D03*
X99034600Y-114909600D03*
X99136200Y-118821200D03*
X96596200Y-118821200D03*
X94056200Y-118821200D03*
X91516200Y-118821200D03*
X91465400Y-122368600D03*
X94005400Y-122368600D03*
X96545400Y-122368600D03*
X99085400Y-122368600D03*
X106048800Y-148194800D03*
X106048800Y-124194800D03*
X129565400Y-133832600D03*
X129565400Y-138912600D03*
X132105400Y-136372600D03*
X89560400Y-100355400D03*
X92100400Y-100355400D03*
X94640400Y-100355400D03*
X94640400Y-104521000D03*
X92100400Y-104521000D03*
X89560400Y-104521000D03*
D11*
X110159800Y-100355400D03*
D14*
X99999800Y-100355400D03*
X99872800Y-104521000D03*
D11*
X110032800Y-104521000D03*
D13*
X139242800Y-105738400D03*
X136702800Y-105738400D03*
X134162800Y-105738400D03*
X131622800Y-105738400D03*
X129082800Y-105738400D03*
D15*
X132089200Y-136388800D02*
X132105400Y-136372600D01*
X124088200Y-136388800D02*
X124088200Y-138471600D01*
X124088200Y-136388800D02*
X132089200Y-136388800D01*
X120825400Y-136388800D02*
X124088200Y-136388800D01*
X124088200Y-138471600D02*
X122809000Y-139750800D01*
X122809000Y-139750800D02*
X103327200Y-139750800D01*
X91465400Y-127889000D02*
X91465400Y-122368600D01*
X103327200Y-139750800D02*
X91465400Y-127889000D01*
X91465400Y-118872000D02*
X91516200Y-118821200D01*
X91465400Y-122368600D02*
X91465400Y-118872000D01*
X91516200Y-115011200D02*
X91414600Y-114909600D01*
X91516200Y-118821200D02*
X91516200Y-115011200D01*
X91414600Y-114909600D02*
X91414600Y-111277400D01*
X91414600Y-106375200D02*
X89560400Y-104521000D01*
X91414600Y-111277400D02*
X91414600Y-106375200D01*
X89560400Y-104521000D02*
X89560400Y-100355400D01*
X137109200Y-121499030D02*
X137109200Y-120421400D01*
X137109200Y-132446430D02*
X137109200Y-121499030D01*
X133183030Y-136372600D02*
X137109200Y-132446430D01*
X132105400Y-136372600D02*
X133183030Y-136372600D01*
X137109200Y-120421400D02*
X137109200Y-115874800D01*
X137102600Y-115868200D02*
X133908800Y-115868200D01*
X137109200Y-115874800D02*
X137102600Y-115868200D01*
X137109200Y-115874800D02*
X139090400Y-115874800D01*
X139242800Y-115722400D02*
X139242800Y-105738400D01*
X139090400Y-115874800D02*
X139242800Y-115722400D01*
X130417370Y-99371400D02*
X129286000Y-99371400D01*
X133953430Y-99371400D02*
X130417370Y-99371400D01*
X139242800Y-104660770D02*
X133953430Y-99371400D01*
X139242800Y-105738400D02*
X139242800Y-104660770D01*
D16*
X117592200Y-110073800D02*
X117985400Y-110073800D01*
X116500000Y-110073800D02*
X117985400Y-110073800D01*
X115824000Y-109397800D02*
X116500000Y-110073800D01*
X96494600Y-111277400D02*
X98374200Y-109397800D01*
X98374200Y-109397800D02*
X115824000Y-109397800D01*
X97482770Y-112843800D02*
X117985400Y-112843800D01*
X96494600Y-114909600D02*
X96494600Y-113831970D01*
X96494600Y-113831970D02*
X97482770Y-112843800D01*
X96596200Y-118821200D02*
X98679000Y-116738400D01*
X116860800Y-116738400D02*
X117985400Y-115613800D01*
X98679000Y-116738400D02*
X116860800Y-116738400D01*
X96545400Y-122368600D02*
X98365600Y-120548400D01*
X115820800Y-120548400D02*
X117985400Y-118383800D01*
X98365600Y-120548400D02*
X115820800Y-120548400D01*
X132029200Y-120421400D02*
X129413000Y-117805200D01*
X124401800Y-117805200D02*
X120825400Y-114228800D01*
X129413000Y-117805200D02*
X124401800Y-117805200D01*
X114338200Y-104533800D02*
X117985400Y-104533800D01*
X110159800Y-100355400D02*
X114338200Y-104533800D01*
X112815600Y-107303800D02*
X117985400Y-107303800D01*
X110032800Y-104521000D02*
X112815600Y-107303800D01*
X121625399Y-105118801D02*
X120825400Y-105918800D01*
X122883600Y-103860600D02*
X121625399Y-105118801D01*
X132285000Y-103860600D02*
X122883600Y-103860600D01*
X134162800Y-105738400D02*
X132285000Y-103860600D01*
X123234800Y-113868200D02*
X133908800Y-113868200D01*
X120825400Y-111458800D02*
X123234800Y-113868200D01*
X132384799Y-106500399D02*
X131622800Y-105738400D01*
X134708799Y-108824399D02*
X132384799Y-106500399D01*
X134708799Y-113068201D02*
X134708799Y-108824399D01*
X133908800Y-113868200D02*
X134708799Y-113068201D01*
X94640400Y-100355400D02*
X99999800Y-100355400D01*
X94640400Y-104521000D02*
X99872800Y-104521000D01*
X124248000Y-120421400D02*
X120825400Y-116998800D01*
X129489200Y-120421400D02*
X124248000Y-120421400D01*
M02*
