G04 #@! TF.GenerationSoftware,KiCad,Pcbnew,(5.1.0)-1*
G04 #@! TF.CreationDate,2019-06-06T12:32:48+01:00*
G04 #@! TF.ProjectId,Eco-PCB-2,45636f2d-5043-4422-9d32-2e6b69636164,rev?*
G04 #@! TF.SameCoordinates,Original*
G04 #@! TF.FileFunction,Soldermask,Bot*
G04 #@! TF.FilePolarity,Negative*
%FSLAX46Y46*%
G04 Gerber Fmt 4.6, Leading zero omitted, Abs format (unit mm)*
G04 Created by KiCad (PCBNEW (5.1.0)-1) date 2019-06-06 12:32:48*
%MOMM*%
%LPD*%
G04 APERTURE LIST*
%ADD10C,0.100000*%
G04 APERTURE END LIST*
D10*
G36*
X106285942Y-147413042D02*
G01*
X106433901Y-147474329D01*
X106567055Y-147563299D01*
X106680301Y-147676545D01*
X106769271Y-147809699D01*
X106830558Y-147957658D01*
X106861800Y-148114725D01*
X106861800Y-148274875D01*
X106830558Y-148431942D01*
X106769271Y-148579901D01*
X106680301Y-148713055D01*
X106567055Y-148826301D01*
X106433901Y-148915271D01*
X106285942Y-148976558D01*
X106128875Y-149007800D01*
X105968725Y-149007800D01*
X105811658Y-148976558D01*
X105663699Y-148915271D01*
X105530545Y-148826301D01*
X105417299Y-148713055D01*
X105328329Y-148579901D01*
X105267042Y-148431942D01*
X105235800Y-148274875D01*
X105235800Y-148114725D01*
X105267042Y-147957658D01*
X105328329Y-147809699D01*
X105417299Y-147676545D01*
X105530545Y-147563299D01*
X105663699Y-147474329D01*
X105811658Y-147413042D01*
X105968725Y-147381800D01*
X106128875Y-147381800D01*
X106285942Y-147413042D01*
X106285942Y-147413042D01*
G37*
G36*
X120003654Y-142731618D02*
G01*
X120376911Y-142886226D01*
X120376913Y-142886227D01*
X120712836Y-143110684D01*
X120998516Y-143396364D01*
X121222974Y-143732289D01*
X121377582Y-144105546D01*
X121456400Y-144501793D01*
X121456400Y-144905807D01*
X121377582Y-145302054D01*
X121222974Y-145675311D01*
X121222973Y-145675313D01*
X120998516Y-146011236D01*
X120712836Y-146296916D01*
X120376913Y-146521373D01*
X120376912Y-146521374D01*
X120376911Y-146521374D01*
X120003654Y-146675982D01*
X119607407Y-146754800D01*
X119203393Y-146754800D01*
X118807146Y-146675982D01*
X118433889Y-146521374D01*
X118433888Y-146521374D01*
X118433887Y-146521373D01*
X118097964Y-146296916D01*
X117812284Y-146011236D01*
X117587827Y-145675313D01*
X117587826Y-145675311D01*
X117433218Y-145302054D01*
X117354400Y-144905807D01*
X117354400Y-144501793D01*
X117433218Y-144105546D01*
X117587826Y-143732289D01*
X117812284Y-143396364D01*
X118097964Y-143110684D01*
X118433887Y-142886227D01*
X118433889Y-142886226D01*
X118807146Y-142731618D01*
X119203393Y-142652800D01*
X119607407Y-142652800D01*
X120003654Y-142731618D01*
X120003654Y-142731618D01*
G37*
G36*
X129802542Y-138130842D02*
G01*
X129950501Y-138192129D01*
X130083655Y-138281099D01*
X130196901Y-138394345D01*
X130285871Y-138527499D01*
X130347158Y-138675458D01*
X130378400Y-138832525D01*
X130378400Y-138992675D01*
X130347158Y-139149742D01*
X130285871Y-139297701D01*
X130196901Y-139430855D01*
X130083655Y-139544101D01*
X129950501Y-139633071D01*
X129802542Y-139694358D01*
X129645475Y-139725600D01*
X129485325Y-139725600D01*
X129328258Y-139694358D01*
X129180299Y-139633071D01*
X129047145Y-139544101D01*
X128933899Y-139430855D01*
X128844929Y-139297701D01*
X128783642Y-139149742D01*
X128752400Y-138992675D01*
X128752400Y-138832525D01*
X128783642Y-138675458D01*
X128844929Y-138527499D01*
X128933899Y-138394345D01*
X129047145Y-138281099D01*
X129180299Y-138192129D01*
X129328258Y-138130842D01*
X129485325Y-138099600D01*
X129645475Y-138099600D01*
X129802542Y-138130842D01*
X129802542Y-138130842D01*
G37*
G36*
X118233628Y-136955503D02*
G01*
X118388500Y-137019653D01*
X118527881Y-137112785D01*
X118646415Y-137231319D01*
X118739547Y-137370700D01*
X118803697Y-137525572D01*
X118836400Y-137689984D01*
X118836400Y-137857616D01*
X118803697Y-138022028D01*
X118739547Y-138176900D01*
X118646415Y-138316281D01*
X118527881Y-138434815D01*
X118388500Y-138527947D01*
X118233628Y-138592097D01*
X118069216Y-138624800D01*
X117901584Y-138624800D01*
X117737172Y-138592097D01*
X117582300Y-138527947D01*
X117442919Y-138434815D01*
X117324385Y-138316281D01*
X117231253Y-138176900D01*
X117167103Y-138022028D01*
X117134400Y-137857616D01*
X117134400Y-137689984D01*
X117167103Y-137525572D01*
X117231253Y-137370700D01*
X117324385Y-137231319D01*
X117442919Y-137112785D01*
X117582300Y-137019653D01*
X117737172Y-136955503D01*
X117901584Y-136922800D01*
X118069216Y-136922800D01*
X118233628Y-136955503D01*
X118233628Y-136955503D01*
G37*
G36*
X121073628Y-135570503D02*
G01*
X121228500Y-135634653D01*
X121367881Y-135727785D01*
X121486415Y-135846319D01*
X121579547Y-135985700D01*
X121643697Y-136140572D01*
X121676400Y-136304984D01*
X121676400Y-136472616D01*
X121643697Y-136637028D01*
X121579547Y-136791900D01*
X121486415Y-136931281D01*
X121367881Y-137049815D01*
X121228500Y-137142947D01*
X121073628Y-137207097D01*
X120909216Y-137239800D01*
X120741584Y-137239800D01*
X120577172Y-137207097D01*
X120422300Y-137142947D01*
X120282919Y-137049815D01*
X120164385Y-136931281D01*
X120071253Y-136791900D01*
X120007103Y-136637028D01*
X119974400Y-136472616D01*
X119974400Y-136304984D01*
X120007103Y-136140572D01*
X120071253Y-135985700D01*
X120164385Y-135846319D01*
X120282919Y-135727785D01*
X120422300Y-135634653D01*
X120577172Y-135570503D01*
X120741584Y-135537800D01*
X120909216Y-135537800D01*
X121073628Y-135570503D01*
X121073628Y-135570503D01*
G37*
G36*
X132342542Y-135590842D02*
G01*
X132490501Y-135652129D01*
X132623655Y-135741099D01*
X132736901Y-135854345D01*
X132825871Y-135987499D01*
X132887158Y-136135458D01*
X132918400Y-136292525D01*
X132918400Y-136452675D01*
X132887158Y-136609742D01*
X132825871Y-136757701D01*
X132736901Y-136890855D01*
X132623655Y-137004101D01*
X132490501Y-137093071D01*
X132342542Y-137154358D01*
X132185475Y-137185600D01*
X132025325Y-137185600D01*
X131868258Y-137154358D01*
X131720299Y-137093071D01*
X131587145Y-137004101D01*
X131473899Y-136890855D01*
X131384929Y-136757701D01*
X131323642Y-136609742D01*
X131292400Y-136452675D01*
X131292400Y-136292525D01*
X131323642Y-136135458D01*
X131384929Y-135987499D01*
X131473899Y-135854345D01*
X131587145Y-135741099D01*
X131720299Y-135652129D01*
X131868258Y-135590842D01*
X132025325Y-135559600D01*
X132185475Y-135559600D01*
X132342542Y-135590842D01*
X132342542Y-135590842D01*
G37*
G36*
X118233628Y-134185503D02*
G01*
X118388500Y-134249653D01*
X118527881Y-134342785D01*
X118646415Y-134461319D01*
X118739547Y-134600700D01*
X118803697Y-134755572D01*
X118836400Y-134919984D01*
X118836400Y-135087616D01*
X118803697Y-135252028D01*
X118739547Y-135406900D01*
X118646415Y-135546281D01*
X118527881Y-135664815D01*
X118388500Y-135757947D01*
X118233628Y-135822097D01*
X118069216Y-135854800D01*
X117901584Y-135854800D01*
X117737172Y-135822097D01*
X117582300Y-135757947D01*
X117442919Y-135664815D01*
X117324385Y-135546281D01*
X117231253Y-135406900D01*
X117167103Y-135252028D01*
X117134400Y-135087616D01*
X117134400Y-134919984D01*
X117167103Y-134755572D01*
X117231253Y-134600700D01*
X117324385Y-134461319D01*
X117442919Y-134342785D01*
X117582300Y-134249653D01*
X117737172Y-134185503D01*
X117901584Y-134152800D01*
X118069216Y-134152800D01*
X118233628Y-134185503D01*
X118233628Y-134185503D01*
G37*
G36*
X129802542Y-133050842D02*
G01*
X129950501Y-133112129D01*
X130083655Y-133201099D01*
X130196901Y-133314345D01*
X130285871Y-133447499D01*
X130347158Y-133595458D01*
X130378400Y-133752525D01*
X130378400Y-133912675D01*
X130347158Y-134069742D01*
X130285871Y-134217701D01*
X130196901Y-134350855D01*
X130083655Y-134464101D01*
X129950501Y-134553071D01*
X129802542Y-134614358D01*
X129645475Y-134645600D01*
X129485325Y-134645600D01*
X129328258Y-134614358D01*
X129180299Y-134553071D01*
X129047145Y-134464101D01*
X128933899Y-134350855D01*
X128844929Y-134217701D01*
X128783642Y-134069742D01*
X128752400Y-133912675D01*
X128752400Y-133752525D01*
X128783642Y-133595458D01*
X128844929Y-133447499D01*
X128933899Y-133314345D01*
X129047145Y-133201099D01*
X129180299Y-133112129D01*
X129328258Y-133050842D01*
X129485325Y-133019600D01*
X129645475Y-133019600D01*
X129802542Y-133050842D01*
X129802542Y-133050842D01*
G37*
G36*
X121073628Y-132800503D02*
G01*
X121228500Y-132864653D01*
X121367881Y-132957785D01*
X121486415Y-133076319D01*
X121579547Y-133215700D01*
X121643697Y-133370572D01*
X121676400Y-133534984D01*
X121676400Y-133702616D01*
X121643697Y-133867028D01*
X121579547Y-134021900D01*
X121486415Y-134161281D01*
X121367881Y-134279815D01*
X121228500Y-134372947D01*
X121073628Y-134437097D01*
X120909216Y-134469800D01*
X120741584Y-134469800D01*
X120577172Y-134437097D01*
X120422300Y-134372947D01*
X120282919Y-134279815D01*
X120164385Y-134161281D01*
X120071253Y-134021900D01*
X120007103Y-133867028D01*
X119974400Y-133702616D01*
X119974400Y-133534984D01*
X120007103Y-133370572D01*
X120071253Y-133215700D01*
X120164385Y-133076319D01*
X120282919Y-132957785D01*
X120422300Y-132864653D01*
X120577172Y-132800503D01*
X120741584Y-132767800D01*
X120909216Y-132767800D01*
X121073628Y-132800503D01*
X121073628Y-132800503D01*
G37*
G36*
X118233628Y-131415503D02*
G01*
X118388500Y-131479653D01*
X118527881Y-131572785D01*
X118646415Y-131691319D01*
X118739547Y-131830700D01*
X118803697Y-131985572D01*
X118836400Y-132149984D01*
X118836400Y-132317616D01*
X118803697Y-132482028D01*
X118739547Y-132636900D01*
X118646415Y-132776281D01*
X118527881Y-132894815D01*
X118388500Y-132987947D01*
X118233628Y-133052097D01*
X118069216Y-133084800D01*
X117901584Y-133084800D01*
X117737172Y-133052097D01*
X117582300Y-132987947D01*
X117442919Y-132894815D01*
X117324385Y-132776281D01*
X117231253Y-132636900D01*
X117167103Y-132482028D01*
X117134400Y-132317616D01*
X117134400Y-132149984D01*
X117167103Y-131985572D01*
X117231253Y-131830700D01*
X117324385Y-131691319D01*
X117442919Y-131572785D01*
X117582300Y-131479653D01*
X117737172Y-131415503D01*
X117901584Y-131382800D01*
X118069216Y-131382800D01*
X118233628Y-131415503D01*
X118233628Y-131415503D01*
G37*
G36*
X121073628Y-130030503D02*
G01*
X121228500Y-130094653D01*
X121367881Y-130187785D01*
X121486415Y-130306319D01*
X121579547Y-130445700D01*
X121643697Y-130600572D01*
X121676400Y-130764984D01*
X121676400Y-130932616D01*
X121643697Y-131097028D01*
X121579547Y-131251900D01*
X121486415Y-131391281D01*
X121367881Y-131509815D01*
X121228500Y-131602947D01*
X121073628Y-131667097D01*
X120909216Y-131699800D01*
X120741584Y-131699800D01*
X120577172Y-131667097D01*
X120422300Y-131602947D01*
X120282919Y-131509815D01*
X120164385Y-131391281D01*
X120071253Y-131251900D01*
X120007103Y-131097028D01*
X119974400Y-130932616D01*
X119974400Y-130764984D01*
X120007103Y-130600572D01*
X120071253Y-130445700D01*
X120164385Y-130306319D01*
X120282919Y-130187785D01*
X120422300Y-130094653D01*
X120577172Y-130030503D01*
X120741584Y-129997800D01*
X120909216Y-129997800D01*
X121073628Y-130030503D01*
X121073628Y-130030503D01*
G37*
G36*
X118233628Y-128645503D02*
G01*
X118388500Y-128709653D01*
X118527881Y-128802785D01*
X118646415Y-128921319D01*
X118739547Y-129060700D01*
X118803697Y-129215572D01*
X118836400Y-129379984D01*
X118836400Y-129547616D01*
X118803697Y-129712028D01*
X118739547Y-129866900D01*
X118646415Y-130006281D01*
X118527881Y-130124815D01*
X118388500Y-130217947D01*
X118233628Y-130282097D01*
X118069216Y-130314800D01*
X117901584Y-130314800D01*
X117737172Y-130282097D01*
X117582300Y-130217947D01*
X117442919Y-130124815D01*
X117324385Y-130006281D01*
X117231253Y-129866900D01*
X117167103Y-129712028D01*
X117134400Y-129547616D01*
X117134400Y-129379984D01*
X117167103Y-129215572D01*
X117231253Y-129060700D01*
X117324385Y-128921319D01*
X117442919Y-128802785D01*
X117582300Y-128709653D01*
X117737172Y-128645503D01*
X117901584Y-128612800D01*
X118069216Y-128612800D01*
X118233628Y-128645503D01*
X118233628Y-128645503D01*
G37*
G36*
X121073628Y-127260503D02*
G01*
X121228500Y-127324653D01*
X121367881Y-127417785D01*
X121486415Y-127536319D01*
X121579547Y-127675700D01*
X121643697Y-127830572D01*
X121676400Y-127994984D01*
X121676400Y-128162616D01*
X121643697Y-128327028D01*
X121579547Y-128481900D01*
X121486415Y-128621281D01*
X121367881Y-128739815D01*
X121228500Y-128832947D01*
X121073628Y-128897097D01*
X120909216Y-128929800D01*
X120741584Y-128929800D01*
X120577172Y-128897097D01*
X120422300Y-128832947D01*
X120282919Y-128739815D01*
X120164385Y-128621281D01*
X120071253Y-128481900D01*
X120007103Y-128327028D01*
X119974400Y-128162616D01*
X119974400Y-127994984D01*
X120007103Y-127830572D01*
X120071253Y-127675700D01*
X120164385Y-127536319D01*
X120282919Y-127417785D01*
X120422300Y-127324653D01*
X120577172Y-127260503D01*
X120741584Y-127227800D01*
X120909216Y-127227800D01*
X121073628Y-127260503D01*
X121073628Y-127260503D01*
G37*
G36*
X118233628Y-125875503D02*
G01*
X118388500Y-125939653D01*
X118527881Y-126032785D01*
X118646415Y-126151319D01*
X118739547Y-126290700D01*
X118803697Y-126445572D01*
X118836400Y-126609984D01*
X118836400Y-126777616D01*
X118803697Y-126942028D01*
X118739547Y-127096900D01*
X118646415Y-127236281D01*
X118527881Y-127354815D01*
X118388500Y-127447947D01*
X118233628Y-127512097D01*
X118069216Y-127544800D01*
X117901584Y-127544800D01*
X117737172Y-127512097D01*
X117582300Y-127447947D01*
X117442919Y-127354815D01*
X117324385Y-127236281D01*
X117231253Y-127096900D01*
X117167103Y-126942028D01*
X117134400Y-126777616D01*
X117134400Y-126609984D01*
X117167103Y-126445572D01*
X117231253Y-126290700D01*
X117324385Y-126151319D01*
X117442919Y-126032785D01*
X117582300Y-125939653D01*
X117737172Y-125875503D01*
X117901584Y-125842800D01*
X118069216Y-125842800D01*
X118233628Y-125875503D01*
X118233628Y-125875503D01*
G37*
G36*
X121073628Y-124490503D02*
G01*
X121228500Y-124554653D01*
X121367881Y-124647785D01*
X121486415Y-124766319D01*
X121579547Y-124905700D01*
X121643697Y-125060572D01*
X121676400Y-125224984D01*
X121676400Y-125392616D01*
X121643697Y-125557028D01*
X121579547Y-125711900D01*
X121486415Y-125851281D01*
X121367881Y-125969815D01*
X121228500Y-126062947D01*
X121073628Y-126127097D01*
X120909216Y-126159800D01*
X120741584Y-126159800D01*
X120577172Y-126127097D01*
X120422300Y-126062947D01*
X120282919Y-125969815D01*
X120164385Y-125851281D01*
X120071253Y-125711900D01*
X120007103Y-125557028D01*
X119974400Y-125392616D01*
X119974400Y-125224984D01*
X120007103Y-125060572D01*
X120071253Y-124905700D01*
X120164385Y-124766319D01*
X120282919Y-124647785D01*
X120422300Y-124554653D01*
X120577172Y-124490503D01*
X120741584Y-124457800D01*
X120909216Y-124457800D01*
X121073628Y-124490503D01*
X121073628Y-124490503D01*
G37*
G36*
X106285942Y-123413042D02*
G01*
X106433901Y-123474329D01*
X106567055Y-123563299D01*
X106680301Y-123676545D01*
X106769271Y-123809699D01*
X106830558Y-123957658D01*
X106861800Y-124114725D01*
X106861800Y-124274875D01*
X106830558Y-124431942D01*
X106769271Y-124579901D01*
X106680301Y-124713055D01*
X106567055Y-124826301D01*
X106433901Y-124915271D01*
X106285942Y-124976558D01*
X106128875Y-125007800D01*
X105968725Y-125007800D01*
X105811658Y-124976558D01*
X105663699Y-124915271D01*
X105530545Y-124826301D01*
X105417299Y-124713055D01*
X105328329Y-124579901D01*
X105267042Y-124431942D01*
X105235800Y-124274875D01*
X105235800Y-124114725D01*
X105267042Y-123957658D01*
X105328329Y-123809699D01*
X105417299Y-123676545D01*
X105530545Y-123563299D01*
X105663699Y-123474329D01*
X105811658Y-123413042D01*
X105968725Y-123381800D01*
X106128875Y-123381800D01*
X106285942Y-123413042D01*
X106285942Y-123413042D01*
G37*
G36*
X118233628Y-123105503D02*
G01*
X118388500Y-123169653D01*
X118527881Y-123262785D01*
X118646415Y-123381319D01*
X118739547Y-123520700D01*
X118803697Y-123675572D01*
X118836400Y-123839984D01*
X118836400Y-124007616D01*
X118803697Y-124172028D01*
X118739547Y-124326900D01*
X118646415Y-124466281D01*
X118527881Y-124584815D01*
X118388500Y-124677947D01*
X118233628Y-124742097D01*
X118069216Y-124774800D01*
X117901584Y-124774800D01*
X117737172Y-124742097D01*
X117582300Y-124677947D01*
X117442919Y-124584815D01*
X117324385Y-124466281D01*
X117231253Y-124326900D01*
X117167103Y-124172028D01*
X117134400Y-124007616D01*
X117134400Y-123839984D01*
X117167103Y-123675572D01*
X117231253Y-123520700D01*
X117324385Y-123381319D01*
X117442919Y-123262785D01*
X117582300Y-123169653D01*
X117737172Y-123105503D01*
X117901584Y-123072800D01*
X118069216Y-123072800D01*
X118233628Y-123105503D01*
X118233628Y-123105503D01*
G37*
G36*
X121073628Y-121720503D02*
G01*
X121228500Y-121784653D01*
X121367881Y-121877785D01*
X121486415Y-121996319D01*
X121579547Y-122135700D01*
X121643697Y-122290572D01*
X121676400Y-122454984D01*
X121676400Y-122622616D01*
X121643697Y-122787028D01*
X121579547Y-122941900D01*
X121486415Y-123081281D01*
X121367881Y-123199815D01*
X121228500Y-123292947D01*
X121073628Y-123357097D01*
X120909216Y-123389800D01*
X120741584Y-123389800D01*
X120577172Y-123357097D01*
X120422300Y-123292947D01*
X120282919Y-123199815D01*
X120164385Y-123081281D01*
X120071253Y-122941900D01*
X120007103Y-122787028D01*
X119974400Y-122622616D01*
X119974400Y-122454984D01*
X120007103Y-122290572D01*
X120071253Y-122135700D01*
X120164385Y-121996319D01*
X120282919Y-121877785D01*
X120422300Y-121784653D01*
X120577172Y-121720503D01*
X120741584Y-121687800D01*
X120909216Y-121687800D01*
X121073628Y-121720503D01*
X121073628Y-121720503D01*
G37*
G36*
X91702542Y-121586842D02*
G01*
X91850501Y-121648129D01*
X91983655Y-121737099D01*
X92096901Y-121850345D01*
X92185871Y-121983499D01*
X92247158Y-122131458D01*
X92278400Y-122288525D01*
X92278400Y-122448675D01*
X92247158Y-122605742D01*
X92185871Y-122753701D01*
X92096901Y-122886855D01*
X91983655Y-123000101D01*
X91850501Y-123089071D01*
X91702542Y-123150358D01*
X91545475Y-123181600D01*
X91385325Y-123181600D01*
X91228258Y-123150358D01*
X91080299Y-123089071D01*
X90947145Y-123000101D01*
X90833899Y-122886855D01*
X90744929Y-122753701D01*
X90683642Y-122605742D01*
X90652400Y-122448675D01*
X90652400Y-122288525D01*
X90683642Y-122131458D01*
X90744929Y-121983499D01*
X90833899Y-121850345D01*
X90947145Y-121737099D01*
X91080299Y-121648129D01*
X91228258Y-121586842D01*
X91385325Y-121555600D01*
X91545475Y-121555600D01*
X91702542Y-121586842D01*
X91702542Y-121586842D01*
G37*
G36*
X96782542Y-121586842D02*
G01*
X96930501Y-121648129D01*
X97063655Y-121737099D01*
X97176901Y-121850345D01*
X97265871Y-121983499D01*
X97327158Y-122131458D01*
X97358400Y-122288525D01*
X97358400Y-122448675D01*
X97327158Y-122605742D01*
X97265871Y-122753701D01*
X97176901Y-122886855D01*
X97063655Y-123000101D01*
X96930501Y-123089071D01*
X96782542Y-123150358D01*
X96625475Y-123181600D01*
X96465325Y-123181600D01*
X96308258Y-123150358D01*
X96160299Y-123089071D01*
X96027145Y-123000101D01*
X95913899Y-122886855D01*
X95824929Y-122753701D01*
X95763642Y-122605742D01*
X95732400Y-122448675D01*
X95732400Y-122288525D01*
X95763642Y-122131458D01*
X95824929Y-121983499D01*
X95913899Y-121850345D01*
X96027145Y-121737099D01*
X96160299Y-121648129D01*
X96308258Y-121586842D01*
X96465325Y-121555600D01*
X96625475Y-121555600D01*
X96782542Y-121586842D01*
X96782542Y-121586842D01*
G37*
G36*
X94242542Y-121586842D02*
G01*
X94390501Y-121648129D01*
X94523655Y-121737099D01*
X94636901Y-121850345D01*
X94725871Y-121983499D01*
X94787158Y-122131458D01*
X94818400Y-122288525D01*
X94818400Y-122448675D01*
X94787158Y-122605742D01*
X94725871Y-122753701D01*
X94636901Y-122886855D01*
X94523655Y-123000101D01*
X94390501Y-123089071D01*
X94242542Y-123150358D01*
X94085475Y-123181600D01*
X93925325Y-123181600D01*
X93768258Y-123150358D01*
X93620299Y-123089071D01*
X93487145Y-123000101D01*
X93373899Y-122886855D01*
X93284929Y-122753701D01*
X93223642Y-122605742D01*
X93192400Y-122448675D01*
X93192400Y-122288525D01*
X93223642Y-122131458D01*
X93284929Y-121983499D01*
X93373899Y-121850345D01*
X93487145Y-121737099D01*
X93620299Y-121648129D01*
X93768258Y-121586842D01*
X93925325Y-121555600D01*
X94085475Y-121555600D01*
X94242542Y-121586842D01*
X94242542Y-121586842D01*
G37*
G36*
X99322542Y-121586842D02*
G01*
X99470501Y-121648129D01*
X99603655Y-121737099D01*
X99716901Y-121850345D01*
X99805871Y-121983499D01*
X99867158Y-122131458D01*
X99898400Y-122288525D01*
X99898400Y-122448675D01*
X99867158Y-122605742D01*
X99805871Y-122753701D01*
X99716901Y-122886855D01*
X99603655Y-123000101D01*
X99470501Y-123089071D01*
X99322542Y-123150358D01*
X99165475Y-123181600D01*
X99005325Y-123181600D01*
X98848258Y-123150358D01*
X98700299Y-123089071D01*
X98567145Y-123000101D01*
X98453899Y-122886855D01*
X98364929Y-122753701D01*
X98303642Y-122605742D01*
X98272400Y-122448675D01*
X98272400Y-122288525D01*
X98303642Y-122131458D01*
X98364929Y-121983499D01*
X98453899Y-121850345D01*
X98567145Y-121737099D01*
X98700299Y-121648129D01*
X98848258Y-121586842D01*
X99005325Y-121555600D01*
X99165475Y-121555600D01*
X99322542Y-121586842D01*
X99322542Y-121586842D01*
G37*
G36*
X118233628Y-120335503D02*
G01*
X118388500Y-120399653D01*
X118527881Y-120492785D01*
X118646415Y-120611319D01*
X118739547Y-120750700D01*
X118803697Y-120905572D01*
X118836400Y-121069984D01*
X118836400Y-121237616D01*
X118803697Y-121402028D01*
X118739547Y-121556900D01*
X118646415Y-121696281D01*
X118527881Y-121814815D01*
X118388500Y-121907947D01*
X118233628Y-121972097D01*
X118069216Y-122004800D01*
X117901584Y-122004800D01*
X117737172Y-121972097D01*
X117582300Y-121907947D01*
X117442919Y-121814815D01*
X117324385Y-121696281D01*
X117231253Y-121556900D01*
X117167103Y-121402028D01*
X117134400Y-121237616D01*
X117134400Y-121069984D01*
X117167103Y-120905572D01*
X117231253Y-120750700D01*
X117324385Y-120611319D01*
X117442919Y-120492785D01*
X117582300Y-120399653D01*
X117737172Y-120335503D01*
X117901584Y-120302800D01*
X118069216Y-120302800D01*
X118233628Y-120335503D01*
X118233628Y-120335503D01*
G37*
G36*
X134806342Y-119639642D02*
G01*
X134954301Y-119700929D01*
X135087455Y-119789899D01*
X135200701Y-119903145D01*
X135289671Y-120036299D01*
X135350958Y-120184258D01*
X135382200Y-120341325D01*
X135382200Y-120501475D01*
X135350958Y-120658542D01*
X135289671Y-120806501D01*
X135200701Y-120939655D01*
X135087455Y-121052901D01*
X134954301Y-121141871D01*
X134806342Y-121203158D01*
X134649275Y-121234400D01*
X134489125Y-121234400D01*
X134332058Y-121203158D01*
X134184099Y-121141871D01*
X134050945Y-121052901D01*
X133937699Y-120939655D01*
X133848729Y-120806501D01*
X133787442Y-120658542D01*
X133756200Y-120501475D01*
X133756200Y-120341325D01*
X133787442Y-120184258D01*
X133848729Y-120036299D01*
X133937699Y-119903145D01*
X134050945Y-119789899D01*
X134184099Y-119700929D01*
X134332058Y-119639642D01*
X134489125Y-119608400D01*
X134649275Y-119608400D01*
X134806342Y-119639642D01*
X134806342Y-119639642D01*
G37*
G36*
X132266342Y-119639642D02*
G01*
X132414301Y-119700929D01*
X132547455Y-119789899D01*
X132660701Y-119903145D01*
X132749671Y-120036299D01*
X132810958Y-120184258D01*
X132842200Y-120341325D01*
X132842200Y-120501475D01*
X132810958Y-120658542D01*
X132749671Y-120806501D01*
X132660701Y-120939655D01*
X132547455Y-121052901D01*
X132414301Y-121141871D01*
X132266342Y-121203158D01*
X132109275Y-121234400D01*
X131949125Y-121234400D01*
X131792058Y-121203158D01*
X131644099Y-121141871D01*
X131510945Y-121052901D01*
X131397699Y-120939655D01*
X131308729Y-120806501D01*
X131247442Y-120658542D01*
X131216200Y-120501475D01*
X131216200Y-120341325D01*
X131247442Y-120184258D01*
X131308729Y-120036299D01*
X131397699Y-119903145D01*
X131510945Y-119789899D01*
X131644099Y-119700929D01*
X131792058Y-119639642D01*
X131949125Y-119608400D01*
X132109275Y-119608400D01*
X132266342Y-119639642D01*
X132266342Y-119639642D01*
G37*
G36*
X129726342Y-119639642D02*
G01*
X129874301Y-119700929D01*
X130007455Y-119789899D01*
X130120701Y-119903145D01*
X130209671Y-120036299D01*
X130270958Y-120184258D01*
X130302200Y-120341325D01*
X130302200Y-120501475D01*
X130270958Y-120658542D01*
X130209671Y-120806501D01*
X130120701Y-120939655D01*
X130007455Y-121052901D01*
X129874301Y-121141871D01*
X129726342Y-121203158D01*
X129569275Y-121234400D01*
X129409125Y-121234400D01*
X129252058Y-121203158D01*
X129104099Y-121141871D01*
X128970945Y-121052901D01*
X128857699Y-120939655D01*
X128768729Y-120806501D01*
X128707442Y-120658542D01*
X128676200Y-120501475D01*
X128676200Y-120341325D01*
X128707442Y-120184258D01*
X128768729Y-120036299D01*
X128857699Y-119903145D01*
X128970945Y-119789899D01*
X129104099Y-119700929D01*
X129252058Y-119639642D01*
X129409125Y-119608400D01*
X129569275Y-119608400D01*
X129726342Y-119639642D01*
X129726342Y-119639642D01*
G37*
G36*
X137346342Y-119639642D02*
G01*
X137494301Y-119700929D01*
X137627455Y-119789899D01*
X137740701Y-119903145D01*
X137829671Y-120036299D01*
X137890958Y-120184258D01*
X137922200Y-120341325D01*
X137922200Y-120501475D01*
X137890958Y-120658542D01*
X137829671Y-120806501D01*
X137740701Y-120939655D01*
X137627455Y-121052901D01*
X137494301Y-121141871D01*
X137346342Y-121203158D01*
X137189275Y-121234400D01*
X137029125Y-121234400D01*
X136872058Y-121203158D01*
X136724099Y-121141871D01*
X136590945Y-121052901D01*
X136477699Y-120939655D01*
X136388729Y-120806501D01*
X136327442Y-120658542D01*
X136296200Y-120501475D01*
X136296200Y-120341325D01*
X136327442Y-120184258D01*
X136388729Y-120036299D01*
X136477699Y-119903145D01*
X136590945Y-119789899D01*
X136724099Y-119700929D01*
X136872058Y-119639642D01*
X137029125Y-119608400D01*
X137189275Y-119608400D01*
X137346342Y-119639642D01*
X137346342Y-119639642D01*
G37*
G36*
X121073628Y-118950503D02*
G01*
X121228500Y-119014653D01*
X121367881Y-119107785D01*
X121486415Y-119226319D01*
X121579547Y-119365700D01*
X121643697Y-119520572D01*
X121676400Y-119684984D01*
X121676400Y-119852616D01*
X121643697Y-120017028D01*
X121579547Y-120171900D01*
X121486415Y-120311281D01*
X121367881Y-120429815D01*
X121228500Y-120522947D01*
X121073628Y-120587097D01*
X120909216Y-120619800D01*
X120741584Y-120619800D01*
X120577172Y-120587097D01*
X120422300Y-120522947D01*
X120282919Y-120429815D01*
X120164385Y-120311281D01*
X120071253Y-120171900D01*
X120007103Y-120017028D01*
X119974400Y-119852616D01*
X119974400Y-119684984D01*
X120007103Y-119520572D01*
X120071253Y-119365700D01*
X120164385Y-119226319D01*
X120282919Y-119107785D01*
X120422300Y-119014653D01*
X120577172Y-118950503D01*
X120741584Y-118917800D01*
X120909216Y-118917800D01*
X121073628Y-118950503D01*
X121073628Y-118950503D01*
G37*
G36*
X91753342Y-118039442D02*
G01*
X91901301Y-118100729D01*
X92034455Y-118189699D01*
X92147701Y-118302945D01*
X92236671Y-118436099D01*
X92297958Y-118584058D01*
X92329200Y-118741125D01*
X92329200Y-118901275D01*
X92297958Y-119058342D01*
X92236671Y-119206301D01*
X92147701Y-119339455D01*
X92034455Y-119452701D01*
X91901301Y-119541671D01*
X91753342Y-119602958D01*
X91596275Y-119634200D01*
X91436125Y-119634200D01*
X91279058Y-119602958D01*
X91131099Y-119541671D01*
X90997945Y-119452701D01*
X90884699Y-119339455D01*
X90795729Y-119206301D01*
X90734442Y-119058342D01*
X90703200Y-118901275D01*
X90703200Y-118741125D01*
X90734442Y-118584058D01*
X90795729Y-118436099D01*
X90884699Y-118302945D01*
X90997945Y-118189699D01*
X91131099Y-118100729D01*
X91279058Y-118039442D01*
X91436125Y-118008200D01*
X91596275Y-118008200D01*
X91753342Y-118039442D01*
X91753342Y-118039442D01*
G37*
G36*
X94293342Y-118039442D02*
G01*
X94441301Y-118100729D01*
X94574455Y-118189699D01*
X94687701Y-118302945D01*
X94776671Y-118436099D01*
X94837958Y-118584058D01*
X94869200Y-118741125D01*
X94869200Y-118901275D01*
X94837958Y-119058342D01*
X94776671Y-119206301D01*
X94687701Y-119339455D01*
X94574455Y-119452701D01*
X94441301Y-119541671D01*
X94293342Y-119602958D01*
X94136275Y-119634200D01*
X93976125Y-119634200D01*
X93819058Y-119602958D01*
X93671099Y-119541671D01*
X93537945Y-119452701D01*
X93424699Y-119339455D01*
X93335729Y-119206301D01*
X93274442Y-119058342D01*
X93243200Y-118901275D01*
X93243200Y-118741125D01*
X93274442Y-118584058D01*
X93335729Y-118436099D01*
X93424699Y-118302945D01*
X93537945Y-118189699D01*
X93671099Y-118100729D01*
X93819058Y-118039442D01*
X93976125Y-118008200D01*
X94136275Y-118008200D01*
X94293342Y-118039442D01*
X94293342Y-118039442D01*
G37*
G36*
X96833342Y-118039442D02*
G01*
X96981301Y-118100729D01*
X97114455Y-118189699D01*
X97227701Y-118302945D01*
X97316671Y-118436099D01*
X97377958Y-118584058D01*
X97409200Y-118741125D01*
X97409200Y-118901275D01*
X97377958Y-119058342D01*
X97316671Y-119206301D01*
X97227701Y-119339455D01*
X97114455Y-119452701D01*
X96981301Y-119541671D01*
X96833342Y-119602958D01*
X96676275Y-119634200D01*
X96516125Y-119634200D01*
X96359058Y-119602958D01*
X96211099Y-119541671D01*
X96077945Y-119452701D01*
X95964699Y-119339455D01*
X95875729Y-119206301D01*
X95814442Y-119058342D01*
X95783200Y-118901275D01*
X95783200Y-118741125D01*
X95814442Y-118584058D01*
X95875729Y-118436099D01*
X95964699Y-118302945D01*
X96077945Y-118189699D01*
X96211099Y-118100729D01*
X96359058Y-118039442D01*
X96516125Y-118008200D01*
X96676275Y-118008200D01*
X96833342Y-118039442D01*
X96833342Y-118039442D01*
G37*
G36*
X99373342Y-118039442D02*
G01*
X99521301Y-118100729D01*
X99654455Y-118189699D01*
X99767701Y-118302945D01*
X99856671Y-118436099D01*
X99917958Y-118584058D01*
X99949200Y-118741125D01*
X99949200Y-118901275D01*
X99917958Y-119058342D01*
X99856671Y-119206301D01*
X99767701Y-119339455D01*
X99654455Y-119452701D01*
X99521301Y-119541671D01*
X99373342Y-119602958D01*
X99216275Y-119634200D01*
X99056125Y-119634200D01*
X98899058Y-119602958D01*
X98751099Y-119541671D01*
X98617945Y-119452701D01*
X98504699Y-119339455D01*
X98415729Y-119206301D01*
X98354442Y-119058342D01*
X98323200Y-118901275D01*
X98323200Y-118741125D01*
X98354442Y-118584058D01*
X98415729Y-118436099D01*
X98504699Y-118302945D01*
X98617945Y-118189699D01*
X98751099Y-118100729D01*
X98899058Y-118039442D01*
X99056125Y-118008200D01*
X99216275Y-118008200D01*
X99373342Y-118039442D01*
X99373342Y-118039442D01*
G37*
G36*
X118233628Y-117565503D02*
G01*
X118388500Y-117629653D01*
X118527881Y-117722785D01*
X118646415Y-117841319D01*
X118739547Y-117980700D01*
X118803697Y-118135572D01*
X118836400Y-118299984D01*
X118836400Y-118467616D01*
X118803697Y-118632028D01*
X118739547Y-118786900D01*
X118646415Y-118926281D01*
X118527881Y-119044815D01*
X118388500Y-119137947D01*
X118233628Y-119202097D01*
X118069216Y-119234800D01*
X117901584Y-119234800D01*
X117737172Y-119202097D01*
X117582300Y-119137947D01*
X117442919Y-119044815D01*
X117324385Y-118926281D01*
X117231253Y-118786900D01*
X117167103Y-118632028D01*
X117134400Y-118467616D01*
X117134400Y-118299984D01*
X117167103Y-118135572D01*
X117231253Y-117980700D01*
X117324385Y-117841319D01*
X117442919Y-117722785D01*
X117582300Y-117629653D01*
X117737172Y-117565503D01*
X117901584Y-117532800D01*
X118069216Y-117532800D01*
X118233628Y-117565503D01*
X118233628Y-117565503D01*
G37*
G36*
X121073628Y-116180503D02*
G01*
X121228500Y-116244653D01*
X121367881Y-116337785D01*
X121486415Y-116456319D01*
X121579547Y-116595700D01*
X121643697Y-116750572D01*
X121676400Y-116914984D01*
X121676400Y-117082616D01*
X121643697Y-117247028D01*
X121579547Y-117401900D01*
X121486415Y-117541281D01*
X121367881Y-117659815D01*
X121228500Y-117752947D01*
X121073628Y-117817097D01*
X120909216Y-117849800D01*
X120741584Y-117849800D01*
X120577172Y-117817097D01*
X120422300Y-117752947D01*
X120282919Y-117659815D01*
X120164385Y-117541281D01*
X120071253Y-117401900D01*
X120007103Y-117247028D01*
X119974400Y-117082616D01*
X119974400Y-116914984D01*
X120007103Y-116750572D01*
X120071253Y-116595700D01*
X120164385Y-116456319D01*
X120282919Y-116337785D01*
X120422300Y-116244653D01*
X120577172Y-116180503D01*
X120741584Y-116147800D01*
X120909216Y-116147800D01*
X121073628Y-116180503D01*
X121073628Y-116180503D01*
G37*
G36*
X134157028Y-115049903D02*
G01*
X134311900Y-115114053D01*
X134451281Y-115207185D01*
X134569815Y-115325719D01*
X134662947Y-115465100D01*
X134727097Y-115619972D01*
X134759800Y-115784384D01*
X134759800Y-115952016D01*
X134727097Y-116116428D01*
X134662947Y-116271300D01*
X134569815Y-116410681D01*
X134451281Y-116529215D01*
X134311900Y-116622347D01*
X134157028Y-116686497D01*
X133992616Y-116719200D01*
X133824984Y-116719200D01*
X133660572Y-116686497D01*
X133505700Y-116622347D01*
X133366319Y-116529215D01*
X133247785Y-116410681D01*
X133154653Y-116271300D01*
X133090503Y-116116428D01*
X133057800Y-115952016D01*
X133057800Y-115784384D01*
X133090503Y-115619972D01*
X133154653Y-115465100D01*
X133247785Y-115325719D01*
X133366319Y-115207185D01*
X133505700Y-115114053D01*
X133660572Y-115049903D01*
X133824984Y-115017200D01*
X133992616Y-115017200D01*
X134157028Y-115049903D01*
X134157028Y-115049903D01*
G37*
G36*
X118233628Y-114795503D02*
G01*
X118388500Y-114859653D01*
X118527881Y-114952785D01*
X118646415Y-115071319D01*
X118739547Y-115210700D01*
X118803697Y-115365572D01*
X118836400Y-115529984D01*
X118836400Y-115697616D01*
X118803697Y-115862028D01*
X118739547Y-116016900D01*
X118646415Y-116156281D01*
X118527881Y-116274815D01*
X118388500Y-116367947D01*
X118233628Y-116432097D01*
X118069216Y-116464800D01*
X117901584Y-116464800D01*
X117737172Y-116432097D01*
X117582300Y-116367947D01*
X117442919Y-116274815D01*
X117324385Y-116156281D01*
X117231253Y-116016900D01*
X117167103Y-115862028D01*
X117134400Y-115697616D01*
X117134400Y-115529984D01*
X117167103Y-115365572D01*
X117231253Y-115210700D01*
X117324385Y-115071319D01*
X117442919Y-114952785D01*
X117582300Y-114859653D01*
X117737172Y-114795503D01*
X117901584Y-114762800D01*
X118069216Y-114762800D01*
X118233628Y-114795503D01*
X118233628Y-114795503D01*
G37*
G36*
X99271742Y-114127842D02*
G01*
X99419701Y-114189129D01*
X99552855Y-114278099D01*
X99666101Y-114391345D01*
X99755071Y-114524499D01*
X99816358Y-114672458D01*
X99847600Y-114829525D01*
X99847600Y-114989675D01*
X99816358Y-115146742D01*
X99755071Y-115294701D01*
X99666101Y-115427855D01*
X99552855Y-115541101D01*
X99419701Y-115630071D01*
X99271742Y-115691358D01*
X99114675Y-115722600D01*
X98954525Y-115722600D01*
X98797458Y-115691358D01*
X98649499Y-115630071D01*
X98516345Y-115541101D01*
X98403099Y-115427855D01*
X98314129Y-115294701D01*
X98252842Y-115146742D01*
X98221600Y-114989675D01*
X98221600Y-114829525D01*
X98252842Y-114672458D01*
X98314129Y-114524499D01*
X98403099Y-114391345D01*
X98516345Y-114278099D01*
X98649499Y-114189129D01*
X98797458Y-114127842D01*
X98954525Y-114096600D01*
X99114675Y-114096600D01*
X99271742Y-114127842D01*
X99271742Y-114127842D01*
G37*
G36*
X96731742Y-114127842D02*
G01*
X96879701Y-114189129D01*
X97012855Y-114278099D01*
X97126101Y-114391345D01*
X97215071Y-114524499D01*
X97276358Y-114672458D01*
X97307600Y-114829525D01*
X97307600Y-114989675D01*
X97276358Y-115146742D01*
X97215071Y-115294701D01*
X97126101Y-115427855D01*
X97012855Y-115541101D01*
X96879701Y-115630071D01*
X96731742Y-115691358D01*
X96574675Y-115722600D01*
X96414525Y-115722600D01*
X96257458Y-115691358D01*
X96109499Y-115630071D01*
X95976345Y-115541101D01*
X95863099Y-115427855D01*
X95774129Y-115294701D01*
X95712842Y-115146742D01*
X95681600Y-114989675D01*
X95681600Y-114829525D01*
X95712842Y-114672458D01*
X95774129Y-114524499D01*
X95863099Y-114391345D01*
X95976345Y-114278099D01*
X96109499Y-114189129D01*
X96257458Y-114127842D01*
X96414525Y-114096600D01*
X96574675Y-114096600D01*
X96731742Y-114127842D01*
X96731742Y-114127842D01*
G37*
G36*
X94191742Y-114127842D02*
G01*
X94339701Y-114189129D01*
X94472855Y-114278099D01*
X94586101Y-114391345D01*
X94675071Y-114524499D01*
X94736358Y-114672458D01*
X94767600Y-114829525D01*
X94767600Y-114989675D01*
X94736358Y-115146742D01*
X94675071Y-115294701D01*
X94586101Y-115427855D01*
X94472855Y-115541101D01*
X94339701Y-115630071D01*
X94191742Y-115691358D01*
X94034675Y-115722600D01*
X93874525Y-115722600D01*
X93717458Y-115691358D01*
X93569499Y-115630071D01*
X93436345Y-115541101D01*
X93323099Y-115427855D01*
X93234129Y-115294701D01*
X93172842Y-115146742D01*
X93141600Y-114989675D01*
X93141600Y-114829525D01*
X93172842Y-114672458D01*
X93234129Y-114524499D01*
X93323099Y-114391345D01*
X93436345Y-114278099D01*
X93569499Y-114189129D01*
X93717458Y-114127842D01*
X93874525Y-114096600D01*
X94034675Y-114096600D01*
X94191742Y-114127842D01*
X94191742Y-114127842D01*
G37*
G36*
X91651742Y-114127842D02*
G01*
X91799701Y-114189129D01*
X91932855Y-114278099D01*
X92046101Y-114391345D01*
X92135071Y-114524499D01*
X92196358Y-114672458D01*
X92227600Y-114829525D01*
X92227600Y-114989675D01*
X92196358Y-115146742D01*
X92135071Y-115294701D01*
X92046101Y-115427855D01*
X91932855Y-115541101D01*
X91799701Y-115630071D01*
X91651742Y-115691358D01*
X91494675Y-115722600D01*
X91334525Y-115722600D01*
X91177458Y-115691358D01*
X91029499Y-115630071D01*
X90896345Y-115541101D01*
X90783099Y-115427855D01*
X90694129Y-115294701D01*
X90632842Y-115146742D01*
X90601600Y-114989675D01*
X90601600Y-114829525D01*
X90632842Y-114672458D01*
X90694129Y-114524499D01*
X90783099Y-114391345D01*
X90896345Y-114278099D01*
X91029499Y-114189129D01*
X91177458Y-114127842D01*
X91334525Y-114096600D01*
X91494675Y-114096600D01*
X91651742Y-114127842D01*
X91651742Y-114127842D01*
G37*
G36*
X121073628Y-113410503D02*
G01*
X121228500Y-113474653D01*
X121367881Y-113567785D01*
X121486415Y-113686319D01*
X121579547Y-113825700D01*
X121643697Y-113980572D01*
X121676400Y-114144984D01*
X121676400Y-114312616D01*
X121643697Y-114477028D01*
X121579547Y-114631900D01*
X121486415Y-114771281D01*
X121367881Y-114889815D01*
X121228500Y-114982947D01*
X121073628Y-115047097D01*
X120909216Y-115079800D01*
X120741584Y-115079800D01*
X120577172Y-115047097D01*
X120422300Y-114982947D01*
X120282919Y-114889815D01*
X120164385Y-114771281D01*
X120071253Y-114631900D01*
X120007103Y-114477028D01*
X119974400Y-114312616D01*
X119974400Y-114144984D01*
X120007103Y-113980572D01*
X120071253Y-113825700D01*
X120164385Y-113686319D01*
X120282919Y-113567785D01*
X120422300Y-113474653D01*
X120577172Y-113410503D01*
X120741584Y-113377800D01*
X120909216Y-113377800D01*
X121073628Y-113410503D01*
X121073628Y-113410503D01*
G37*
G36*
X134157028Y-113049903D02*
G01*
X134311900Y-113114053D01*
X134451281Y-113207185D01*
X134569815Y-113325719D01*
X134662947Y-113465100D01*
X134727097Y-113619972D01*
X134759800Y-113784384D01*
X134759800Y-113952016D01*
X134727097Y-114116428D01*
X134662947Y-114271300D01*
X134569815Y-114410681D01*
X134451281Y-114529215D01*
X134311900Y-114622347D01*
X134157028Y-114686497D01*
X133992616Y-114719200D01*
X133824984Y-114719200D01*
X133660572Y-114686497D01*
X133505700Y-114622347D01*
X133366319Y-114529215D01*
X133247785Y-114410681D01*
X133154653Y-114271300D01*
X133090503Y-114116428D01*
X133057800Y-113952016D01*
X133057800Y-113784384D01*
X133090503Y-113619972D01*
X133154653Y-113465100D01*
X133247785Y-113325719D01*
X133366319Y-113207185D01*
X133505700Y-113114053D01*
X133660572Y-113049903D01*
X133824984Y-113017200D01*
X133992616Y-113017200D01*
X134157028Y-113049903D01*
X134157028Y-113049903D01*
G37*
G36*
X118233628Y-112025503D02*
G01*
X118388500Y-112089653D01*
X118527881Y-112182785D01*
X118646415Y-112301319D01*
X118739547Y-112440700D01*
X118803697Y-112595572D01*
X118836400Y-112759984D01*
X118836400Y-112927616D01*
X118803697Y-113092028D01*
X118739547Y-113246900D01*
X118646415Y-113386281D01*
X118527881Y-113504815D01*
X118388500Y-113597947D01*
X118233628Y-113662097D01*
X118069216Y-113694800D01*
X117901584Y-113694800D01*
X117737172Y-113662097D01*
X117582300Y-113597947D01*
X117442919Y-113504815D01*
X117324385Y-113386281D01*
X117231253Y-113246900D01*
X117167103Y-113092028D01*
X117134400Y-112927616D01*
X117134400Y-112759984D01*
X117167103Y-112595572D01*
X117231253Y-112440700D01*
X117324385Y-112301319D01*
X117442919Y-112182785D01*
X117582300Y-112089653D01*
X117737172Y-112025503D01*
X117901584Y-111992800D01*
X118069216Y-111992800D01*
X118233628Y-112025503D01*
X118233628Y-112025503D01*
G37*
G36*
X121073628Y-110640503D02*
G01*
X121228500Y-110704653D01*
X121367881Y-110797785D01*
X121486415Y-110916319D01*
X121579547Y-111055700D01*
X121643697Y-111210572D01*
X121676400Y-111374984D01*
X121676400Y-111542616D01*
X121643697Y-111707028D01*
X121579547Y-111861900D01*
X121486415Y-112001281D01*
X121367881Y-112119815D01*
X121228500Y-112212947D01*
X121073628Y-112277097D01*
X120909216Y-112309800D01*
X120741584Y-112309800D01*
X120577172Y-112277097D01*
X120422300Y-112212947D01*
X120282919Y-112119815D01*
X120164385Y-112001281D01*
X120071253Y-111861900D01*
X120007103Y-111707028D01*
X119974400Y-111542616D01*
X119974400Y-111374984D01*
X120007103Y-111210572D01*
X120071253Y-111055700D01*
X120164385Y-110916319D01*
X120282919Y-110797785D01*
X120422300Y-110704653D01*
X120577172Y-110640503D01*
X120741584Y-110607800D01*
X120909216Y-110607800D01*
X121073628Y-110640503D01*
X121073628Y-110640503D01*
G37*
G36*
X99271742Y-110495642D02*
G01*
X99419701Y-110556929D01*
X99552855Y-110645899D01*
X99666101Y-110759145D01*
X99755071Y-110892299D01*
X99816358Y-111040258D01*
X99847600Y-111197325D01*
X99847600Y-111357475D01*
X99816358Y-111514542D01*
X99755071Y-111662501D01*
X99666101Y-111795655D01*
X99552855Y-111908901D01*
X99419701Y-111997871D01*
X99271742Y-112059158D01*
X99114675Y-112090400D01*
X98954525Y-112090400D01*
X98797458Y-112059158D01*
X98649499Y-111997871D01*
X98516345Y-111908901D01*
X98403099Y-111795655D01*
X98314129Y-111662501D01*
X98252842Y-111514542D01*
X98221600Y-111357475D01*
X98221600Y-111197325D01*
X98252842Y-111040258D01*
X98314129Y-110892299D01*
X98403099Y-110759145D01*
X98516345Y-110645899D01*
X98649499Y-110556929D01*
X98797458Y-110495642D01*
X98954525Y-110464400D01*
X99114675Y-110464400D01*
X99271742Y-110495642D01*
X99271742Y-110495642D01*
G37*
G36*
X91651742Y-110495642D02*
G01*
X91799701Y-110556929D01*
X91932855Y-110645899D01*
X92046101Y-110759145D01*
X92135071Y-110892299D01*
X92196358Y-111040258D01*
X92227600Y-111197325D01*
X92227600Y-111357475D01*
X92196358Y-111514542D01*
X92135071Y-111662501D01*
X92046101Y-111795655D01*
X91932855Y-111908901D01*
X91799701Y-111997871D01*
X91651742Y-112059158D01*
X91494675Y-112090400D01*
X91334525Y-112090400D01*
X91177458Y-112059158D01*
X91029499Y-111997871D01*
X90896345Y-111908901D01*
X90783099Y-111795655D01*
X90694129Y-111662501D01*
X90632842Y-111514542D01*
X90601600Y-111357475D01*
X90601600Y-111197325D01*
X90632842Y-111040258D01*
X90694129Y-110892299D01*
X90783099Y-110759145D01*
X90896345Y-110645899D01*
X91029499Y-110556929D01*
X91177458Y-110495642D01*
X91334525Y-110464400D01*
X91494675Y-110464400D01*
X91651742Y-110495642D01*
X91651742Y-110495642D01*
G37*
G36*
X94191742Y-110495642D02*
G01*
X94339701Y-110556929D01*
X94472855Y-110645899D01*
X94586101Y-110759145D01*
X94675071Y-110892299D01*
X94736358Y-111040258D01*
X94767600Y-111197325D01*
X94767600Y-111357475D01*
X94736358Y-111514542D01*
X94675071Y-111662501D01*
X94586101Y-111795655D01*
X94472855Y-111908901D01*
X94339701Y-111997871D01*
X94191742Y-112059158D01*
X94034675Y-112090400D01*
X93874525Y-112090400D01*
X93717458Y-112059158D01*
X93569499Y-111997871D01*
X93436345Y-111908901D01*
X93323099Y-111795655D01*
X93234129Y-111662501D01*
X93172842Y-111514542D01*
X93141600Y-111357475D01*
X93141600Y-111197325D01*
X93172842Y-111040258D01*
X93234129Y-110892299D01*
X93323099Y-110759145D01*
X93436345Y-110645899D01*
X93569499Y-110556929D01*
X93717458Y-110495642D01*
X93874525Y-110464400D01*
X94034675Y-110464400D01*
X94191742Y-110495642D01*
X94191742Y-110495642D01*
G37*
G36*
X96731742Y-110495642D02*
G01*
X96879701Y-110556929D01*
X97012855Y-110645899D01*
X97126101Y-110759145D01*
X97215071Y-110892299D01*
X97276358Y-111040258D01*
X97307600Y-111197325D01*
X97307600Y-111357475D01*
X97276358Y-111514542D01*
X97215071Y-111662501D01*
X97126101Y-111795655D01*
X97012855Y-111908901D01*
X96879701Y-111997871D01*
X96731742Y-112059158D01*
X96574675Y-112090400D01*
X96414525Y-112090400D01*
X96257458Y-112059158D01*
X96109499Y-111997871D01*
X95976345Y-111908901D01*
X95863099Y-111795655D01*
X95774129Y-111662501D01*
X95712842Y-111514542D01*
X95681600Y-111357475D01*
X95681600Y-111197325D01*
X95712842Y-111040258D01*
X95774129Y-110892299D01*
X95863099Y-110759145D01*
X95976345Y-110645899D01*
X96109499Y-110556929D01*
X96257458Y-110495642D01*
X96414525Y-110464400D01*
X96574675Y-110464400D01*
X96731742Y-110495642D01*
X96731742Y-110495642D01*
G37*
G36*
X118233628Y-109255503D02*
G01*
X118388500Y-109319653D01*
X118527881Y-109412785D01*
X118646415Y-109531319D01*
X118739547Y-109670700D01*
X118803697Y-109825572D01*
X118836400Y-109989984D01*
X118836400Y-110157616D01*
X118803697Y-110322028D01*
X118739547Y-110476900D01*
X118646415Y-110616281D01*
X118527881Y-110734815D01*
X118388500Y-110827947D01*
X118233628Y-110892097D01*
X118069216Y-110924800D01*
X117901584Y-110924800D01*
X117737172Y-110892097D01*
X117582300Y-110827947D01*
X117442919Y-110734815D01*
X117324385Y-110616281D01*
X117231253Y-110476900D01*
X117167103Y-110322028D01*
X117134400Y-110157616D01*
X117134400Y-109989984D01*
X117167103Y-109825572D01*
X117231253Y-109670700D01*
X117324385Y-109531319D01*
X117442919Y-109412785D01*
X117582300Y-109319653D01*
X117737172Y-109255503D01*
X117901584Y-109222800D01*
X118069216Y-109222800D01*
X118233628Y-109255503D01*
X118233628Y-109255503D01*
G37*
G36*
X121073628Y-107870503D02*
G01*
X121228500Y-107934653D01*
X121367881Y-108027785D01*
X121486415Y-108146319D01*
X121579547Y-108285700D01*
X121643697Y-108440572D01*
X121676400Y-108604984D01*
X121676400Y-108772616D01*
X121643697Y-108937028D01*
X121579547Y-109091900D01*
X121486415Y-109231281D01*
X121367881Y-109349815D01*
X121228500Y-109442947D01*
X121073628Y-109507097D01*
X120909216Y-109539800D01*
X120741584Y-109539800D01*
X120577172Y-109507097D01*
X120422300Y-109442947D01*
X120282919Y-109349815D01*
X120164385Y-109231281D01*
X120071253Y-109091900D01*
X120007103Y-108937028D01*
X119974400Y-108772616D01*
X119974400Y-108604984D01*
X120007103Y-108440572D01*
X120071253Y-108285700D01*
X120164385Y-108146319D01*
X120282919Y-108027785D01*
X120422300Y-107934653D01*
X120577172Y-107870503D01*
X120741584Y-107837800D01*
X120909216Y-107837800D01*
X121073628Y-107870503D01*
X121073628Y-107870503D01*
G37*
G36*
X118233628Y-106485503D02*
G01*
X118388500Y-106549653D01*
X118527881Y-106642785D01*
X118646415Y-106761319D01*
X118739547Y-106900700D01*
X118803697Y-107055572D01*
X118836400Y-107219984D01*
X118836400Y-107387616D01*
X118803697Y-107552028D01*
X118739547Y-107706900D01*
X118646415Y-107846281D01*
X118527881Y-107964815D01*
X118388500Y-108057947D01*
X118233628Y-108122097D01*
X118069216Y-108154800D01*
X117901584Y-108154800D01*
X117737172Y-108122097D01*
X117582300Y-108057947D01*
X117442919Y-107964815D01*
X117324385Y-107846281D01*
X117231253Y-107706900D01*
X117167103Y-107552028D01*
X117134400Y-107387616D01*
X117134400Y-107219984D01*
X117167103Y-107055572D01*
X117231253Y-106900700D01*
X117324385Y-106761319D01*
X117442919Y-106642785D01*
X117582300Y-106549653D01*
X117737172Y-106485503D01*
X117901584Y-106452800D01*
X118069216Y-106452800D01*
X118233628Y-106485503D01*
X118233628Y-106485503D01*
G37*
G36*
X121073628Y-105100503D02*
G01*
X121228500Y-105164653D01*
X121367881Y-105257785D01*
X121486415Y-105376319D01*
X121579547Y-105515700D01*
X121643697Y-105670572D01*
X121676400Y-105834984D01*
X121676400Y-106002616D01*
X121643697Y-106167028D01*
X121579547Y-106321900D01*
X121486415Y-106461281D01*
X121367881Y-106579815D01*
X121228500Y-106672947D01*
X121073628Y-106737097D01*
X120909216Y-106769800D01*
X120741584Y-106769800D01*
X120577172Y-106737097D01*
X120422300Y-106672947D01*
X120282919Y-106579815D01*
X120164385Y-106461281D01*
X120071253Y-106321900D01*
X120007103Y-106167028D01*
X119974400Y-106002616D01*
X119974400Y-105834984D01*
X120007103Y-105670572D01*
X120071253Y-105515700D01*
X120164385Y-105376319D01*
X120282919Y-105257785D01*
X120422300Y-105164653D01*
X120577172Y-105100503D01*
X120741584Y-105067800D01*
X120909216Y-105067800D01*
X121073628Y-105100503D01*
X121073628Y-105100503D01*
G37*
G36*
X134399942Y-104956642D02*
G01*
X134547901Y-105017929D01*
X134681055Y-105106899D01*
X134794301Y-105220145D01*
X134883271Y-105353299D01*
X134944558Y-105501258D01*
X134975800Y-105658325D01*
X134975800Y-105818475D01*
X134944558Y-105975542D01*
X134883271Y-106123501D01*
X134794301Y-106256655D01*
X134681055Y-106369901D01*
X134547901Y-106458871D01*
X134399942Y-106520158D01*
X134242875Y-106551400D01*
X134082725Y-106551400D01*
X133925658Y-106520158D01*
X133777699Y-106458871D01*
X133644545Y-106369901D01*
X133531299Y-106256655D01*
X133442329Y-106123501D01*
X133381042Y-105975542D01*
X133349800Y-105818475D01*
X133349800Y-105658325D01*
X133381042Y-105501258D01*
X133442329Y-105353299D01*
X133531299Y-105220145D01*
X133644545Y-105106899D01*
X133777699Y-105017929D01*
X133925658Y-104956642D01*
X134082725Y-104925400D01*
X134242875Y-104925400D01*
X134399942Y-104956642D01*
X134399942Y-104956642D01*
G37*
G36*
X129319942Y-104956642D02*
G01*
X129467901Y-105017929D01*
X129601055Y-105106899D01*
X129714301Y-105220145D01*
X129803271Y-105353299D01*
X129864558Y-105501258D01*
X129895800Y-105658325D01*
X129895800Y-105818475D01*
X129864558Y-105975542D01*
X129803271Y-106123501D01*
X129714301Y-106256655D01*
X129601055Y-106369901D01*
X129467901Y-106458871D01*
X129319942Y-106520158D01*
X129162875Y-106551400D01*
X129002725Y-106551400D01*
X128845658Y-106520158D01*
X128697699Y-106458871D01*
X128564545Y-106369901D01*
X128451299Y-106256655D01*
X128362329Y-106123501D01*
X128301042Y-105975542D01*
X128269800Y-105818475D01*
X128269800Y-105658325D01*
X128301042Y-105501258D01*
X128362329Y-105353299D01*
X128451299Y-105220145D01*
X128564545Y-105106899D01*
X128697699Y-105017929D01*
X128845658Y-104956642D01*
X129002725Y-104925400D01*
X129162875Y-104925400D01*
X129319942Y-104956642D01*
X129319942Y-104956642D01*
G37*
G36*
X139479942Y-104956642D02*
G01*
X139627901Y-105017929D01*
X139761055Y-105106899D01*
X139874301Y-105220145D01*
X139963271Y-105353299D01*
X140024558Y-105501258D01*
X140055800Y-105658325D01*
X140055800Y-105818475D01*
X140024558Y-105975542D01*
X139963271Y-106123501D01*
X139874301Y-106256655D01*
X139761055Y-106369901D01*
X139627901Y-106458871D01*
X139479942Y-106520158D01*
X139322875Y-106551400D01*
X139162725Y-106551400D01*
X139005658Y-106520158D01*
X138857699Y-106458871D01*
X138724545Y-106369901D01*
X138611299Y-106256655D01*
X138522329Y-106123501D01*
X138461042Y-105975542D01*
X138429800Y-105818475D01*
X138429800Y-105658325D01*
X138461042Y-105501258D01*
X138522329Y-105353299D01*
X138611299Y-105220145D01*
X138724545Y-105106899D01*
X138857699Y-105017929D01*
X139005658Y-104956642D01*
X139162725Y-104925400D01*
X139322875Y-104925400D01*
X139479942Y-104956642D01*
X139479942Y-104956642D01*
G37*
G36*
X136939942Y-104956642D02*
G01*
X137087901Y-105017929D01*
X137221055Y-105106899D01*
X137334301Y-105220145D01*
X137423271Y-105353299D01*
X137484558Y-105501258D01*
X137515800Y-105658325D01*
X137515800Y-105818475D01*
X137484558Y-105975542D01*
X137423271Y-106123501D01*
X137334301Y-106256655D01*
X137221055Y-106369901D01*
X137087901Y-106458871D01*
X136939942Y-106520158D01*
X136782875Y-106551400D01*
X136622725Y-106551400D01*
X136465658Y-106520158D01*
X136317699Y-106458871D01*
X136184545Y-106369901D01*
X136071299Y-106256655D01*
X135982329Y-106123501D01*
X135921042Y-105975542D01*
X135889800Y-105818475D01*
X135889800Y-105658325D01*
X135921042Y-105501258D01*
X135982329Y-105353299D01*
X136071299Y-105220145D01*
X136184545Y-105106899D01*
X136317699Y-105017929D01*
X136465658Y-104956642D01*
X136622725Y-104925400D01*
X136782875Y-104925400D01*
X136939942Y-104956642D01*
X136939942Y-104956642D01*
G37*
G36*
X131859942Y-104956642D02*
G01*
X132007901Y-105017929D01*
X132141055Y-105106899D01*
X132254301Y-105220145D01*
X132343271Y-105353299D01*
X132404558Y-105501258D01*
X132435800Y-105658325D01*
X132435800Y-105818475D01*
X132404558Y-105975542D01*
X132343271Y-106123501D01*
X132254301Y-106256655D01*
X132141055Y-106369901D01*
X132007901Y-106458871D01*
X131859942Y-106520158D01*
X131702875Y-106551400D01*
X131542725Y-106551400D01*
X131385658Y-106520158D01*
X131237699Y-106458871D01*
X131104545Y-106369901D01*
X130991299Y-106256655D01*
X130902329Y-106123501D01*
X130841042Y-105975542D01*
X130809800Y-105818475D01*
X130809800Y-105658325D01*
X130841042Y-105501258D01*
X130902329Y-105353299D01*
X130991299Y-105220145D01*
X131104545Y-105106899D01*
X131237699Y-105017929D01*
X131385658Y-104956642D01*
X131542725Y-104925400D01*
X131702875Y-104925400D01*
X131859942Y-104956642D01*
X131859942Y-104956642D01*
G37*
G36*
X118836400Y-105384800D02*
G01*
X117134400Y-105384800D01*
X117134400Y-103682800D01*
X118836400Y-103682800D01*
X118836400Y-105384800D01*
X118836400Y-105384800D01*
G37*
G36*
X110281028Y-103702703D02*
G01*
X110435900Y-103766853D01*
X110575281Y-103859985D01*
X110693815Y-103978519D01*
X110786947Y-104117900D01*
X110851097Y-104272772D01*
X110883800Y-104437184D01*
X110883800Y-104604816D01*
X110851097Y-104769228D01*
X110786947Y-104924100D01*
X110693815Y-105063481D01*
X110575281Y-105182015D01*
X110435900Y-105275147D01*
X110281028Y-105339297D01*
X110116616Y-105372000D01*
X109948984Y-105372000D01*
X109784572Y-105339297D01*
X109629700Y-105275147D01*
X109490319Y-105182015D01*
X109371785Y-105063481D01*
X109278653Y-104924100D01*
X109214503Y-104769228D01*
X109181800Y-104604816D01*
X109181800Y-104437184D01*
X109214503Y-104272772D01*
X109278653Y-104117900D01*
X109371785Y-103978519D01*
X109490319Y-103859985D01*
X109629700Y-103766853D01*
X109784572Y-103702703D01*
X109948984Y-103670000D01*
X110116616Y-103670000D01*
X110281028Y-103702703D01*
X110281028Y-103702703D01*
G37*
G36*
X100039623Y-103682313D02*
G01*
X100200042Y-103730976D01*
X100267161Y-103766852D01*
X100347878Y-103809996D01*
X100477459Y-103916341D01*
X100583804Y-104045922D01*
X100583805Y-104045924D01*
X100662824Y-104193758D01*
X100711487Y-104354177D01*
X100727917Y-104521000D01*
X100711487Y-104687823D01*
X100662824Y-104848242D01*
X100622277Y-104924100D01*
X100583804Y-104996078D01*
X100477459Y-105125659D01*
X100347878Y-105232004D01*
X100347876Y-105232005D01*
X100200042Y-105311024D01*
X100039623Y-105359687D01*
X99914604Y-105372000D01*
X99830996Y-105372000D01*
X99705977Y-105359687D01*
X99545558Y-105311024D01*
X99397724Y-105232005D01*
X99397722Y-105232004D01*
X99268141Y-105125659D01*
X99161796Y-104996078D01*
X99123323Y-104924100D01*
X99082776Y-104848242D01*
X99034113Y-104687823D01*
X99017683Y-104521000D01*
X99034113Y-104354177D01*
X99082776Y-104193758D01*
X99161795Y-104045924D01*
X99161796Y-104045922D01*
X99268141Y-103916341D01*
X99397722Y-103809996D01*
X99478439Y-103766852D01*
X99545558Y-103730976D01*
X99705977Y-103682313D01*
X99830996Y-103670000D01*
X99914604Y-103670000D01*
X100039623Y-103682313D01*
X100039623Y-103682313D01*
G37*
G36*
X89797542Y-103739242D02*
G01*
X89945501Y-103800529D01*
X90078655Y-103889499D01*
X90191901Y-104002745D01*
X90280871Y-104135899D01*
X90342158Y-104283858D01*
X90373400Y-104440925D01*
X90373400Y-104601075D01*
X90342158Y-104758142D01*
X90280871Y-104906101D01*
X90191901Y-105039255D01*
X90078655Y-105152501D01*
X89945501Y-105241471D01*
X89797542Y-105302758D01*
X89640475Y-105334000D01*
X89480325Y-105334000D01*
X89323258Y-105302758D01*
X89175299Y-105241471D01*
X89042145Y-105152501D01*
X88928899Y-105039255D01*
X88839929Y-104906101D01*
X88778642Y-104758142D01*
X88747400Y-104601075D01*
X88747400Y-104440925D01*
X88778642Y-104283858D01*
X88839929Y-104135899D01*
X88928899Y-104002745D01*
X89042145Y-103889499D01*
X89175299Y-103800529D01*
X89323258Y-103739242D01*
X89480325Y-103708000D01*
X89640475Y-103708000D01*
X89797542Y-103739242D01*
X89797542Y-103739242D01*
G37*
G36*
X92337542Y-103739242D02*
G01*
X92485501Y-103800529D01*
X92618655Y-103889499D01*
X92731901Y-104002745D01*
X92820871Y-104135899D01*
X92882158Y-104283858D01*
X92913400Y-104440925D01*
X92913400Y-104601075D01*
X92882158Y-104758142D01*
X92820871Y-104906101D01*
X92731901Y-105039255D01*
X92618655Y-105152501D01*
X92485501Y-105241471D01*
X92337542Y-105302758D01*
X92180475Y-105334000D01*
X92020325Y-105334000D01*
X91863258Y-105302758D01*
X91715299Y-105241471D01*
X91582145Y-105152501D01*
X91468899Y-105039255D01*
X91379929Y-104906101D01*
X91318642Y-104758142D01*
X91287400Y-104601075D01*
X91287400Y-104440925D01*
X91318642Y-104283858D01*
X91379929Y-104135899D01*
X91468899Y-104002745D01*
X91582145Y-103889499D01*
X91715299Y-103800529D01*
X91863258Y-103739242D01*
X92020325Y-103708000D01*
X92180475Y-103708000D01*
X92337542Y-103739242D01*
X92337542Y-103739242D01*
G37*
G36*
X94877542Y-103739242D02*
G01*
X95025501Y-103800529D01*
X95158655Y-103889499D01*
X95271901Y-104002745D01*
X95360871Y-104135899D01*
X95422158Y-104283858D01*
X95453400Y-104440925D01*
X95453400Y-104601075D01*
X95422158Y-104758142D01*
X95360871Y-104906101D01*
X95271901Y-105039255D01*
X95158655Y-105152501D01*
X95025501Y-105241471D01*
X94877542Y-105302758D01*
X94720475Y-105334000D01*
X94560325Y-105334000D01*
X94403258Y-105302758D01*
X94255299Y-105241471D01*
X94122145Y-105152501D01*
X94008899Y-105039255D01*
X93919929Y-104906101D01*
X93858642Y-104758142D01*
X93827400Y-104601075D01*
X93827400Y-104440925D01*
X93858642Y-104283858D01*
X93919929Y-104135899D01*
X94008899Y-104002745D01*
X94122145Y-103889499D01*
X94255299Y-103800529D01*
X94403258Y-103739242D01*
X94560325Y-103708000D01*
X94720475Y-103708000D01*
X94877542Y-103739242D01*
X94877542Y-103739242D01*
G37*
G36*
X129534228Y-100553103D02*
G01*
X129689100Y-100617253D01*
X129828481Y-100710385D01*
X129947015Y-100828919D01*
X130040147Y-100968300D01*
X130104297Y-101123172D01*
X130137000Y-101287584D01*
X130137000Y-101455216D01*
X130104297Y-101619628D01*
X130040147Y-101774500D01*
X129947015Y-101913881D01*
X129828481Y-102032415D01*
X129689100Y-102125547D01*
X129534228Y-102189697D01*
X129369816Y-102222400D01*
X129202184Y-102222400D01*
X129037772Y-102189697D01*
X128882900Y-102125547D01*
X128743519Y-102032415D01*
X128624985Y-101913881D01*
X128531853Y-101774500D01*
X128467703Y-101619628D01*
X128435000Y-101455216D01*
X128435000Y-101287584D01*
X128467703Y-101123172D01*
X128531853Y-100968300D01*
X128624985Y-100828919D01*
X128743519Y-100710385D01*
X128882900Y-100617253D01*
X129037772Y-100553103D01*
X129202184Y-100520400D01*
X129369816Y-100520400D01*
X129534228Y-100553103D01*
X129534228Y-100553103D01*
G37*
G36*
X110408028Y-99537103D02*
G01*
X110562900Y-99601253D01*
X110702281Y-99694385D01*
X110820815Y-99812919D01*
X110913947Y-99952300D01*
X110978097Y-100107172D01*
X111010800Y-100271584D01*
X111010800Y-100439216D01*
X110978097Y-100603628D01*
X110913947Y-100758500D01*
X110820815Y-100897881D01*
X110702281Y-101016415D01*
X110562900Y-101109547D01*
X110408028Y-101173697D01*
X110243616Y-101206400D01*
X110075984Y-101206400D01*
X109911572Y-101173697D01*
X109756700Y-101109547D01*
X109617319Y-101016415D01*
X109498785Y-100897881D01*
X109405653Y-100758500D01*
X109341503Y-100603628D01*
X109308800Y-100439216D01*
X109308800Y-100271584D01*
X109341503Y-100107172D01*
X109405653Y-99952300D01*
X109498785Y-99812919D01*
X109617319Y-99694385D01*
X109756700Y-99601253D01*
X109911572Y-99537103D01*
X110075984Y-99504400D01*
X110243616Y-99504400D01*
X110408028Y-99537103D01*
X110408028Y-99537103D01*
G37*
G36*
X100166623Y-99516713D02*
G01*
X100327042Y-99565376D01*
X100394161Y-99601252D01*
X100474878Y-99644396D01*
X100604459Y-99750741D01*
X100710804Y-99880322D01*
X100710805Y-99880324D01*
X100789824Y-100028158D01*
X100838487Y-100188577D01*
X100854917Y-100355400D01*
X100838487Y-100522223D01*
X100789824Y-100682642D01*
X100749277Y-100758500D01*
X100710804Y-100830478D01*
X100604459Y-100960059D01*
X100474878Y-101066404D01*
X100474876Y-101066405D01*
X100327042Y-101145424D01*
X100166623Y-101194087D01*
X100041604Y-101206400D01*
X99957996Y-101206400D01*
X99832977Y-101194087D01*
X99672558Y-101145424D01*
X99524724Y-101066405D01*
X99524722Y-101066404D01*
X99395141Y-100960059D01*
X99288796Y-100830478D01*
X99250323Y-100758500D01*
X99209776Y-100682642D01*
X99161113Y-100522223D01*
X99144683Y-100355400D01*
X99161113Y-100188577D01*
X99209776Y-100028158D01*
X99288795Y-99880324D01*
X99288796Y-99880322D01*
X99395141Y-99750741D01*
X99524722Y-99644396D01*
X99605439Y-99601252D01*
X99672558Y-99565376D01*
X99832977Y-99516713D01*
X99957996Y-99504400D01*
X100041604Y-99504400D01*
X100166623Y-99516713D01*
X100166623Y-99516713D01*
G37*
G36*
X94877542Y-99573642D02*
G01*
X95025501Y-99634929D01*
X95158655Y-99723899D01*
X95271901Y-99837145D01*
X95360871Y-99970299D01*
X95422158Y-100118258D01*
X95453400Y-100275325D01*
X95453400Y-100435475D01*
X95422158Y-100592542D01*
X95360871Y-100740501D01*
X95271901Y-100873655D01*
X95158655Y-100986901D01*
X95025501Y-101075871D01*
X94877542Y-101137158D01*
X94720475Y-101168400D01*
X94560325Y-101168400D01*
X94403258Y-101137158D01*
X94255299Y-101075871D01*
X94122145Y-100986901D01*
X94008899Y-100873655D01*
X93919929Y-100740501D01*
X93858642Y-100592542D01*
X93827400Y-100435475D01*
X93827400Y-100275325D01*
X93858642Y-100118258D01*
X93919929Y-99970299D01*
X94008899Y-99837145D01*
X94122145Y-99723899D01*
X94255299Y-99634929D01*
X94403258Y-99573642D01*
X94560325Y-99542400D01*
X94720475Y-99542400D01*
X94877542Y-99573642D01*
X94877542Y-99573642D01*
G37*
G36*
X92337542Y-99573642D02*
G01*
X92485501Y-99634929D01*
X92618655Y-99723899D01*
X92731901Y-99837145D01*
X92820871Y-99970299D01*
X92882158Y-100118258D01*
X92913400Y-100275325D01*
X92913400Y-100435475D01*
X92882158Y-100592542D01*
X92820871Y-100740501D01*
X92731901Y-100873655D01*
X92618655Y-100986901D01*
X92485501Y-101075871D01*
X92337542Y-101137158D01*
X92180475Y-101168400D01*
X92020325Y-101168400D01*
X91863258Y-101137158D01*
X91715299Y-101075871D01*
X91582145Y-100986901D01*
X91468899Y-100873655D01*
X91379929Y-100740501D01*
X91318642Y-100592542D01*
X91287400Y-100435475D01*
X91287400Y-100275325D01*
X91318642Y-100118258D01*
X91379929Y-99970299D01*
X91468899Y-99837145D01*
X91582145Y-99723899D01*
X91715299Y-99634929D01*
X91863258Y-99573642D01*
X92020325Y-99542400D01*
X92180475Y-99542400D01*
X92337542Y-99573642D01*
X92337542Y-99573642D01*
G37*
G36*
X89797542Y-99573642D02*
G01*
X89945501Y-99634929D01*
X90078655Y-99723899D01*
X90191901Y-99837145D01*
X90280871Y-99970299D01*
X90342158Y-100118258D01*
X90373400Y-100275325D01*
X90373400Y-100435475D01*
X90342158Y-100592542D01*
X90280871Y-100740501D01*
X90191901Y-100873655D01*
X90078655Y-100986901D01*
X89945501Y-101075871D01*
X89797542Y-101137158D01*
X89640475Y-101168400D01*
X89480325Y-101168400D01*
X89323258Y-101137158D01*
X89175299Y-101075871D01*
X89042145Y-100986901D01*
X88928899Y-100873655D01*
X88839929Y-100740501D01*
X88778642Y-100592542D01*
X88747400Y-100435475D01*
X88747400Y-100275325D01*
X88778642Y-100118258D01*
X88839929Y-99970299D01*
X88928899Y-99837145D01*
X89042145Y-99723899D01*
X89175299Y-99634929D01*
X89323258Y-99573642D01*
X89480325Y-99542400D01*
X89640475Y-99542400D01*
X89797542Y-99573642D01*
X89797542Y-99573642D01*
G37*
G36*
X129534228Y-98553103D02*
G01*
X129689100Y-98617253D01*
X129828481Y-98710385D01*
X129947015Y-98828919D01*
X130040147Y-98968300D01*
X130104297Y-99123172D01*
X130137000Y-99287584D01*
X130137000Y-99455216D01*
X130104297Y-99619628D01*
X130040147Y-99774500D01*
X129947015Y-99913881D01*
X129828481Y-100032415D01*
X129689100Y-100125547D01*
X129534228Y-100189697D01*
X129369816Y-100222400D01*
X129202184Y-100222400D01*
X129037772Y-100189697D01*
X128882900Y-100125547D01*
X128743519Y-100032415D01*
X128624985Y-99913881D01*
X128531853Y-99774500D01*
X128467703Y-99619628D01*
X128435000Y-99455216D01*
X128435000Y-99287584D01*
X128467703Y-99123172D01*
X128531853Y-98968300D01*
X128624985Y-98828919D01*
X128743519Y-98710385D01*
X128882900Y-98617253D01*
X129037772Y-98553103D01*
X129202184Y-98520400D01*
X129369816Y-98520400D01*
X129534228Y-98553103D01*
X129534228Y-98553103D01*
G37*
G36*
X120003654Y-95631618D02*
G01*
X120376911Y-95786226D01*
X120376913Y-95786227D01*
X120712836Y-96010684D01*
X120998516Y-96296364D01*
X121222974Y-96632289D01*
X121377582Y-97005546D01*
X121456400Y-97401793D01*
X121456400Y-97805807D01*
X121377582Y-98202054D01*
X121245719Y-98520400D01*
X121222973Y-98575313D01*
X120998516Y-98911236D01*
X120712836Y-99196916D01*
X120376913Y-99421373D01*
X120376912Y-99421374D01*
X120376911Y-99421374D01*
X120003654Y-99575982D01*
X119607407Y-99654800D01*
X119203393Y-99654800D01*
X118807146Y-99575982D01*
X118433889Y-99421374D01*
X118433888Y-99421374D01*
X118433887Y-99421373D01*
X118097964Y-99196916D01*
X117812284Y-98911236D01*
X117587827Y-98575313D01*
X117565081Y-98520400D01*
X117433218Y-98202054D01*
X117354400Y-97805807D01*
X117354400Y-97401793D01*
X117433218Y-97005546D01*
X117587826Y-96632289D01*
X117812284Y-96296364D01*
X118097964Y-96010684D01*
X118433887Y-95786227D01*
X118433889Y-95786226D01*
X118807146Y-95631618D01*
X119203393Y-95552800D01*
X119607407Y-95552800D01*
X120003654Y-95631618D01*
X120003654Y-95631618D01*
G37*
M02*
