M48
; DRILL file {KiCad (5.1.0)-1} date 5/30/2019 3:11:46 PM
; FORMAT={-:-/ absolute / inch / decimal}
; #@! TF.CreationDate,2019-05-30T15:11:46+01:00
; #@! TF.GenerationSoftware,Kicad,Pcbnew,(5.1.0)-1
; #@! TF.FileFunction,Plated,1,2,PTH
FMAT,2
INCH
T1C0.0079
T2C0.0300
T3C0.0315
T4C0.0394
T5C0.0866
T6C0.1260
%
G90
G05
T1
X4.6956Y-5.2075
X4.6956Y-5.4831
X4.8925Y-5.2075
X4.8925Y-5.4831
X4.3656Y-5.21
X4.3656Y-5.4856
X4.5625Y-5.21
X4.5625Y-5.4856
T2
X3.6638Y-3.1375
X3.6638Y-3.2375
X3.6638Y-3.3375
X3.6638Y-3.4375
X5.2988Y-4.3075
X5.2988Y-4.4075
X5.2988Y-4.5075
X5.2988Y-4.6075
X3.2006Y-5.2901
X3.2006Y-6.2349
X5.3113Y-3.1425
X5.3113Y-3.2425
X5.3113Y-3.3425
X5.3113Y-3.4425
X3.6088Y-4.325
X3.6088Y-4.425
X3.6088Y-4.525
X3.6088Y-4.625
X5.6194Y-5.4575
X5.6194Y-5.5575
X5.6194Y-5.6575
X5.6194Y-5.7575
X5.6194Y-5.8575
X2.6775Y-6.2425
X2.7775Y-6.1425
X2.8775Y-6.2425
X1.9888Y-3.135
X1.9888Y-3.235
X1.9888Y-3.335
X1.9888Y-3.435
T3
X3.835Y-5.6625
X4.235Y-5.6625
X3.835Y-5.8575
X4.235Y-5.8575
T4
X2.1375Y-4.675
X2.1375Y-4.7841
X2.1375Y-4.8931
X2.1375Y-5.0022
X2.1375Y-5.1112
X2.1375Y-5.2203
X2.1375Y-5.3293
X2.1375Y-5.4384
X2.1375Y-5.5474
X2.1375Y-5.6565
X2.1375Y-5.7656
X2.1375Y-5.8746
X2.1375Y-5.9837
X2.2493Y-4.7295
X2.2493Y-4.8386
X2.2493Y-4.9476
X2.2493Y-5.0567
X2.2493Y-5.1657
X2.2493Y-5.2748
X2.2493Y-5.3839
X2.2493Y-5.4929
X2.2493Y-5.602
X2.2493Y-5.711
X2.2493Y-5.8201
X2.2493Y-5.9291
T5
X1.9775Y-2.875
X1.9775Y-3.695
X3.4175Y-2.875
X3.4175Y-3.695
X3.6525Y-2.8775
X3.6525Y-3.6975
X5.0925Y-2.8775
X5.0925Y-3.6975
X5.2875Y-4.0475
X5.2875Y-4.8675
X6.7275Y-4.0475
X6.7275Y-4.8675
X5.3Y-2.8825
X5.3Y-3.7025
X6.74Y-2.8825
X6.74Y-3.7025
X3.5975Y-4.065
X3.5975Y-4.885
X5.0375Y-4.065
X5.0375Y-4.885
X5.6425Y-5.2575
X6.4425Y-5.2575
T6
X2.1934Y-4.4022
X2.1934Y-6.2565
T0
M30
