G04 #@! TF.GenerationSoftware,KiCad,Pcbnew,(5.1.0)-1*
G04 #@! TF.CreationDate,2019-05-30T15:11:43+01:00*
G04 #@! TF.ProjectId,Eco-PCB-2,45636f2d-5043-4422-9d32-2e6b69636164,rev?*
G04 #@! TF.SameCoordinates,Original*
G04 #@! TF.FileFunction,Soldermask,Bot*
G04 #@! TF.FilePolarity,Negative*
%FSLAX46Y46*%
G04 Gerber Fmt 4.6, Leading zero omitted, Abs format (unit mm)*
G04 Created by KiCad (PCBNEW (5.1.0)-1) date 2019-05-30 15:11:43*
%MOMM*%
%LPD*%
G04 APERTURE LIST*
%ADD10C,0.100000*%
G04 APERTURE END LIST*
D10*
G36*
X56310754Y-156942818D02*
G01*
X56684011Y-157097426D01*
X56684013Y-157097427D01*
X57019936Y-157321884D01*
X57305616Y-157607564D01*
X57519726Y-157928001D01*
X57530074Y-157943489D01*
X57684682Y-158316746D01*
X57763500Y-158712993D01*
X57763500Y-159117007D01*
X57684682Y-159513254D01*
X57530074Y-159886511D01*
X57530073Y-159886513D01*
X57305616Y-160222436D01*
X57019936Y-160508116D01*
X56684013Y-160732573D01*
X56684012Y-160732574D01*
X56684011Y-160732574D01*
X56310754Y-160887182D01*
X55914507Y-160966000D01*
X55510493Y-160966000D01*
X55114246Y-160887182D01*
X54740989Y-160732574D01*
X54740988Y-160732574D01*
X54740987Y-160732573D01*
X54405064Y-160508116D01*
X54119384Y-160222436D01*
X53894927Y-159886513D01*
X53894926Y-159886511D01*
X53740318Y-159513254D01*
X53661500Y-159117007D01*
X53661500Y-158712993D01*
X53740318Y-158316746D01*
X53894926Y-157943489D01*
X53905275Y-157928001D01*
X54119384Y-157607564D01*
X54405064Y-157321884D01*
X54740987Y-157097427D01*
X54740989Y-157097426D01*
X55114246Y-156942818D01*
X55510493Y-156864000D01*
X55914507Y-156864000D01*
X56310754Y-156942818D01*
X56310754Y-156942818D01*
G37*
G36*
X73325642Y-157777742D02*
G01*
X73473601Y-157839029D01*
X73606755Y-157927999D01*
X73720001Y-158041245D01*
X73808971Y-158174399D01*
X73870258Y-158322358D01*
X73901500Y-158479425D01*
X73901500Y-158639575D01*
X73870258Y-158796642D01*
X73808971Y-158944601D01*
X73720001Y-159077755D01*
X73606755Y-159191001D01*
X73473601Y-159279971D01*
X73325642Y-159341258D01*
X73168575Y-159372500D01*
X73008425Y-159372500D01*
X72851358Y-159341258D01*
X72703399Y-159279971D01*
X72570245Y-159191001D01*
X72456999Y-159077755D01*
X72368029Y-158944601D01*
X72306742Y-158796642D01*
X72275500Y-158639575D01*
X72275500Y-158479425D01*
X72306742Y-158322358D01*
X72368029Y-158174399D01*
X72456999Y-158041245D01*
X72570245Y-157927999D01*
X72703399Y-157839029D01*
X72851358Y-157777742D01*
X73008425Y-157746500D01*
X73168575Y-157746500D01*
X73325642Y-157777742D01*
X73325642Y-157777742D01*
G37*
G36*
X68245642Y-157777742D02*
G01*
X68393601Y-157839029D01*
X68526755Y-157927999D01*
X68640001Y-158041245D01*
X68728971Y-158174399D01*
X68790258Y-158322358D01*
X68821500Y-158479425D01*
X68821500Y-158639575D01*
X68790258Y-158796642D01*
X68728971Y-158944601D01*
X68640001Y-159077755D01*
X68526755Y-159191001D01*
X68393601Y-159279971D01*
X68245642Y-159341258D01*
X68088575Y-159372500D01*
X67928425Y-159372500D01*
X67771358Y-159341258D01*
X67623399Y-159279971D01*
X67490245Y-159191001D01*
X67376999Y-159077755D01*
X67288029Y-158944601D01*
X67226742Y-158796642D01*
X67195500Y-158639575D01*
X67195500Y-158479425D01*
X67226742Y-158322358D01*
X67288029Y-158174399D01*
X67376999Y-158041245D01*
X67490245Y-157927999D01*
X67623399Y-157839029D01*
X67771358Y-157777742D01*
X67928425Y-157746500D01*
X68088575Y-157746500D01*
X68245642Y-157777742D01*
X68245642Y-157777742D01*
G37*
G36*
X81533642Y-157585742D02*
G01*
X81681601Y-157647029D01*
X81814755Y-157735999D01*
X81928001Y-157849245D01*
X82016971Y-157982399D01*
X82078258Y-158130358D01*
X82109500Y-158287425D01*
X82109500Y-158447575D01*
X82078258Y-158604642D01*
X82016971Y-158752601D01*
X81928001Y-158885755D01*
X81814755Y-158999001D01*
X81681601Y-159087971D01*
X81533642Y-159149258D01*
X81376575Y-159180500D01*
X81216425Y-159180500D01*
X81059358Y-159149258D01*
X80911399Y-159087971D01*
X80778245Y-158999001D01*
X80664999Y-158885755D01*
X80576029Y-158752601D01*
X80514742Y-158604642D01*
X80483500Y-158447575D01*
X80483500Y-158287425D01*
X80514742Y-158130358D01*
X80576029Y-157982399D01*
X80664999Y-157849245D01*
X80778245Y-157735999D01*
X80911399Y-157647029D01*
X81059358Y-157585742D01*
X81216425Y-157554500D01*
X81376575Y-157554500D01*
X81533642Y-157585742D01*
X81533642Y-157585742D01*
G37*
G36*
X70785642Y-155237742D02*
G01*
X70933601Y-155299029D01*
X71066755Y-155387999D01*
X71180001Y-155501245D01*
X71268971Y-155634399D01*
X71330258Y-155782358D01*
X71361500Y-155939425D01*
X71361500Y-156099575D01*
X71330258Y-156256642D01*
X71268971Y-156404601D01*
X71180001Y-156537755D01*
X71066755Y-156651001D01*
X70933601Y-156739971D01*
X70785642Y-156801258D01*
X70628575Y-156832500D01*
X70468425Y-156832500D01*
X70311358Y-156801258D01*
X70163399Y-156739971D01*
X70030245Y-156651001D01*
X69916999Y-156537755D01*
X69828029Y-156404601D01*
X69766742Y-156256642D01*
X69735500Y-156099575D01*
X69735500Y-155939425D01*
X69766742Y-155782358D01*
X69828029Y-155634399D01*
X69916999Y-155501245D01*
X70030245Y-155387999D01*
X70163399Y-155299029D01*
X70311358Y-155237742D01*
X70468425Y-155206500D01*
X70628575Y-155206500D01*
X70785642Y-155237742D01*
X70785642Y-155237742D01*
G37*
G36*
X54540728Y-151166703D02*
G01*
X54695600Y-151230853D01*
X54834981Y-151323985D01*
X54953515Y-151442519D01*
X55046647Y-151581900D01*
X55110797Y-151736772D01*
X55143500Y-151901184D01*
X55143500Y-152068816D01*
X55110797Y-152233228D01*
X55046647Y-152388100D01*
X54953515Y-152527481D01*
X54834981Y-152646015D01*
X54695600Y-152739147D01*
X54540728Y-152803297D01*
X54376316Y-152836000D01*
X54208684Y-152836000D01*
X54044272Y-152803297D01*
X53889400Y-152739147D01*
X53750019Y-152646015D01*
X53631485Y-152527481D01*
X53538353Y-152388100D01*
X53474203Y-152233228D01*
X53441500Y-152068816D01*
X53441500Y-151901184D01*
X53474203Y-151736772D01*
X53538353Y-151581900D01*
X53631485Y-151442519D01*
X53750019Y-151323985D01*
X53889400Y-151230853D01*
X54044272Y-151166703D01*
X54208684Y-151134000D01*
X54376316Y-151134000D01*
X54540728Y-151166703D01*
X54540728Y-151166703D01*
G37*
G36*
X57380728Y-149781703D02*
G01*
X57535600Y-149845853D01*
X57674981Y-149938985D01*
X57793515Y-150057519D01*
X57886647Y-150196900D01*
X57950797Y-150351772D01*
X57983500Y-150516184D01*
X57983500Y-150683816D01*
X57950797Y-150848228D01*
X57886647Y-151003100D01*
X57793515Y-151142481D01*
X57674981Y-151261015D01*
X57535600Y-151354147D01*
X57380728Y-151418297D01*
X57216316Y-151451000D01*
X57048684Y-151451000D01*
X56884272Y-151418297D01*
X56729400Y-151354147D01*
X56590019Y-151261015D01*
X56471485Y-151142481D01*
X56378353Y-151003100D01*
X56314203Y-150848228D01*
X56281500Y-150683816D01*
X56281500Y-150516184D01*
X56314203Y-150351772D01*
X56378353Y-150196900D01*
X56471485Y-150057519D01*
X56590019Y-149938985D01*
X56729400Y-149845853D01*
X56884272Y-149781703D01*
X57048684Y-149749000D01*
X57216316Y-149749000D01*
X57380728Y-149781703D01*
X57380728Y-149781703D01*
G37*
G36*
X54540728Y-148396703D02*
G01*
X54695600Y-148460853D01*
X54834981Y-148553985D01*
X54953515Y-148672519D01*
X55046647Y-148811900D01*
X55110797Y-148966772D01*
X55143500Y-149131184D01*
X55143500Y-149298816D01*
X55110797Y-149463228D01*
X55046647Y-149618100D01*
X54953515Y-149757481D01*
X54834981Y-149876015D01*
X54695600Y-149969147D01*
X54540728Y-150033297D01*
X54376316Y-150066000D01*
X54208684Y-150066000D01*
X54044272Y-150033297D01*
X53889400Y-149969147D01*
X53750019Y-149876015D01*
X53631485Y-149757481D01*
X53538353Y-149618100D01*
X53474203Y-149463228D01*
X53441500Y-149298816D01*
X53441500Y-149131184D01*
X53474203Y-148966772D01*
X53538353Y-148811900D01*
X53631485Y-148672519D01*
X53750019Y-148553985D01*
X53889400Y-148460853D01*
X54044272Y-148396703D01*
X54208684Y-148364000D01*
X54376316Y-148364000D01*
X54540728Y-148396703D01*
X54540728Y-148396703D01*
G37*
G36*
X107817228Y-147962203D02*
G01*
X107972100Y-148026353D01*
X108111481Y-148119485D01*
X108230015Y-148238019D01*
X108323147Y-148377400D01*
X108387297Y-148532272D01*
X108420000Y-148696684D01*
X108420000Y-148864316D01*
X108387297Y-149028728D01*
X108323147Y-149183600D01*
X108230015Y-149322981D01*
X108111481Y-149441515D01*
X107972100Y-149534647D01*
X107817228Y-149598797D01*
X107652816Y-149631500D01*
X107485184Y-149631500D01*
X107320772Y-149598797D01*
X107165900Y-149534647D01*
X107026519Y-149441515D01*
X106907985Y-149322981D01*
X106814853Y-149183600D01*
X106750703Y-149028728D01*
X106718000Y-148864316D01*
X106718000Y-148696684D01*
X106750703Y-148532272D01*
X106814853Y-148377400D01*
X106907985Y-148238019D01*
X107026519Y-148119485D01*
X107165900Y-148026353D01*
X107320772Y-147962203D01*
X107485184Y-147929500D01*
X107652816Y-147929500D01*
X107817228Y-147962203D01*
X107817228Y-147962203D01*
G37*
G36*
X97575823Y-147941813D02*
G01*
X97736242Y-147990476D01*
X97803361Y-148026352D01*
X97884078Y-148069496D01*
X98013659Y-148175841D01*
X98120004Y-148305422D01*
X98120005Y-148305424D01*
X98199024Y-148453258D01*
X98247687Y-148613677D01*
X98264117Y-148780500D01*
X98247687Y-148947323D01*
X98199024Y-149107742D01*
X98158477Y-149183600D01*
X98120004Y-149255578D01*
X98013659Y-149385159D01*
X97884078Y-149491504D01*
X97884076Y-149491505D01*
X97736242Y-149570524D01*
X97575823Y-149619187D01*
X97450804Y-149631500D01*
X97367196Y-149631500D01*
X97242177Y-149619187D01*
X97081758Y-149570524D01*
X96933924Y-149491505D01*
X96933922Y-149491504D01*
X96804341Y-149385159D01*
X96697996Y-149255578D01*
X96659523Y-149183600D01*
X96618976Y-149107742D01*
X96570313Y-148947323D01*
X96553883Y-148780500D01*
X96570313Y-148613677D01*
X96618976Y-148453258D01*
X96697995Y-148305424D01*
X96697996Y-148305422D01*
X96804341Y-148175841D01*
X96933922Y-148069496D01*
X97014639Y-148026352D01*
X97081758Y-147990476D01*
X97242177Y-147941813D01*
X97367196Y-147929500D01*
X97450804Y-147929500D01*
X97575823Y-147941813D01*
X97575823Y-147941813D01*
G37*
G36*
X142970642Y-147998742D02*
G01*
X143118601Y-148060029D01*
X143251755Y-148148999D01*
X143365001Y-148262245D01*
X143453971Y-148395399D01*
X143515258Y-148543358D01*
X143546500Y-148700425D01*
X143546500Y-148860575D01*
X143515258Y-149017642D01*
X143453971Y-149165601D01*
X143365001Y-149298755D01*
X143251755Y-149412001D01*
X143118601Y-149500971D01*
X142970642Y-149562258D01*
X142813575Y-149593500D01*
X142653425Y-149593500D01*
X142496358Y-149562258D01*
X142348399Y-149500971D01*
X142215245Y-149412001D01*
X142101999Y-149298755D01*
X142013029Y-149165601D01*
X141951742Y-149017642D01*
X141920500Y-148860575D01*
X141920500Y-148700425D01*
X141951742Y-148543358D01*
X142013029Y-148395399D01*
X142101999Y-148262245D01*
X142215245Y-148148999D01*
X142348399Y-148060029D01*
X142496358Y-147998742D01*
X142653425Y-147967500D01*
X142813575Y-147967500D01*
X142970642Y-147998742D01*
X142970642Y-147998742D01*
G37*
G36*
X57380728Y-147011703D02*
G01*
X57535600Y-147075853D01*
X57674981Y-147168985D01*
X57793515Y-147287519D01*
X57886647Y-147426900D01*
X57950797Y-147581772D01*
X57983500Y-147746184D01*
X57983500Y-147913816D01*
X57950797Y-148078228D01*
X57886647Y-148233100D01*
X57793515Y-148372481D01*
X57674981Y-148491015D01*
X57535600Y-148584147D01*
X57380728Y-148648297D01*
X57216316Y-148681000D01*
X57048684Y-148681000D01*
X56884272Y-148648297D01*
X56729400Y-148584147D01*
X56590019Y-148491015D01*
X56471485Y-148372481D01*
X56378353Y-148233100D01*
X56314203Y-148078228D01*
X56281500Y-147913816D01*
X56281500Y-147746184D01*
X56314203Y-147581772D01*
X56378353Y-147426900D01*
X56471485Y-147287519D01*
X56590019Y-147168985D01*
X56729400Y-147075853D01*
X56884272Y-147011703D01*
X57048684Y-146979000D01*
X57216316Y-146979000D01*
X57380728Y-147011703D01*
X57380728Y-147011703D01*
G37*
G36*
X54540728Y-145626703D02*
G01*
X54695600Y-145690853D01*
X54834981Y-145783985D01*
X54953515Y-145902519D01*
X55046647Y-146041900D01*
X55110797Y-146196772D01*
X55143500Y-146361184D01*
X55143500Y-146528816D01*
X55110797Y-146693228D01*
X55046647Y-146848100D01*
X54953515Y-146987481D01*
X54834981Y-147106015D01*
X54695600Y-147199147D01*
X54540728Y-147263297D01*
X54376316Y-147296000D01*
X54208684Y-147296000D01*
X54044272Y-147263297D01*
X53889400Y-147199147D01*
X53750019Y-147106015D01*
X53631485Y-146987481D01*
X53538353Y-146848100D01*
X53474203Y-146693228D01*
X53441500Y-146528816D01*
X53441500Y-146361184D01*
X53474203Y-146196772D01*
X53538353Y-146041900D01*
X53631485Y-145902519D01*
X53750019Y-145783985D01*
X53889400Y-145690853D01*
X54044272Y-145626703D01*
X54208684Y-145594000D01*
X54376316Y-145594000D01*
X54540728Y-145626703D01*
X54540728Y-145626703D01*
G37*
G36*
X142970642Y-145458742D02*
G01*
X143118601Y-145520029D01*
X143251755Y-145608999D01*
X143365001Y-145722245D01*
X143453971Y-145855399D01*
X143515258Y-146003358D01*
X143546500Y-146160425D01*
X143546500Y-146320575D01*
X143515258Y-146477642D01*
X143453971Y-146625601D01*
X143365001Y-146758755D01*
X143251755Y-146872001D01*
X143118601Y-146960971D01*
X142970642Y-147022258D01*
X142813575Y-147053500D01*
X142653425Y-147053500D01*
X142496358Y-147022258D01*
X142348399Y-146960971D01*
X142215245Y-146872001D01*
X142101999Y-146758755D01*
X142013029Y-146625601D01*
X141951742Y-146477642D01*
X141920500Y-146320575D01*
X141920500Y-146160425D01*
X141951742Y-146003358D01*
X142013029Y-145855399D01*
X142101999Y-145722245D01*
X142215245Y-145608999D01*
X142348399Y-145520029D01*
X142496358Y-145458742D01*
X142653425Y-145427500D01*
X142813575Y-145427500D01*
X142970642Y-145458742D01*
X142970642Y-145458742D01*
G37*
G36*
X57380728Y-144241703D02*
G01*
X57535600Y-144305853D01*
X57674981Y-144398985D01*
X57793515Y-144517519D01*
X57886647Y-144656900D01*
X57950797Y-144811772D01*
X57983500Y-144976184D01*
X57983500Y-145143816D01*
X57950797Y-145308228D01*
X57886647Y-145463100D01*
X57793515Y-145602481D01*
X57674981Y-145721015D01*
X57535600Y-145814147D01*
X57380728Y-145878297D01*
X57216316Y-145911000D01*
X57048684Y-145911000D01*
X56884272Y-145878297D01*
X56729400Y-145814147D01*
X56590019Y-145721015D01*
X56471485Y-145602481D01*
X56378353Y-145463100D01*
X56314203Y-145308228D01*
X56281500Y-145143816D01*
X56281500Y-144976184D01*
X56314203Y-144811772D01*
X56378353Y-144656900D01*
X56471485Y-144517519D01*
X56590019Y-144398985D01*
X56729400Y-144305853D01*
X56884272Y-144241703D01*
X57048684Y-144209000D01*
X57216316Y-144209000D01*
X57380728Y-144241703D01*
X57380728Y-144241703D01*
G37*
G36*
X97575823Y-142988813D02*
G01*
X97736242Y-143037476D01*
X97803361Y-143073352D01*
X97884078Y-143116496D01*
X98013659Y-143222841D01*
X98120004Y-143352422D01*
X98120005Y-143352424D01*
X98199024Y-143500258D01*
X98247687Y-143660677D01*
X98264117Y-143827500D01*
X98247687Y-143994323D01*
X98199024Y-144154742D01*
X98158477Y-144230600D01*
X98120004Y-144302578D01*
X98013659Y-144432159D01*
X97884078Y-144538504D01*
X97884076Y-144538505D01*
X97736242Y-144617524D01*
X97575823Y-144666187D01*
X97450804Y-144678500D01*
X97367196Y-144678500D01*
X97242177Y-144666187D01*
X97081758Y-144617524D01*
X96933924Y-144538505D01*
X96933922Y-144538504D01*
X96804341Y-144432159D01*
X96697996Y-144302578D01*
X96659523Y-144230600D01*
X96618976Y-144154742D01*
X96570313Y-143994323D01*
X96553883Y-143827500D01*
X96570313Y-143660677D01*
X96618976Y-143500258D01*
X96697995Y-143352424D01*
X96697996Y-143352422D01*
X96804341Y-143222841D01*
X96933922Y-143116496D01*
X97014639Y-143073352D01*
X97081758Y-143037476D01*
X97242177Y-142988813D01*
X97367196Y-142976500D01*
X97450804Y-142976500D01*
X97575823Y-142988813D01*
X97575823Y-142988813D01*
G37*
G36*
X107817228Y-143009203D02*
G01*
X107972100Y-143073353D01*
X108111481Y-143166485D01*
X108230015Y-143285019D01*
X108323147Y-143424400D01*
X108387297Y-143579272D01*
X108420000Y-143743684D01*
X108420000Y-143911316D01*
X108387297Y-144075728D01*
X108323147Y-144230600D01*
X108230015Y-144369981D01*
X108111481Y-144488515D01*
X107972100Y-144581647D01*
X107817228Y-144645797D01*
X107652816Y-144678500D01*
X107485184Y-144678500D01*
X107320772Y-144645797D01*
X107165900Y-144581647D01*
X107026519Y-144488515D01*
X106907985Y-144369981D01*
X106814853Y-144230600D01*
X106750703Y-144075728D01*
X106718000Y-143911316D01*
X106718000Y-143743684D01*
X106750703Y-143579272D01*
X106814853Y-143424400D01*
X106907985Y-143285019D01*
X107026519Y-143166485D01*
X107165900Y-143073353D01*
X107320772Y-143009203D01*
X107485184Y-142976500D01*
X107652816Y-142976500D01*
X107817228Y-143009203D01*
X107817228Y-143009203D01*
G37*
G36*
X54540728Y-142856703D02*
G01*
X54695600Y-142920853D01*
X54834981Y-143013985D01*
X54953515Y-143132519D01*
X55046647Y-143271900D01*
X55110797Y-143426772D01*
X55143500Y-143591184D01*
X55143500Y-143758816D01*
X55110797Y-143923228D01*
X55046647Y-144078100D01*
X54953515Y-144217481D01*
X54834981Y-144336015D01*
X54695600Y-144429147D01*
X54540728Y-144493297D01*
X54376316Y-144526000D01*
X54208684Y-144526000D01*
X54044272Y-144493297D01*
X53889400Y-144429147D01*
X53750019Y-144336015D01*
X53631485Y-144217481D01*
X53538353Y-144078100D01*
X53474203Y-143923228D01*
X53441500Y-143758816D01*
X53441500Y-143591184D01*
X53474203Y-143426772D01*
X53538353Y-143271900D01*
X53631485Y-143132519D01*
X53750019Y-143013985D01*
X53889400Y-142920853D01*
X54044272Y-142856703D01*
X54208684Y-142824000D01*
X54376316Y-142824000D01*
X54540728Y-142856703D01*
X54540728Y-142856703D01*
G37*
G36*
X142970642Y-142918742D02*
G01*
X143118601Y-142980029D01*
X143251755Y-143068999D01*
X143365001Y-143182245D01*
X143453971Y-143315399D01*
X143515258Y-143463358D01*
X143546500Y-143620425D01*
X143546500Y-143780575D01*
X143515258Y-143937642D01*
X143453971Y-144085601D01*
X143365001Y-144218755D01*
X143251755Y-144332001D01*
X143118601Y-144420971D01*
X142970642Y-144482258D01*
X142813575Y-144513500D01*
X142653425Y-144513500D01*
X142496358Y-144482258D01*
X142348399Y-144420971D01*
X142215245Y-144332001D01*
X142101999Y-144218755D01*
X142013029Y-144085601D01*
X141951742Y-143937642D01*
X141920500Y-143780575D01*
X141920500Y-143620425D01*
X141951742Y-143463358D01*
X142013029Y-143315399D01*
X142101999Y-143182245D01*
X142215245Y-143068999D01*
X142348399Y-142980029D01*
X142496358Y-142918742D01*
X142653425Y-142887500D01*
X142813575Y-142887500D01*
X142970642Y-142918742D01*
X142970642Y-142918742D01*
G37*
G36*
X57380728Y-141471703D02*
G01*
X57535600Y-141535853D01*
X57674981Y-141628985D01*
X57793515Y-141747519D01*
X57886647Y-141886900D01*
X57950797Y-142041772D01*
X57983500Y-142206184D01*
X57983500Y-142373816D01*
X57950797Y-142538228D01*
X57886647Y-142693100D01*
X57793515Y-142832481D01*
X57674981Y-142951015D01*
X57535600Y-143044147D01*
X57380728Y-143108297D01*
X57216316Y-143141000D01*
X57048684Y-143141000D01*
X56884272Y-143108297D01*
X56729400Y-143044147D01*
X56590019Y-142951015D01*
X56471485Y-142832481D01*
X56378353Y-142693100D01*
X56314203Y-142538228D01*
X56281500Y-142373816D01*
X56281500Y-142206184D01*
X56314203Y-142041772D01*
X56378353Y-141886900D01*
X56471485Y-141747519D01*
X56590019Y-141628985D01*
X56729400Y-141535853D01*
X56884272Y-141471703D01*
X57048684Y-141439000D01*
X57216316Y-141439000D01*
X57380728Y-141471703D01*
X57380728Y-141471703D01*
G37*
G36*
X142970642Y-140378742D02*
G01*
X143118601Y-140440029D01*
X143251755Y-140528999D01*
X143365001Y-140642245D01*
X143453971Y-140775399D01*
X143515258Y-140923358D01*
X143546500Y-141080425D01*
X143546500Y-141240575D01*
X143515258Y-141397642D01*
X143453971Y-141545601D01*
X143365001Y-141678755D01*
X143251755Y-141792001D01*
X143118601Y-141880971D01*
X142970642Y-141942258D01*
X142813575Y-141973500D01*
X142653425Y-141973500D01*
X142496358Y-141942258D01*
X142348399Y-141880971D01*
X142215245Y-141792001D01*
X142101999Y-141678755D01*
X142013029Y-141545601D01*
X141951742Y-141397642D01*
X141920500Y-141240575D01*
X141920500Y-141080425D01*
X141951742Y-140923358D01*
X142013029Y-140775399D01*
X142101999Y-140642245D01*
X142215245Y-140528999D01*
X142348399Y-140440029D01*
X142496358Y-140378742D01*
X142653425Y-140347500D01*
X142813575Y-140347500D01*
X142970642Y-140378742D01*
X142970642Y-140378742D01*
G37*
G36*
X54540728Y-140086703D02*
G01*
X54695600Y-140150853D01*
X54834981Y-140243985D01*
X54953515Y-140362519D01*
X55046647Y-140501900D01*
X55110797Y-140656772D01*
X55143500Y-140821184D01*
X55143500Y-140988816D01*
X55110797Y-141153228D01*
X55046647Y-141308100D01*
X54953515Y-141447481D01*
X54834981Y-141566015D01*
X54695600Y-141659147D01*
X54540728Y-141723297D01*
X54376316Y-141756000D01*
X54208684Y-141756000D01*
X54044272Y-141723297D01*
X53889400Y-141659147D01*
X53750019Y-141566015D01*
X53631485Y-141447481D01*
X53538353Y-141308100D01*
X53474203Y-141153228D01*
X53441500Y-140988816D01*
X53441500Y-140821184D01*
X53474203Y-140656772D01*
X53538353Y-140501900D01*
X53631485Y-140362519D01*
X53750019Y-140243985D01*
X53889400Y-140150853D01*
X54044272Y-140086703D01*
X54208684Y-140054000D01*
X54376316Y-140054000D01*
X54540728Y-140086703D01*
X54540728Y-140086703D01*
G37*
G36*
X57380728Y-138701703D02*
G01*
X57535600Y-138765853D01*
X57674981Y-138858985D01*
X57793515Y-138977519D01*
X57886647Y-139116900D01*
X57950797Y-139271772D01*
X57983500Y-139436184D01*
X57983500Y-139603816D01*
X57950797Y-139768228D01*
X57886647Y-139923100D01*
X57793515Y-140062481D01*
X57674981Y-140181015D01*
X57535600Y-140274147D01*
X57380728Y-140338297D01*
X57216316Y-140371000D01*
X57048684Y-140371000D01*
X56884272Y-140338297D01*
X56729400Y-140274147D01*
X56590019Y-140181015D01*
X56471485Y-140062481D01*
X56378353Y-139923100D01*
X56314203Y-139768228D01*
X56281500Y-139603816D01*
X56281500Y-139436184D01*
X56314203Y-139271772D01*
X56378353Y-139116900D01*
X56471485Y-138977519D01*
X56590019Y-138858985D01*
X56729400Y-138765853D01*
X56884272Y-138701703D01*
X57048684Y-138669000D01*
X57216316Y-138669000D01*
X57380728Y-138701703D01*
X57380728Y-138701703D01*
G37*
G36*
X110946126Y-139140723D02*
G01*
X110946127Y-139140723D01*
X110946130Y-139140724D01*
X110982709Y-139155876D01*
X111015630Y-139177873D01*
X111043627Y-139205870D01*
X111065624Y-139238791D01*
X111080776Y-139275370D01*
X111088500Y-139314203D01*
X111088500Y-139353797D01*
X111080776Y-139392630D01*
X111065624Y-139429209D01*
X111043627Y-139462130D01*
X111015630Y-139490127D01*
X110982709Y-139512124D01*
X110946130Y-139527276D01*
X110946127Y-139527277D01*
X110946126Y-139527277D01*
X110907298Y-139535000D01*
X110867702Y-139535000D01*
X110828874Y-139527277D01*
X110828873Y-139527277D01*
X110828870Y-139527276D01*
X110792291Y-139512124D01*
X110759370Y-139490127D01*
X110731373Y-139462130D01*
X110709376Y-139429209D01*
X110694224Y-139392630D01*
X110686500Y-139353797D01*
X110686500Y-139314203D01*
X110694224Y-139275370D01*
X110709376Y-139238791D01*
X110731373Y-139205870D01*
X110759370Y-139177873D01*
X110792291Y-139155876D01*
X110828870Y-139140724D01*
X110828873Y-139140723D01*
X110828874Y-139140723D01*
X110867702Y-139133000D01*
X110907298Y-139133000D01*
X110946126Y-139140723D01*
X110946126Y-139140723D01*
G37*
G36*
X115946126Y-139140723D02*
G01*
X115946127Y-139140723D01*
X115946130Y-139140724D01*
X115982709Y-139155876D01*
X116015630Y-139177873D01*
X116043627Y-139205870D01*
X116065624Y-139238791D01*
X116080776Y-139275370D01*
X116088500Y-139314203D01*
X116088500Y-139353797D01*
X116080776Y-139392630D01*
X116065624Y-139429209D01*
X116043627Y-139462130D01*
X116015630Y-139490127D01*
X115982709Y-139512124D01*
X115946130Y-139527276D01*
X115946127Y-139527277D01*
X115946126Y-139527277D01*
X115907298Y-139535000D01*
X115867702Y-139535000D01*
X115828874Y-139527277D01*
X115828873Y-139527277D01*
X115828870Y-139527276D01*
X115792291Y-139512124D01*
X115759370Y-139490127D01*
X115731373Y-139462130D01*
X115709376Y-139429209D01*
X115694224Y-139392630D01*
X115686500Y-139353797D01*
X115686500Y-139314203D01*
X115694224Y-139275370D01*
X115709376Y-139238791D01*
X115731373Y-139205870D01*
X115759370Y-139177873D01*
X115792291Y-139155876D01*
X115828870Y-139140724D01*
X115828873Y-139140723D01*
X115828874Y-139140723D01*
X115867702Y-139133000D01*
X115907298Y-139133000D01*
X115946126Y-139140723D01*
X115946126Y-139140723D01*
G37*
G36*
X119328126Y-139077223D02*
G01*
X119328127Y-139077223D01*
X119328130Y-139077224D01*
X119364709Y-139092376D01*
X119397630Y-139114373D01*
X119425627Y-139142370D01*
X119447624Y-139175291D01*
X119462776Y-139211870D01*
X119470500Y-139250703D01*
X119470500Y-139290297D01*
X119462776Y-139329130D01*
X119447624Y-139365709D01*
X119425627Y-139398630D01*
X119397630Y-139426627D01*
X119364709Y-139448624D01*
X119328130Y-139463776D01*
X119328127Y-139463777D01*
X119328126Y-139463777D01*
X119289298Y-139471500D01*
X119249702Y-139471500D01*
X119210874Y-139463777D01*
X119210873Y-139463777D01*
X119210870Y-139463776D01*
X119174291Y-139448624D01*
X119141370Y-139426627D01*
X119113373Y-139398630D01*
X119091376Y-139365709D01*
X119076224Y-139329130D01*
X119068500Y-139290297D01*
X119068500Y-139250703D01*
X119076224Y-139211870D01*
X119091376Y-139175291D01*
X119113373Y-139142370D01*
X119141370Y-139114373D01*
X119174291Y-139092376D01*
X119210870Y-139077224D01*
X119210873Y-139077223D01*
X119210874Y-139077223D01*
X119249702Y-139069500D01*
X119289298Y-139069500D01*
X119328126Y-139077223D01*
X119328126Y-139077223D01*
G37*
G36*
X124328126Y-139077223D02*
G01*
X124328127Y-139077223D01*
X124328130Y-139077224D01*
X124364709Y-139092376D01*
X124397630Y-139114373D01*
X124425627Y-139142370D01*
X124447624Y-139175291D01*
X124462776Y-139211870D01*
X124470500Y-139250703D01*
X124470500Y-139290297D01*
X124462776Y-139329130D01*
X124447624Y-139365709D01*
X124425627Y-139398630D01*
X124397630Y-139426627D01*
X124364709Y-139448624D01*
X124328130Y-139463776D01*
X124328127Y-139463777D01*
X124328126Y-139463777D01*
X124289298Y-139471500D01*
X124249702Y-139471500D01*
X124210874Y-139463777D01*
X124210873Y-139463777D01*
X124210870Y-139463776D01*
X124174291Y-139448624D01*
X124141370Y-139426627D01*
X124113373Y-139398630D01*
X124091376Y-139365709D01*
X124076224Y-139329130D01*
X124068500Y-139290297D01*
X124068500Y-139250703D01*
X124076224Y-139211870D01*
X124091376Y-139175291D01*
X124113373Y-139142370D01*
X124141370Y-139114373D01*
X124174291Y-139092376D01*
X124210870Y-139077224D01*
X124210873Y-139077223D01*
X124210874Y-139077223D01*
X124249702Y-139069500D01*
X124289298Y-139069500D01*
X124328126Y-139077223D01*
X124328126Y-139077223D01*
G37*
G36*
X142970642Y-137838742D02*
G01*
X143118601Y-137900029D01*
X143251755Y-137988999D01*
X143365001Y-138102245D01*
X143453971Y-138235399D01*
X143515258Y-138383358D01*
X143546500Y-138540425D01*
X143546500Y-138700575D01*
X143515258Y-138857642D01*
X143453971Y-139005601D01*
X143365001Y-139138755D01*
X143251755Y-139252001D01*
X143118601Y-139340971D01*
X142970642Y-139402258D01*
X142813575Y-139433500D01*
X142653425Y-139433500D01*
X142496358Y-139402258D01*
X142348399Y-139340971D01*
X142215245Y-139252001D01*
X142101999Y-139138755D01*
X142013029Y-139005601D01*
X141951742Y-138857642D01*
X141920500Y-138700575D01*
X141920500Y-138540425D01*
X141951742Y-138383358D01*
X142013029Y-138235399D01*
X142101999Y-138102245D01*
X142215245Y-137988999D01*
X142348399Y-137900029D01*
X142496358Y-137838742D01*
X142653425Y-137807500D01*
X142813575Y-137807500D01*
X142970642Y-137838742D01*
X142970642Y-137838742D01*
G37*
G36*
X54540728Y-137316703D02*
G01*
X54695600Y-137380853D01*
X54834981Y-137473985D01*
X54953515Y-137592519D01*
X55046647Y-137731900D01*
X55110797Y-137886772D01*
X55143500Y-138051184D01*
X55143500Y-138218816D01*
X55110797Y-138383228D01*
X55046647Y-138538100D01*
X54953515Y-138677481D01*
X54834981Y-138796015D01*
X54695600Y-138889147D01*
X54540728Y-138953297D01*
X54376316Y-138986000D01*
X54208684Y-138986000D01*
X54044272Y-138953297D01*
X53889400Y-138889147D01*
X53750019Y-138796015D01*
X53631485Y-138677481D01*
X53538353Y-138538100D01*
X53474203Y-138383228D01*
X53441500Y-138218816D01*
X53441500Y-138051184D01*
X53474203Y-137886772D01*
X53538353Y-137731900D01*
X53631485Y-137592519D01*
X53750019Y-137473985D01*
X53889400Y-137380853D01*
X54044272Y-137316703D01*
X54208684Y-137284000D01*
X54376316Y-137284000D01*
X54540728Y-137316703D01*
X54540728Y-137316703D01*
G37*
G36*
X57380728Y-135931703D02*
G01*
X57535600Y-135995853D01*
X57674981Y-136088985D01*
X57793515Y-136207519D01*
X57886647Y-136346900D01*
X57950797Y-136501772D01*
X57983500Y-136666184D01*
X57983500Y-136833816D01*
X57950797Y-136998228D01*
X57886647Y-137153100D01*
X57793515Y-137292481D01*
X57674981Y-137411015D01*
X57535600Y-137504147D01*
X57380728Y-137568297D01*
X57216316Y-137601000D01*
X57048684Y-137601000D01*
X56884272Y-137568297D01*
X56729400Y-137504147D01*
X56590019Y-137411015D01*
X56471485Y-137292481D01*
X56378353Y-137153100D01*
X56314203Y-136998228D01*
X56281500Y-136833816D01*
X56281500Y-136666184D01*
X56314203Y-136501772D01*
X56378353Y-136346900D01*
X56471485Y-136207519D01*
X56590019Y-136088985D01*
X56729400Y-135995853D01*
X56884272Y-135931703D01*
X57048684Y-135899000D01*
X57216316Y-135899000D01*
X57380728Y-135931703D01*
X57380728Y-135931703D01*
G37*
G36*
X54540728Y-134546703D02*
G01*
X54695600Y-134610853D01*
X54834981Y-134703985D01*
X54953515Y-134822519D01*
X55046647Y-134961900D01*
X55110797Y-135116772D01*
X55143500Y-135281184D01*
X55143500Y-135448816D01*
X55110797Y-135613228D01*
X55046647Y-135768100D01*
X54953515Y-135907481D01*
X54834981Y-136026015D01*
X54695600Y-136119147D01*
X54540728Y-136183297D01*
X54376316Y-136216000D01*
X54208684Y-136216000D01*
X54044272Y-136183297D01*
X53889400Y-136119147D01*
X53750019Y-136026015D01*
X53631485Y-135907481D01*
X53538353Y-135768100D01*
X53474203Y-135613228D01*
X53441500Y-135448816D01*
X53441500Y-135281184D01*
X53474203Y-135116772D01*
X53538353Y-134961900D01*
X53631485Y-134822519D01*
X53750019Y-134703985D01*
X53889400Y-134610853D01*
X54044272Y-134546703D01*
X54208684Y-134514000D01*
X54376316Y-134514000D01*
X54540728Y-134546703D01*
X54540728Y-134546703D01*
G37*
G36*
X81533642Y-133585742D02*
G01*
X81681601Y-133647029D01*
X81814755Y-133735999D01*
X81928001Y-133849245D01*
X82016971Y-133982399D01*
X82078258Y-134130358D01*
X82109500Y-134287425D01*
X82109500Y-134447575D01*
X82078258Y-134604642D01*
X82016971Y-134752601D01*
X81928001Y-134885755D01*
X81814755Y-134999001D01*
X81681601Y-135087971D01*
X81533642Y-135149258D01*
X81376575Y-135180500D01*
X81216425Y-135180500D01*
X81059358Y-135149258D01*
X80911399Y-135087971D01*
X80778245Y-134999001D01*
X80664999Y-134885755D01*
X80576029Y-134752601D01*
X80514742Y-134604642D01*
X80483500Y-134447575D01*
X80483500Y-134287425D01*
X80514742Y-134130358D01*
X80576029Y-133982399D01*
X80664999Y-133849245D01*
X80778245Y-133735999D01*
X80911399Y-133647029D01*
X81059358Y-133585742D01*
X81216425Y-133554500D01*
X81376575Y-133554500D01*
X81533642Y-133585742D01*
X81533642Y-133585742D01*
G37*
G36*
X57380728Y-133161703D02*
G01*
X57535600Y-133225853D01*
X57674981Y-133318985D01*
X57793515Y-133437519D01*
X57886647Y-133576900D01*
X57950797Y-133731772D01*
X57983500Y-133896184D01*
X57983500Y-134063816D01*
X57950797Y-134228228D01*
X57886647Y-134383100D01*
X57793515Y-134522481D01*
X57674981Y-134641015D01*
X57535600Y-134734147D01*
X57380728Y-134798297D01*
X57216316Y-134831000D01*
X57048684Y-134831000D01*
X56884272Y-134798297D01*
X56729400Y-134734147D01*
X56590019Y-134641015D01*
X56471485Y-134522481D01*
X56378353Y-134383100D01*
X56314203Y-134228228D01*
X56281500Y-134063816D01*
X56281500Y-133896184D01*
X56314203Y-133731772D01*
X56378353Y-133576900D01*
X56471485Y-133437519D01*
X56590019Y-133318985D01*
X56729400Y-133225853D01*
X56884272Y-133161703D01*
X57048684Y-133129000D01*
X57216316Y-133129000D01*
X57380728Y-133161703D01*
X57380728Y-133161703D01*
G37*
G36*
X143669818Y-132385653D02*
G01*
X143888385Y-132476187D01*
X143888387Y-132476188D01*
X144085093Y-132607622D01*
X144252378Y-132774907D01*
X144383812Y-132971613D01*
X144383813Y-132971615D01*
X144474347Y-133190182D01*
X144520500Y-133422210D01*
X144520500Y-133658790D01*
X144474347Y-133890818D01*
X144436412Y-133982400D01*
X144383812Y-134109387D01*
X144252378Y-134306093D01*
X144085093Y-134473378D01*
X143888387Y-134604812D01*
X143888386Y-134604813D01*
X143888385Y-134604813D01*
X143669818Y-134695347D01*
X143437790Y-134741500D01*
X143201210Y-134741500D01*
X142969182Y-134695347D01*
X142750615Y-134604813D01*
X142750614Y-134604813D01*
X142750613Y-134604812D01*
X142553907Y-134473378D01*
X142386622Y-134306093D01*
X142255188Y-134109387D01*
X142202588Y-133982400D01*
X142164653Y-133890818D01*
X142118500Y-133658790D01*
X142118500Y-133422210D01*
X142164653Y-133190182D01*
X142255187Y-132971615D01*
X142255188Y-132971613D01*
X142386622Y-132774907D01*
X142553907Y-132607622D01*
X142750613Y-132476188D01*
X142750615Y-132476187D01*
X142969182Y-132385653D01*
X143201210Y-132339500D01*
X143437790Y-132339500D01*
X143669818Y-132385653D01*
X143669818Y-132385653D01*
G37*
G36*
X163989818Y-132385653D02*
G01*
X164208385Y-132476187D01*
X164208387Y-132476188D01*
X164405093Y-132607622D01*
X164572378Y-132774907D01*
X164703812Y-132971613D01*
X164703813Y-132971615D01*
X164794347Y-133190182D01*
X164840500Y-133422210D01*
X164840500Y-133658790D01*
X164794347Y-133890818D01*
X164756412Y-133982400D01*
X164703812Y-134109387D01*
X164572378Y-134306093D01*
X164405093Y-134473378D01*
X164208387Y-134604812D01*
X164208386Y-134604813D01*
X164208385Y-134604813D01*
X163989818Y-134695347D01*
X163757790Y-134741500D01*
X163521210Y-134741500D01*
X163289182Y-134695347D01*
X163070615Y-134604813D01*
X163070614Y-134604813D01*
X163070613Y-134604812D01*
X162873907Y-134473378D01*
X162706622Y-134306093D01*
X162575188Y-134109387D01*
X162522588Y-133982400D01*
X162484653Y-133890818D01*
X162438500Y-133658790D01*
X162438500Y-133422210D01*
X162484653Y-133190182D01*
X162575187Y-132971615D01*
X162575188Y-132971613D01*
X162706622Y-132774907D01*
X162873907Y-132607622D01*
X163070613Y-132476188D01*
X163070615Y-132476187D01*
X163289182Y-132385653D01*
X163521210Y-132339500D01*
X163757790Y-132339500D01*
X163989818Y-132385653D01*
X163989818Y-132385653D01*
G37*
G36*
X54540728Y-131776703D02*
G01*
X54695600Y-131840853D01*
X54834981Y-131933985D01*
X54953515Y-132052519D01*
X55046647Y-132191900D01*
X55110797Y-132346772D01*
X55143500Y-132511184D01*
X55143500Y-132678816D01*
X55110797Y-132843228D01*
X55046647Y-132998100D01*
X54953515Y-133137481D01*
X54834981Y-133256015D01*
X54695600Y-133349147D01*
X54540728Y-133413297D01*
X54376316Y-133446000D01*
X54208684Y-133446000D01*
X54044272Y-133413297D01*
X53889400Y-133349147D01*
X53750019Y-133256015D01*
X53631485Y-133137481D01*
X53538353Y-132998100D01*
X53474203Y-132843228D01*
X53441500Y-132678816D01*
X53441500Y-132511184D01*
X53474203Y-132346772D01*
X53538353Y-132191900D01*
X53631485Y-132052519D01*
X53750019Y-131933985D01*
X53889400Y-131840853D01*
X54044272Y-131776703D01*
X54208684Y-131744000D01*
X54376316Y-131744000D01*
X54540728Y-131776703D01*
X54540728Y-131776703D01*
G37*
G36*
X115946126Y-132140723D02*
G01*
X115946127Y-132140723D01*
X115946130Y-132140724D01*
X115982709Y-132155876D01*
X116015630Y-132177873D01*
X116043627Y-132205870D01*
X116065624Y-132238791D01*
X116080776Y-132275370D01*
X116088500Y-132314203D01*
X116088500Y-132353797D01*
X116080776Y-132392630D01*
X116065624Y-132429209D01*
X116043627Y-132462130D01*
X116015630Y-132490127D01*
X115982709Y-132512124D01*
X115946130Y-132527276D01*
X115946127Y-132527277D01*
X115946126Y-132527277D01*
X115907298Y-132535000D01*
X115867702Y-132535000D01*
X115828874Y-132527277D01*
X115828873Y-132527277D01*
X115828870Y-132527276D01*
X115792291Y-132512124D01*
X115759370Y-132490127D01*
X115731373Y-132462130D01*
X115709376Y-132429209D01*
X115694224Y-132392630D01*
X115686500Y-132353797D01*
X115686500Y-132314203D01*
X115694224Y-132275370D01*
X115709376Y-132238791D01*
X115731373Y-132205870D01*
X115759370Y-132177873D01*
X115792291Y-132155876D01*
X115828870Y-132140724D01*
X115828873Y-132140723D01*
X115828874Y-132140723D01*
X115867702Y-132133000D01*
X115907298Y-132133000D01*
X115946126Y-132140723D01*
X115946126Y-132140723D01*
G37*
G36*
X110946126Y-132140723D02*
G01*
X110946127Y-132140723D01*
X110946130Y-132140724D01*
X110982709Y-132155876D01*
X111015630Y-132177873D01*
X111043627Y-132205870D01*
X111065624Y-132238791D01*
X111080776Y-132275370D01*
X111088500Y-132314203D01*
X111088500Y-132353797D01*
X111080776Y-132392630D01*
X111065624Y-132429209D01*
X111043627Y-132462130D01*
X111015630Y-132490127D01*
X110982709Y-132512124D01*
X110946130Y-132527276D01*
X110946127Y-132527277D01*
X110946126Y-132527277D01*
X110907298Y-132535000D01*
X110867702Y-132535000D01*
X110828874Y-132527277D01*
X110828873Y-132527277D01*
X110828870Y-132527276D01*
X110792291Y-132512124D01*
X110759370Y-132490127D01*
X110731373Y-132462130D01*
X110709376Y-132429209D01*
X110694224Y-132392630D01*
X110686500Y-132353797D01*
X110686500Y-132314203D01*
X110694224Y-132275370D01*
X110709376Y-132238791D01*
X110731373Y-132205870D01*
X110759370Y-132177873D01*
X110792291Y-132155876D01*
X110828870Y-132140724D01*
X110828873Y-132140723D01*
X110828874Y-132140723D01*
X110867702Y-132133000D01*
X110907298Y-132133000D01*
X110946126Y-132140723D01*
X110946126Y-132140723D01*
G37*
G36*
X119328126Y-132077223D02*
G01*
X119328127Y-132077223D01*
X119328130Y-132077224D01*
X119364709Y-132092376D01*
X119397630Y-132114373D01*
X119425627Y-132142370D01*
X119447624Y-132175291D01*
X119462776Y-132211870D01*
X119470500Y-132250703D01*
X119470500Y-132290297D01*
X119462776Y-132329130D01*
X119447624Y-132365709D01*
X119425627Y-132398630D01*
X119397630Y-132426627D01*
X119364709Y-132448624D01*
X119328130Y-132463776D01*
X119328127Y-132463777D01*
X119328126Y-132463777D01*
X119289298Y-132471500D01*
X119249702Y-132471500D01*
X119210874Y-132463777D01*
X119210873Y-132463777D01*
X119210870Y-132463776D01*
X119174291Y-132448624D01*
X119141370Y-132426627D01*
X119113373Y-132398630D01*
X119091376Y-132365709D01*
X119076224Y-132329130D01*
X119068500Y-132290297D01*
X119068500Y-132250703D01*
X119076224Y-132211870D01*
X119091376Y-132175291D01*
X119113373Y-132142370D01*
X119141370Y-132114373D01*
X119174291Y-132092376D01*
X119210870Y-132077224D01*
X119210873Y-132077223D01*
X119210874Y-132077223D01*
X119249702Y-132069500D01*
X119289298Y-132069500D01*
X119328126Y-132077223D01*
X119328126Y-132077223D01*
G37*
G36*
X124328126Y-132077223D02*
G01*
X124328127Y-132077223D01*
X124328130Y-132077224D01*
X124364709Y-132092376D01*
X124397630Y-132114373D01*
X124425627Y-132142370D01*
X124447624Y-132175291D01*
X124462776Y-132211870D01*
X124470500Y-132250703D01*
X124470500Y-132290297D01*
X124462776Y-132329130D01*
X124447624Y-132365709D01*
X124425627Y-132398630D01*
X124397630Y-132426627D01*
X124364709Y-132448624D01*
X124328130Y-132463776D01*
X124328127Y-132463777D01*
X124328126Y-132463777D01*
X124289298Y-132471500D01*
X124249702Y-132471500D01*
X124210874Y-132463777D01*
X124210873Y-132463777D01*
X124210870Y-132463776D01*
X124174291Y-132448624D01*
X124141370Y-132426627D01*
X124113373Y-132398630D01*
X124091376Y-132365709D01*
X124076224Y-132329130D01*
X124068500Y-132290297D01*
X124068500Y-132250703D01*
X124076224Y-132211870D01*
X124091376Y-132175291D01*
X124113373Y-132142370D01*
X124141370Y-132114373D01*
X124174291Y-132092376D01*
X124210870Y-132077224D01*
X124210873Y-132077223D01*
X124210874Y-132077223D01*
X124249702Y-132069500D01*
X124289298Y-132069500D01*
X124328126Y-132077223D01*
X124328126Y-132077223D01*
G37*
G36*
X57380728Y-130391703D02*
G01*
X57535600Y-130455853D01*
X57674981Y-130548985D01*
X57793515Y-130667519D01*
X57886647Y-130806900D01*
X57950797Y-130961772D01*
X57983500Y-131126184D01*
X57983500Y-131293816D01*
X57950797Y-131458228D01*
X57886647Y-131613100D01*
X57793515Y-131752481D01*
X57674981Y-131871015D01*
X57535600Y-131964147D01*
X57380728Y-132028297D01*
X57216316Y-132061000D01*
X57048684Y-132061000D01*
X56884272Y-132028297D01*
X56729400Y-131964147D01*
X56590019Y-131871015D01*
X56471485Y-131752481D01*
X56378353Y-131613100D01*
X56314203Y-131458228D01*
X56281500Y-131293816D01*
X56281500Y-131126184D01*
X56314203Y-130961772D01*
X56378353Y-130806900D01*
X56471485Y-130667519D01*
X56590019Y-130548985D01*
X56729400Y-130455853D01*
X56884272Y-130391703D01*
X57048684Y-130359000D01*
X57216316Y-130359000D01*
X57380728Y-130391703D01*
X57380728Y-130391703D01*
G37*
G36*
X54540728Y-129006703D02*
G01*
X54695600Y-129070853D01*
X54834981Y-129163985D01*
X54953515Y-129282519D01*
X55046647Y-129421900D01*
X55110797Y-129576772D01*
X55143500Y-129741184D01*
X55143500Y-129908816D01*
X55110797Y-130073228D01*
X55046647Y-130228100D01*
X54953515Y-130367481D01*
X54834981Y-130486015D01*
X54695600Y-130579147D01*
X54540728Y-130643297D01*
X54376316Y-130676000D01*
X54208684Y-130676000D01*
X54044272Y-130643297D01*
X53889400Y-130579147D01*
X53750019Y-130486015D01*
X53631485Y-130367481D01*
X53538353Y-130228100D01*
X53474203Y-130073228D01*
X53441500Y-129908816D01*
X53441500Y-129741184D01*
X53474203Y-129576772D01*
X53538353Y-129421900D01*
X53631485Y-129282519D01*
X53750019Y-129163985D01*
X53889400Y-129070853D01*
X54044272Y-129006703D01*
X54208684Y-128974000D01*
X54376316Y-128974000D01*
X54540728Y-129006703D01*
X54540728Y-129006703D01*
G37*
G36*
X57380728Y-127621703D02*
G01*
X57535600Y-127685853D01*
X57674981Y-127778985D01*
X57793515Y-127897519D01*
X57886647Y-128036900D01*
X57950797Y-128191772D01*
X57983500Y-128356184D01*
X57983500Y-128523816D01*
X57950797Y-128688228D01*
X57886647Y-128843100D01*
X57793515Y-128982481D01*
X57674981Y-129101015D01*
X57535600Y-129194147D01*
X57380728Y-129258297D01*
X57216316Y-129291000D01*
X57048684Y-129291000D01*
X56884272Y-129258297D01*
X56729400Y-129194147D01*
X56590019Y-129101015D01*
X56471485Y-128982481D01*
X56378353Y-128843100D01*
X56314203Y-128688228D01*
X56281500Y-128523816D01*
X56281500Y-128356184D01*
X56314203Y-128191772D01*
X56378353Y-128036900D01*
X56471485Y-127897519D01*
X56590019Y-127778985D01*
X56729400Y-127685853D01*
X56884272Y-127621703D01*
X57048684Y-127589000D01*
X57216316Y-127589000D01*
X57380728Y-127621703D01*
X57380728Y-127621703D01*
G37*
G36*
X54540728Y-126236703D02*
G01*
X54695600Y-126300853D01*
X54834981Y-126393985D01*
X54953515Y-126512519D01*
X55046647Y-126651900D01*
X55110797Y-126806772D01*
X55143500Y-126971184D01*
X55143500Y-127138816D01*
X55110797Y-127303228D01*
X55046647Y-127458100D01*
X54953515Y-127597481D01*
X54834981Y-127716015D01*
X54695600Y-127809147D01*
X54540728Y-127873297D01*
X54376316Y-127906000D01*
X54208684Y-127906000D01*
X54044272Y-127873297D01*
X53889400Y-127809147D01*
X53750019Y-127716015D01*
X53631485Y-127597481D01*
X53538353Y-127458100D01*
X53474203Y-127303228D01*
X53441500Y-127138816D01*
X53441500Y-126971184D01*
X53474203Y-126806772D01*
X53538353Y-126651900D01*
X53631485Y-126512519D01*
X53750019Y-126393985D01*
X53889400Y-126300853D01*
X54044272Y-126236703D01*
X54208684Y-126204000D01*
X54376316Y-126204000D01*
X54540728Y-126236703D01*
X54540728Y-126236703D01*
G37*
G36*
X57380728Y-124851703D02*
G01*
X57535600Y-124915853D01*
X57674981Y-125008985D01*
X57793515Y-125127519D01*
X57886647Y-125266900D01*
X57950797Y-125421772D01*
X57983500Y-125586184D01*
X57983500Y-125753816D01*
X57950797Y-125918228D01*
X57886647Y-126073100D01*
X57793515Y-126212481D01*
X57674981Y-126331015D01*
X57535600Y-126424147D01*
X57380728Y-126488297D01*
X57216316Y-126521000D01*
X57048684Y-126521000D01*
X56884272Y-126488297D01*
X56729400Y-126424147D01*
X56590019Y-126331015D01*
X56471485Y-126212481D01*
X56378353Y-126073100D01*
X56314203Y-125918228D01*
X56281500Y-125753816D01*
X56281500Y-125586184D01*
X56314203Y-125421772D01*
X56378353Y-125266900D01*
X56471485Y-125127519D01*
X56590019Y-125008985D01*
X56729400Y-124915853D01*
X56884272Y-124851703D01*
X57048684Y-124819000D01*
X57216316Y-124819000D01*
X57380728Y-124851703D01*
X57380728Y-124851703D01*
G37*
G36*
X128302818Y-122924153D02*
G01*
X128446856Y-122983816D01*
X128521387Y-123014688D01*
X128718093Y-123146122D01*
X128885378Y-123313407D01*
X129016812Y-123510113D01*
X129016813Y-123510115D01*
X129107347Y-123728682D01*
X129153500Y-123960710D01*
X129153500Y-124197290D01*
X129107347Y-124429318D01*
X129064305Y-124533229D01*
X129016812Y-124647887D01*
X128885378Y-124844593D01*
X128718093Y-125011878D01*
X128521387Y-125143312D01*
X128521386Y-125143313D01*
X128521385Y-125143313D01*
X128302818Y-125233847D01*
X128070790Y-125280000D01*
X127834210Y-125280000D01*
X127602182Y-125233847D01*
X127383615Y-125143313D01*
X127383614Y-125143313D01*
X127383613Y-125143312D01*
X127186907Y-125011878D01*
X127019622Y-124844593D01*
X126888188Y-124647887D01*
X126840695Y-124533229D01*
X126797653Y-124429318D01*
X126751500Y-124197290D01*
X126751500Y-123960710D01*
X126797653Y-123728682D01*
X126888187Y-123510115D01*
X126888188Y-123510113D01*
X127019622Y-123313407D01*
X127186907Y-123146122D01*
X127383613Y-123014688D01*
X127458144Y-122983816D01*
X127602182Y-122924153D01*
X127834210Y-122878000D01*
X128070790Y-122878000D01*
X128302818Y-122924153D01*
X128302818Y-122924153D01*
G37*
G36*
X91726818Y-122924153D02*
G01*
X91870856Y-122983816D01*
X91945387Y-123014688D01*
X92142093Y-123146122D01*
X92309378Y-123313407D01*
X92440812Y-123510113D01*
X92440813Y-123510115D01*
X92531347Y-123728682D01*
X92577500Y-123960710D01*
X92577500Y-124197290D01*
X92531347Y-124429318D01*
X92488305Y-124533229D01*
X92440812Y-124647887D01*
X92309378Y-124844593D01*
X92142093Y-125011878D01*
X91945387Y-125143312D01*
X91945386Y-125143313D01*
X91945385Y-125143313D01*
X91726818Y-125233847D01*
X91494790Y-125280000D01*
X91258210Y-125280000D01*
X91026182Y-125233847D01*
X90807615Y-125143313D01*
X90807614Y-125143313D01*
X90807613Y-125143312D01*
X90610907Y-125011878D01*
X90443622Y-124844593D01*
X90312188Y-124647887D01*
X90264695Y-124533229D01*
X90221653Y-124429318D01*
X90175500Y-124197290D01*
X90175500Y-123960710D01*
X90221653Y-123728682D01*
X90312187Y-123510115D01*
X90312188Y-123510113D01*
X90443622Y-123313407D01*
X90610907Y-123146122D01*
X90807613Y-123014688D01*
X90882144Y-122983816D01*
X91026182Y-122924153D01*
X91258210Y-122878000D01*
X91494790Y-122878000D01*
X91726818Y-122924153D01*
X91726818Y-122924153D01*
G37*
G36*
X54540728Y-123466703D02*
G01*
X54695600Y-123530853D01*
X54834981Y-123623985D01*
X54953515Y-123742519D01*
X55046647Y-123881900D01*
X55110797Y-124036772D01*
X55143500Y-124201184D01*
X55143500Y-124368816D01*
X55110797Y-124533228D01*
X55046647Y-124688100D01*
X54953515Y-124827481D01*
X54834981Y-124946015D01*
X54695600Y-125039147D01*
X54540728Y-125103297D01*
X54376316Y-125136000D01*
X54208684Y-125136000D01*
X54044272Y-125103297D01*
X53889400Y-125039147D01*
X53750019Y-124946015D01*
X53631485Y-124827481D01*
X53538353Y-124688100D01*
X53474203Y-124533228D01*
X53441500Y-124368816D01*
X53441500Y-124201184D01*
X53474203Y-124036772D01*
X53538353Y-123881900D01*
X53631485Y-123742519D01*
X53750019Y-123623985D01*
X53889400Y-123530853D01*
X54044272Y-123466703D01*
X54208684Y-123434000D01*
X54376316Y-123434000D01*
X54540728Y-123466703D01*
X54540728Y-123466703D01*
G37*
G36*
X171228818Y-122479653D02*
G01*
X171447385Y-122570187D01*
X171447387Y-122570188D01*
X171644093Y-122701622D01*
X171811378Y-122868907D01*
X171908785Y-123014688D01*
X171942813Y-123065615D01*
X172033347Y-123284182D01*
X172079500Y-123516210D01*
X172079500Y-123752790D01*
X172033347Y-123984818D01*
X171943725Y-124201184D01*
X171942812Y-124203387D01*
X171811378Y-124400093D01*
X171644093Y-124567378D01*
X171447387Y-124698812D01*
X171447386Y-124698813D01*
X171447385Y-124698813D01*
X171228818Y-124789347D01*
X170996790Y-124835500D01*
X170760210Y-124835500D01*
X170528182Y-124789347D01*
X170309615Y-124698813D01*
X170309614Y-124698813D01*
X170309613Y-124698812D01*
X170112907Y-124567378D01*
X169945622Y-124400093D01*
X169814188Y-124203387D01*
X169813275Y-124201184D01*
X169723653Y-123984818D01*
X169677500Y-123752790D01*
X169677500Y-123516210D01*
X169723653Y-123284182D01*
X169814187Y-123065615D01*
X169848215Y-123014688D01*
X169945622Y-122868907D01*
X170112907Y-122701622D01*
X170309613Y-122570188D01*
X170309615Y-122570187D01*
X170528182Y-122479653D01*
X170760210Y-122433500D01*
X170996790Y-122433500D01*
X171228818Y-122479653D01*
X171228818Y-122479653D01*
G37*
G36*
X134652818Y-122479653D02*
G01*
X134871385Y-122570187D01*
X134871387Y-122570188D01*
X135068093Y-122701622D01*
X135235378Y-122868907D01*
X135332785Y-123014688D01*
X135366813Y-123065615D01*
X135457347Y-123284182D01*
X135503500Y-123516210D01*
X135503500Y-123752790D01*
X135457347Y-123984818D01*
X135367725Y-124201184D01*
X135366812Y-124203387D01*
X135235378Y-124400093D01*
X135068093Y-124567378D01*
X134871387Y-124698812D01*
X134871386Y-124698813D01*
X134871385Y-124698813D01*
X134652818Y-124789347D01*
X134420790Y-124835500D01*
X134184210Y-124835500D01*
X133952182Y-124789347D01*
X133733615Y-124698813D01*
X133733614Y-124698813D01*
X133733613Y-124698812D01*
X133536907Y-124567378D01*
X133369622Y-124400093D01*
X133238188Y-124203387D01*
X133237275Y-124201184D01*
X133147653Y-123984818D01*
X133101500Y-123752790D01*
X133101500Y-123516210D01*
X133147653Y-123284182D01*
X133238187Y-123065615D01*
X133272215Y-123014688D01*
X133369622Y-122868907D01*
X133536907Y-122701622D01*
X133733613Y-122570188D01*
X133733615Y-122570187D01*
X133952182Y-122479653D01*
X134184210Y-122433500D01*
X134420790Y-122433500D01*
X134652818Y-122479653D01*
X134652818Y-122479653D01*
G37*
G36*
X57380728Y-122081703D02*
G01*
X57535600Y-122145853D01*
X57674981Y-122238985D01*
X57793515Y-122357519D01*
X57886647Y-122496900D01*
X57950797Y-122651772D01*
X57983500Y-122816184D01*
X57983500Y-122983816D01*
X57950797Y-123148228D01*
X57886647Y-123303100D01*
X57793515Y-123442481D01*
X57674981Y-123561015D01*
X57535600Y-123654147D01*
X57380728Y-123718297D01*
X57216316Y-123751000D01*
X57048684Y-123751000D01*
X56884272Y-123718297D01*
X56729400Y-123654147D01*
X56590019Y-123561015D01*
X56471485Y-123442481D01*
X56378353Y-123303100D01*
X56314203Y-123148228D01*
X56281500Y-122983816D01*
X56281500Y-122816184D01*
X56314203Y-122651772D01*
X56378353Y-122496900D01*
X56471485Y-122357519D01*
X56590019Y-122238985D01*
X56729400Y-122145853D01*
X56884272Y-122081703D01*
X57048684Y-122049000D01*
X57216316Y-122049000D01*
X57380728Y-122081703D01*
X57380728Y-122081703D01*
G37*
G36*
X54540728Y-120696703D02*
G01*
X54695600Y-120760853D01*
X54834981Y-120853985D01*
X54953515Y-120972519D01*
X55046647Y-121111900D01*
X55110797Y-121266772D01*
X55143500Y-121431184D01*
X55143500Y-121598816D01*
X55110797Y-121763228D01*
X55046647Y-121918100D01*
X54953515Y-122057481D01*
X54834981Y-122176015D01*
X54695600Y-122269147D01*
X54540728Y-122333297D01*
X54376316Y-122366000D01*
X54208684Y-122366000D01*
X54044272Y-122333297D01*
X53889400Y-122269147D01*
X53750019Y-122176015D01*
X53631485Y-122057481D01*
X53538353Y-121918100D01*
X53474203Y-121763228D01*
X53441500Y-121598816D01*
X53441500Y-121431184D01*
X53474203Y-121266772D01*
X53538353Y-121111900D01*
X53631485Y-120972519D01*
X53750019Y-120853985D01*
X53889400Y-120760853D01*
X54044272Y-120696703D01*
X54208684Y-120664000D01*
X54376316Y-120664000D01*
X54540728Y-120696703D01*
X54540728Y-120696703D01*
G37*
G36*
X57380728Y-119311703D02*
G01*
X57535600Y-119375853D01*
X57674981Y-119468985D01*
X57793515Y-119587519D01*
X57886647Y-119726900D01*
X57950797Y-119881772D01*
X57983500Y-120046184D01*
X57983500Y-120213816D01*
X57950797Y-120378228D01*
X57886647Y-120533100D01*
X57793515Y-120672481D01*
X57674981Y-120791015D01*
X57535600Y-120884147D01*
X57380728Y-120948297D01*
X57216316Y-120981000D01*
X57048684Y-120981000D01*
X56884272Y-120948297D01*
X56729400Y-120884147D01*
X56590019Y-120791015D01*
X56471485Y-120672481D01*
X56378353Y-120533100D01*
X56314203Y-120378228D01*
X56281500Y-120213816D01*
X56281500Y-120046184D01*
X56314203Y-119881772D01*
X56378353Y-119726900D01*
X56471485Y-119587519D01*
X56590019Y-119468985D01*
X56729400Y-119375853D01*
X56884272Y-119311703D01*
X57048684Y-119279000D01*
X57216316Y-119279000D01*
X57380728Y-119311703D01*
X57380728Y-119311703D01*
G37*
G36*
X55143500Y-119596000D02*
G01*
X53441500Y-119596000D01*
X53441500Y-117894000D01*
X55143500Y-117894000D01*
X55143500Y-119596000D01*
X55143500Y-119596000D01*
G37*
G36*
X91901642Y-116693242D02*
G01*
X92049601Y-116754529D01*
X92182755Y-116843499D01*
X92296001Y-116956745D01*
X92384971Y-117089899D01*
X92446258Y-117237858D01*
X92477500Y-117394925D01*
X92477500Y-117555075D01*
X92446258Y-117712142D01*
X92384971Y-117860101D01*
X92296001Y-117993255D01*
X92182755Y-118106501D01*
X92049601Y-118195471D01*
X91901642Y-118256758D01*
X91744575Y-118288000D01*
X91584425Y-118288000D01*
X91427358Y-118256758D01*
X91279399Y-118195471D01*
X91146245Y-118106501D01*
X91032999Y-117993255D01*
X90944029Y-117860101D01*
X90882742Y-117712142D01*
X90851500Y-117555075D01*
X90851500Y-117394925D01*
X90882742Y-117237858D01*
X90944029Y-117089899D01*
X91032999Y-116956745D01*
X91146245Y-116843499D01*
X91279399Y-116754529D01*
X91427358Y-116693242D01*
X91584425Y-116662000D01*
X91744575Y-116662000D01*
X91901642Y-116693242D01*
X91901642Y-116693242D01*
G37*
G36*
X134827642Y-116248742D02*
G01*
X134975601Y-116310029D01*
X135108755Y-116398999D01*
X135222001Y-116512245D01*
X135310971Y-116645399D01*
X135372258Y-116793358D01*
X135403500Y-116950425D01*
X135403500Y-117110575D01*
X135372258Y-117267642D01*
X135310971Y-117415601D01*
X135222001Y-117548755D01*
X135108755Y-117662001D01*
X134975601Y-117750971D01*
X134827642Y-117812258D01*
X134670575Y-117843500D01*
X134510425Y-117843500D01*
X134353358Y-117812258D01*
X134205399Y-117750971D01*
X134072245Y-117662001D01*
X133958999Y-117548755D01*
X133870029Y-117415601D01*
X133808742Y-117267642D01*
X133777500Y-117110575D01*
X133777500Y-116950425D01*
X133808742Y-116793358D01*
X133870029Y-116645399D01*
X133958999Y-116512245D01*
X134072245Y-116398999D01*
X134205399Y-116310029D01*
X134353358Y-116248742D01*
X134510425Y-116217500D01*
X134670575Y-116217500D01*
X134827642Y-116248742D01*
X134827642Y-116248742D01*
G37*
G36*
X91901642Y-114153242D02*
G01*
X92049601Y-114214529D01*
X92182755Y-114303499D01*
X92296001Y-114416745D01*
X92384971Y-114549899D01*
X92446258Y-114697858D01*
X92477500Y-114854925D01*
X92477500Y-115015075D01*
X92446258Y-115172142D01*
X92384971Y-115320101D01*
X92296001Y-115453255D01*
X92182755Y-115566501D01*
X92049601Y-115655471D01*
X91901642Y-115716758D01*
X91744575Y-115748000D01*
X91584425Y-115748000D01*
X91427358Y-115716758D01*
X91279399Y-115655471D01*
X91146245Y-115566501D01*
X91032999Y-115453255D01*
X90944029Y-115320101D01*
X90882742Y-115172142D01*
X90851500Y-115015075D01*
X90851500Y-114854925D01*
X90882742Y-114697858D01*
X90944029Y-114549899D01*
X91032999Y-114416745D01*
X91146245Y-114303499D01*
X91279399Y-114214529D01*
X91427358Y-114153242D01*
X91584425Y-114122000D01*
X91744575Y-114122000D01*
X91901642Y-114153242D01*
X91901642Y-114153242D01*
G37*
G36*
X134827642Y-113708742D02*
G01*
X134975601Y-113770029D01*
X135108755Y-113858999D01*
X135222001Y-113972245D01*
X135310971Y-114105399D01*
X135372258Y-114253358D01*
X135403500Y-114410425D01*
X135403500Y-114570575D01*
X135372258Y-114727642D01*
X135310971Y-114875601D01*
X135222001Y-115008755D01*
X135108755Y-115122001D01*
X134975601Y-115210971D01*
X134827642Y-115272258D01*
X134670575Y-115303500D01*
X134510425Y-115303500D01*
X134353358Y-115272258D01*
X134205399Y-115210971D01*
X134072245Y-115122001D01*
X133958999Y-115008755D01*
X133870029Y-114875601D01*
X133808742Y-114727642D01*
X133777500Y-114570575D01*
X133777500Y-114410425D01*
X133808742Y-114253358D01*
X133870029Y-114105399D01*
X133958999Y-113972245D01*
X134072245Y-113858999D01*
X134205399Y-113770029D01*
X134353358Y-113708742D01*
X134510425Y-113677500D01*
X134670575Y-113677500D01*
X134827642Y-113708742D01*
X134827642Y-113708742D01*
G37*
G36*
X56310754Y-109842818D02*
G01*
X56684011Y-109997426D01*
X56684013Y-109997427D01*
X56825765Y-110092143D01*
X57019936Y-110221884D01*
X57305616Y-110507564D01*
X57530074Y-110843489D01*
X57684682Y-111216746D01*
X57763500Y-111612993D01*
X57763500Y-112017007D01*
X57684682Y-112413254D01*
X57532729Y-112780101D01*
X57530073Y-112786513D01*
X57305616Y-113122436D01*
X57019936Y-113408116D01*
X56684013Y-113632573D01*
X56684012Y-113632574D01*
X56684011Y-113632574D01*
X56310754Y-113787182D01*
X55914507Y-113866000D01*
X55510493Y-113866000D01*
X55114246Y-113787182D01*
X54740989Y-113632574D01*
X54740988Y-113632574D01*
X54740987Y-113632573D01*
X54405064Y-113408116D01*
X54119384Y-113122436D01*
X53894927Y-112786513D01*
X53892271Y-112780101D01*
X53740318Y-112413254D01*
X53661500Y-112017007D01*
X53661500Y-111612993D01*
X53740318Y-111216746D01*
X53894926Y-110843489D01*
X54119384Y-110507564D01*
X54405064Y-110221884D01*
X54599235Y-110092143D01*
X54740987Y-109997427D01*
X54740989Y-109997426D01*
X55114246Y-109842818D01*
X55510493Y-109764000D01*
X55914507Y-109764000D01*
X56310754Y-109842818D01*
X56310754Y-109842818D01*
G37*
G36*
X91901642Y-111613242D02*
G01*
X92049601Y-111674529D01*
X92182755Y-111763499D01*
X92296001Y-111876745D01*
X92384971Y-112009899D01*
X92446258Y-112157858D01*
X92477500Y-112314925D01*
X92477500Y-112475075D01*
X92446258Y-112632142D01*
X92384971Y-112780101D01*
X92296001Y-112913255D01*
X92182755Y-113026501D01*
X92049601Y-113115471D01*
X91901642Y-113176758D01*
X91744575Y-113208000D01*
X91584425Y-113208000D01*
X91427358Y-113176758D01*
X91279399Y-113115471D01*
X91146245Y-113026501D01*
X91032999Y-112913255D01*
X90944029Y-112780101D01*
X90882742Y-112632142D01*
X90851500Y-112475075D01*
X90851500Y-112314925D01*
X90882742Y-112157858D01*
X90944029Y-112009899D01*
X91032999Y-111876745D01*
X91146245Y-111763499D01*
X91279399Y-111674529D01*
X91427358Y-111613242D01*
X91584425Y-111582000D01*
X91744575Y-111582000D01*
X91901642Y-111613242D01*
X91901642Y-111613242D01*
G37*
G36*
X134827642Y-111168742D02*
G01*
X134975601Y-111230029D01*
X135108755Y-111318999D01*
X135222001Y-111432245D01*
X135310971Y-111565399D01*
X135372258Y-111713358D01*
X135403500Y-111870425D01*
X135403500Y-112030575D01*
X135372258Y-112187642D01*
X135310971Y-112335601D01*
X135222001Y-112468755D01*
X135108755Y-112582001D01*
X134975601Y-112670971D01*
X134827642Y-112732258D01*
X134670575Y-112763500D01*
X134510425Y-112763500D01*
X134353358Y-112732258D01*
X134205399Y-112670971D01*
X134072245Y-112582001D01*
X133958999Y-112468755D01*
X133870029Y-112335601D01*
X133808742Y-112187642D01*
X133777500Y-112030575D01*
X133777500Y-111870425D01*
X133808742Y-111713358D01*
X133870029Y-111565399D01*
X133958999Y-111432245D01*
X134072245Y-111318999D01*
X134205399Y-111230029D01*
X134353358Y-111168742D01*
X134510425Y-111137500D01*
X134670575Y-111137500D01*
X134827642Y-111168742D01*
X134827642Y-111168742D01*
G37*
G36*
X91901642Y-109073242D02*
G01*
X92049601Y-109134529D01*
X92182755Y-109223499D01*
X92296001Y-109336745D01*
X92384971Y-109469899D01*
X92446258Y-109617858D01*
X92477500Y-109774925D01*
X92477500Y-109935075D01*
X92446258Y-110092142D01*
X92384971Y-110240101D01*
X92296001Y-110373255D01*
X92182755Y-110486501D01*
X92049601Y-110575471D01*
X91901642Y-110636758D01*
X91744575Y-110668000D01*
X91584425Y-110668000D01*
X91427358Y-110636758D01*
X91279399Y-110575471D01*
X91146245Y-110486501D01*
X91032999Y-110373255D01*
X90944029Y-110240101D01*
X90882742Y-110092142D01*
X90851500Y-109935075D01*
X90851500Y-109774925D01*
X90882742Y-109617858D01*
X90944029Y-109469899D01*
X91032999Y-109336745D01*
X91146245Y-109223499D01*
X91279399Y-109134529D01*
X91427358Y-109073242D01*
X91584425Y-109042000D01*
X91744575Y-109042000D01*
X91901642Y-109073242D01*
X91901642Y-109073242D01*
G37*
G36*
X134827642Y-108628742D02*
G01*
X134975601Y-108690029D01*
X135108755Y-108778999D01*
X135222001Y-108892245D01*
X135310971Y-109025399D01*
X135372258Y-109173358D01*
X135403500Y-109330425D01*
X135403500Y-109490575D01*
X135372258Y-109647642D01*
X135310971Y-109795601D01*
X135222001Y-109928755D01*
X135108755Y-110042001D01*
X134975601Y-110130971D01*
X134827642Y-110192258D01*
X134670575Y-110223500D01*
X134510425Y-110223500D01*
X134353358Y-110192258D01*
X134205399Y-110130971D01*
X134072245Y-110042001D01*
X133958999Y-109928755D01*
X133870029Y-109795601D01*
X133808742Y-109647642D01*
X133777500Y-109490575D01*
X133777500Y-109330425D01*
X133808742Y-109173358D01*
X133870029Y-109025399D01*
X133958999Y-108892245D01*
X134072245Y-108778999D01*
X134205399Y-108690029D01*
X134353358Y-108628742D01*
X134510425Y-108597500D01*
X134670575Y-108597500D01*
X134827642Y-108628742D01*
X134827642Y-108628742D01*
G37*
G36*
X91726818Y-102096153D02*
G01*
X91945385Y-102186687D01*
X91945387Y-102186688D01*
X92142093Y-102318122D01*
X92309378Y-102485407D01*
X92440812Y-102682113D01*
X92440813Y-102682115D01*
X92531347Y-102900682D01*
X92577500Y-103132710D01*
X92577500Y-103369290D01*
X92531347Y-103601318D01*
X92474160Y-103739378D01*
X92440812Y-103819887D01*
X92309378Y-104016593D01*
X92142093Y-104183878D01*
X91945387Y-104315312D01*
X91945386Y-104315313D01*
X91945385Y-104315313D01*
X91726818Y-104405847D01*
X91494790Y-104452000D01*
X91258210Y-104452000D01*
X91026182Y-104405847D01*
X90807615Y-104315313D01*
X90807614Y-104315313D01*
X90807613Y-104315312D01*
X90610907Y-104183878D01*
X90443622Y-104016593D01*
X90312188Y-103819887D01*
X90278840Y-103739378D01*
X90221653Y-103601318D01*
X90175500Y-103369290D01*
X90175500Y-103132710D01*
X90221653Y-102900682D01*
X90312187Y-102682115D01*
X90312188Y-102682113D01*
X90443622Y-102485407D01*
X90610907Y-102318122D01*
X90807613Y-102186688D01*
X90807615Y-102186687D01*
X91026182Y-102096153D01*
X91258210Y-102050000D01*
X91494790Y-102050000D01*
X91726818Y-102096153D01*
X91726818Y-102096153D01*
G37*
G36*
X128302818Y-102096153D02*
G01*
X128521385Y-102186687D01*
X128521387Y-102186688D01*
X128718093Y-102318122D01*
X128885378Y-102485407D01*
X129016812Y-102682113D01*
X129016813Y-102682115D01*
X129107347Y-102900682D01*
X129153500Y-103132710D01*
X129153500Y-103369290D01*
X129107347Y-103601318D01*
X129050160Y-103739378D01*
X129016812Y-103819887D01*
X128885378Y-104016593D01*
X128718093Y-104183878D01*
X128521387Y-104315312D01*
X128521386Y-104315313D01*
X128521385Y-104315313D01*
X128302818Y-104405847D01*
X128070790Y-104452000D01*
X127834210Y-104452000D01*
X127602182Y-104405847D01*
X127383615Y-104315313D01*
X127383614Y-104315313D01*
X127383613Y-104315312D01*
X127186907Y-104183878D01*
X127019622Y-104016593D01*
X126888188Y-103819887D01*
X126854840Y-103739378D01*
X126797653Y-103601318D01*
X126751500Y-103369290D01*
X126751500Y-103132710D01*
X126797653Y-102900682D01*
X126888187Y-102682115D01*
X126888188Y-102682113D01*
X127019622Y-102485407D01*
X127186907Y-102318122D01*
X127383613Y-102186688D01*
X127383615Y-102186687D01*
X127602182Y-102096153D01*
X127834210Y-102050000D01*
X128070790Y-102050000D01*
X128302818Y-102096153D01*
X128302818Y-102096153D01*
G37*
G36*
X171228818Y-101651653D02*
G01*
X171447385Y-101742187D01*
X171447387Y-101742188D01*
X171644093Y-101873622D01*
X171811378Y-102040907D01*
X171908785Y-102186688D01*
X171942813Y-102237615D01*
X172033347Y-102456182D01*
X172079500Y-102688210D01*
X172079500Y-102924790D01*
X172033347Y-103156818D01*
X171942813Y-103375385D01*
X171942812Y-103375387D01*
X171811378Y-103572093D01*
X171644093Y-103739378D01*
X171447387Y-103870812D01*
X171447386Y-103870813D01*
X171447385Y-103870813D01*
X171228818Y-103961347D01*
X170996790Y-104007500D01*
X170760210Y-104007500D01*
X170528182Y-103961347D01*
X170309615Y-103870813D01*
X170309614Y-103870813D01*
X170309613Y-103870812D01*
X170112907Y-103739378D01*
X169945622Y-103572093D01*
X169814188Y-103375387D01*
X169814187Y-103375385D01*
X169723653Y-103156818D01*
X169677500Y-102924790D01*
X169677500Y-102688210D01*
X169723653Y-102456182D01*
X169814187Y-102237615D01*
X169848215Y-102186688D01*
X169945622Y-102040907D01*
X170112907Y-101873622D01*
X170309613Y-101742188D01*
X170309615Y-101742187D01*
X170528182Y-101651653D01*
X170760210Y-101605500D01*
X170996790Y-101605500D01*
X171228818Y-101651653D01*
X171228818Y-101651653D01*
G37*
G36*
X134652818Y-101651653D02*
G01*
X134871385Y-101742187D01*
X134871387Y-101742188D01*
X135068093Y-101873622D01*
X135235378Y-102040907D01*
X135332785Y-102186688D01*
X135366813Y-102237615D01*
X135457347Y-102456182D01*
X135503500Y-102688210D01*
X135503500Y-102924790D01*
X135457347Y-103156818D01*
X135366813Y-103375385D01*
X135366812Y-103375387D01*
X135235378Y-103572093D01*
X135068093Y-103739378D01*
X134871387Y-103870812D01*
X134871386Y-103870813D01*
X134871385Y-103870813D01*
X134652818Y-103961347D01*
X134420790Y-104007500D01*
X134184210Y-104007500D01*
X133952182Y-103961347D01*
X133733615Y-103870813D01*
X133733614Y-103870813D01*
X133733613Y-103870812D01*
X133536907Y-103739378D01*
X133369622Y-103572093D01*
X133238188Y-103375387D01*
X133238187Y-103375385D01*
X133147653Y-103156818D01*
X133101500Y-102924790D01*
X133101500Y-102688210D01*
X133147653Y-102456182D01*
X133238187Y-102237615D01*
X133272215Y-102186688D01*
X133369622Y-102040907D01*
X133536907Y-101873622D01*
X133733613Y-101742188D01*
X133733615Y-101742187D01*
X133952182Y-101651653D01*
X134184210Y-101605500D01*
X134420790Y-101605500D01*
X134652818Y-101651653D01*
X134652818Y-101651653D01*
G37*
G36*
X171546318Y-92888653D02*
G01*
X171764885Y-92979187D01*
X171764887Y-92979188D01*
X171961593Y-93110622D01*
X172128878Y-93277907D01*
X172175455Y-93347615D01*
X172260313Y-93474615D01*
X172350847Y-93693182D01*
X172397000Y-93925210D01*
X172397000Y-94161790D01*
X172350847Y-94393818D01*
X172260313Y-94612385D01*
X172260312Y-94612387D01*
X172128878Y-94809093D01*
X171961593Y-94976378D01*
X171764887Y-95107812D01*
X171764886Y-95107813D01*
X171764885Y-95107813D01*
X171546318Y-95198347D01*
X171314290Y-95244500D01*
X171077710Y-95244500D01*
X170845682Y-95198347D01*
X170627115Y-95107813D01*
X170627114Y-95107813D01*
X170627113Y-95107812D01*
X170430407Y-94976378D01*
X170263122Y-94809093D01*
X170131688Y-94612387D01*
X170131687Y-94612385D01*
X170041153Y-94393818D01*
X169995000Y-94161790D01*
X169995000Y-93925210D01*
X170041153Y-93693182D01*
X170131687Y-93474615D01*
X170216545Y-93347615D01*
X170263122Y-93277907D01*
X170430407Y-93110622D01*
X170627113Y-92979188D01*
X170627115Y-92979187D01*
X170845682Y-92888653D01*
X171077710Y-92842500D01*
X171314290Y-92842500D01*
X171546318Y-92888653D01*
X171546318Y-92888653D01*
G37*
G36*
X134970318Y-92888653D02*
G01*
X135188885Y-92979187D01*
X135188887Y-92979188D01*
X135385593Y-93110622D01*
X135552878Y-93277907D01*
X135599455Y-93347615D01*
X135684313Y-93474615D01*
X135774847Y-93693182D01*
X135821000Y-93925210D01*
X135821000Y-94161790D01*
X135774847Y-94393818D01*
X135684313Y-94612385D01*
X135684312Y-94612387D01*
X135552878Y-94809093D01*
X135385593Y-94976378D01*
X135188887Y-95107812D01*
X135188886Y-95107813D01*
X135188885Y-95107813D01*
X134970318Y-95198347D01*
X134738290Y-95244500D01*
X134501710Y-95244500D01*
X134269682Y-95198347D01*
X134051115Y-95107813D01*
X134051114Y-95107813D01*
X134051113Y-95107812D01*
X133854407Y-94976378D01*
X133687122Y-94809093D01*
X133555688Y-94612387D01*
X133555687Y-94612385D01*
X133465153Y-94393818D01*
X133419000Y-94161790D01*
X133419000Y-93925210D01*
X133465153Y-93693182D01*
X133555687Y-93474615D01*
X133640545Y-93347615D01*
X133687122Y-93277907D01*
X133854407Y-93110622D01*
X134051113Y-92979188D01*
X134051115Y-92979187D01*
X134269682Y-92888653D01*
X134501710Y-92842500D01*
X134738290Y-92842500D01*
X134970318Y-92888653D01*
X134970318Y-92888653D01*
G37*
G36*
X129699818Y-92761653D02*
G01*
X129918385Y-92852187D01*
X129918387Y-92852188D01*
X130115093Y-92983622D01*
X130282378Y-93150907D01*
X130371384Y-93284115D01*
X130413813Y-93347615D01*
X130504347Y-93566182D01*
X130550500Y-93798210D01*
X130550500Y-94034790D01*
X130504347Y-94266818D01*
X130440115Y-94421887D01*
X130413812Y-94485387D01*
X130282378Y-94682093D01*
X130115093Y-94849378D01*
X129918387Y-94980812D01*
X129918386Y-94980813D01*
X129918385Y-94980813D01*
X129699818Y-95071347D01*
X129467790Y-95117500D01*
X129231210Y-95117500D01*
X128999182Y-95071347D01*
X128780615Y-94980813D01*
X128780614Y-94980813D01*
X128780613Y-94980812D01*
X128583907Y-94849378D01*
X128416622Y-94682093D01*
X128285188Y-94485387D01*
X128258885Y-94421887D01*
X128194653Y-94266818D01*
X128148500Y-94034790D01*
X128148500Y-93798210D01*
X128194653Y-93566182D01*
X128285187Y-93347615D01*
X128327616Y-93284115D01*
X128416622Y-93150907D01*
X128583907Y-92983622D01*
X128780613Y-92852188D01*
X128780615Y-92852187D01*
X128999182Y-92761653D01*
X129231210Y-92715500D01*
X129467790Y-92715500D01*
X129699818Y-92761653D01*
X129699818Y-92761653D01*
G37*
G36*
X93123818Y-92761653D02*
G01*
X93342385Y-92852187D01*
X93342387Y-92852188D01*
X93539093Y-92983622D01*
X93706378Y-93150907D01*
X93795384Y-93284115D01*
X93837813Y-93347615D01*
X93928347Y-93566182D01*
X93974500Y-93798210D01*
X93974500Y-94034790D01*
X93928347Y-94266818D01*
X93864115Y-94421887D01*
X93837812Y-94485387D01*
X93706378Y-94682093D01*
X93539093Y-94849378D01*
X93342387Y-94980812D01*
X93342386Y-94980813D01*
X93342385Y-94980813D01*
X93123818Y-95071347D01*
X92891790Y-95117500D01*
X92655210Y-95117500D01*
X92423182Y-95071347D01*
X92204615Y-94980813D01*
X92204614Y-94980813D01*
X92204613Y-94980812D01*
X92007907Y-94849378D01*
X91840622Y-94682093D01*
X91709188Y-94485387D01*
X91682885Y-94421887D01*
X91618653Y-94266818D01*
X91572500Y-94034790D01*
X91572500Y-93798210D01*
X91618653Y-93566182D01*
X91709187Y-93347615D01*
X91751616Y-93284115D01*
X91840622Y-93150907D01*
X92007907Y-92983622D01*
X92204613Y-92852188D01*
X92204615Y-92852187D01*
X92423182Y-92761653D01*
X92655210Y-92715500D01*
X92891790Y-92715500D01*
X93123818Y-92761653D01*
X93123818Y-92761653D01*
G37*
G36*
X87154818Y-92698153D02*
G01*
X87373385Y-92788687D01*
X87373387Y-92788688D01*
X87570093Y-92920122D01*
X87737378Y-93087407D01*
X87864665Y-93277907D01*
X87868813Y-93284115D01*
X87959347Y-93502682D01*
X88005500Y-93734710D01*
X88005500Y-93971290D01*
X87959347Y-94203318D01*
X87880439Y-94393818D01*
X87868812Y-94421887D01*
X87737378Y-94618593D01*
X87570093Y-94785878D01*
X87373387Y-94917312D01*
X87373386Y-94917313D01*
X87373385Y-94917313D01*
X87154818Y-95007847D01*
X86922790Y-95054000D01*
X86686210Y-95054000D01*
X86454182Y-95007847D01*
X86235615Y-94917313D01*
X86235614Y-94917313D01*
X86235613Y-94917312D01*
X86038907Y-94785878D01*
X85871622Y-94618593D01*
X85740188Y-94421887D01*
X85728561Y-94393818D01*
X85649653Y-94203318D01*
X85603500Y-93971290D01*
X85603500Y-93734710D01*
X85649653Y-93502682D01*
X85740187Y-93284115D01*
X85744335Y-93277907D01*
X85871622Y-93087407D01*
X86038907Y-92920122D01*
X86235613Y-92788688D01*
X86235615Y-92788687D01*
X86454182Y-92698153D01*
X86686210Y-92652000D01*
X86922790Y-92652000D01*
X87154818Y-92698153D01*
X87154818Y-92698153D01*
G37*
G36*
X50578818Y-92698153D02*
G01*
X50797385Y-92788687D01*
X50797387Y-92788688D01*
X50994093Y-92920122D01*
X51161378Y-93087407D01*
X51288665Y-93277907D01*
X51292813Y-93284115D01*
X51383347Y-93502682D01*
X51429500Y-93734710D01*
X51429500Y-93971290D01*
X51383347Y-94203318D01*
X51304439Y-94393818D01*
X51292812Y-94421887D01*
X51161378Y-94618593D01*
X50994093Y-94785878D01*
X50797387Y-94917312D01*
X50797386Y-94917313D01*
X50797385Y-94917313D01*
X50578818Y-95007847D01*
X50346790Y-95054000D01*
X50110210Y-95054000D01*
X49878182Y-95007847D01*
X49659615Y-94917313D01*
X49659614Y-94917313D01*
X49659613Y-94917312D01*
X49462907Y-94785878D01*
X49295622Y-94618593D01*
X49164188Y-94421887D01*
X49152561Y-94393818D01*
X49073653Y-94203318D01*
X49027500Y-93971290D01*
X49027500Y-93734710D01*
X49073653Y-93502682D01*
X49164187Y-93284115D01*
X49168335Y-93277907D01*
X49295622Y-93087407D01*
X49462907Y-92920122D01*
X49659613Y-92788688D01*
X49659615Y-92788687D01*
X49878182Y-92698153D01*
X50110210Y-92652000D01*
X50346790Y-92652000D01*
X50578818Y-92698153D01*
X50578818Y-92698153D01*
G37*
G36*
X135145142Y-86657742D02*
G01*
X135293101Y-86719029D01*
X135426255Y-86807999D01*
X135539501Y-86921245D01*
X135628471Y-87054399D01*
X135689758Y-87202358D01*
X135721000Y-87359425D01*
X135721000Y-87519575D01*
X135689758Y-87676642D01*
X135628471Y-87824601D01*
X135539501Y-87957755D01*
X135426255Y-88071001D01*
X135293101Y-88159971D01*
X135145142Y-88221258D01*
X134988075Y-88252500D01*
X134827925Y-88252500D01*
X134670858Y-88221258D01*
X134522899Y-88159971D01*
X134389745Y-88071001D01*
X134276499Y-87957755D01*
X134187529Y-87824601D01*
X134126242Y-87676642D01*
X134095000Y-87519575D01*
X134095000Y-87359425D01*
X134126242Y-87202358D01*
X134187529Y-87054399D01*
X134276499Y-86921245D01*
X134389745Y-86807999D01*
X134522899Y-86719029D01*
X134670858Y-86657742D01*
X134827925Y-86626500D01*
X134988075Y-86626500D01*
X135145142Y-86657742D01*
X135145142Y-86657742D01*
G37*
G36*
X93298642Y-86530742D02*
G01*
X93446601Y-86592029D01*
X93579755Y-86680999D01*
X93693001Y-86794245D01*
X93781971Y-86927399D01*
X93843258Y-87075358D01*
X93874500Y-87232425D01*
X93874500Y-87392575D01*
X93843258Y-87549642D01*
X93781971Y-87697601D01*
X93693001Y-87830755D01*
X93579755Y-87944001D01*
X93446601Y-88032971D01*
X93298642Y-88094258D01*
X93141575Y-88125500D01*
X92981425Y-88125500D01*
X92824358Y-88094258D01*
X92676399Y-88032971D01*
X92543245Y-87944001D01*
X92429999Y-87830755D01*
X92341029Y-87697601D01*
X92279742Y-87549642D01*
X92248500Y-87392575D01*
X92248500Y-87232425D01*
X92279742Y-87075358D01*
X92341029Y-86927399D01*
X92429999Y-86794245D01*
X92543245Y-86680999D01*
X92676399Y-86592029D01*
X92824358Y-86530742D01*
X92981425Y-86499500D01*
X93141575Y-86499500D01*
X93298642Y-86530742D01*
X93298642Y-86530742D01*
G37*
G36*
X50753642Y-86467242D02*
G01*
X50901601Y-86528529D01*
X51034755Y-86617499D01*
X51148001Y-86730745D01*
X51236971Y-86863899D01*
X51298258Y-87011858D01*
X51329500Y-87168925D01*
X51329500Y-87329075D01*
X51298258Y-87486142D01*
X51236971Y-87634101D01*
X51148001Y-87767255D01*
X51034755Y-87880501D01*
X50901601Y-87969471D01*
X50753642Y-88030758D01*
X50596575Y-88062000D01*
X50436425Y-88062000D01*
X50279358Y-88030758D01*
X50131399Y-87969471D01*
X49998245Y-87880501D01*
X49884999Y-87767255D01*
X49796029Y-87634101D01*
X49734742Y-87486142D01*
X49703500Y-87329075D01*
X49703500Y-87168925D01*
X49734742Y-87011858D01*
X49796029Y-86863899D01*
X49884999Y-86730745D01*
X49998245Y-86617499D01*
X50131399Y-86528529D01*
X50279358Y-86467242D01*
X50436425Y-86436000D01*
X50596575Y-86436000D01*
X50753642Y-86467242D01*
X50753642Y-86467242D01*
G37*
G36*
X135145142Y-84117742D02*
G01*
X135293101Y-84179029D01*
X135426255Y-84267999D01*
X135539501Y-84381245D01*
X135628471Y-84514399D01*
X135689758Y-84662358D01*
X135721000Y-84819425D01*
X135721000Y-84979575D01*
X135689758Y-85136642D01*
X135628471Y-85284601D01*
X135539501Y-85417755D01*
X135426255Y-85531001D01*
X135293101Y-85619971D01*
X135145142Y-85681258D01*
X134988075Y-85712500D01*
X134827925Y-85712500D01*
X134670858Y-85681258D01*
X134522899Y-85619971D01*
X134389745Y-85531001D01*
X134276499Y-85417755D01*
X134187529Y-85284601D01*
X134126242Y-85136642D01*
X134095000Y-84979575D01*
X134095000Y-84819425D01*
X134126242Y-84662358D01*
X134187529Y-84514399D01*
X134276499Y-84381245D01*
X134389745Y-84267999D01*
X134522899Y-84179029D01*
X134670858Y-84117742D01*
X134827925Y-84086500D01*
X134988075Y-84086500D01*
X135145142Y-84117742D01*
X135145142Y-84117742D01*
G37*
G36*
X93298642Y-83990742D02*
G01*
X93446601Y-84052029D01*
X93579755Y-84140999D01*
X93693001Y-84254245D01*
X93781971Y-84387399D01*
X93843258Y-84535358D01*
X93874500Y-84692425D01*
X93874500Y-84852575D01*
X93843258Y-85009642D01*
X93781971Y-85157601D01*
X93693001Y-85290755D01*
X93579755Y-85404001D01*
X93446601Y-85492971D01*
X93298642Y-85554258D01*
X93141575Y-85585500D01*
X92981425Y-85585500D01*
X92824358Y-85554258D01*
X92676399Y-85492971D01*
X92543245Y-85404001D01*
X92429999Y-85290755D01*
X92341029Y-85157601D01*
X92279742Y-85009642D01*
X92248500Y-84852575D01*
X92248500Y-84692425D01*
X92279742Y-84535358D01*
X92341029Y-84387399D01*
X92429999Y-84254245D01*
X92543245Y-84140999D01*
X92676399Y-84052029D01*
X92824358Y-83990742D01*
X92981425Y-83959500D01*
X93141575Y-83959500D01*
X93298642Y-83990742D01*
X93298642Y-83990742D01*
G37*
G36*
X50753642Y-83927242D02*
G01*
X50901601Y-83988529D01*
X51034755Y-84077499D01*
X51148001Y-84190745D01*
X51236971Y-84323899D01*
X51298258Y-84471858D01*
X51329500Y-84628925D01*
X51329500Y-84789075D01*
X51298258Y-84946142D01*
X51236971Y-85094101D01*
X51148001Y-85227255D01*
X51034755Y-85340501D01*
X50901601Y-85429471D01*
X50753642Y-85490758D01*
X50596575Y-85522000D01*
X50436425Y-85522000D01*
X50279358Y-85490758D01*
X50131399Y-85429471D01*
X49998245Y-85340501D01*
X49884999Y-85227255D01*
X49796029Y-85094101D01*
X49734742Y-84946142D01*
X49703500Y-84789075D01*
X49703500Y-84628925D01*
X49734742Y-84471858D01*
X49796029Y-84323899D01*
X49884999Y-84190745D01*
X49998245Y-84077499D01*
X50131399Y-83988529D01*
X50279358Y-83927242D01*
X50436425Y-83896000D01*
X50596575Y-83896000D01*
X50753642Y-83927242D01*
X50753642Y-83927242D01*
G37*
G36*
X135145142Y-81577742D02*
G01*
X135293101Y-81639029D01*
X135426255Y-81727999D01*
X135539501Y-81841245D01*
X135628471Y-81974399D01*
X135689758Y-82122358D01*
X135721000Y-82279425D01*
X135721000Y-82439575D01*
X135689758Y-82596642D01*
X135628471Y-82744601D01*
X135539501Y-82877755D01*
X135426255Y-82991001D01*
X135293101Y-83079971D01*
X135145142Y-83141258D01*
X134988075Y-83172500D01*
X134827925Y-83172500D01*
X134670858Y-83141258D01*
X134522899Y-83079971D01*
X134389745Y-82991001D01*
X134276499Y-82877755D01*
X134187529Y-82744601D01*
X134126242Y-82596642D01*
X134095000Y-82439575D01*
X134095000Y-82279425D01*
X134126242Y-82122358D01*
X134187529Y-81974399D01*
X134276499Y-81841245D01*
X134389745Y-81727999D01*
X134522899Y-81639029D01*
X134670858Y-81577742D01*
X134827925Y-81546500D01*
X134988075Y-81546500D01*
X135145142Y-81577742D01*
X135145142Y-81577742D01*
G37*
G36*
X93298642Y-81450742D02*
G01*
X93446601Y-81512029D01*
X93579755Y-81600999D01*
X93693001Y-81714245D01*
X93781971Y-81847399D01*
X93843258Y-81995358D01*
X93874500Y-82152425D01*
X93874500Y-82312575D01*
X93843258Y-82469642D01*
X93781971Y-82617601D01*
X93693001Y-82750755D01*
X93579755Y-82864001D01*
X93446601Y-82952971D01*
X93298642Y-83014258D01*
X93141575Y-83045500D01*
X92981425Y-83045500D01*
X92824358Y-83014258D01*
X92676399Y-82952971D01*
X92543245Y-82864001D01*
X92429999Y-82750755D01*
X92341029Y-82617601D01*
X92279742Y-82469642D01*
X92248500Y-82312575D01*
X92248500Y-82152425D01*
X92279742Y-81995358D01*
X92341029Y-81847399D01*
X92429999Y-81714245D01*
X92543245Y-81600999D01*
X92676399Y-81512029D01*
X92824358Y-81450742D01*
X92981425Y-81419500D01*
X93141575Y-81419500D01*
X93298642Y-81450742D01*
X93298642Y-81450742D01*
G37*
G36*
X50753642Y-81387242D02*
G01*
X50901601Y-81448529D01*
X51034755Y-81537499D01*
X51148001Y-81650745D01*
X51236971Y-81783899D01*
X51298258Y-81931858D01*
X51329500Y-82088925D01*
X51329500Y-82249075D01*
X51298258Y-82406142D01*
X51236971Y-82554101D01*
X51148001Y-82687255D01*
X51034755Y-82800501D01*
X50901601Y-82889471D01*
X50753642Y-82950758D01*
X50596575Y-82982000D01*
X50436425Y-82982000D01*
X50279358Y-82950758D01*
X50131399Y-82889471D01*
X49998245Y-82800501D01*
X49884999Y-82687255D01*
X49796029Y-82554101D01*
X49734742Y-82406142D01*
X49703500Y-82249075D01*
X49703500Y-82088925D01*
X49734742Y-81931858D01*
X49796029Y-81783899D01*
X49884999Y-81650745D01*
X49998245Y-81537499D01*
X50131399Y-81448529D01*
X50279358Y-81387242D01*
X50436425Y-81356000D01*
X50596575Y-81356000D01*
X50753642Y-81387242D01*
X50753642Y-81387242D01*
G37*
G36*
X135145142Y-79037742D02*
G01*
X135293101Y-79099029D01*
X135426255Y-79187999D01*
X135539501Y-79301245D01*
X135628471Y-79434399D01*
X135689758Y-79582358D01*
X135721000Y-79739425D01*
X135721000Y-79899575D01*
X135689758Y-80056642D01*
X135628471Y-80204601D01*
X135539501Y-80337755D01*
X135426255Y-80451001D01*
X135293101Y-80539971D01*
X135145142Y-80601258D01*
X134988075Y-80632500D01*
X134827925Y-80632500D01*
X134670858Y-80601258D01*
X134522899Y-80539971D01*
X134389745Y-80451001D01*
X134276499Y-80337755D01*
X134187529Y-80204601D01*
X134126242Y-80056642D01*
X134095000Y-79899575D01*
X134095000Y-79739425D01*
X134126242Y-79582358D01*
X134187529Y-79434399D01*
X134276499Y-79301245D01*
X134389745Y-79187999D01*
X134522899Y-79099029D01*
X134670858Y-79037742D01*
X134827925Y-79006500D01*
X134988075Y-79006500D01*
X135145142Y-79037742D01*
X135145142Y-79037742D01*
G37*
G36*
X93298642Y-78910742D02*
G01*
X93446601Y-78972029D01*
X93579755Y-79060999D01*
X93693001Y-79174245D01*
X93781971Y-79307399D01*
X93843258Y-79455358D01*
X93874500Y-79612425D01*
X93874500Y-79772575D01*
X93843258Y-79929642D01*
X93781971Y-80077601D01*
X93693001Y-80210755D01*
X93579755Y-80324001D01*
X93446601Y-80412971D01*
X93298642Y-80474258D01*
X93141575Y-80505500D01*
X92981425Y-80505500D01*
X92824358Y-80474258D01*
X92676399Y-80412971D01*
X92543245Y-80324001D01*
X92429999Y-80210755D01*
X92341029Y-80077601D01*
X92279742Y-79929642D01*
X92248500Y-79772575D01*
X92248500Y-79612425D01*
X92279742Y-79455358D01*
X92341029Y-79307399D01*
X92429999Y-79174245D01*
X92543245Y-79060999D01*
X92676399Y-78972029D01*
X92824358Y-78910742D01*
X92981425Y-78879500D01*
X93141575Y-78879500D01*
X93298642Y-78910742D01*
X93298642Y-78910742D01*
G37*
G36*
X50753642Y-78847242D02*
G01*
X50901601Y-78908529D01*
X51034755Y-78997499D01*
X51148001Y-79110745D01*
X51236971Y-79243899D01*
X51298258Y-79391858D01*
X51329500Y-79548925D01*
X51329500Y-79709075D01*
X51298258Y-79866142D01*
X51236971Y-80014101D01*
X51148001Y-80147255D01*
X51034755Y-80260501D01*
X50901601Y-80349471D01*
X50753642Y-80410758D01*
X50596575Y-80442000D01*
X50436425Y-80442000D01*
X50279358Y-80410758D01*
X50131399Y-80349471D01*
X49998245Y-80260501D01*
X49884999Y-80147255D01*
X49796029Y-80014101D01*
X49734742Y-79866142D01*
X49703500Y-79709075D01*
X49703500Y-79548925D01*
X49734742Y-79391858D01*
X49796029Y-79243899D01*
X49884999Y-79110745D01*
X49998245Y-78997499D01*
X50131399Y-78908529D01*
X50279358Y-78847242D01*
X50436425Y-78816000D01*
X50596575Y-78816000D01*
X50753642Y-78847242D01*
X50753642Y-78847242D01*
G37*
G36*
X134970318Y-72060653D02*
G01*
X135188885Y-72151187D01*
X135188887Y-72151188D01*
X135385593Y-72282622D01*
X135552878Y-72449907D01*
X135599455Y-72519615D01*
X135684313Y-72646615D01*
X135774847Y-72865182D01*
X135821000Y-73097210D01*
X135821000Y-73333790D01*
X135774847Y-73565818D01*
X135684313Y-73784385D01*
X135684312Y-73784387D01*
X135552878Y-73981093D01*
X135385593Y-74148378D01*
X135188887Y-74279812D01*
X135188886Y-74279813D01*
X135188885Y-74279813D01*
X134970318Y-74370347D01*
X134738290Y-74416500D01*
X134501710Y-74416500D01*
X134269682Y-74370347D01*
X134051115Y-74279813D01*
X134051114Y-74279813D01*
X134051113Y-74279812D01*
X133854407Y-74148378D01*
X133687122Y-73981093D01*
X133555688Y-73784387D01*
X133555687Y-73784385D01*
X133465153Y-73565818D01*
X133419000Y-73333790D01*
X133419000Y-73097210D01*
X133465153Y-72865182D01*
X133555687Y-72646615D01*
X133640545Y-72519615D01*
X133687122Y-72449907D01*
X133854407Y-72282622D01*
X134051113Y-72151188D01*
X134051115Y-72151187D01*
X134269682Y-72060653D01*
X134501710Y-72014500D01*
X134738290Y-72014500D01*
X134970318Y-72060653D01*
X134970318Y-72060653D01*
G37*
G36*
X171546318Y-72060653D02*
G01*
X171764885Y-72151187D01*
X171764887Y-72151188D01*
X171961593Y-72282622D01*
X172128878Y-72449907D01*
X172175455Y-72519615D01*
X172260313Y-72646615D01*
X172350847Y-72865182D01*
X172397000Y-73097210D01*
X172397000Y-73333790D01*
X172350847Y-73565818D01*
X172260313Y-73784385D01*
X172260312Y-73784387D01*
X172128878Y-73981093D01*
X171961593Y-74148378D01*
X171764887Y-74279812D01*
X171764886Y-74279813D01*
X171764885Y-74279813D01*
X171546318Y-74370347D01*
X171314290Y-74416500D01*
X171077710Y-74416500D01*
X170845682Y-74370347D01*
X170627115Y-74279813D01*
X170627114Y-74279813D01*
X170627113Y-74279812D01*
X170430407Y-74148378D01*
X170263122Y-73981093D01*
X170131688Y-73784387D01*
X170131687Y-73784385D01*
X170041153Y-73565818D01*
X169995000Y-73333790D01*
X169995000Y-73097210D01*
X170041153Y-72865182D01*
X170131687Y-72646615D01*
X170216545Y-72519615D01*
X170263122Y-72449907D01*
X170430407Y-72282622D01*
X170627113Y-72151188D01*
X170627115Y-72151187D01*
X170845682Y-72060653D01*
X171077710Y-72014500D01*
X171314290Y-72014500D01*
X171546318Y-72060653D01*
X171546318Y-72060653D01*
G37*
G36*
X129699818Y-71933653D02*
G01*
X129918385Y-72024187D01*
X129918387Y-72024188D01*
X130115093Y-72155622D01*
X130282378Y-72322907D01*
X130371384Y-72456115D01*
X130413813Y-72519615D01*
X130504347Y-72738182D01*
X130550500Y-72970210D01*
X130550500Y-73206790D01*
X130504347Y-73438818D01*
X130440115Y-73593887D01*
X130413812Y-73657387D01*
X130282378Y-73854093D01*
X130115093Y-74021378D01*
X129918387Y-74152812D01*
X129918386Y-74152813D01*
X129918385Y-74152813D01*
X129699818Y-74243347D01*
X129467790Y-74289500D01*
X129231210Y-74289500D01*
X128999182Y-74243347D01*
X128780615Y-74152813D01*
X128780614Y-74152813D01*
X128780613Y-74152812D01*
X128583907Y-74021378D01*
X128416622Y-73854093D01*
X128285188Y-73657387D01*
X128258885Y-73593887D01*
X128194653Y-73438818D01*
X128148500Y-73206790D01*
X128148500Y-72970210D01*
X128194653Y-72738182D01*
X128285187Y-72519615D01*
X128327616Y-72456115D01*
X128416622Y-72322907D01*
X128583907Y-72155622D01*
X128780613Y-72024188D01*
X128780615Y-72024187D01*
X128999182Y-71933653D01*
X129231210Y-71887500D01*
X129467790Y-71887500D01*
X129699818Y-71933653D01*
X129699818Y-71933653D01*
G37*
G36*
X93123818Y-71933653D02*
G01*
X93342385Y-72024187D01*
X93342387Y-72024188D01*
X93539093Y-72155622D01*
X93706378Y-72322907D01*
X93795384Y-72456115D01*
X93837813Y-72519615D01*
X93928347Y-72738182D01*
X93974500Y-72970210D01*
X93974500Y-73206790D01*
X93928347Y-73438818D01*
X93864115Y-73593887D01*
X93837812Y-73657387D01*
X93706378Y-73854093D01*
X93539093Y-74021378D01*
X93342387Y-74152812D01*
X93342386Y-74152813D01*
X93342385Y-74152813D01*
X93123818Y-74243347D01*
X92891790Y-74289500D01*
X92655210Y-74289500D01*
X92423182Y-74243347D01*
X92204615Y-74152813D01*
X92204614Y-74152813D01*
X92204613Y-74152812D01*
X92007907Y-74021378D01*
X91840622Y-73854093D01*
X91709188Y-73657387D01*
X91682885Y-73593887D01*
X91618653Y-73438818D01*
X91572500Y-73206790D01*
X91572500Y-72970210D01*
X91618653Y-72738182D01*
X91709187Y-72519615D01*
X91751616Y-72456115D01*
X91840622Y-72322907D01*
X92007907Y-72155622D01*
X92204613Y-72024188D01*
X92204615Y-72024187D01*
X92423182Y-71933653D01*
X92655210Y-71887500D01*
X92891790Y-71887500D01*
X93123818Y-71933653D01*
X93123818Y-71933653D01*
G37*
G36*
X50578818Y-71870153D02*
G01*
X50797385Y-71960687D01*
X50797387Y-71960688D01*
X50994093Y-72092122D01*
X51161378Y-72259407D01*
X51288665Y-72449907D01*
X51292813Y-72456115D01*
X51383347Y-72674682D01*
X51429500Y-72906710D01*
X51429500Y-73143290D01*
X51383347Y-73375318D01*
X51304439Y-73565818D01*
X51292812Y-73593887D01*
X51161378Y-73790593D01*
X50994093Y-73957878D01*
X50797387Y-74089312D01*
X50797386Y-74089313D01*
X50797385Y-74089313D01*
X50578818Y-74179847D01*
X50346790Y-74226000D01*
X50110210Y-74226000D01*
X49878182Y-74179847D01*
X49659615Y-74089313D01*
X49659614Y-74089313D01*
X49659613Y-74089312D01*
X49462907Y-73957878D01*
X49295622Y-73790593D01*
X49164188Y-73593887D01*
X49152561Y-73565818D01*
X49073653Y-73375318D01*
X49027500Y-73143290D01*
X49027500Y-72906710D01*
X49073653Y-72674682D01*
X49164187Y-72456115D01*
X49168335Y-72449907D01*
X49295622Y-72259407D01*
X49462907Y-72092122D01*
X49659613Y-71960688D01*
X49659615Y-71960687D01*
X49878182Y-71870153D01*
X50110210Y-71824000D01*
X50346790Y-71824000D01*
X50578818Y-71870153D01*
X50578818Y-71870153D01*
G37*
G36*
X87154818Y-71870153D02*
G01*
X87373385Y-71960687D01*
X87373387Y-71960688D01*
X87570093Y-72092122D01*
X87737378Y-72259407D01*
X87864665Y-72449907D01*
X87868813Y-72456115D01*
X87959347Y-72674682D01*
X88005500Y-72906710D01*
X88005500Y-73143290D01*
X87959347Y-73375318D01*
X87880439Y-73565818D01*
X87868812Y-73593887D01*
X87737378Y-73790593D01*
X87570093Y-73957878D01*
X87373387Y-74089312D01*
X87373386Y-74089313D01*
X87373385Y-74089313D01*
X87154818Y-74179847D01*
X86922790Y-74226000D01*
X86686210Y-74226000D01*
X86454182Y-74179847D01*
X86235615Y-74089313D01*
X86235614Y-74089313D01*
X86235613Y-74089312D01*
X86038907Y-73957878D01*
X85871622Y-73790593D01*
X85740188Y-73593887D01*
X85728561Y-73565818D01*
X85649653Y-73375318D01*
X85603500Y-73143290D01*
X85603500Y-72906710D01*
X85649653Y-72674682D01*
X85740187Y-72456115D01*
X85744335Y-72449907D01*
X85871622Y-72259407D01*
X86038907Y-72092122D01*
X86235613Y-71960688D01*
X86235615Y-71960687D01*
X86454182Y-71870153D01*
X86686210Y-71824000D01*
X86922790Y-71824000D01*
X87154818Y-71870153D01*
X87154818Y-71870153D01*
G37*
M02*
