G04 #@! TF.GenerationSoftware,KiCad,Pcbnew,(5.1.0)-1*
G04 #@! TF.CreationDate,2019-06-13T21:54:41+03:00*
G04 #@! TF.ProjectId,Eco-PCB-2,45636f2d-5043-4422-9d32-2e6b69636164,rev?*
G04 #@! TF.SameCoordinates,Original*
G04 #@! TF.FileFunction,Soldermask,Top*
G04 #@! TF.FilePolarity,Negative*
%FSLAX46Y46*%
G04 Gerber Fmt 4.6, Leading zero omitted, Abs format (unit mm)*
G04 Created by KiCad (PCBNEW (5.1.0)-1) date 2019-06-13 21:54:41*
%MOMM*%
%LPD*%
G04 APERTURE LIST*
%ADD10C,0.100000*%
G04 APERTURE END LIST*
D10*
G36*
X106355364Y-147184189D02*
G01*
X106546633Y-147263415D01*
X106546635Y-147263416D01*
X106718773Y-147378435D01*
X106865165Y-147524827D01*
X106980185Y-147696967D01*
X107059411Y-147888236D01*
X107099800Y-148091284D01*
X107099800Y-148298316D01*
X107059411Y-148501364D01*
X106980185Y-148692633D01*
X106980184Y-148692635D01*
X106865165Y-148864773D01*
X106718773Y-149011165D01*
X106546635Y-149126184D01*
X106546634Y-149126185D01*
X106546633Y-149126185D01*
X106355364Y-149205411D01*
X106152316Y-149245800D01*
X105945284Y-149245800D01*
X105742236Y-149205411D01*
X105550967Y-149126185D01*
X105550966Y-149126185D01*
X105550965Y-149126184D01*
X105378827Y-149011165D01*
X105232435Y-148864773D01*
X105117416Y-148692635D01*
X105117415Y-148692633D01*
X105038189Y-148501364D01*
X104997800Y-148298316D01*
X104997800Y-148091284D01*
X105038189Y-147888236D01*
X105117415Y-147696967D01*
X105232435Y-147524827D01*
X105378827Y-147378435D01*
X105550965Y-147263416D01*
X105550967Y-147263415D01*
X105742236Y-147184189D01*
X105945284Y-147143800D01*
X106152316Y-147143800D01*
X106355364Y-147184189D01*
X106355364Y-147184189D01*
G37*
G36*
X120003654Y-142731618D02*
G01*
X120376911Y-142886226D01*
X120376913Y-142886227D01*
X120712836Y-143110684D01*
X120998516Y-143396364D01*
X121222974Y-143732289D01*
X121377582Y-144105546D01*
X121456400Y-144501793D01*
X121456400Y-144905807D01*
X121377582Y-145302054D01*
X121222974Y-145675311D01*
X121222973Y-145675313D01*
X120998516Y-146011236D01*
X120712836Y-146296916D01*
X120376913Y-146521373D01*
X120376912Y-146521374D01*
X120376911Y-146521374D01*
X120003654Y-146675982D01*
X119607407Y-146754800D01*
X119203393Y-146754800D01*
X118807146Y-146675982D01*
X118433889Y-146521374D01*
X118433888Y-146521374D01*
X118433887Y-146521373D01*
X118097964Y-146296916D01*
X117812284Y-146011236D01*
X117587827Y-145675313D01*
X117587826Y-145675311D01*
X117433218Y-145302054D01*
X117354400Y-144905807D01*
X117354400Y-144501793D01*
X117433218Y-144105546D01*
X117587826Y-143732289D01*
X117812284Y-143396364D01*
X118097964Y-143110684D01*
X118433887Y-142886227D01*
X118433889Y-142886226D01*
X118807146Y-142731618D01*
X119203393Y-142652800D01*
X119607407Y-142652800D01*
X120003654Y-142731618D01*
X120003654Y-142731618D01*
G37*
G36*
X129802542Y-138130842D02*
G01*
X129950501Y-138192129D01*
X130083655Y-138281099D01*
X130196901Y-138394345D01*
X130285871Y-138527499D01*
X130347158Y-138675458D01*
X130378400Y-138832525D01*
X130378400Y-138992675D01*
X130347158Y-139149742D01*
X130285871Y-139297701D01*
X130196901Y-139430855D01*
X130083655Y-139544101D01*
X129950501Y-139633071D01*
X129802542Y-139694358D01*
X129645475Y-139725600D01*
X129485325Y-139725600D01*
X129328258Y-139694358D01*
X129180299Y-139633071D01*
X129047145Y-139544101D01*
X128933899Y-139430855D01*
X128844929Y-139297701D01*
X128783642Y-139149742D01*
X128752400Y-138992675D01*
X128752400Y-138832525D01*
X128783642Y-138675458D01*
X128844929Y-138527499D01*
X128933899Y-138394345D01*
X129047145Y-138281099D01*
X129180299Y-138192129D01*
X129328258Y-138130842D01*
X129485325Y-138099600D01*
X129645475Y-138099600D01*
X129802542Y-138130842D01*
X129802542Y-138130842D01*
G37*
G36*
X118233628Y-136955503D02*
G01*
X118388500Y-137019653D01*
X118527881Y-137112785D01*
X118646415Y-137231319D01*
X118739547Y-137370700D01*
X118803697Y-137525572D01*
X118836400Y-137689984D01*
X118836400Y-137857616D01*
X118803697Y-138022028D01*
X118739547Y-138176900D01*
X118646415Y-138316281D01*
X118527881Y-138434815D01*
X118388500Y-138527947D01*
X118233628Y-138592097D01*
X118069216Y-138624800D01*
X117901584Y-138624800D01*
X117737172Y-138592097D01*
X117582300Y-138527947D01*
X117442919Y-138434815D01*
X117324385Y-138316281D01*
X117231253Y-138176900D01*
X117167103Y-138022028D01*
X117134400Y-137857616D01*
X117134400Y-137689984D01*
X117167103Y-137525572D01*
X117231253Y-137370700D01*
X117324385Y-137231319D01*
X117442919Y-137112785D01*
X117582300Y-137019653D01*
X117737172Y-136955503D01*
X117901584Y-136922800D01*
X118069216Y-136922800D01*
X118233628Y-136955503D01*
X118233628Y-136955503D01*
G37*
G36*
X99270128Y-136798903D02*
G01*
X99425000Y-136863053D01*
X99564381Y-136956185D01*
X99682915Y-137074719D01*
X99776047Y-137214100D01*
X99840197Y-137368972D01*
X99872900Y-137533384D01*
X99872900Y-137701016D01*
X99840197Y-137865428D01*
X99776047Y-138020300D01*
X99682915Y-138159681D01*
X99564381Y-138278215D01*
X99425000Y-138371347D01*
X99270128Y-138435497D01*
X99105716Y-138468200D01*
X98938084Y-138468200D01*
X98773672Y-138435497D01*
X98618800Y-138371347D01*
X98479419Y-138278215D01*
X98360885Y-138159681D01*
X98267753Y-138020300D01*
X98203603Y-137865428D01*
X98170900Y-137701016D01*
X98170900Y-137533384D01*
X98203603Y-137368972D01*
X98267753Y-137214100D01*
X98360885Y-137074719D01*
X98479419Y-136956185D01*
X98618800Y-136863053D01*
X98773672Y-136798903D01*
X98938084Y-136766200D01*
X99105716Y-136766200D01*
X99270128Y-136798903D01*
X99270128Y-136798903D01*
G37*
G36*
X96730128Y-136798903D02*
G01*
X96885000Y-136863053D01*
X97024381Y-136956185D01*
X97142915Y-137074719D01*
X97236047Y-137214100D01*
X97300197Y-137368972D01*
X97332900Y-137533384D01*
X97332900Y-137701016D01*
X97300197Y-137865428D01*
X97236047Y-138020300D01*
X97142915Y-138159681D01*
X97024381Y-138278215D01*
X96885000Y-138371347D01*
X96730128Y-138435497D01*
X96565716Y-138468200D01*
X96398084Y-138468200D01*
X96233672Y-138435497D01*
X96078800Y-138371347D01*
X95939419Y-138278215D01*
X95820885Y-138159681D01*
X95727753Y-138020300D01*
X95663603Y-137865428D01*
X95630900Y-137701016D01*
X95630900Y-137533384D01*
X95663603Y-137368972D01*
X95727753Y-137214100D01*
X95820885Y-137074719D01*
X95939419Y-136956185D01*
X96078800Y-136863053D01*
X96233672Y-136798903D01*
X96398084Y-136766200D01*
X96565716Y-136766200D01*
X96730128Y-136798903D01*
X96730128Y-136798903D01*
G37*
G36*
X94190128Y-136798903D02*
G01*
X94345000Y-136863053D01*
X94484381Y-136956185D01*
X94602915Y-137074719D01*
X94696047Y-137214100D01*
X94760197Y-137368972D01*
X94792900Y-137533384D01*
X94792900Y-137701016D01*
X94760197Y-137865428D01*
X94696047Y-138020300D01*
X94602915Y-138159681D01*
X94484381Y-138278215D01*
X94345000Y-138371347D01*
X94190128Y-138435497D01*
X94025716Y-138468200D01*
X93858084Y-138468200D01*
X93693672Y-138435497D01*
X93538800Y-138371347D01*
X93399419Y-138278215D01*
X93280885Y-138159681D01*
X93187753Y-138020300D01*
X93123603Y-137865428D01*
X93090900Y-137701016D01*
X93090900Y-137533384D01*
X93123603Y-137368972D01*
X93187753Y-137214100D01*
X93280885Y-137074719D01*
X93399419Y-136956185D01*
X93538800Y-136863053D01*
X93693672Y-136798903D01*
X93858084Y-136766200D01*
X94025716Y-136766200D01*
X94190128Y-136798903D01*
X94190128Y-136798903D01*
G37*
G36*
X91650128Y-136798903D02*
G01*
X91805000Y-136863053D01*
X91944381Y-136956185D01*
X92062915Y-137074719D01*
X92156047Y-137214100D01*
X92220197Y-137368972D01*
X92252900Y-137533384D01*
X92252900Y-137701016D01*
X92220197Y-137865428D01*
X92156047Y-138020300D01*
X92062915Y-138159681D01*
X91944381Y-138278215D01*
X91805000Y-138371347D01*
X91650128Y-138435497D01*
X91485716Y-138468200D01*
X91318084Y-138468200D01*
X91153672Y-138435497D01*
X90998800Y-138371347D01*
X90859419Y-138278215D01*
X90740885Y-138159681D01*
X90647753Y-138020300D01*
X90583603Y-137865428D01*
X90550900Y-137701016D01*
X90550900Y-137533384D01*
X90583603Y-137368972D01*
X90647753Y-137214100D01*
X90740885Y-137074719D01*
X90859419Y-136956185D01*
X90998800Y-136863053D01*
X91153672Y-136798903D01*
X91318084Y-136766200D01*
X91485716Y-136766200D01*
X91650128Y-136798903D01*
X91650128Y-136798903D01*
G37*
G36*
X121073628Y-135570503D02*
G01*
X121228500Y-135634653D01*
X121367881Y-135727785D01*
X121486415Y-135846319D01*
X121579547Y-135985700D01*
X121643697Y-136140572D01*
X121676400Y-136304984D01*
X121676400Y-136472616D01*
X121643697Y-136637028D01*
X121579547Y-136791900D01*
X121486415Y-136931281D01*
X121367881Y-137049815D01*
X121228500Y-137142947D01*
X121073628Y-137207097D01*
X120909216Y-137239800D01*
X120741584Y-137239800D01*
X120577172Y-137207097D01*
X120422300Y-137142947D01*
X120282919Y-137049815D01*
X120164385Y-136931281D01*
X120071253Y-136791900D01*
X120007103Y-136637028D01*
X119974400Y-136472616D01*
X119974400Y-136304984D01*
X120007103Y-136140572D01*
X120071253Y-135985700D01*
X120164385Y-135846319D01*
X120282919Y-135727785D01*
X120422300Y-135634653D01*
X120577172Y-135570503D01*
X120741584Y-135537800D01*
X120909216Y-135537800D01*
X121073628Y-135570503D01*
X121073628Y-135570503D01*
G37*
G36*
X132342542Y-135590842D02*
G01*
X132490501Y-135652129D01*
X132623655Y-135741099D01*
X132736901Y-135854345D01*
X132825871Y-135987499D01*
X132887158Y-136135458D01*
X132918400Y-136292525D01*
X132918400Y-136452675D01*
X132887158Y-136609742D01*
X132825871Y-136757701D01*
X132736901Y-136890855D01*
X132623655Y-137004101D01*
X132490501Y-137093071D01*
X132342542Y-137154358D01*
X132185475Y-137185600D01*
X132025325Y-137185600D01*
X131868258Y-137154358D01*
X131720299Y-137093071D01*
X131587145Y-137004101D01*
X131473899Y-136890855D01*
X131384929Y-136757701D01*
X131323642Y-136609742D01*
X131292400Y-136452675D01*
X131292400Y-136292525D01*
X131323642Y-136135458D01*
X131384929Y-135987499D01*
X131473899Y-135854345D01*
X131587145Y-135741099D01*
X131720299Y-135652129D01*
X131868258Y-135590842D01*
X132025325Y-135559600D01*
X132185475Y-135559600D01*
X132342542Y-135590842D01*
X132342542Y-135590842D01*
G37*
G36*
X118233628Y-134185503D02*
G01*
X118388500Y-134249653D01*
X118527881Y-134342785D01*
X118646415Y-134461319D01*
X118739547Y-134600700D01*
X118803697Y-134755572D01*
X118836400Y-134919984D01*
X118836400Y-135087616D01*
X118803697Y-135252028D01*
X118739547Y-135406900D01*
X118646415Y-135546281D01*
X118527881Y-135664815D01*
X118388500Y-135757947D01*
X118233628Y-135822097D01*
X118069216Y-135854800D01*
X117901584Y-135854800D01*
X117737172Y-135822097D01*
X117582300Y-135757947D01*
X117442919Y-135664815D01*
X117324385Y-135546281D01*
X117231253Y-135406900D01*
X117167103Y-135252028D01*
X117134400Y-135087616D01*
X117134400Y-134919984D01*
X117167103Y-134755572D01*
X117231253Y-134600700D01*
X117324385Y-134461319D01*
X117442919Y-134342785D01*
X117582300Y-134249653D01*
X117737172Y-134185503D01*
X117901584Y-134152800D01*
X118069216Y-134152800D01*
X118233628Y-134185503D01*
X118233628Y-134185503D01*
G37*
G36*
X129802542Y-133050842D02*
G01*
X129950501Y-133112129D01*
X130083655Y-133201099D01*
X130196901Y-133314345D01*
X130285871Y-133447499D01*
X130347158Y-133595458D01*
X130378400Y-133752525D01*
X130378400Y-133912675D01*
X130347158Y-134069742D01*
X130285871Y-134217701D01*
X130196901Y-134350855D01*
X130083655Y-134464101D01*
X129950501Y-134553071D01*
X129802542Y-134614358D01*
X129645475Y-134645600D01*
X129485325Y-134645600D01*
X129328258Y-134614358D01*
X129180299Y-134553071D01*
X129047145Y-134464101D01*
X128933899Y-134350855D01*
X128844929Y-134217701D01*
X128783642Y-134069742D01*
X128752400Y-133912675D01*
X128752400Y-133752525D01*
X128783642Y-133595458D01*
X128844929Y-133447499D01*
X128933899Y-133314345D01*
X129047145Y-133201099D01*
X129180299Y-133112129D01*
X129328258Y-133050842D01*
X129485325Y-133019600D01*
X129645475Y-133019600D01*
X129802542Y-133050842D01*
X129802542Y-133050842D01*
G37*
G36*
X121073628Y-132800503D02*
G01*
X121228500Y-132864653D01*
X121367881Y-132957785D01*
X121486415Y-133076319D01*
X121579547Y-133215700D01*
X121643697Y-133370572D01*
X121676400Y-133534984D01*
X121676400Y-133702616D01*
X121643697Y-133867028D01*
X121579547Y-134021900D01*
X121486415Y-134161281D01*
X121367881Y-134279815D01*
X121228500Y-134372947D01*
X121073628Y-134437097D01*
X120909216Y-134469800D01*
X120741584Y-134469800D01*
X120577172Y-134437097D01*
X120422300Y-134372947D01*
X120282919Y-134279815D01*
X120164385Y-134161281D01*
X120071253Y-134021900D01*
X120007103Y-133867028D01*
X119974400Y-133702616D01*
X119974400Y-133534984D01*
X120007103Y-133370572D01*
X120071253Y-133215700D01*
X120164385Y-133076319D01*
X120282919Y-132957785D01*
X120422300Y-132864653D01*
X120577172Y-132800503D01*
X120741584Y-132767800D01*
X120909216Y-132767800D01*
X121073628Y-132800503D01*
X121073628Y-132800503D01*
G37*
G36*
X118233628Y-131415503D02*
G01*
X118388500Y-131479653D01*
X118527881Y-131572785D01*
X118646415Y-131691319D01*
X118739547Y-131830700D01*
X118803697Y-131985572D01*
X118836400Y-132149984D01*
X118836400Y-132317616D01*
X118803697Y-132482028D01*
X118739547Y-132636900D01*
X118646415Y-132776281D01*
X118527881Y-132894815D01*
X118388500Y-132987947D01*
X118233628Y-133052097D01*
X118069216Y-133084800D01*
X117901584Y-133084800D01*
X117737172Y-133052097D01*
X117582300Y-132987947D01*
X117442919Y-132894815D01*
X117324385Y-132776281D01*
X117231253Y-132636900D01*
X117167103Y-132482028D01*
X117134400Y-132317616D01*
X117134400Y-132149984D01*
X117167103Y-131985572D01*
X117231253Y-131830700D01*
X117324385Y-131691319D01*
X117442919Y-131572785D01*
X117582300Y-131479653D01*
X117737172Y-131415503D01*
X117901584Y-131382800D01*
X118069216Y-131382800D01*
X118233628Y-131415503D01*
X118233628Y-131415503D01*
G37*
G36*
X121073628Y-130030503D02*
G01*
X121228500Y-130094653D01*
X121367881Y-130187785D01*
X121486415Y-130306319D01*
X121579547Y-130445700D01*
X121643697Y-130600572D01*
X121676400Y-130764984D01*
X121676400Y-130932616D01*
X121643697Y-131097028D01*
X121579547Y-131251900D01*
X121486415Y-131391281D01*
X121367881Y-131509815D01*
X121228500Y-131602947D01*
X121073628Y-131667097D01*
X120909216Y-131699800D01*
X120741584Y-131699800D01*
X120577172Y-131667097D01*
X120422300Y-131602947D01*
X120282919Y-131509815D01*
X120164385Y-131391281D01*
X120071253Y-131251900D01*
X120007103Y-131097028D01*
X119974400Y-130932616D01*
X119974400Y-130764984D01*
X120007103Y-130600572D01*
X120071253Y-130445700D01*
X120164385Y-130306319D01*
X120282919Y-130187785D01*
X120422300Y-130094653D01*
X120577172Y-130030503D01*
X120741584Y-129997800D01*
X120909216Y-129997800D01*
X121073628Y-130030503D01*
X121073628Y-130030503D01*
G37*
G36*
X99270128Y-129779903D02*
G01*
X99425000Y-129844053D01*
X99564381Y-129937185D01*
X99682915Y-130055719D01*
X99776047Y-130195100D01*
X99840197Y-130349972D01*
X99872900Y-130514384D01*
X99872900Y-130682016D01*
X99840197Y-130846428D01*
X99776047Y-131001300D01*
X99682915Y-131140681D01*
X99564381Y-131259215D01*
X99425000Y-131352347D01*
X99270128Y-131416497D01*
X99105716Y-131449200D01*
X98938084Y-131449200D01*
X98773672Y-131416497D01*
X98618800Y-131352347D01*
X98479419Y-131259215D01*
X98360885Y-131140681D01*
X98267753Y-131001300D01*
X98203603Y-130846428D01*
X98170900Y-130682016D01*
X98170900Y-130514384D01*
X98203603Y-130349972D01*
X98267753Y-130195100D01*
X98360885Y-130055719D01*
X98479419Y-129937185D01*
X98618800Y-129844053D01*
X98773672Y-129779903D01*
X98938084Y-129747200D01*
X99105716Y-129747200D01*
X99270128Y-129779903D01*
X99270128Y-129779903D01*
G37*
G36*
X96730128Y-129779903D02*
G01*
X96885000Y-129844053D01*
X97024381Y-129937185D01*
X97142915Y-130055719D01*
X97236047Y-130195100D01*
X97300197Y-130349972D01*
X97332900Y-130514384D01*
X97332900Y-130682016D01*
X97300197Y-130846428D01*
X97236047Y-131001300D01*
X97142915Y-131140681D01*
X97024381Y-131259215D01*
X96885000Y-131352347D01*
X96730128Y-131416497D01*
X96565716Y-131449200D01*
X96398084Y-131449200D01*
X96233672Y-131416497D01*
X96078800Y-131352347D01*
X95939419Y-131259215D01*
X95820885Y-131140681D01*
X95727753Y-131001300D01*
X95663603Y-130846428D01*
X95630900Y-130682016D01*
X95630900Y-130514384D01*
X95663603Y-130349972D01*
X95727753Y-130195100D01*
X95820885Y-130055719D01*
X95939419Y-129937185D01*
X96078800Y-129844053D01*
X96233672Y-129779903D01*
X96398084Y-129747200D01*
X96565716Y-129747200D01*
X96730128Y-129779903D01*
X96730128Y-129779903D01*
G37*
G36*
X94190128Y-129779903D02*
G01*
X94345000Y-129844053D01*
X94484381Y-129937185D01*
X94602915Y-130055719D01*
X94696047Y-130195100D01*
X94760197Y-130349972D01*
X94792900Y-130514384D01*
X94792900Y-130682016D01*
X94760197Y-130846428D01*
X94696047Y-131001300D01*
X94602915Y-131140681D01*
X94484381Y-131259215D01*
X94345000Y-131352347D01*
X94190128Y-131416497D01*
X94025716Y-131449200D01*
X93858084Y-131449200D01*
X93693672Y-131416497D01*
X93538800Y-131352347D01*
X93399419Y-131259215D01*
X93280885Y-131140681D01*
X93187753Y-131001300D01*
X93123603Y-130846428D01*
X93090900Y-130682016D01*
X93090900Y-130514384D01*
X93123603Y-130349972D01*
X93187753Y-130195100D01*
X93280885Y-130055719D01*
X93399419Y-129937185D01*
X93538800Y-129844053D01*
X93693672Y-129779903D01*
X93858084Y-129747200D01*
X94025716Y-129747200D01*
X94190128Y-129779903D01*
X94190128Y-129779903D01*
G37*
G36*
X91650128Y-129779903D02*
G01*
X91805000Y-129844053D01*
X91944381Y-129937185D01*
X92062915Y-130055719D01*
X92156047Y-130195100D01*
X92220197Y-130349972D01*
X92252900Y-130514384D01*
X92252900Y-130682016D01*
X92220197Y-130846428D01*
X92156047Y-131001300D01*
X92062915Y-131140681D01*
X91944381Y-131259215D01*
X91805000Y-131352347D01*
X91650128Y-131416497D01*
X91485716Y-131449200D01*
X91318084Y-131449200D01*
X91153672Y-131416497D01*
X90998800Y-131352347D01*
X90859419Y-131259215D01*
X90740885Y-131140681D01*
X90647753Y-131001300D01*
X90583603Y-130846428D01*
X90550900Y-130682016D01*
X90550900Y-130514384D01*
X90583603Y-130349972D01*
X90647753Y-130195100D01*
X90740885Y-130055719D01*
X90859419Y-129937185D01*
X90998800Y-129844053D01*
X91153672Y-129779903D01*
X91318084Y-129747200D01*
X91485716Y-129747200D01*
X91650128Y-129779903D01*
X91650128Y-129779903D01*
G37*
G36*
X118233628Y-128645503D02*
G01*
X118388500Y-128709653D01*
X118527881Y-128802785D01*
X118646415Y-128921319D01*
X118739547Y-129060700D01*
X118803697Y-129215572D01*
X118836400Y-129379984D01*
X118836400Y-129547616D01*
X118803697Y-129712028D01*
X118739547Y-129866900D01*
X118646415Y-130006281D01*
X118527881Y-130124815D01*
X118388500Y-130217947D01*
X118233628Y-130282097D01*
X118069216Y-130314800D01*
X117901584Y-130314800D01*
X117737172Y-130282097D01*
X117582300Y-130217947D01*
X117442919Y-130124815D01*
X117324385Y-130006281D01*
X117231253Y-129866900D01*
X117167103Y-129712028D01*
X117134400Y-129547616D01*
X117134400Y-129379984D01*
X117167103Y-129215572D01*
X117231253Y-129060700D01*
X117324385Y-128921319D01*
X117442919Y-128802785D01*
X117582300Y-128709653D01*
X117737172Y-128645503D01*
X117901584Y-128612800D01*
X118069216Y-128612800D01*
X118233628Y-128645503D01*
X118233628Y-128645503D01*
G37*
G36*
X121073628Y-127260503D02*
G01*
X121228500Y-127324653D01*
X121367881Y-127417785D01*
X121486415Y-127536319D01*
X121579547Y-127675700D01*
X121643697Y-127830572D01*
X121676400Y-127994984D01*
X121676400Y-128162616D01*
X121643697Y-128327028D01*
X121579547Y-128481900D01*
X121486415Y-128621281D01*
X121367881Y-128739815D01*
X121228500Y-128832947D01*
X121073628Y-128897097D01*
X120909216Y-128929800D01*
X120741584Y-128929800D01*
X120577172Y-128897097D01*
X120422300Y-128832947D01*
X120282919Y-128739815D01*
X120164385Y-128621281D01*
X120071253Y-128481900D01*
X120007103Y-128327028D01*
X119974400Y-128162616D01*
X119974400Y-127994984D01*
X120007103Y-127830572D01*
X120071253Y-127675700D01*
X120164385Y-127536319D01*
X120282919Y-127417785D01*
X120422300Y-127324653D01*
X120577172Y-127260503D01*
X120741584Y-127227800D01*
X120909216Y-127227800D01*
X121073628Y-127260503D01*
X121073628Y-127260503D01*
G37*
G36*
X118233628Y-125875503D02*
G01*
X118388500Y-125939653D01*
X118527881Y-126032785D01*
X118646415Y-126151319D01*
X118739547Y-126290700D01*
X118803697Y-126445572D01*
X118836400Y-126609984D01*
X118836400Y-126777616D01*
X118803697Y-126942028D01*
X118739547Y-127096900D01*
X118646415Y-127236281D01*
X118527881Y-127354815D01*
X118388500Y-127447947D01*
X118233628Y-127512097D01*
X118069216Y-127544800D01*
X117901584Y-127544800D01*
X117737172Y-127512097D01*
X117582300Y-127447947D01*
X117442919Y-127354815D01*
X117324385Y-127236281D01*
X117231253Y-127096900D01*
X117167103Y-126942028D01*
X117134400Y-126777616D01*
X117134400Y-126609984D01*
X117167103Y-126445572D01*
X117231253Y-126290700D01*
X117324385Y-126151319D01*
X117442919Y-126032785D01*
X117582300Y-125939653D01*
X117737172Y-125875503D01*
X117901584Y-125842800D01*
X118069216Y-125842800D01*
X118233628Y-125875503D01*
X118233628Y-125875503D01*
G37*
G36*
X121073628Y-124490503D02*
G01*
X121228500Y-124554653D01*
X121367881Y-124647785D01*
X121486415Y-124766319D01*
X121579547Y-124905700D01*
X121643697Y-125060572D01*
X121676400Y-125224984D01*
X121676400Y-125392616D01*
X121643697Y-125557028D01*
X121579547Y-125711900D01*
X121486415Y-125851281D01*
X121367881Y-125969815D01*
X121228500Y-126062947D01*
X121073628Y-126127097D01*
X120909216Y-126159800D01*
X120741584Y-126159800D01*
X120577172Y-126127097D01*
X120422300Y-126062947D01*
X120282919Y-125969815D01*
X120164385Y-125851281D01*
X120071253Y-125711900D01*
X120007103Y-125557028D01*
X119974400Y-125392616D01*
X119974400Y-125224984D01*
X120007103Y-125060572D01*
X120071253Y-124905700D01*
X120164385Y-124766319D01*
X120282919Y-124647785D01*
X120422300Y-124554653D01*
X120577172Y-124490503D01*
X120741584Y-124457800D01*
X120909216Y-124457800D01*
X121073628Y-124490503D01*
X121073628Y-124490503D01*
G37*
G36*
X106355364Y-123184189D02*
G01*
X106522937Y-123253600D01*
X106546635Y-123263416D01*
X106718773Y-123378435D01*
X106865165Y-123524827D01*
X106965890Y-123675572D01*
X106980185Y-123696967D01*
X107059411Y-123888236D01*
X107099800Y-124091284D01*
X107099800Y-124298316D01*
X107059411Y-124501364D01*
X106986268Y-124677947D01*
X106980184Y-124692635D01*
X106865165Y-124864773D01*
X106718773Y-125011165D01*
X106546635Y-125126184D01*
X106546634Y-125126185D01*
X106546633Y-125126185D01*
X106355364Y-125205411D01*
X106152316Y-125245800D01*
X105945284Y-125245800D01*
X105742236Y-125205411D01*
X105550967Y-125126185D01*
X105550966Y-125126185D01*
X105550965Y-125126184D01*
X105378827Y-125011165D01*
X105232435Y-124864773D01*
X105117416Y-124692635D01*
X105111332Y-124677947D01*
X105038189Y-124501364D01*
X104997800Y-124298316D01*
X104997800Y-124091284D01*
X105038189Y-123888236D01*
X105117415Y-123696967D01*
X105131711Y-123675572D01*
X105232435Y-123524827D01*
X105378827Y-123378435D01*
X105550965Y-123263416D01*
X105574663Y-123253600D01*
X105742236Y-123184189D01*
X105945284Y-123143800D01*
X106152316Y-123143800D01*
X106355364Y-123184189D01*
X106355364Y-123184189D01*
G37*
G36*
X118233628Y-123105503D02*
G01*
X118388500Y-123169653D01*
X118527881Y-123262785D01*
X118646415Y-123381319D01*
X118739547Y-123520700D01*
X118803697Y-123675572D01*
X118836400Y-123839984D01*
X118836400Y-124007616D01*
X118803697Y-124172028D01*
X118739547Y-124326900D01*
X118646415Y-124466281D01*
X118527881Y-124584815D01*
X118388500Y-124677947D01*
X118233628Y-124742097D01*
X118069216Y-124774800D01*
X117901584Y-124774800D01*
X117737172Y-124742097D01*
X117582300Y-124677947D01*
X117442919Y-124584815D01*
X117324385Y-124466281D01*
X117231253Y-124326900D01*
X117167103Y-124172028D01*
X117134400Y-124007616D01*
X117134400Y-123839984D01*
X117167103Y-123675572D01*
X117231253Y-123520700D01*
X117324385Y-123381319D01*
X117442919Y-123262785D01*
X117582300Y-123169653D01*
X117737172Y-123105503D01*
X117901584Y-123072800D01*
X118069216Y-123072800D01*
X118233628Y-123105503D01*
X118233628Y-123105503D01*
G37*
G36*
X121073628Y-121720503D02*
G01*
X121228500Y-121784653D01*
X121367881Y-121877785D01*
X121486415Y-121996319D01*
X121579547Y-122135700D01*
X121643697Y-122290572D01*
X121676400Y-122454984D01*
X121676400Y-122622616D01*
X121643697Y-122787028D01*
X121579547Y-122941900D01*
X121486415Y-123081281D01*
X121367881Y-123199815D01*
X121228500Y-123292947D01*
X121073628Y-123357097D01*
X120909216Y-123389800D01*
X120741584Y-123389800D01*
X120577172Y-123357097D01*
X120422300Y-123292947D01*
X120282919Y-123199815D01*
X120164385Y-123081281D01*
X120071253Y-122941900D01*
X120007103Y-122787028D01*
X119974400Y-122622616D01*
X119974400Y-122454984D01*
X120007103Y-122290572D01*
X120071253Y-122135700D01*
X120164385Y-121996319D01*
X120282919Y-121877785D01*
X120422300Y-121784653D01*
X120577172Y-121720503D01*
X120741584Y-121687800D01*
X120909216Y-121687800D01*
X121073628Y-121720503D01*
X121073628Y-121720503D01*
G37*
G36*
X96717428Y-121584303D02*
G01*
X96872300Y-121648453D01*
X97011681Y-121741585D01*
X97130215Y-121860119D01*
X97223347Y-121999500D01*
X97287497Y-122154372D01*
X97320200Y-122318784D01*
X97320200Y-122486416D01*
X97287497Y-122650828D01*
X97223347Y-122805700D01*
X97130215Y-122945081D01*
X97011681Y-123063615D01*
X96872300Y-123156747D01*
X96717428Y-123220897D01*
X96553016Y-123253600D01*
X96385384Y-123253600D01*
X96220972Y-123220897D01*
X96066100Y-123156747D01*
X95926719Y-123063615D01*
X95808185Y-122945081D01*
X95715053Y-122805700D01*
X95650903Y-122650828D01*
X95618200Y-122486416D01*
X95618200Y-122318784D01*
X95650903Y-122154372D01*
X95715053Y-121999500D01*
X95808185Y-121860119D01*
X95926719Y-121741585D01*
X96066100Y-121648453D01*
X96220972Y-121584303D01*
X96385384Y-121551600D01*
X96553016Y-121551600D01*
X96717428Y-121584303D01*
X96717428Y-121584303D01*
G37*
G36*
X99257428Y-121584303D02*
G01*
X99412300Y-121648453D01*
X99551681Y-121741585D01*
X99670215Y-121860119D01*
X99763347Y-121999500D01*
X99827497Y-122154372D01*
X99860200Y-122318784D01*
X99860200Y-122486416D01*
X99827497Y-122650828D01*
X99763347Y-122805700D01*
X99670215Y-122945081D01*
X99551681Y-123063615D01*
X99412300Y-123156747D01*
X99257428Y-123220897D01*
X99093016Y-123253600D01*
X98925384Y-123253600D01*
X98760972Y-123220897D01*
X98606100Y-123156747D01*
X98466719Y-123063615D01*
X98348185Y-122945081D01*
X98255053Y-122805700D01*
X98190903Y-122650828D01*
X98158200Y-122486416D01*
X98158200Y-122318784D01*
X98190903Y-122154372D01*
X98255053Y-121999500D01*
X98348185Y-121860119D01*
X98466719Y-121741585D01*
X98606100Y-121648453D01*
X98760972Y-121584303D01*
X98925384Y-121551600D01*
X99093016Y-121551600D01*
X99257428Y-121584303D01*
X99257428Y-121584303D01*
G37*
G36*
X94177428Y-121584303D02*
G01*
X94332300Y-121648453D01*
X94471681Y-121741585D01*
X94590215Y-121860119D01*
X94683347Y-121999500D01*
X94747497Y-122154372D01*
X94780200Y-122318784D01*
X94780200Y-122486416D01*
X94747497Y-122650828D01*
X94683347Y-122805700D01*
X94590215Y-122945081D01*
X94471681Y-123063615D01*
X94332300Y-123156747D01*
X94177428Y-123220897D01*
X94013016Y-123253600D01*
X93845384Y-123253600D01*
X93680972Y-123220897D01*
X93526100Y-123156747D01*
X93386719Y-123063615D01*
X93268185Y-122945081D01*
X93175053Y-122805700D01*
X93110903Y-122650828D01*
X93078200Y-122486416D01*
X93078200Y-122318784D01*
X93110903Y-122154372D01*
X93175053Y-121999500D01*
X93268185Y-121860119D01*
X93386719Y-121741585D01*
X93526100Y-121648453D01*
X93680972Y-121584303D01*
X93845384Y-121551600D01*
X94013016Y-121551600D01*
X94177428Y-121584303D01*
X94177428Y-121584303D01*
G37*
G36*
X91637428Y-121584303D02*
G01*
X91792300Y-121648453D01*
X91931681Y-121741585D01*
X92050215Y-121860119D01*
X92143347Y-121999500D01*
X92207497Y-122154372D01*
X92240200Y-122318784D01*
X92240200Y-122486416D01*
X92207497Y-122650828D01*
X92143347Y-122805700D01*
X92050215Y-122945081D01*
X91931681Y-123063615D01*
X91792300Y-123156747D01*
X91637428Y-123220897D01*
X91473016Y-123253600D01*
X91305384Y-123253600D01*
X91140972Y-123220897D01*
X90986100Y-123156747D01*
X90846719Y-123063615D01*
X90728185Y-122945081D01*
X90635053Y-122805700D01*
X90570903Y-122650828D01*
X90538200Y-122486416D01*
X90538200Y-122318784D01*
X90570903Y-122154372D01*
X90635053Y-121999500D01*
X90728185Y-121860119D01*
X90846719Y-121741585D01*
X90986100Y-121648453D01*
X91140972Y-121584303D01*
X91305384Y-121551600D01*
X91473016Y-121551600D01*
X91637428Y-121584303D01*
X91637428Y-121584303D01*
G37*
G36*
X118233628Y-120335503D02*
G01*
X118388500Y-120399653D01*
X118527881Y-120492785D01*
X118646415Y-120611319D01*
X118739547Y-120750700D01*
X118803697Y-120905572D01*
X118836400Y-121069984D01*
X118836400Y-121237616D01*
X118803697Y-121402028D01*
X118739547Y-121556900D01*
X118646415Y-121696281D01*
X118527881Y-121814815D01*
X118388500Y-121907947D01*
X118233628Y-121972097D01*
X118069216Y-122004800D01*
X117901584Y-122004800D01*
X117737172Y-121972097D01*
X117582300Y-121907947D01*
X117442919Y-121814815D01*
X117324385Y-121696281D01*
X117231253Y-121556900D01*
X117167103Y-121402028D01*
X117134400Y-121237616D01*
X117134400Y-121069984D01*
X117167103Y-120905572D01*
X117231253Y-120750700D01*
X117324385Y-120611319D01*
X117442919Y-120492785D01*
X117582300Y-120399653D01*
X117737172Y-120335503D01*
X117901584Y-120302800D01*
X118069216Y-120302800D01*
X118233628Y-120335503D01*
X118233628Y-120335503D01*
G37*
G36*
X137357428Y-119603103D02*
G01*
X137512300Y-119667253D01*
X137651681Y-119760385D01*
X137770215Y-119878919D01*
X137863347Y-120018300D01*
X137927497Y-120173172D01*
X137960200Y-120337584D01*
X137960200Y-120505216D01*
X137927497Y-120669628D01*
X137863347Y-120824500D01*
X137770215Y-120963881D01*
X137651681Y-121082415D01*
X137512300Y-121175547D01*
X137357428Y-121239697D01*
X137193016Y-121272400D01*
X137025384Y-121272400D01*
X136860972Y-121239697D01*
X136706100Y-121175547D01*
X136566719Y-121082415D01*
X136448185Y-120963881D01*
X136355053Y-120824500D01*
X136290903Y-120669628D01*
X136258200Y-120505216D01*
X136258200Y-120337584D01*
X136290903Y-120173172D01*
X136355053Y-120018300D01*
X136448185Y-119878919D01*
X136566719Y-119760385D01*
X136706100Y-119667253D01*
X136860972Y-119603103D01*
X137025384Y-119570400D01*
X137193016Y-119570400D01*
X137357428Y-119603103D01*
X137357428Y-119603103D01*
G37*
G36*
X132277428Y-119603103D02*
G01*
X132432300Y-119667253D01*
X132571681Y-119760385D01*
X132690215Y-119878919D01*
X132783347Y-120018300D01*
X132847497Y-120173172D01*
X132880200Y-120337584D01*
X132880200Y-120505216D01*
X132847497Y-120669628D01*
X132783347Y-120824500D01*
X132690215Y-120963881D01*
X132571681Y-121082415D01*
X132432300Y-121175547D01*
X132277428Y-121239697D01*
X132113016Y-121272400D01*
X131945384Y-121272400D01*
X131780972Y-121239697D01*
X131626100Y-121175547D01*
X131486719Y-121082415D01*
X131368185Y-120963881D01*
X131275053Y-120824500D01*
X131210903Y-120669628D01*
X131178200Y-120505216D01*
X131178200Y-120337584D01*
X131210903Y-120173172D01*
X131275053Y-120018300D01*
X131368185Y-119878919D01*
X131486719Y-119760385D01*
X131626100Y-119667253D01*
X131780972Y-119603103D01*
X131945384Y-119570400D01*
X132113016Y-119570400D01*
X132277428Y-119603103D01*
X132277428Y-119603103D01*
G37*
G36*
X134817428Y-119603103D02*
G01*
X134972300Y-119667253D01*
X135111681Y-119760385D01*
X135230215Y-119878919D01*
X135323347Y-120018300D01*
X135387497Y-120173172D01*
X135420200Y-120337584D01*
X135420200Y-120505216D01*
X135387497Y-120669628D01*
X135323347Y-120824500D01*
X135230215Y-120963881D01*
X135111681Y-121082415D01*
X134972300Y-121175547D01*
X134817428Y-121239697D01*
X134653016Y-121272400D01*
X134485384Y-121272400D01*
X134320972Y-121239697D01*
X134166100Y-121175547D01*
X134026719Y-121082415D01*
X133908185Y-120963881D01*
X133815053Y-120824500D01*
X133750903Y-120669628D01*
X133718200Y-120505216D01*
X133718200Y-120337584D01*
X133750903Y-120173172D01*
X133815053Y-120018300D01*
X133908185Y-119878919D01*
X134026719Y-119760385D01*
X134166100Y-119667253D01*
X134320972Y-119603103D01*
X134485384Y-119570400D01*
X134653016Y-119570400D01*
X134817428Y-119603103D01*
X134817428Y-119603103D01*
G37*
G36*
X129737428Y-119603103D02*
G01*
X129892300Y-119667253D01*
X130031681Y-119760385D01*
X130150215Y-119878919D01*
X130243347Y-120018300D01*
X130307497Y-120173172D01*
X130340200Y-120337584D01*
X130340200Y-120505216D01*
X130307497Y-120669628D01*
X130243347Y-120824500D01*
X130150215Y-120963881D01*
X130031681Y-121082415D01*
X129892300Y-121175547D01*
X129737428Y-121239697D01*
X129573016Y-121272400D01*
X129405384Y-121272400D01*
X129240972Y-121239697D01*
X129086100Y-121175547D01*
X128946719Y-121082415D01*
X128828185Y-120963881D01*
X128735053Y-120824500D01*
X128670903Y-120669628D01*
X128638200Y-120505216D01*
X128638200Y-120337584D01*
X128670903Y-120173172D01*
X128735053Y-120018300D01*
X128828185Y-119878919D01*
X128946719Y-119760385D01*
X129086100Y-119667253D01*
X129240972Y-119603103D01*
X129405384Y-119570400D01*
X129573016Y-119570400D01*
X129737428Y-119603103D01*
X129737428Y-119603103D01*
G37*
G36*
X121073628Y-118950503D02*
G01*
X121228500Y-119014653D01*
X121367881Y-119107785D01*
X121486415Y-119226319D01*
X121579547Y-119365700D01*
X121643697Y-119520572D01*
X121676400Y-119684984D01*
X121676400Y-119852616D01*
X121643697Y-120017028D01*
X121579547Y-120171900D01*
X121486415Y-120311281D01*
X121367881Y-120429815D01*
X121228500Y-120522947D01*
X121073628Y-120587097D01*
X120909216Y-120619800D01*
X120741584Y-120619800D01*
X120577172Y-120587097D01*
X120422300Y-120522947D01*
X120282919Y-120429815D01*
X120164385Y-120311281D01*
X120071253Y-120171900D01*
X120007103Y-120017028D01*
X119974400Y-119852616D01*
X119974400Y-119684984D01*
X120007103Y-119520572D01*
X120071253Y-119365700D01*
X120164385Y-119226319D01*
X120282919Y-119107785D01*
X120422300Y-119014653D01*
X120577172Y-118950503D01*
X120741584Y-118917800D01*
X120909216Y-118917800D01*
X121073628Y-118950503D01*
X121073628Y-118950503D01*
G37*
G36*
X118233628Y-117565503D02*
G01*
X118388500Y-117629653D01*
X118527881Y-117722785D01*
X118646415Y-117841319D01*
X118739547Y-117980700D01*
X118803697Y-118135572D01*
X118836400Y-118299984D01*
X118836400Y-118467616D01*
X118803697Y-118632028D01*
X118739547Y-118786900D01*
X118646415Y-118926281D01*
X118527881Y-119044815D01*
X118388500Y-119137947D01*
X118233628Y-119202097D01*
X118069216Y-119234800D01*
X117901584Y-119234800D01*
X117737172Y-119202097D01*
X117582300Y-119137947D01*
X117442919Y-119044815D01*
X117324385Y-118926281D01*
X117231253Y-118786900D01*
X117167103Y-118632028D01*
X117134400Y-118467616D01*
X117134400Y-118299984D01*
X117167103Y-118135572D01*
X117231253Y-117980700D01*
X117324385Y-117841319D01*
X117442919Y-117722785D01*
X117582300Y-117629653D01*
X117737172Y-117565503D01*
X117901584Y-117532800D01*
X118069216Y-117532800D01*
X118233628Y-117565503D01*
X118233628Y-117565503D01*
G37*
G36*
X121073628Y-116180503D02*
G01*
X121228500Y-116244653D01*
X121367881Y-116337785D01*
X121486415Y-116456319D01*
X121579547Y-116595700D01*
X121643697Y-116750572D01*
X121676400Y-116914984D01*
X121676400Y-117082616D01*
X121643697Y-117247028D01*
X121579547Y-117401900D01*
X121486415Y-117541281D01*
X121367881Y-117659815D01*
X121228500Y-117752947D01*
X121073628Y-117817097D01*
X120909216Y-117849800D01*
X120741584Y-117849800D01*
X120577172Y-117817097D01*
X120422300Y-117752947D01*
X120282919Y-117659815D01*
X120164385Y-117541281D01*
X120071253Y-117401900D01*
X120007103Y-117247028D01*
X119974400Y-117082616D01*
X119974400Y-116914984D01*
X120007103Y-116750572D01*
X120071253Y-116595700D01*
X120164385Y-116456319D01*
X120282919Y-116337785D01*
X120422300Y-116244653D01*
X120577172Y-116180503D01*
X120741584Y-116147800D01*
X120909216Y-116147800D01*
X121073628Y-116180503D01*
X121073628Y-116180503D01*
G37*
G36*
X134157028Y-115049903D02*
G01*
X134311900Y-115114053D01*
X134451281Y-115207185D01*
X134569815Y-115325719D01*
X134662947Y-115465100D01*
X134727097Y-115619972D01*
X134759800Y-115784384D01*
X134759800Y-115952016D01*
X134727097Y-116116428D01*
X134662947Y-116271300D01*
X134569815Y-116410681D01*
X134451281Y-116529215D01*
X134311900Y-116622347D01*
X134157028Y-116686497D01*
X133992616Y-116719200D01*
X133824984Y-116719200D01*
X133660572Y-116686497D01*
X133505700Y-116622347D01*
X133366319Y-116529215D01*
X133247785Y-116410681D01*
X133154653Y-116271300D01*
X133090503Y-116116428D01*
X133057800Y-115952016D01*
X133057800Y-115784384D01*
X133090503Y-115619972D01*
X133154653Y-115465100D01*
X133247785Y-115325719D01*
X133366319Y-115207185D01*
X133505700Y-115114053D01*
X133660572Y-115049903D01*
X133824984Y-115017200D01*
X133992616Y-115017200D01*
X134157028Y-115049903D01*
X134157028Y-115049903D01*
G37*
G36*
X118233628Y-114795503D02*
G01*
X118388500Y-114859653D01*
X118527881Y-114952785D01*
X118646415Y-115071319D01*
X118739547Y-115210700D01*
X118803697Y-115365572D01*
X118836400Y-115529984D01*
X118836400Y-115697616D01*
X118803697Y-115862028D01*
X118739547Y-116016900D01*
X118646415Y-116156281D01*
X118527881Y-116274815D01*
X118388500Y-116367947D01*
X118233628Y-116432097D01*
X118069216Y-116464800D01*
X117901584Y-116464800D01*
X117737172Y-116432097D01*
X117582300Y-116367947D01*
X117442919Y-116274815D01*
X117324385Y-116156281D01*
X117231253Y-116016900D01*
X117167103Y-115862028D01*
X117134400Y-115697616D01*
X117134400Y-115529984D01*
X117167103Y-115365572D01*
X117231253Y-115210700D01*
X117324385Y-115071319D01*
X117442919Y-114952785D01*
X117582300Y-114859653D01*
X117737172Y-114795503D01*
X117901584Y-114762800D01*
X118069216Y-114762800D01*
X118233628Y-114795503D01*
X118233628Y-114795503D01*
G37*
G36*
X94190128Y-113875403D02*
G01*
X94345000Y-113939553D01*
X94484381Y-114032685D01*
X94602915Y-114151219D01*
X94696047Y-114290600D01*
X94760197Y-114445472D01*
X94792900Y-114609884D01*
X94792900Y-114777516D01*
X94760197Y-114941928D01*
X94696047Y-115096800D01*
X94602915Y-115236181D01*
X94484381Y-115354715D01*
X94345000Y-115447847D01*
X94190128Y-115511997D01*
X94025716Y-115544700D01*
X93858084Y-115544700D01*
X93693672Y-115511997D01*
X93538800Y-115447847D01*
X93399419Y-115354715D01*
X93280885Y-115236181D01*
X93187753Y-115096800D01*
X93123603Y-114941928D01*
X93090900Y-114777516D01*
X93090900Y-114609884D01*
X93123603Y-114445472D01*
X93187753Y-114290600D01*
X93280885Y-114151219D01*
X93399419Y-114032685D01*
X93538800Y-113939553D01*
X93693672Y-113875403D01*
X93858084Y-113842700D01*
X94025716Y-113842700D01*
X94190128Y-113875403D01*
X94190128Y-113875403D01*
G37*
G36*
X91650128Y-113875403D02*
G01*
X91805000Y-113939553D01*
X91944381Y-114032685D01*
X92062915Y-114151219D01*
X92156047Y-114290600D01*
X92220197Y-114445472D01*
X92252900Y-114609884D01*
X92252900Y-114777516D01*
X92220197Y-114941928D01*
X92156047Y-115096800D01*
X92062915Y-115236181D01*
X91944381Y-115354715D01*
X91805000Y-115447847D01*
X91650128Y-115511997D01*
X91485716Y-115544700D01*
X91318084Y-115544700D01*
X91153672Y-115511997D01*
X90998800Y-115447847D01*
X90859419Y-115354715D01*
X90740885Y-115236181D01*
X90647753Y-115096800D01*
X90583603Y-114941928D01*
X90550900Y-114777516D01*
X90550900Y-114609884D01*
X90583603Y-114445472D01*
X90647753Y-114290600D01*
X90740885Y-114151219D01*
X90859419Y-114032685D01*
X90998800Y-113939553D01*
X91153672Y-113875403D01*
X91318084Y-113842700D01*
X91485716Y-113842700D01*
X91650128Y-113875403D01*
X91650128Y-113875403D01*
G37*
G36*
X99270128Y-113875403D02*
G01*
X99425000Y-113939553D01*
X99564381Y-114032685D01*
X99682915Y-114151219D01*
X99776047Y-114290600D01*
X99840197Y-114445472D01*
X99872900Y-114609884D01*
X99872900Y-114777516D01*
X99840197Y-114941928D01*
X99776047Y-115096800D01*
X99682915Y-115236181D01*
X99564381Y-115354715D01*
X99425000Y-115447847D01*
X99270128Y-115511997D01*
X99105716Y-115544700D01*
X98938084Y-115544700D01*
X98773672Y-115511997D01*
X98618800Y-115447847D01*
X98479419Y-115354715D01*
X98360885Y-115236181D01*
X98267753Y-115096800D01*
X98203603Y-114941928D01*
X98170900Y-114777516D01*
X98170900Y-114609884D01*
X98203603Y-114445472D01*
X98267753Y-114290600D01*
X98360885Y-114151219D01*
X98479419Y-114032685D01*
X98618800Y-113939553D01*
X98773672Y-113875403D01*
X98938084Y-113842700D01*
X99105716Y-113842700D01*
X99270128Y-113875403D01*
X99270128Y-113875403D01*
G37*
G36*
X96730128Y-113875403D02*
G01*
X96885000Y-113939553D01*
X97024381Y-114032685D01*
X97142915Y-114151219D01*
X97236047Y-114290600D01*
X97300197Y-114445472D01*
X97332900Y-114609884D01*
X97332900Y-114777516D01*
X97300197Y-114941928D01*
X97236047Y-115096800D01*
X97142915Y-115236181D01*
X97024381Y-115354715D01*
X96885000Y-115447847D01*
X96730128Y-115511997D01*
X96565716Y-115544700D01*
X96398084Y-115544700D01*
X96233672Y-115511997D01*
X96078800Y-115447847D01*
X95939419Y-115354715D01*
X95820885Y-115236181D01*
X95727753Y-115096800D01*
X95663603Y-114941928D01*
X95630900Y-114777516D01*
X95630900Y-114609884D01*
X95663603Y-114445472D01*
X95727753Y-114290600D01*
X95820885Y-114151219D01*
X95939419Y-114032685D01*
X96078800Y-113939553D01*
X96233672Y-113875403D01*
X96398084Y-113842700D01*
X96565716Y-113842700D01*
X96730128Y-113875403D01*
X96730128Y-113875403D01*
G37*
G36*
X121073628Y-113410503D02*
G01*
X121228500Y-113474653D01*
X121367881Y-113567785D01*
X121486415Y-113686319D01*
X121579547Y-113825700D01*
X121643697Y-113980572D01*
X121676400Y-114144984D01*
X121676400Y-114312616D01*
X121643697Y-114477028D01*
X121579547Y-114631900D01*
X121486415Y-114771281D01*
X121367881Y-114889815D01*
X121228500Y-114982947D01*
X121073628Y-115047097D01*
X120909216Y-115079800D01*
X120741584Y-115079800D01*
X120577172Y-115047097D01*
X120422300Y-114982947D01*
X120282919Y-114889815D01*
X120164385Y-114771281D01*
X120071253Y-114631900D01*
X120007103Y-114477028D01*
X119974400Y-114312616D01*
X119974400Y-114144984D01*
X120007103Y-113980572D01*
X120071253Y-113825700D01*
X120164385Y-113686319D01*
X120282919Y-113567785D01*
X120422300Y-113474653D01*
X120577172Y-113410503D01*
X120741584Y-113377800D01*
X120909216Y-113377800D01*
X121073628Y-113410503D01*
X121073628Y-113410503D01*
G37*
G36*
X134157028Y-113049903D02*
G01*
X134311900Y-113114053D01*
X134451281Y-113207185D01*
X134569815Y-113325719D01*
X134662947Y-113465100D01*
X134727097Y-113619972D01*
X134759800Y-113784384D01*
X134759800Y-113952016D01*
X134727097Y-114116428D01*
X134662947Y-114271300D01*
X134569815Y-114410681D01*
X134451281Y-114529215D01*
X134311900Y-114622347D01*
X134157028Y-114686497D01*
X133992616Y-114719200D01*
X133824984Y-114719200D01*
X133660572Y-114686497D01*
X133505700Y-114622347D01*
X133366319Y-114529215D01*
X133247785Y-114410681D01*
X133154653Y-114271300D01*
X133090503Y-114116428D01*
X133057800Y-113952016D01*
X133057800Y-113784384D01*
X133090503Y-113619972D01*
X133154653Y-113465100D01*
X133247785Y-113325719D01*
X133366319Y-113207185D01*
X133505700Y-113114053D01*
X133660572Y-113049903D01*
X133824984Y-113017200D01*
X133992616Y-113017200D01*
X134157028Y-113049903D01*
X134157028Y-113049903D01*
G37*
G36*
X118233628Y-112025503D02*
G01*
X118388500Y-112089653D01*
X118527881Y-112182785D01*
X118646415Y-112301319D01*
X118739547Y-112440700D01*
X118803697Y-112595572D01*
X118836400Y-112759984D01*
X118836400Y-112927616D01*
X118803697Y-113092028D01*
X118739547Y-113246900D01*
X118646415Y-113386281D01*
X118527881Y-113504815D01*
X118388500Y-113597947D01*
X118233628Y-113662097D01*
X118069216Y-113694800D01*
X117901584Y-113694800D01*
X117737172Y-113662097D01*
X117582300Y-113597947D01*
X117442919Y-113504815D01*
X117324385Y-113386281D01*
X117231253Y-113246900D01*
X117167103Y-113092028D01*
X117134400Y-112927616D01*
X117134400Y-112759984D01*
X117167103Y-112595572D01*
X117231253Y-112440700D01*
X117324385Y-112301319D01*
X117442919Y-112182785D01*
X117582300Y-112089653D01*
X117737172Y-112025503D01*
X117901584Y-111992800D01*
X118069216Y-111992800D01*
X118233628Y-112025503D01*
X118233628Y-112025503D01*
G37*
G36*
X121073628Y-110640503D02*
G01*
X121228500Y-110704653D01*
X121367881Y-110797785D01*
X121486415Y-110916319D01*
X121579547Y-111055700D01*
X121643697Y-111210572D01*
X121676400Y-111374984D01*
X121676400Y-111542616D01*
X121643697Y-111707028D01*
X121579547Y-111861900D01*
X121486415Y-112001281D01*
X121367881Y-112119815D01*
X121228500Y-112212947D01*
X121073628Y-112277097D01*
X120909216Y-112309800D01*
X120741584Y-112309800D01*
X120577172Y-112277097D01*
X120422300Y-112212947D01*
X120282919Y-112119815D01*
X120164385Y-112001281D01*
X120071253Y-111861900D01*
X120007103Y-111707028D01*
X119974400Y-111542616D01*
X119974400Y-111374984D01*
X120007103Y-111210572D01*
X120071253Y-111055700D01*
X120164385Y-110916319D01*
X120282919Y-110797785D01*
X120422300Y-110704653D01*
X120577172Y-110640503D01*
X120741584Y-110607800D01*
X120909216Y-110607800D01*
X121073628Y-110640503D01*
X121073628Y-110640503D01*
G37*
G36*
X118233628Y-109255503D02*
G01*
X118388500Y-109319653D01*
X118527881Y-109412785D01*
X118646415Y-109531319D01*
X118739547Y-109670700D01*
X118803697Y-109825572D01*
X118836400Y-109989984D01*
X118836400Y-110157616D01*
X118803697Y-110322028D01*
X118739547Y-110476900D01*
X118646415Y-110616281D01*
X118527881Y-110734815D01*
X118388500Y-110827947D01*
X118233628Y-110892097D01*
X118069216Y-110924800D01*
X117901584Y-110924800D01*
X117737172Y-110892097D01*
X117582300Y-110827947D01*
X117442919Y-110734815D01*
X117324385Y-110616281D01*
X117231253Y-110476900D01*
X117167103Y-110322028D01*
X117134400Y-110157616D01*
X117134400Y-109989984D01*
X117167103Y-109825572D01*
X117231253Y-109670700D01*
X117324385Y-109531319D01*
X117442919Y-109412785D01*
X117582300Y-109319653D01*
X117737172Y-109255503D01*
X117901584Y-109222800D01*
X118069216Y-109222800D01*
X118233628Y-109255503D01*
X118233628Y-109255503D01*
G37*
G36*
X121073628Y-107870503D02*
G01*
X121228500Y-107934653D01*
X121367881Y-108027785D01*
X121486415Y-108146319D01*
X121579547Y-108285700D01*
X121643697Y-108440572D01*
X121676400Y-108604984D01*
X121676400Y-108772616D01*
X121643697Y-108937028D01*
X121579547Y-109091900D01*
X121486415Y-109231281D01*
X121367881Y-109349815D01*
X121228500Y-109442947D01*
X121073628Y-109507097D01*
X120909216Y-109539800D01*
X120741584Y-109539800D01*
X120577172Y-109507097D01*
X120422300Y-109442947D01*
X120282919Y-109349815D01*
X120164385Y-109231281D01*
X120071253Y-109091900D01*
X120007103Y-108937028D01*
X119974400Y-108772616D01*
X119974400Y-108604984D01*
X120007103Y-108440572D01*
X120071253Y-108285700D01*
X120164385Y-108146319D01*
X120282919Y-108027785D01*
X120422300Y-107934653D01*
X120577172Y-107870503D01*
X120741584Y-107837800D01*
X120909216Y-107837800D01*
X121073628Y-107870503D01*
X121073628Y-107870503D01*
G37*
G36*
X118233628Y-106485503D02*
G01*
X118388500Y-106549653D01*
X118527881Y-106642785D01*
X118646415Y-106761319D01*
X118739547Y-106900700D01*
X118803697Y-107055572D01*
X118836400Y-107219984D01*
X118836400Y-107387616D01*
X118803697Y-107552028D01*
X118739547Y-107706900D01*
X118646415Y-107846281D01*
X118527881Y-107964815D01*
X118388500Y-108057947D01*
X118233628Y-108122097D01*
X118069216Y-108154800D01*
X117901584Y-108154800D01*
X117737172Y-108122097D01*
X117582300Y-108057947D01*
X117442919Y-107964815D01*
X117324385Y-107846281D01*
X117231253Y-107706900D01*
X117167103Y-107552028D01*
X117134400Y-107387616D01*
X117134400Y-107219984D01*
X117167103Y-107055572D01*
X117231253Y-106900700D01*
X117324385Y-106761319D01*
X117442919Y-106642785D01*
X117582300Y-106549653D01*
X117737172Y-106485503D01*
X117901584Y-106452800D01*
X118069216Y-106452800D01*
X118233628Y-106485503D01*
X118233628Y-106485503D01*
G37*
G36*
X121073628Y-105100503D02*
G01*
X121228500Y-105164653D01*
X121367881Y-105257785D01*
X121486415Y-105376319D01*
X121579547Y-105515700D01*
X121643697Y-105670572D01*
X121676400Y-105834984D01*
X121676400Y-106002616D01*
X121643697Y-106167028D01*
X121579547Y-106321900D01*
X121486415Y-106461281D01*
X121367881Y-106579815D01*
X121228500Y-106672947D01*
X121073628Y-106737097D01*
X120909216Y-106769800D01*
X120741584Y-106769800D01*
X120577172Y-106737097D01*
X120422300Y-106672947D01*
X120282919Y-106579815D01*
X120164385Y-106461281D01*
X120071253Y-106321900D01*
X120007103Y-106167028D01*
X119974400Y-106002616D01*
X119974400Y-105834984D01*
X120007103Y-105670572D01*
X120071253Y-105515700D01*
X120164385Y-105376319D01*
X120282919Y-105257785D01*
X120422300Y-105164653D01*
X120577172Y-105100503D01*
X120741584Y-105067800D01*
X120909216Y-105067800D01*
X121073628Y-105100503D01*
X121073628Y-105100503D01*
G37*
G36*
X129331028Y-104920103D02*
G01*
X129485900Y-104984253D01*
X129625281Y-105077385D01*
X129743815Y-105195919D01*
X129836947Y-105335300D01*
X129901097Y-105490172D01*
X129933800Y-105654584D01*
X129933800Y-105822216D01*
X129901097Y-105986628D01*
X129836947Y-106141500D01*
X129743815Y-106280881D01*
X129625281Y-106399415D01*
X129485900Y-106492547D01*
X129331028Y-106556697D01*
X129166616Y-106589400D01*
X128998984Y-106589400D01*
X128834572Y-106556697D01*
X128679700Y-106492547D01*
X128540319Y-106399415D01*
X128421785Y-106280881D01*
X128328653Y-106141500D01*
X128264503Y-105986628D01*
X128231800Y-105822216D01*
X128231800Y-105654584D01*
X128264503Y-105490172D01*
X128328653Y-105335300D01*
X128421785Y-105195919D01*
X128540319Y-105077385D01*
X128679700Y-104984253D01*
X128834572Y-104920103D01*
X128998984Y-104887400D01*
X129166616Y-104887400D01*
X129331028Y-104920103D01*
X129331028Y-104920103D01*
G37*
G36*
X134411028Y-104920103D02*
G01*
X134565900Y-104984253D01*
X134705281Y-105077385D01*
X134823815Y-105195919D01*
X134916947Y-105335300D01*
X134981097Y-105490172D01*
X135013800Y-105654584D01*
X135013800Y-105822216D01*
X134981097Y-105986628D01*
X134916947Y-106141500D01*
X134823815Y-106280881D01*
X134705281Y-106399415D01*
X134565900Y-106492547D01*
X134411028Y-106556697D01*
X134246616Y-106589400D01*
X134078984Y-106589400D01*
X133914572Y-106556697D01*
X133759700Y-106492547D01*
X133620319Y-106399415D01*
X133501785Y-106280881D01*
X133408653Y-106141500D01*
X133344503Y-105986628D01*
X133311800Y-105822216D01*
X133311800Y-105654584D01*
X133344503Y-105490172D01*
X133408653Y-105335300D01*
X133501785Y-105195919D01*
X133620319Y-105077385D01*
X133759700Y-104984253D01*
X133914572Y-104920103D01*
X134078984Y-104887400D01*
X134246616Y-104887400D01*
X134411028Y-104920103D01*
X134411028Y-104920103D01*
G37*
G36*
X139491028Y-104920103D02*
G01*
X139645900Y-104984253D01*
X139785281Y-105077385D01*
X139903815Y-105195919D01*
X139996947Y-105335300D01*
X140061097Y-105490172D01*
X140093800Y-105654584D01*
X140093800Y-105822216D01*
X140061097Y-105986628D01*
X139996947Y-106141500D01*
X139903815Y-106280881D01*
X139785281Y-106399415D01*
X139645900Y-106492547D01*
X139491028Y-106556697D01*
X139326616Y-106589400D01*
X139158984Y-106589400D01*
X138994572Y-106556697D01*
X138839700Y-106492547D01*
X138700319Y-106399415D01*
X138581785Y-106280881D01*
X138488653Y-106141500D01*
X138424503Y-105986628D01*
X138391800Y-105822216D01*
X138391800Y-105654584D01*
X138424503Y-105490172D01*
X138488653Y-105335300D01*
X138581785Y-105195919D01*
X138700319Y-105077385D01*
X138839700Y-104984253D01*
X138994572Y-104920103D01*
X139158984Y-104887400D01*
X139326616Y-104887400D01*
X139491028Y-104920103D01*
X139491028Y-104920103D01*
G37*
G36*
X136951028Y-104920103D02*
G01*
X137105900Y-104984253D01*
X137245281Y-105077385D01*
X137363815Y-105195919D01*
X137456947Y-105335300D01*
X137521097Y-105490172D01*
X137553800Y-105654584D01*
X137553800Y-105822216D01*
X137521097Y-105986628D01*
X137456947Y-106141500D01*
X137363815Y-106280881D01*
X137245281Y-106399415D01*
X137105900Y-106492547D01*
X136951028Y-106556697D01*
X136786616Y-106589400D01*
X136618984Y-106589400D01*
X136454572Y-106556697D01*
X136299700Y-106492547D01*
X136160319Y-106399415D01*
X136041785Y-106280881D01*
X135948653Y-106141500D01*
X135884503Y-105986628D01*
X135851800Y-105822216D01*
X135851800Y-105654584D01*
X135884503Y-105490172D01*
X135948653Y-105335300D01*
X136041785Y-105195919D01*
X136160319Y-105077385D01*
X136299700Y-104984253D01*
X136454572Y-104920103D01*
X136618984Y-104887400D01*
X136786616Y-104887400D01*
X136951028Y-104920103D01*
X136951028Y-104920103D01*
G37*
G36*
X131871028Y-104920103D02*
G01*
X132025900Y-104984253D01*
X132165281Y-105077385D01*
X132283815Y-105195919D01*
X132376947Y-105335300D01*
X132441097Y-105490172D01*
X132473800Y-105654584D01*
X132473800Y-105822216D01*
X132441097Y-105986628D01*
X132376947Y-106141500D01*
X132283815Y-106280881D01*
X132165281Y-106399415D01*
X132025900Y-106492547D01*
X131871028Y-106556697D01*
X131706616Y-106589400D01*
X131538984Y-106589400D01*
X131374572Y-106556697D01*
X131219700Y-106492547D01*
X131080319Y-106399415D01*
X130961785Y-106280881D01*
X130868653Y-106141500D01*
X130804503Y-105986628D01*
X130771800Y-105822216D01*
X130771800Y-105654584D01*
X130804503Y-105490172D01*
X130868653Y-105335300D01*
X130961785Y-105195919D01*
X131080319Y-105077385D01*
X131219700Y-104984253D01*
X131374572Y-104920103D01*
X131538984Y-104887400D01*
X131706616Y-104887400D01*
X131871028Y-104920103D01*
X131871028Y-104920103D01*
G37*
G36*
X118836400Y-105384800D02*
G01*
X117134400Y-105384800D01*
X117134400Y-103682800D01*
X118836400Y-103682800D01*
X118836400Y-105384800D01*
X118836400Y-105384800D01*
G37*
G36*
X110281028Y-103702703D02*
G01*
X110435900Y-103766853D01*
X110575281Y-103859985D01*
X110693815Y-103978519D01*
X110786947Y-104117900D01*
X110851097Y-104272772D01*
X110883800Y-104437184D01*
X110883800Y-104604816D01*
X110851097Y-104769228D01*
X110786947Y-104924100D01*
X110693815Y-105063481D01*
X110575281Y-105182015D01*
X110435900Y-105275147D01*
X110281028Y-105339297D01*
X110116616Y-105372000D01*
X109948984Y-105372000D01*
X109784572Y-105339297D01*
X109629700Y-105275147D01*
X109490319Y-105182015D01*
X109371785Y-105063481D01*
X109278653Y-104924100D01*
X109214503Y-104769228D01*
X109181800Y-104604816D01*
X109181800Y-104437184D01*
X109214503Y-104272772D01*
X109278653Y-104117900D01*
X109371785Y-103978519D01*
X109490319Y-103859985D01*
X109629700Y-103766853D01*
X109784572Y-103702703D01*
X109948984Y-103670000D01*
X110116616Y-103670000D01*
X110281028Y-103702703D01*
X110281028Y-103702703D01*
G37*
G36*
X100039623Y-103682313D02*
G01*
X100200042Y-103730976D01*
X100267161Y-103766852D01*
X100347878Y-103809996D01*
X100477459Y-103916341D01*
X100583804Y-104045922D01*
X100583805Y-104045924D01*
X100662824Y-104193758D01*
X100711487Y-104354177D01*
X100727917Y-104521000D01*
X100711487Y-104687823D01*
X100662824Y-104848242D01*
X100622277Y-104924100D01*
X100583804Y-104996078D01*
X100477459Y-105125659D01*
X100347878Y-105232004D01*
X100347876Y-105232005D01*
X100200042Y-105311024D01*
X100039623Y-105359687D01*
X99914604Y-105372000D01*
X99830996Y-105372000D01*
X99705977Y-105359687D01*
X99545558Y-105311024D01*
X99397724Y-105232005D01*
X99397722Y-105232004D01*
X99268141Y-105125659D01*
X99161796Y-104996078D01*
X99123323Y-104924100D01*
X99082776Y-104848242D01*
X99034113Y-104687823D01*
X99017683Y-104521000D01*
X99034113Y-104354177D01*
X99082776Y-104193758D01*
X99161795Y-104045924D01*
X99161796Y-104045922D01*
X99268141Y-103916341D01*
X99397722Y-103809996D01*
X99478439Y-103766852D01*
X99545558Y-103730976D01*
X99705977Y-103682313D01*
X99830996Y-103670000D01*
X99914604Y-103670000D01*
X100039623Y-103682313D01*
X100039623Y-103682313D01*
G37*
G36*
X89808628Y-103702703D02*
G01*
X89963500Y-103766853D01*
X90102881Y-103859985D01*
X90221415Y-103978519D01*
X90314547Y-104117900D01*
X90378697Y-104272772D01*
X90411400Y-104437184D01*
X90411400Y-104604816D01*
X90378697Y-104769228D01*
X90314547Y-104924100D01*
X90221415Y-105063481D01*
X90102881Y-105182015D01*
X89963500Y-105275147D01*
X89808628Y-105339297D01*
X89644216Y-105372000D01*
X89476584Y-105372000D01*
X89312172Y-105339297D01*
X89157300Y-105275147D01*
X89017919Y-105182015D01*
X88899385Y-105063481D01*
X88806253Y-104924100D01*
X88742103Y-104769228D01*
X88709400Y-104604816D01*
X88709400Y-104437184D01*
X88742103Y-104272772D01*
X88806253Y-104117900D01*
X88899385Y-103978519D01*
X89017919Y-103859985D01*
X89157300Y-103766853D01*
X89312172Y-103702703D01*
X89476584Y-103670000D01*
X89644216Y-103670000D01*
X89808628Y-103702703D01*
X89808628Y-103702703D01*
G37*
G36*
X92348628Y-103702703D02*
G01*
X92503500Y-103766853D01*
X92642881Y-103859985D01*
X92761415Y-103978519D01*
X92854547Y-104117900D01*
X92918697Y-104272772D01*
X92951400Y-104437184D01*
X92951400Y-104604816D01*
X92918697Y-104769228D01*
X92854547Y-104924100D01*
X92761415Y-105063481D01*
X92642881Y-105182015D01*
X92503500Y-105275147D01*
X92348628Y-105339297D01*
X92184216Y-105372000D01*
X92016584Y-105372000D01*
X91852172Y-105339297D01*
X91697300Y-105275147D01*
X91557919Y-105182015D01*
X91439385Y-105063481D01*
X91346253Y-104924100D01*
X91282103Y-104769228D01*
X91249400Y-104604816D01*
X91249400Y-104437184D01*
X91282103Y-104272772D01*
X91346253Y-104117900D01*
X91439385Y-103978519D01*
X91557919Y-103859985D01*
X91697300Y-103766853D01*
X91852172Y-103702703D01*
X92016584Y-103670000D01*
X92184216Y-103670000D01*
X92348628Y-103702703D01*
X92348628Y-103702703D01*
G37*
G36*
X94888628Y-103702703D02*
G01*
X95043500Y-103766853D01*
X95182881Y-103859985D01*
X95301415Y-103978519D01*
X95394547Y-104117900D01*
X95458697Y-104272772D01*
X95491400Y-104437184D01*
X95491400Y-104604816D01*
X95458697Y-104769228D01*
X95394547Y-104924100D01*
X95301415Y-105063481D01*
X95182881Y-105182015D01*
X95043500Y-105275147D01*
X94888628Y-105339297D01*
X94724216Y-105372000D01*
X94556584Y-105372000D01*
X94392172Y-105339297D01*
X94237300Y-105275147D01*
X94097919Y-105182015D01*
X93979385Y-105063481D01*
X93886253Y-104924100D01*
X93822103Y-104769228D01*
X93789400Y-104604816D01*
X93789400Y-104437184D01*
X93822103Y-104272772D01*
X93886253Y-104117900D01*
X93979385Y-103978519D01*
X94097919Y-103859985D01*
X94237300Y-103766853D01*
X94392172Y-103702703D01*
X94556584Y-103670000D01*
X94724216Y-103670000D01*
X94888628Y-103702703D01*
X94888628Y-103702703D01*
G37*
G36*
X129534228Y-100553103D02*
G01*
X129689100Y-100617253D01*
X129828481Y-100710385D01*
X129947015Y-100828919D01*
X130040147Y-100968300D01*
X130104297Y-101123172D01*
X130137000Y-101287584D01*
X130137000Y-101455216D01*
X130104297Y-101619628D01*
X130040147Y-101774500D01*
X129947015Y-101913881D01*
X129828481Y-102032415D01*
X129689100Y-102125547D01*
X129534228Y-102189697D01*
X129369816Y-102222400D01*
X129202184Y-102222400D01*
X129037772Y-102189697D01*
X128882900Y-102125547D01*
X128743519Y-102032415D01*
X128624985Y-101913881D01*
X128531853Y-101774500D01*
X128467703Y-101619628D01*
X128435000Y-101455216D01*
X128435000Y-101287584D01*
X128467703Y-101123172D01*
X128531853Y-100968300D01*
X128624985Y-100828919D01*
X128743519Y-100710385D01*
X128882900Y-100617253D01*
X129037772Y-100553103D01*
X129202184Y-100520400D01*
X129369816Y-100520400D01*
X129534228Y-100553103D01*
X129534228Y-100553103D01*
G37*
G36*
X100166623Y-99516713D02*
G01*
X100327042Y-99565376D01*
X100394161Y-99601252D01*
X100474878Y-99644396D01*
X100604459Y-99750741D01*
X100710804Y-99880322D01*
X100710805Y-99880324D01*
X100789824Y-100028158D01*
X100838487Y-100188577D01*
X100854917Y-100355400D01*
X100838487Y-100522223D01*
X100789824Y-100682642D01*
X100749277Y-100758500D01*
X100710804Y-100830478D01*
X100604459Y-100960059D01*
X100474878Y-101066404D01*
X100474876Y-101066405D01*
X100327042Y-101145424D01*
X100166623Y-101194087D01*
X100041604Y-101206400D01*
X99957996Y-101206400D01*
X99832977Y-101194087D01*
X99672558Y-101145424D01*
X99524724Y-101066405D01*
X99524722Y-101066404D01*
X99395141Y-100960059D01*
X99288796Y-100830478D01*
X99250323Y-100758500D01*
X99209776Y-100682642D01*
X99161113Y-100522223D01*
X99144683Y-100355400D01*
X99161113Y-100188577D01*
X99209776Y-100028158D01*
X99288795Y-99880324D01*
X99288796Y-99880322D01*
X99395141Y-99750741D01*
X99524722Y-99644396D01*
X99605439Y-99601252D01*
X99672558Y-99565376D01*
X99832977Y-99516713D01*
X99957996Y-99504400D01*
X100041604Y-99504400D01*
X100166623Y-99516713D01*
X100166623Y-99516713D01*
G37*
G36*
X110408028Y-99537103D02*
G01*
X110562900Y-99601253D01*
X110702281Y-99694385D01*
X110820815Y-99812919D01*
X110913947Y-99952300D01*
X110978097Y-100107172D01*
X111010800Y-100271584D01*
X111010800Y-100439216D01*
X110978097Y-100603628D01*
X110913947Y-100758500D01*
X110820815Y-100897881D01*
X110702281Y-101016415D01*
X110562900Y-101109547D01*
X110408028Y-101173697D01*
X110243616Y-101206400D01*
X110075984Y-101206400D01*
X109911572Y-101173697D01*
X109756700Y-101109547D01*
X109617319Y-101016415D01*
X109498785Y-100897881D01*
X109405653Y-100758500D01*
X109341503Y-100603628D01*
X109308800Y-100439216D01*
X109308800Y-100271584D01*
X109341503Y-100107172D01*
X109405653Y-99952300D01*
X109498785Y-99812919D01*
X109617319Y-99694385D01*
X109756700Y-99601253D01*
X109911572Y-99537103D01*
X110075984Y-99504400D01*
X110243616Y-99504400D01*
X110408028Y-99537103D01*
X110408028Y-99537103D01*
G37*
G36*
X129534228Y-98553103D02*
G01*
X129689100Y-98617253D01*
X129828481Y-98710385D01*
X129947015Y-98828919D01*
X130040147Y-98968300D01*
X130104297Y-99123172D01*
X130137000Y-99287584D01*
X130137000Y-99455216D01*
X130104297Y-99619628D01*
X130040147Y-99774500D01*
X129947015Y-99913881D01*
X129828481Y-100032415D01*
X129689100Y-100125547D01*
X129534228Y-100189697D01*
X129369816Y-100222400D01*
X129202184Y-100222400D01*
X129037772Y-100189697D01*
X128882900Y-100125547D01*
X128743519Y-100032415D01*
X128624985Y-99913881D01*
X128531853Y-99774500D01*
X128467703Y-99619628D01*
X128435000Y-99455216D01*
X128435000Y-99287584D01*
X128467703Y-99123172D01*
X128531853Y-98968300D01*
X128624985Y-98828919D01*
X128743519Y-98710385D01*
X128882900Y-98617253D01*
X129037772Y-98553103D01*
X129202184Y-98520400D01*
X129369816Y-98520400D01*
X129534228Y-98553103D01*
X129534228Y-98553103D01*
G37*
G36*
X120003654Y-95631618D02*
G01*
X120376911Y-95786226D01*
X120376913Y-95786227D01*
X120712836Y-96010684D01*
X120998516Y-96296364D01*
X121222974Y-96632289D01*
X121377582Y-97005546D01*
X121456400Y-97401793D01*
X121456400Y-97805807D01*
X121377582Y-98202054D01*
X121282958Y-98430497D01*
X121222973Y-98575313D01*
X120998516Y-98911236D01*
X120712836Y-99196916D01*
X120376913Y-99421373D01*
X120376912Y-99421374D01*
X120376911Y-99421374D01*
X120003654Y-99575982D01*
X119607407Y-99654800D01*
X119203393Y-99654800D01*
X118807146Y-99575982D01*
X118433889Y-99421374D01*
X118433888Y-99421374D01*
X118433887Y-99421373D01*
X118097964Y-99196916D01*
X117812284Y-98911236D01*
X117587827Y-98575313D01*
X117527842Y-98430497D01*
X117433218Y-98202054D01*
X117354400Y-97805807D01*
X117354400Y-97401793D01*
X117433218Y-97005546D01*
X117587826Y-96632289D01*
X117812284Y-96296364D01*
X118097964Y-96010684D01*
X118433887Y-95786227D01*
X118433889Y-95786226D01*
X118807146Y-95631618D01*
X119203393Y-95552800D01*
X119607407Y-95552800D01*
X120003654Y-95631618D01*
X120003654Y-95631618D01*
G37*
G36*
X94875928Y-96793903D02*
G01*
X95030800Y-96858053D01*
X95170181Y-96951185D01*
X95288715Y-97069719D01*
X95381847Y-97209100D01*
X95445997Y-97363972D01*
X95478700Y-97528384D01*
X95478700Y-97696016D01*
X95445997Y-97860428D01*
X95381847Y-98015300D01*
X95288715Y-98154681D01*
X95170181Y-98273215D01*
X95030800Y-98366347D01*
X94875928Y-98430497D01*
X94711516Y-98463200D01*
X94543884Y-98463200D01*
X94379472Y-98430497D01*
X94224600Y-98366347D01*
X94085219Y-98273215D01*
X93966685Y-98154681D01*
X93873553Y-98015300D01*
X93809403Y-97860428D01*
X93776700Y-97696016D01*
X93776700Y-97528384D01*
X93809403Y-97363972D01*
X93873553Y-97209100D01*
X93966685Y-97069719D01*
X94085219Y-96951185D01*
X94224600Y-96858053D01*
X94379472Y-96793903D01*
X94543884Y-96761200D01*
X94711516Y-96761200D01*
X94875928Y-96793903D01*
X94875928Y-96793903D01*
G37*
G36*
X92335928Y-96793903D02*
G01*
X92490800Y-96858053D01*
X92630181Y-96951185D01*
X92748715Y-97069719D01*
X92841847Y-97209100D01*
X92905997Y-97363972D01*
X92938700Y-97528384D01*
X92938700Y-97696016D01*
X92905997Y-97860428D01*
X92841847Y-98015300D01*
X92748715Y-98154681D01*
X92630181Y-98273215D01*
X92490800Y-98366347D01*
X92335928Y-98430497D01*
X92171516Y-98463200D01*
X92003884Y-98463200D01*
X91839472Y-98430497D01*
X91684600Y-98366347D01*
X91545219Y-98273215D01*
X91426685Y-98154681D01*
X91333553Y-98015300D01*
X91269403Y-97860428D01*
X91236700Y-97696016D01*
X91236700Y-97528384D01*
X91269403Y-97363972D01*
X91333553Y-97209100D01*
X91426685Y-97069719D01*
X91545219Y-96951185D01*
X91684600Y-96858053D01*
X91839472Y-96793903D01*
X92003884Y-96761200D01*
X92171516Y-96761200D01*
X92335928Y-96793903D01*
X92335928Y-96793903D01*
G37*
G36*
X89795928Y-96793903D02*
G01*
X89950800Y-96858053D01*
X90090181Y-96951185D01*
X90208715Y-97069719D01*
X90301847Y-97209100D01*
X90365997Y-97363972D01*
X90398700Y-97528384D01*
X90398700Y-97696016D01*
X90365997Y-97860428D01*
X90301847Y-98015300D01*
X90208715Y-98154681D01*
X90090181Y-98273215D01*
X89950800Y-98366347D01*
X89795928Y-98430497D01*
X89631516Y-98463200D01*
X89463884Y-98463200D01*
X89299472Y-98430497D01*
X89144600Y-98366347D01*
X89005219Y-98273215D01*
X88886685Y-98154681D01*
X88793553Y-98015300D01*
X88729403Y-97860428D01*
X88696700Y-97696016D01*
X88696700Y-97528384D01*
X88729403Y-97363972D01*
X88793553Y-97209100D01*
X88886685Y-97069719D01*
X89005219Y-96951185D01*
X89144600Y-96858053D01*
X89299472Y-96793903D01*
X89463884Y-96761200D01*
X89631516Y-96761200D01*
X89795928Y-96793903D01*
X89795928Y-96793903D01*
G37*
M02*
