G04 #@! TF.GenerationSoftware,KiCad,Pcbnew,(5.1.0)-1*
G04 #@! TF.CreationDate,2019-06-06T12:32:48+01:00*
G04 #@! TF.ProjectId,Eco-PCB-2,45636f2d-5043-4422-9d32-2e6b69636164,rev?*
G04 #@! TF.SameCoordinates,Original*
G04 #@! TF.FileFunction,Copper,L2,Bot*
G04 #@! TF.FilePolarity,Positive*
%FSLAX46Y46*%
G04 Gerber Fmt 4.6, Leading zero omitted, Abs format (unit mm)*
G04 Created by KiCad (PCBNEW (5.1.0)-1) date 2019-06-06 12:32:48*
%MOMM*%
%LPD*%
G04 APERTURE LIST*
%ADD10R,1.600000X1.600000*%
%ADD11C,1.600000*%
%ADD12C,4.000000*%
%ADD13C,1.524000*%
%ADD14O,1.600000X1.600000*%
%ADD15C,0.762000*%
%ADD16C,0.250000*%
G04 APERTURE END LIST*
D10*
X117985400Y-104533800D03*
D11*
X117985400Y-107303800D03*
X117985400Y-110073800D03*
X117985400Y-112843800D03*
X117985400Y-115613800D03*
X117985400Y-118383800D03*
X117985400Y-121153800D03*
X117985400Y-123923800D03*
X117985400Y-126693800D03*
X117985400Y-129463800D03*
X117985400Y-132233800D03*
X117985400Y-135003800D03*
X117985400Y-137773800D03*
X120825400Y-105918800D03*
X120825400Y-108688800D03*
X120825400Y-111458800D03*
X120825400Y-114228800D03*
X120825400Y-116998800D03*
X120825400Y-119768800D03*
X120825400Y-122538800D03*
X120825400Y-125308800D03*
X120825400Y-128078800D03*
X120825400Y-130848800D03*
X120825400Y-133618800D03*
X120825400Y-136388800D03*
D12*
X119405400Y-144703800D03*
X119405400Y-97603800D03*
D13*
X129489200Y-120421400D03*
X132029200Y-120421400D03*
X134569200Y-120421400D03*
X137109200Y-120421400D03*
D11*
X133908800Y-113868200D03*
X133908800Y-115868200D03*
X129286000Y-99371400D03*
X129286000Y-101371400D03*
D13*
X91414600Y-111277400D03*
X93954600Y-111277400D03*
X96494600Y-111277400D03*
X99034600Y-111277400D03*
X91414600Y-114909600D03*
X93954600Y-114909600D03*
X96494600Y-114909600D03*
X99034600Y-114909600D03*
X99136200Y-118821200D03*
X96596200Y-118821200D03*
X94056200Y-118821200D03*
X91516200Y-118821200D03*
X91465400Y-122368600D03*
X94005400Y-122368600D03*
X96545400Y-122368600D03*
X99085400Y-122368600D03*
X106048800Y-148194800D03*
X106048800Y-124194800D03*
X129565400Y-133832600D03*
X129565400Y-138912600D03*
X132105400Y-136372600D03*
X89560400Y-100355400D03*
X92100400Y-100355400D03*
X94640400Y-100355400D03*
X94640400Y-104521000D03*
X92100400Y-104521000D03*
X89560400Y-104521000D03*
D11*
X110159800Y-100355400D03*
D14*
X99999800Y-100355400D03*
X99872800Y-104521000D03*
D11*
X110032800Y-104521000D03*
D13*
X139242800Y-105738400D03*
X136702800Y-105738400D03*
X134162800Y-105738400D03*
X131622800Y-105738400D03*
X129082800Y-105738400D03*
D15*
X123809200Y-133832600D02*
X129565400Y-133832600D01*
X120825400Y-130848800D02*
X123809200Y-133832600D01*
X106048800Y-124194800D02*
X94067400Y-124194800D01*
X94005400Y-124132800D02*
X94005400Y-122368600D01*
X94067400Y-124194800D02*
X94005400Y-124132800D01*
X94005400Y-118872000D02*
X94056200Y-118821200D01*
X94005400Y-122368600D02*
X94005400Y-118872000D01*
X94056200Y-115011200D02*
X93954600Y-114909600D01*
X94056200Y-118821200D02*
X94056200Y-115011200D01*
X93954600Y-114909600D02*
X93954600Y-111277400D01*
X93954600Y-106375200D02*
X92100400Y-104521000D01*
X93954600Y-111277400D02*
X93954600Y-106375200D01*
X92100400Y-104521000D02*
X92100400Y-100355400D01*
X129565400Y-139990230D02*
X128001430Y-141554200D01*
X129565400Y-138912600D02*
X129565400Y-139990230D01*
X112689400Y-141554200D02*
X106048800Y-148194800D01*
X128001430Y-141554200D02*
X112689400Y-141554200D01*
X107126430Y-124194800D02*
X107137630Y-124206000D01*
X106048800Y-124194800D02*
X107126430Y-124194800D01*
X107137630Y-124206000D02*
X111861600Y-124206000D01*
X111861600Y-124206000D02*
X111887000Y-124231400D01*
X111887000Y-131675400D02*
X117985400Y-137773800D01*
X111887000Y-124231400D02*
X111887000Y-131675400D01*
X129565400Y-133832600D02*
X134569200Y-128828800D01*
X134569200Y-123494800D02*
X140792200Y-123494800D01*
X134569200Y-123494800D02*
X134569200Y-120421400D01*
X134569200Y-128828800D02*
X134569200Y-123494800D01*
X140792200Y-123494800D02*
X140868400Y-123418600D01*
X140868400Y-123418600D02*
X140868400Y-109093000D01*
X140868400Y-109093000D02*
X140081000Y-108305600D01*
X139270000Y-108305600D02*
X139244600Y-108280200D01*
X140081000Y-108305600D02*
X139270000Y-108305600D01*
X139244600Y-108280200D02*
X137007600Y-108280200D01*
X136702800Y-107975400D02*
X136702800Y-105738400D01*
X137007600Y-108280200D02*
X136702800Y-107975400D01*
D16*
X116854030Y-121153800D02*
X115605230Y-122402600D01*
X117985400Y-121153800D02*
X116854030Y-121153800D01*
X115571230Y-122368600D02*
X99085400Y-122368600D01*
X115605230Y-122402600D02*
X115571230Y-122368600D01*
X99085400Y-118872000D02*
X99136200Y-118821200D01*
X99085400Y-122368600D02*
X99085400Y-118872000D01*
X99136200Y-115011200D02*
X99034600Y-114909600D01*
X99136200Y-118821200D02*
X99136200Y-115011200D01*
X99034600Y-114909600D02*
X99034600Y-111277400D01*
X129286000Y-105535200D02*
X129082800Y-105738400D01*
X129286000Y-101371400D02*
X129286000Y-105535200D01*
X128142800Y-101371400D02*
X120825400Y-108688800D01*
X129286000Y-101371400D02*
X128142800Y-101371400D01*
M02*
