G04 #@! TF.GenerationSoftware,KiCad,Pcbnew,(5.1.0)-1*
G04 #@! TF.CreationDate,2019-06-13T21:54:41+03:00*
G04 #@! TF.ProjectId,Eco-PCB-2,45636f2d-5043-4422-9d32-2e6b69636164,rev?*
G04 #@! TF.SameCoordinates,Original*
G04 #@! TF.FileFunction,Copper,L2,Bot*
G04 #@! TF.FilePolarity,Positive*
%FSLAX46Y46*%
G04 Gerber Fmt 4.6, Leading zero omitted, Abs format (unit mm)*
G04 Created by KiCad (PCBNEW (5.1.0)-1) date 2019-06-13 21:54:41*
%MOMM*%
%LPD*%
G04 APERTURE LIST*
%ADD10R,1.600000X1.600000*%
%ADD11C,1.600000*%
%ADD12C,4.000000*%
%ADD13C,2.000000*%
%ADD14C,1.524000*%
%ADD15O,1.600000X1.600000*%
%ADD16C,0.762000*%
%ADD17C,0.250000*%
G04 APERTURE END LIST*
D10*
X117985400Y-104533800D03*
D11*
X117985400Y-107303800D03*
X117985400Y-110073800D03*
X117985400Y-112843800D03*
X117985400Y-115613800D03*
X117985400Y-118383800D03*
X117985400Y-121153800D03*
X117985400Y-123923800D03*
X117985400Y-126693800D03*
X117985400Y-129463800D03*
X117985400Y-132233800D03*
X117985400Y-135003800D03*
X117985400Y-137773800D03*
X120825400Y-105918800D03*
X120825400Y-108688800D03*
X120825400Y-111458800D03*
X120825400Y-114228800D03*
X120825400Y-116998800D03*
X120825400Y-119768800D03*
X120825400Y-122538800D03*
X120825400Y-125308800D03*
X120825400Y-128078800D03*
X120825400Y-130848800D03*
X120825400Y-133618800D03*
X120825400Y-136388800D03*
D12*
X119405400Y-144703800D03*
X119405400Y-97603800D03*
D11*
X129489200Y-120421400D03*
X132029200Y-120421400D03*
X134569200Y-120421400D03*
X137109200Y-120421400D03*
X133908800Y-113868200D03*
X133908800Y-115868200D03*
X129286000Y-99371400D03*
X129286000Y-101371400D03*
X91401900Y-114693700D03*
X93941900Y-114693700D03*
X96481900Y-114693700D03*
X99021900Y-114693700D03*
X91389200Y-122402600D03*
X93929200Y-122402600D03*
X96469200Y-122402600D03*
X99009200Y-122402600D03*
X99021900Y-130598200D03*
X96481900Y-130598200D03*
X93941900Y-130598200D03*
X91401900Y-130598200D03*
X91401900Y-137617200D03*
X93941900Y-137617200D03*
X96481900Y-137617200D03*
X99021900Y-137617200D03*
D13*
X106048800Y-148194800D03*
X106048800Y-124194800D03*
D14*
X129565400Y-133832600D03*
X129565400Y-138912600D03*
X132105400Y-136372600D03*
D11*
X89547700Y-97612200D03*
X92087700Y-97612200D03*
X94627700Y-97612200D03*
X94640400Y-104521000D03*
X92100400Y-104521000D03*
X89560400Y-104521000D03*
X110159800Y-100355400D03*
D15*
X99999800Y-100355400D03*
X99872800Y-104521000D03*
D11*
X110032800Y-104521000D03*
X139242800Y-105738400D03*
X136702800Y-105738400D03*
X134162800Y-105738400D03*
X131622800Y-105738400D03*
X129082800Y-105738400D03*
D16*
X123809200Y-133832600D02*
X129565400Y-133832600D01*
X120825400Y-130848800D02*
X123809200Y-133832600D01*
X93954600Y-106375200D02*
X92100400Y-104521000D01*
X129565400Y-139990230D02*
X128001430Y-141554200D01*
X129565400Y-138912600D02*
X129565400Y-139990230D01*
X112689400Y-141554200D02*
X106048800Y-148194800D01*
X128001430Y-141554200D02*
X112689400Y-141554200D01*
X107126430Y-124194800D02*
X107137630Y-124206000D01*
X106048800Y-124194800D02*
X107126430Y-124194800D01*
X107137630Y-124206000D02*
X111861600Y-124206000D01*
X111861600Y-124206000D02*
X111887000Y-124231400D01*
X111887000Y-124231400D02*
X111887000Y-131675400D01*
X129565400Y-133832600D02*
X134569200Y-128828800D01*
X134569200Y-123494800D02*
X140792200Y-123494800D01*
X134569200Y-123494800D02*
X134569200Y-120421400D01*
X134569200Y-128828800D02*
X134569200Y-123494800D01*
X140792200Y-123494800D02*
X140868400Y-123418600D01*
X140868400Y-123418600D02*
X140868400Y-109093000D01*
X140868400Y-109093000D02*
X140081000Y-108305600D01*
X139270000Y-108305600D02*
X139244600Y-108280200D01*
X140081000Y-108305600D02*
X139270000Y-108305600D01*
X139244600Y-108280200D02*
X137007600Y-108280200D01*
X136702800Y-107975400D02*
X136702800Y-105738400D01*
X137007600Y-108280200D02*
X136702800Y-107975400D01*
X111887000Y-131675400D02*
X117985400Y-137773800D01*
X93941900Y-106387900D02*
X93941900Y-114693700D01*
X93954600Y-106375200D02*
X93941900Y-106387900D01*
X93941900Y-122389900D02*
X93929200Y-122402600D01*
X93941900Y-114693700D02*
X93941900Y-122389900D01*
X93929200Y-130035300D02*
X93840300Y-130124200D01*
X93954600Y-130238500D02*
X93840300Y-130124200D01*
X93929200Y-130585500D02*
X93941900Y-130598200D01*
X93929200Y-122402600D02*
X93929200Y-130585500D01*
X93941900Y-130598200D02*
X93941900Y-137617200D01*
X94677101Y-95022799D02*
X92087700Y-97612200D01*
X131014599Y-95022799D02*
X94677101Y-95022799D01*
X134289800Y-98298000D02*
X131014599Y-95022799D01*
X134289800Y-102247770D02*
X134289800Y-98298000D01*
X136702800Y-105738400D02*
X136702800Y-104660770D01*
X136702800Y-104660770D02*
X134289800Y-102247770D01*
X92100400Y-97624900D02*
X92087700Y-97612200D01*
X92100400Y-104521000D02*
X92100400Y-97624900D01*
D17*
X116854030Y-121153800D02*
X115605230Y-122402600D01*
X117985400Y-121153800D02*
X116854030Y-121153800D01*
X115605230Y-122402600D02*
X115571230Y-122368600D01*
X115605230Y-122402600D02*
X99009200Y-122402600D01*
X99009200Y-114706400D02*
X99021900Y-114693700D01*
X99009200Y-122402600D02*
X99009200Y-114706400D01*
X99009200Y-130585500D02*
X99021900Y-130598200D01*
X99009200Y-122402600D02*
X99009200Y-130585500D01*
X99021900Y-131675830D02*
X99021900Y-137617200D01*
X99021900Y-130598200D02*
X99021900Y-131675830D01*
X129286000Y-105535200D02*
X129082800Y-105738400D01*
X129286000Y-101371400D02*
X129286000Y-105535200D01*
X128142800Y-101371400D02*
X120825400Y-108688800D01*
X129286000Y-101371400D02*
X128142800Y-101371400D01*
M02*
