M48
; DRILL file {KiCad (5.1.0)-1} date 6/13/2019 9:54:43 PM
; FORMAT={-:-/ absolute / metric / decimal}
; #@! TF.CreationDate,2019-06-13T21:54:43+03:00
; #@! TF.GenerationSoftware,Kicad,Pcbnew,(5.1.0)-1
; #@! TF.FileFunction,Plated,1,2,PTH
FMAT,2
METRIC
T1C0.762
T2C0.800
T3C1.000
T4C1.600
T5C3.200
%
G90
G05
T1
X129.565Y-133.833
X129.565Y-138.913
X132.105Y-136.373
T2
X99.873Y-104.521
X110.033Y-104.521
X133.909Y-113.868
X133.909Y-115.868
X129.286Y-99.371
X129.286Y-101.371
X100.0Y-100.355
X110.16Y-100.355
T3
X91.389Y-122.403
X93.929Y-122.403
X96.469Y-122.403
X99.009Y-122.403
X91.402Y-137.617
X93.942Y-137.617
X96.482Y-137.617
X99.022Y-137.617
X117.985Y-104.534
X117.985Y-107.304
X117.985Y-110.074
X117.985Y-112.844
X117.985Y-115.614
X117.985Y-118.384
X117.985Y-121.154
X117.985Y-123.924
X117.985Y-126.694
X117.985Y-129.464
X117.985Y-132.234
X117.985Y-135.004
X117.985Y-137.774
X120.825Y-105.919
X120.825Y-108.689
X120.825Y-111.459
X120.825Y-114.229
X120.825Y-116.999
X120.825Y-119.769
X120.825Y-122.539
X120.825Y-125.309
X120.825Y-128.079
X120.825Y-130.849
X120.825Y-133.619
X120.825Y-136.389
X89.548Y-97.612
X92.088Y-97.612
X94.628Y-97.612
X129.083Y-105.738
X131.623Y-105.738
X134.163Y-105.738
X136.703Y-105.738
X139.243Y-105.738
X91.402Y-114.694
X93.942Y-114.694
X96.482Y-114.694
X99.022Y-114.694
X129.489Y-120.421
X132.029Y-120.421
X134.569Y-120.421
X137.109Y-120.421
X91.402Y-130.598
X93.942Y-130.598
X96.482Y-130.598
X99.022Y-130.598
X89.56Y-104.521
X92.1Y-104.521
X94.64Y-104.521
T4
X106.049Y-124.195
X106.049Y-148.195
T5
X119.405Y-97.604
X119.405Y-144.704
T0
M30
