G04 #@! TF.GenerationSoftware,KiCad,Pcbnew,(5.1.0)-1*
G04 #@! TF.CreationDate,2019-05-30T15:11:01+01:00*
G04 #@! TF.ProjectId,Eco-PCB-Final,45636f2d-5043-4422-9d46-696e616c2e6b,rev?*
G04 #@! TF.SameCoordinates,Original*
G04 #@! TF.FileFunction,Copper,L1,Top*
G04 #@! TF.FilePolarity,Positive*
%FSLAX46Y46*%
G04 Gerber Fmt 4.6, Leading zero omitted, Abs format (unit mm)*
G04 Created by KiCad (PCBNEW (5.1.0)-1) date 2019-05-30 15:11:01*
%MOMM*%
%LPD*%
G04 APERTURE LIST*
%ADD10C,1.600000*%
%ADD11O,1.600000X1.600000*%
%ADD12C,1.524000*%
%ADD13R,1.600000X1.600000*%
%ADD14C,4.000000*%
%ADD15R,3.000000X3.000000*%
%ADD16C,3.000000*%
%ADD17C,0.800000*%
%ADD18C,0.250000*%
%ADD19C,0.508000*%
G04 APERTURE END LIST*
D10*
X127762000Y-73628000D03*
X127762000Y-71628000D03*
D11*
X121475500Y-66929000D03*
D10*
X131635500Y-66929000D03*
D12*
X127415000Y-45275500D03*
X127415000Y-47815500D03*
X127415000Y-50355500D03*
X127415000Y-52895500D03*
X127415000Y-55435500D03*
X127415000Y-57975500D03*
X129349500Y-128714500D03*
X129349500Y-131254500D03*
X129349500Y-133724500D03*
X129349500Y-136334500D03*
X139436500Y-67310000D03*
X139436500Y-69850000D03*
X139436500Y-72390000D03*
X139436500Y-74930000D03*
X139436500Y-77470000D03*
D10*
X119824500Y-112141000D03*
D11*
X129984500Y-112141000D03*
D10*
X119824500Y-116459000D03*
D11*
X129984500Y-116459000D03*
D12*
X97447000Y-127889000D03*
X97447000Y-130429000D03*
X97447000Y-125349000D03*
D13*
X120904000Y-29464000D03*
D10*
X123674000Y-29464000D03*
X126444000Y-29464000D03*
X129214000Y-29464000D03*
X131984000Y-29464000D03*
X134754000Y-29464000D03*
X137524000Y-29464000D03*
X140294000Y-29464000D03*
X143064000Y-29464000D03*
X145834000Y-29464000D03*
X148604000Y-29464000D03*
X151374000Y-29464000D03*
X154144000Y-29464000D03*
X122289000Y-26624000D03*
X125059000Y-26624000D03*
X127829000Y-26624000D03*
X130599000Y-26624000D03*
X133369000Y-26624000D03*
X136139000Y-26624000D03*
X138909000Y-26624000D03*
X141679000Y-26624000D03*
X144449000Y-26624000D03*
X147219000Y-26624000D03*
X149989000Y-26624000D03*
X152759000Y-26624000D03*
D14*
X161074000Y-28044000D03*
X113974000Y-28044000D03*
D13*
X110426500Y-61087000D03*
D11*
X77406500Y-76327000D03*
X107886500Y-61087000D03*
X79946500Y-76327000D03*
X105346500Y-61087000D03*
X82486500Y-76327000D03*
X102806500Y-61087000D03*
X85026500Y-76327000D03*
X100266500Y-61087000D03*
X87566500Y-76327000D03*
X97726500Y-61087000D03*
X90106500Y-76327000D03*
X95186500Y-61087000D03*
X92646500Y-76327000D03*
X92646500Y-61087000D03*
X95186500Y-76327000D03*
X90106500Y-61087000D03*
X97726500Y-76327000D03*
X87566500Y-61087000D03*
X100266500Y-76327000D03*
X85026500Y-61087000D03*
X102806500Y-76327000D03*
X82486500Y-61087000D03*
X105346500Y-76327000D03*
X79946500Y-61087000D03*
X107886500Y-76327000D03*
X77406500Y-61087000D03*
X110426500Y-76327000D03*
X74866500Y-61087000D03*
X74866500Y-76327000D03*
D12*
X90932000Y-116586000D03*
X90932000Y-114046000D03*
X90932000Y-111506000D03*
X90932000Y-108966000D03*
X90932000Y-106426000D03*
X90932000Y-103886000D03*
D13*
X110236000Y-81661000D03*
D11*
X77216000Y-96901000D03*
X107696000Y-81661000D03*
X79756000Y-96901000D03*
X105156000Y-81661000D03*
X82296000Y-96901000D03*
X102616000Y-81661000D03*
X84836000Y-96901000D03*
X100076000Y-81661000D03*
X87376000Y-96901000D03*
X97536000Y-81661000D03*
X89916000Y-96901000D03*
X94996000Y-81661000D03*
X92456000Y-96901000D03*
X92456000Y-81661000D03*
X94996000Y-96901000D03*
X89916000Y-81661000D03*
X97536000Y-96901000D03*
X87376000Y-81661000D03*
X100076000Y-96901000D03*
X84836000Y-81661000D03*
X102616000Y-96901000D03*
X82296000Y-81661000D03*
X105156000Y-96901000D03*
X79756000Y-81661000D03*
X107696000Y-96901000D03*
X77216000Y-81661000D03*
X110236000Y-96901000D03*
X74676000Y-81661000D03*
X74676000Y-96901000D03*
D12*
X136209500Y-89979500D03*
X136209500Y-92519500D03*
X136209500Y-95059500D03*
X136209500Y-97599500D03*
X135186000Y-108839000D03*
X135186000Y-111379000D03*
X135186000Y-113919000D03*
X135186000Y-116459000D03*
X135186000Y-118999000D03*
X135186000Y-121539000D03*
X135186000Y-124079000D03*
X135186000Y-126619000D03*
D11*
X74676000Y-56134000D03*
X74676000Y-40894000D03*
X110236000Y-56134000D03*
X77216000Y-40894000D03*
X107696000Y-56134000D03*
X79756000Y-40894000D03*
X105156000Y-56134000D03*
X82296000Y-40894000D03*
X102616000Y-56134000D03*
X84836000Y-40894000D03*
X100076000Y-56134000D03*
X87376000Y-40894000D03*
X97536000Y-56134000D03*
X89916000Y-40894000D03*
X94996000Y-56134000D03*
X92456000Y-40894000D03*
X92456000Y-56134000D03*
X94996000Y-40894000D03*
X89916000Y-56134000D03*
X97536000Y-40894000D03*
X87376000Y-56134000D03*
X100076000Y-40894000D03*
X84836000Y-56134000D03*
X102616000Y-40894000D03*
X82296000Y-56134000D03*
X105156000Y-40894000D03*
X79756000Y-56134000D03*
X107696000Y-40894000D03*
X77216000Y-56134000D03*
D13*
X110236000Y-40894000D03*
D15*
X73025000Y-30035500D03*
D16*
X73025000Y-24955500D03*
D17*
X102171500Y-63373000D03*
D18*
X120064498Y-77470000D02*
X105967498Y-63373000D01*
X139436500Y-77470000D02*
X120064498Y-77470000D01*
X102171500Y-63373000D02*
X105967498Y-63373000D01*
X84024502Y-84264500D02*
X82359500Y-84264500D01*
X82359500Y-84264500D02*
X79756000Y-81661000D01*
X96121001Y-106316999D02*
X96121001Y-96360999D01*
X90932000Y-111506000D02*
X96121001Y-106316999D01*
X96121001Y-96360999D02*
X84024502Y-84264500D01*
X94996000Y-104902000D02*
X94996000Y-96901000D01*
X90932000Y-108966000D02*
X94996000Y-104902000D01*
X90932000Y-103886000D02*
X92456000Y-102362000D01*
X92456000Y-102362000D02*
X92456000Y-96901000D01*
X84836000Y-115278000D02*
X84836000Y-96901000D01*
X97447000Y-127889000D02*
X84836000Y-115278000D01*
X116141500Y-98298000D02*
X116141500Y-80262590D01*
X135186000Y-113919000D02*
X131762500Y-113919000D01*
X116141500Y-80262590D02*
X114295900Y-78416990D01*
X114295900Y-78416990D02*
X97276490Y-78416990D01*
X97276490Y-78416990D02*
X95986499Y-77126999D01*
X95986499Y-77126999D02*
X95186500Y-76327000D01*
X129984500Y-112141000D02*
X116141500Y-98298000D01*
X131762500Y-113919000D02*
X129984500Y-112141000D01*
X135186000Y-116459000D02*
X129984500Y-116459000D01*
X115125500Y-79883000D02*
X114109500Y-78867000D01*
X126757630Y-114363500D02*
X117792500Y-114363500D01*
X129984500Y-116459000D02*
X128853130Y-116459000D01*
X117792500Y-114363500D02*
X115125500Y-111696500D01*
X114109500Y-78867000D02*
X95186500Y-78867000D01*
X95186500Y-78867000D02*
X92646500Y-76327000D01*
X128853130Y-116459000D02*
X126757630Y-114363500D01*
X115125500Y-111696500D02*
X115125500Y-79883000D01*
X110426500Y-60037000D02*
X110426500Y-61087000D01*
X82296000Y-56134000D02*
X83170998Y-56134000D01*
X83170998Y-56134000D02*
X86290987Y-59253989D01*
X86290987Y-59253989D02*
X109643489Y-59253989D01*
X109643489Y-59253989D02*
X110426500Y-60037000D01*
X98806000Y-37084000D02*
X94996000Y-40894000D01*
X120904000Y-29464000D02*
X116968410Y-29464000D01*
X109348410Y-37084000D02*
X98806000Y-37084000D01*
X116968410Y-29464000D02*
X109348410Y-37084000D01*
X95795999Y-40094001D02*
X94996000Y-40894000D01*
X117856000Y-27940000D02*
X110490000Y-35306000D01*
X93255999Y-40094001D02*
X92456000Y-40894000D01*
X123674000Y-29464000D02*
X122150000Y-27940000D01*
X122150000Y-27940000D02*
X117856000Y-27940000D01*
X110490000Y-35306000D02*
X98044000Y-35306000D01*
X98044000Y-35306000D02*
X93255999Y-40094001D01*
X126499000Y-37719000D02*
X100711000Y-37719000D01*
X98335999Y-40094001D02*
X97536000Y-40894000D01*
X134754000Y-29464000D02*
X126499000Y-37719000D01*
X100711000Y-37719000D02*
X98335999Y-40094001D01*
X121382500Y-25717500D02*
X100012500Y-25717500D01*
X122289000Y-26624000D02*
X121382500Y-25717500D01*
X100012500Y-25717500D02*
X84836000Y-40894000D01*
X127415000Y-52895500D02*
X128502001Y-51808499D01*
X127570763Y-48902501D02*
X85224501Y-48902501D01*
X85224501Y-48902501D02*
X78015999Y-41693999D01*
X128502001Y-51808499D02*
X128502001Y-49833739D01*
X78015999Y-41693999D02*
X77216000Y-40894000D01*
X128502001Y-49833739D02*
X127570763Y-48902501D01*
X127415000Y-55435500D02*
X113875702Y-55435500D01*
X75475999Y-55334001D02*
X74676000Y-56134000D01*
X113359201Y-54918999D02*
X75891001Y-54918999D01*
X113875702Y-55435500D02*
X113359201Y-54918999D01*
X75891001Y-54918999D02*
X75475999Y-55334001D01*
X84137500Y-50355500D02*
X74676000Y-40894000D01*
X127415000Y-50355500D02*
X84137500Y-50355500D01*
X136209500Y-92519500D02*
X133034500Y-92519500D01*
X133034500Y-92519500D02*
X133034500Y-92478672D01*
X133034500Y-92478672D02*
X105706828Y-65151000D01*
X105706828Y-65151000D02*
X99250500Y-65151000D01*
X99250500Y-65151000D02*
X95186500Y-61087000D01*
X89852500Y-58610500D02*
X87376000Y-56134000D01*
X110135002Y-58610500D02*
X89852500Y-58610500D01*
X138358870Y-74930000D02*
X136707870Y-76581000D01*
X139436500Y-74930000D02*
X138358870Y-74930000D01*
X136707870Y-76581000D02*
X122745500Y-76581000D01*
X122745500Y-76581000D02*
X111751499Y-65586999D01*
X111751499Y-65586999D02*
X111751499Y-60226997D01*
X111751499Y-60226997D02*
X110135002Y-58610500D01*
X135687739Y-91432499D02*
X136731261Y-91432499D01*
X132751737Y-91559499D02*
X135560739Y-91559499D01*
X135560739Y-91559499D02*
X135687739Y-91432499D01*
X136731261Y-91432499D02*
X137296501Y-91997739D01*
X137296501Y-91997739D02*
X137296501Y-93972499D01*
X97726500Y-61087000D02*
X101340490Y-64700990D01*
X105893228Y-64700990D02*
X132751737Y-91559499D01*
X136971499Y-94297501D02*
X136209500Y-95059500D01*
X137296501Y-93972499D02*
X136971499Y-94297501D01*
X101340490Y-64700990D02*
X105893228Y-64700990D01*
X139436500Y-72390000D02*
X135944000Y-75882500D01*
X135944000Y-75882500D02*
X123063000Y-75882500D01*
X123063000Y-75882500D02*
X114236500Y-67056000D01*
X114236500Y-67056000D02*
X114236500Y-59309000D01*
X90715999Y-56933999D02*
X89916000Y-56134000D01*
X91942491Y-58160491D02*
X90715999Y-56933999D01*
X113087991Y-58160491D02*
X91942491Y-58160491D01*
X114236500Y-59309000D02*
X113087991Y-58160491D01*
D19*
X101552499Y-59832999D02*
X102006501Y-60287001D01*
X102006501Y-60287001D02*
X102806500Y-61087000D01*
X151574500Y-130175000D02*
X151574500Y-132334000D01*
X91392499Y-76960919D02*
X91392499Y-60485079D01*
X129349500Y-133724500D02*
X132899000Y-130175000D01*
X93877590Y-79446010D02*
X91392499Y-76960919D01*
X151574500Y-124714000D02*
X151574500Y-130175000D01*
X91392499Y-60485079D02*
X92044579Y-59832999D01*
X132899000Y-130175000D02*
X151574500Y-130175000D01*
X151574500Y-132334000D02*
X143954500Y-139954000D01*
X102616000Y-81661000D02*
X101931922Y-81661000D01*
X101931922Y-81661000D02*
X99716932Y-79446010D01*
X99716932Y-79446010D02*
X93877590Y-79446010D01*
X92044579Y-59832999D02*
X101552499Y-59832999D01*
X151511000Y-45275500D02*
X151642001Y-45144499D01*
X151642001Y-80649001D02*
X151642001Y-89983501D01*
X139436500Y-69850000D02*
X140514130Y-69850000D01*
X136209500Y-89979500D02*
X137287130Y-89979500D01*
X137287130Y-89979500D02*
X137291131Y-89983501D01*
X137291131Y-89983501D02*
X151642001Y-89983501D01*
X140518131Y-69854001D02*
X151642001Y-69854001D01*
X97599500Y-114046000D02*
X103870001Y-107775499D01*
X103870001Y-107775499D02*
X103870001Y-82915001D01*
X103870001Y-82915001D02*
X103415999Y-82460999D01*
X112052000Y-139954000D02*
X100634750Y-128536750D01*
X103415999Y-82460999D02*
X102616000Y-81661000D01*
X151642001Y-39374001D02*
X151642001Y-44390501D01*
X151642001Y-30863371D02*
X151642001Y-39374001D01*
X102616000Y-40894000D02*
X103960001Y-39549999D01*
X103960001Y-39549999D02*
X151466003Y-39549999D01*
X151466003Y-39549999D02*
X151642001Y-39374001D01*
X151642001Y-45144499D02*
X151642001Y-55376001D01*
X151642001Y-44390501D02*
X151642001Y-45144499D01*
X127415000Y-45275500D02*
X151511000Y-45275500D01*
X97599500Y-114046000D02*
X90932000Y-114046000D01*
X100634750Y-128536750D02*
X100634750Y-117081250D01*
X135186000Y-111379000D02*
X151519002Y-111379000D01*
X140514130Y-69850000D02*
X140518131Y-69854001D01*
X143954500Y-139954000D02*
X112052000Y-139954000D01*
X151642001Y-89983501D02*
X151642001Y-111501999D01*
X151642001Y-124781501D02*
X151574500Y-124714000D01*
X151642001Y-55376001D02*
X151642001Y-69854001D01*
X151519002Y-111379000D02*
X151642001Y-111501999D01*
X151642001Y-111501999D02*
X151642001Y-124781501D01*
X100634750Y-128536750D02*
X97447000Y-125349000D01*
X149659923Y-28664001D02*
X150574001Y-28664001D01*
X148734999Y-26284077D02*
X148734999Y-27739077D01*
X73025000Y-24955500D02*
X147406422Y-24955500D01*
X150574001Y-28664001D02*
X151374000Y-29464000D01*
X148734999Y-27739077D02*
X149659923Y-28664001D01*
X147406422Y-24955500D02*
X148734999Y-26284077D01*
X151374000Y-30595370D02*
X151642001Y-30863371D01*
X151374000Y-29464000D02*
X151374000Y-30595370D01*
X100634750Y-117081250D02*
X97650250Y-117081250D01*
X97599500Y-117030500D02*
X97599500Y-114046000D01*
X97650250Y-117081250D02*
X97599500Y-117030500D01*
X151642001Y-69854001D02*
X151642001Y-80649001D01*
X128893370Y-73628000D02*
X129813870Y-72707500D01*
X127762000Y-73628000D02*
X128893370Y-73628000D01*
X129813870Y-72707500D02*
X134810500Y-72707500D01*
X134810500Y-72707500D02*
X134937500Y-72580500D01*
X134937500Y-72580500D02*
X134937500Y-69913500D01*
X135001000Y-69850000D02*
X139436500Y-69850000D01*
X134937500Y-69913500D02*
X135001000Y-69850000D01*
M02*
