M48
; DRILL file {KiCad (5.1.0)-1} date 5/30/2019 3:11:05 PM
; FORMAT={-:-/ absolute / metric / decimal}
; #@! TF.CreationDate,2019-05-30T15:11:05+01:00
; #@! TF.GenerationSoftware,Kicad,Pcbnew,(5.1.0)-1
; #@! TF.FileFunction,Plated,1,2,PTH
FMAT,2
METRIC
T1C0.400
T2C0.762
T3C0.800
T4C1.000
T5C1.520
T6C3.200
%
G90
G05
T1
X102.171Y-63.373
T2
X129.35Y-128.714
X129.35Y-131.255
X129.35Y-133.725
X129.35Y-136.334
X136.209Y-89.98
X136.209Y-92.519
X136.209Y-95.059
X136.209Y-97.599
X97.447Y-125.349
X97.447Y-127.889
X97.447Y-130.429
X90.932Y-103.886
X90.932Y-106.426
X90.932Y-108.966
X90.932Y-111.506
X90.932Y-114.046
X90.932Y-116.586
X127.415Y-45.276
X127.415Y-47.816
X127.415Y-50.355
X127.415Y-52.895
X127.415Y-55.435
X127.415Y-57.975
X135.186Y-108.839
X135.186Y-111.379
X135.186Y-113.919
X135.186Y-116.459
X135.186Y-118.999
X135.186Y-121.539
X135.186Y-124.079
X135.186Y-126.619
X139.436Y-67.31
X139.436Y-69.85
X139.436Y-72.39
X139.436Y-74.93
X139.436Y-77.47
T3
X74.867Y-61.087
X74.867Y-76.327
X77.406Y-61.087
X77.406Y-76.327
X79.947Y-61.087
X79.947Y-76.327
X82.486Y-61.087
X82.486Y-76.327
X85.026Y-61.087
X85.026Y-76.327
X87.566Y-61.087
X87.566Y-76.327
X90.106Y-61.087
X90.106Y-76.327
X92.646Y-61.087
X92.646Y-76.327
X95.186Y-61.087
X95.186Y-76.327
X97.727Y-61.087
X97.727Y-76.327
X100.266Y-61.087
X100.266Y-76.327
X102.806Y-61.087
X102.806Y-76.327
X105.346Y-61.087
X105.346Y-76.327
X107.886Y-61.087
X107.886Y-76.327
X110.426Y-61.087
X110.426Y-76.327
X74.676Y-81.661
X74.676Y-96.901
X77.216Y-81.661
X77.216Y-96.901
X79.756Y-81.661
X79.756Y-96.901
X82.296Y-81.661
X82.296Y-96.901
X84.836Y-81.661
X84.836Y-96.901
X87.376Y-81.661
X87.376Y-96.901
X89.916Y-81.661
X89.916Y-96.901
X92.456Y-81.661
X92.456Y-96.901
X94.996Y-81.661
X94.996Y-96.901
X97.536Y-81.661
X97.536Y-96.901
X100.076Y-81.661
X100.076Y-96.901
X102.616Y-81.661
X102.616Y-96.901
X105.156Y-81.661
X105.156Y-96.901
X107.696Y-81.661
X107.696Y-96.901
X110.236Y-81.661
X110.236Y-96.901
X119.825Y-112.141
X129.984Y-112.141
X127.762Y-71.628
X127.762Y-73.628
X119.825Y-116.459
X129.984Y-116.459
X121.475Y-66.929
X131.636Y-66.929
X74.676Y-40.894
X74.676Y-56.134
X77.216Y-40.894
X77.216Y-56.134
X79.756Y-40.894
X79.756Y-56.134
X82.296Y-40.894
X82.296Y-56.134
X84.836Y-40.894
X84.836Y-56.134
X87.376Y-40.894
X87.376Y-56.134
X89.916Y-40.894
X89.916Y-56.134
X92.456Y-40.894
X92.456Y-56.134
X94.996Y-40.894
X94.996Y-56.134
X97.536Y-40.894
X97.536Y-56.134
X100.076Y-40.894
X100.076Y-56.134
X102.616Y-40.894
X102.616Y-56.134
X105.156Y-40.894
X105.156Y-56.134
X107.696Y-40.894
X107.696Y-56.134
X110.236Y-40.894
X110.236Y-56.134
T4
X120.904Y-29.464
X122.289Y-26.624
X123.674Y-29.464
X125.059Y-26.624
X126.444Y-29.464
X127.829Y-26.624
X129.214Y-29.464
X130.599Y-26.624
X131.984Y-29.464
X133.369Y-26.624
X134.754Y-29.464
X136.139Y-26.624
X137.524Y-29.464
X138.909Y-26.624
X140.294Y-29.464
X141.679Y-26.624
X143.064Y-29.464
X144.449Y-26.624
X145.834Y-29.464
X147.219Y-26.624
X148.604Y-29.464
X149.989Y-26.624
X151.374Y-29.464
X152.759Y-26.624
X154.144Y-29.464
T5
X73.025Y-24.955
X73.025Y-30.035
T6
X113.974Y-28.044
X161.074Y-28.044
T0
M30
