G04 #@! TF.GenerationSoftware,KiCad,Pcbnew,(5.1.0)-1*
G04 #@! TF.CreationDate,2019-05-30T15:11:01+01:00*
G04 #@! TF.ProjectId,Eco-PCB-Final,45636f2d-5043-4422-9d46-696e616c2e6b,rev?*
G04 #@! TF.SameCoordinates,Original*
G04 #@! TF.FileFunction,Legend,Top*
G04 #@! TF.FilePolarity,Positive*
%FSLAX46Y46*%
G04 Gerber Fmt 4.6, Leading zero omitted, Abs format (unit mm)*
G04 Created by KiCad (PCBNEW (5.1.0)-1) date 2019-05-30 15:11:01*
%MOMM*%
%LPD*%
G04 APERTURE LIST*
%ADD10C,0.300000*%
%ADD11C,0.120000*%
%ADD12C,0.010000*%
%ADD13C,0.150000*%
G04 APERTURE END LIST*
D10*
X81289000Y-22165571D02*
X82146142Y-22165571D01*
X81717571Y-23665571D02*
X81717571Y-22165571D01*
X83217571Y-23594142D02*
X83074714Y-23665571D01*
X82789000Y-23665571D01*
X82646142Y-23594142D01*
X82574714Y-23451285D01*
X82574714Y-22879857D01*
X82646142Y-22737000D01*
X82789000Y-22665571D01*
X83074714Y-22665571D01*
X83217571Y-22737000D01*
X83289000Y-22879857D01*
X83289000Y-23022714D01*
X82574714Y-23165571D01*
X83860428Y-23594142D02*
X84003285Y-23665571D01*
X84289000Y-23665571D01*
X84431857Y-23594142D01*
X84503285Y-23451285D01*
X84503285Y-23379857D01*
X84431857Y-23237000D01*
X84289000Y-23165571D01*
X84074714Y-23165571D01*
X83931857Y-23094142D01*
X83860428Y-22951285D01*
X83860428Y-22879857D01*
X83931857Y-22737000D01*
X84074714Y-22665571D01*
X84289000Y-22665571D01*
X84431857Y-22737000D01*
X84931857Y-22665571D02*
X85503285Y-22665571D01*
X85146142Y-22165571D02*
X85146142Y-23451285D01*
X85217571Y-23594142D01*
X85360428Y-23665571D01*
X85503285Y-23665571D01*
X87146142Y-23665571D02*
X87146142Y-22165571D01*
X87717571Y-22165571D01*
X87860428Y-22237000D01*
X87931857Y-22308428D01*
X88003285Y-22451285D01*
X88003285Y-22665571D01*
X87931857Y-22808428D01*
X87860428Y-22879857D01*
X87717571Y-22951285D01*
X87146142Y-22951285D01*
X89503285Y-23522714D02*
X89431857Y-23594142D01*
X89217571Y-23665571D01*
X89074714Y-23665571D01*
X88860428Y-23594142D01*
X88717571Y-23451285D01*
X88646142Y-23308428D01*
X88574714Y-23022714D01*
X88574714Y-22808428D01*
X88646142Y-22522714D01*
X88717571Y-22379857D01*
X88860428Y-22237000D01*
X89074714Y-22165571D01*
X89217571Y-22165571D01*
X89431857Y-22237000D01*
X89503285Y-22308428D01*
X90646142Y-22879857D02*
X90860428Y-22951285D01*
X90931857Y-23022714D01*
X91003285Y-23165571D01*
X91003285Y-23379857D01*
X90931857Y-23522714D01*
X90860428Y-23594142D01*
X90717571Y-23665571D01*
X90146142Y-23665571D01*
X90146142Y-22165571D01*
X90646142Y-22165571D01*
X90789000Y-22237000D01*
X90860428Y-22308428D01*
X90931857Y-22451285D01*
X90931857Y-22594142D01*
X90860428Y-22737000D01*
X90789000Y-22808428D01*
X90646142Y-22879857D01*
X90146142Y-22879857D01*
X92574714Y-22165571D02*
X93074714Y-23665571D01*
X93574714Y-22165571D01*
X94860428Y-23665571D02*
X94003285Y-23665571D01*
X94431857Y-23665571D02*
X94431857Y-22165571D01*
X94288999Y-22379857D01*
X94146142Y-22522714D01*
X94003285Y-22594142D01*
X95503285Y-23522714D02*
X95574714Y-23594142D01*
X95503285Y-23665571D01*
X95431857Y-23594142D01*
X95503285Y-23522714D01*
X95503285Y-23665571D01*
X96503285Y-22165571D02*
X96646142Y-22165571D01*
X96789000Y-22237000D01*
X96860428Y-22308428D01*
X96931857Y-22451285D01*
X97003285Y-22737000D01*
X97003285Y-23094142D01*
X96931857Y-23379857D01*
X96860428Y-23522714D01*
X96789000Y-23594142D01*
X96646142Y-23665571D01*
X96503285Y-23665571D01*
X96360428Y-23594142D01*
X96289000Y-23522714D01*
X96217571Y-23379857D01*
X96146142Y-23094142D01*
X96146142Y-22737000D01*
X96217571Y-22451285D01*
X96289000Y-22308428D01*
X96360428Y-22237000D01*
X96503285Y-22165571D01*
D11*
X130382000Y-72628000D02*
G75*
G03X130382000Y-72628000I-2620000J0D01*
G01*
X122515500Y-66929000D02*
X123285500Y-66929000D01*
X130595500Y-66929000D02*
X129825500Y-66929000D01*
X123285500Y-68299000D02*
X129825500Y-68299000D01*
X123285500Y-65559000D02*
X123285500Y-68299000D01*
X129825500Y-65559000D02*
X123285500Y-65559000D01*
X129825500Y-68299000D02*
X129825500Y-65559000D01*
X124915000Y-63530500D02*
X165915000Y-63530500D01*
X124915000Y-39720500D02*
X165915000Y-39720500D01*
X124915000Y-63530500D02*
X124915000Y-39720500D01*
X165915000Y-63575500D02*
X165915000Y-39675500D01*
X138436500Y-65950000D02*
X138436500Y-78830000D01*
X166236500Y-65950000D02*
X166236500Y-78830000D01*
X138436500Y-65950000D02*
X166236500Y-65950000D01*
X138436500Y-78830000D02*
X166236500Y-78830000D01*
X121634500Y-110771000D02*
X121634500Y-113511000D01*
X121634500Y-113511000D02*
X128174500Y-113511000D01*
X128174500Y-113511000D02*
X128174500Y-110771000D01*
X128174500Y-110771000D02*
X121634500Y-110771000D01*
X120864500Y-112141000D02*
X121634500Y-112141000D01*
X128944500Y-112141000D02*
X128174500Y-112141000D01*
X121634500Y-115089000D02*
X121634500Y-117829000D01*
X121634500Y-117829000D02*
X128174500Y-117829000D01*
X128174500Y-117829000D02*
X128174500Y-115089000D01*
X128174500Y-115089000D02*
X121634500Y-115089000D01*
X120864500Y-116459000D02*
X121634500Y-116459000D01*
X128944500Y-116459000D02*
X128174500Y-116459000D01*
X99447000Y-121389000D02*
X99447000Y-134389000D01*
X68447000Y-121389000D02*
X68447000Y-134389000D01*
X99447000Y-134389000D02*
X68447000Y-134389000D01*
X99447000Y-121389000D02*
X68447000Y-121389000D01*
X163074000Y-34354000D02*
G75*
G03X164134000Y-33294000I0J1060000D01*
G01*
X110914000Y-33294000D02*
G75*
G03X111974000Y-34354000I1060000J0D01*
G01*
X163074000Y-21734000D02*
G75*
G02X164134000Y-22794000I0J-1060000D01*
G01*
X111974000Y-21734000D02*
G75*
G03X110914000Y-22794000I0J-1060000D01*
G01*
X156390470Y-30105744D02*
G75*
G02X154755689Y-32054000I-1634781J-288256D01*
G01*
X118657530Y-30105744D02*
G75*
G03X120292311Y-32054000I1634781J-288256D01*
G01*
X155561733Y-25405744D02*
G75*
G03X153926952Y-24034000I-1634781J-288256D01*
G01*
X119486267Y-25405744D02*
G75*
G02X121121048Y-24034000I1634781J-288256D01*
G01*
X163074000Y-34354000D02*
X111974000Y-34354000D01*
X110914000Y-33294000D02*
X110914000Y-22794000D01*
X111974000Y-21734000D02*
X163074000Y-21734000D01*
X164134000Y-22794000D02*
X164134000Y-33294000D01*
X121154000Y-35248338D02*
X120654000Y-35248338D01*
X120654000Y-35248338D02*
X120904000Y-34815325D01*
X120904000Y-34815325D02*
X121154000Y-35248338D01*
X154755689Y-32054000D02*
X120292311Y-32054000D01*
X153926952Y-24034000D02*
X121121048Y-24034000D01*
X118657530Y-30105744D02*
X119486267Y-25405744D01*
X156390470Y-30105744D02*
X155561733Y-25405744D01*
X109156500Y-62357000D02*
X111696500Y-62357000D01*
X111696500Y-62357000D02*
X111696500Y-59687000D01*
X109156500Y-59687000D02*
X70926500Y-59687000D01*
X114366500Y-59687000D02*
X111696500Y-59687000D01*
X111696500Y-75057000D02*
X111696500Y-77727000D01*
X111696500Y-75057000D02*
X73596500Y-75057000D01*
X73596500Y-75057000D02*
X73596500Y-77727000D01*
X109156500Y-62357000D02*
X109156500Y-59687000D01*
X109156500Y-62357000D02*
X73596500Y-62357000D01*
X73596500Y-62357000D02*
X73596500Y-59687000D01*
X70926500Y-59687000D02*
X70926500Y-77727000D01*
X70926500Y-77727000D02*
X114366500Y-77727000D01*
X114366500Y-77727000D02*
X114366500Y-59687000D01*
D12*
X93472000Y-100076000D02*
X68478400Y-100076000D01*
X93472000Y-120396000D02*
X68478400Y-120396000D01*
X93472000Y-120396000D02*
X93472000Y-100076000D01*
X68478400Y-120396000D02*
X68478400Y-100076000D01*
D11*
X108966000Y-82931000D02*
X111506000Y-82931000D01*
X111506000Y-82931000D02*
X111506000Y-80261000D01*
X108966000Y-80261000D02*
X70736000Y-80261000D01*
X114176000Y-80261000D02*
X111506000Y-80261000D01*
X111506000Y-95631000D02*
X111506000Y-98301000D01*
X111506000Y-95631000D02*
X73406000Y-95631000D01*
X73406000Y-95631000D02*
X73406000Y-98301000D01*
X108966000Y-82931000D02*
X108966000Y-80261000D01*
X108966000Y-82931000D02*
X73406000Y-82931000D01*
X73406000Y-82931000D02*
X73406000Y-80261000D01*
X70736000Y-80261000D02*
X70736000Y-98301000D01*
X70736000Y-98301000D02*
X114176000Y-98301000D01*
X114176000Y-98301000D02*
X114176000Y-80261000D01*
X134209500Y-80879500D02*
X134209500Y-106699500D01*
X170209500Y-80879500D02*
X170209500Y-106699500D01*
X170209500Y-80879500D02*
X134209500Y-80879500D01*
X134209500Y-106699500D02*
X170209500Y-106699500D01*
X134136000Y-128019000D02*
X149836000Y-128019000D01*
X134136000Y-107439000D02*
X149836000Y-107439000D01*
X149836000Y-107439000D02*
X149836000Y-128019000D01*
X134136000Y-107439000D02*
X134136000Y-128019000D01*
X114176000Y-57534000D02*
X114176000Y-39494000D01*
X70736000Y-57534000D02*
X114176000Y-57534000D01*
X70736000Y-39494000D02*
X70736000Y-57534000D01*
X73406000Y-42164000D02*
X73406000Y-39494000D01*
X108966000Y-42164000D02*
X73406000Y-42164000D01*
X108966000Y-42164000D02*
X108966000Y-39494000D01*
X73406000Y-54864000D02*
X73406000Y-57534000D01*
X111506000Y-54864000D02*
X73406000Y-54864000D01*
X111506000Y-54864000D02*
X111506000Y-57534000D01*
X114176000Y-39494000D02*
X111506000Y-39494000D01*
X108966000Y-39494000D02*
X70736000Y-39494000D01*
X111506000Y-42164000D02*
X111506000Y-39494000D01*
X108966000Y-42164000D02*
X111506000Y-42164000D01*
X75565000Y-22415500D02*
X75565000Y-32575500D01*
X76835000Y-22415500D02*
X69215000Y-22415500D01*
X69215000Y-22415500D02*
X69215000Y-32575500D01*
X69215000Y-32575500D02*
X76835000Y-32575500D01*
X76835000Y-32575500D02*
X76835000Y-22415500D01*
D13*
X131964380Y-73961333D02*
X131488190Y-74294666D01*
X131964380Y-74532761D02*
X130964380Y-74532761D01*
X130964380Y-74151809D01*
X131012000Y-74056571D01*
X131059619Y-74008952D01*
X131154857Y-73961333D01*
X131297714Y-73961333D01*
X131392952Y-74008952D01*
X131440571Y-74056571D01*
X131488190Y-74151809D01*
X131488190Y-74532761D01*
X131440571Y-73532761D02*
X131440571Y-73199428D01*
X131964380Y-73056571D02*
X131964380Y-73532761D01*
X130964380Y-73532761D01*
X130964380Y-73056571D01*
X131440571Y-72294666D02*
X131440571Y-72628000D01*
X131964380Y-72628000D02*
X130964380Y-72628000D01*
X130964380Y-72151809D01*
X130964380Y-71628000D02*
X131202476Y-71628000D01*
X131107238Y-71866095D02*
X131202476Y-71628000D01*
X131107238Y-71389904D01*
X131392952Y-71770857D02*
X131202476Y-71628000D01*
X131392952Y-71485142D01*
X130964380Y-70866095D02*
X131202476Y-70866095D01*
X131107238Y-71104190D02*
X131202476Y-70866095D01*
X131107238Y-70628000D01*
X131392952Y-71008952D02*
X131202476Y-70866095D01*
X131392952Y-70723238D01*
X126388833Y-69751380D02*
X126055500Y-69275190D01*
X125817404Y-69751380D02*
X125817404Y-68751380D01*
X126198357Y-68751380D01*
X126293595Y-68799000D01*
X126341214Y-68846619D01*
X126388833Y-68941857D01*
X126388833Y-69084714D01*
X126341214Y-69179952D01*
X126293595Y-69227571D01*
X126198357Y-69275190D01*
X125817404Y-69275190D01*
X126722166Y-68751380D02*
X127341214Y-68751380D01*
X127007880Y-69132333D01*
X127150738Y-69132333D01*
X127245976Y-69179952D01*
X127293595Y-69227571D01*
X127341214Y-69322809D01*
X127341214Y-69560904D01*
X127293595Y-69656142D01*
X127245976Y-69703761D01*
X127150738Y-69751380D01*
X126865023Y-69751380D01*
X126769785Y-69703761D01*
X126722166Y-69656142D01*
X164917380Y-52689023D02*
X163917380Y-52689023D01*
X164631666Y-52355690D01*
X163917380Y-52022357D01*
X164917380Y-52022357D01*
X164917380Y-51022357D02*
X164917380Y-51593785D01*
X164917380Y-51308071D02*
X163917380Y-51308071D01*
X164060238Y-51403309D01*
X164155476Y-51498547D01*
X164203095Y-51593785D01*
X162583761Y-54506452D02*
X162631380Y-54363595D01*
X162631380Y-54125500D01*
X162583761Y-54030261D01*
X162536142Y-53982642D01*
X162440904Y-53935023D01*
X162345666Y-53935023D01*
X162250428Y-53982642D01*
X162202809Y-54030261D01*
X162155190Y-54125500D01*
X162107571Y-54315976D01*
X162059952Y-54411214D01*
X162012333Y-54458833D01*
X161917095Y-54506452D01*
X161821857Y-54506452D01*
X161726619Y-54458833D01*
X161679000Y-54411214D01*
X161631380Y-54315976D01*
X161631380Y-54077880D01*
X161679000Y-53935023D01*
X162631380Y-53506452D02*
X161631380Y-53506452D01*
X161631380Y-53268357D01*
X161679000Y-53125500D01*
X161774238Y-53030261D01*
X161869476Y-52982642D01*
X162059952Y-52935023D01*
X162202809Y-52935023D01*
X162393285Y-52982642D01*
X162488523Y-53030261D01*
X162583761Y-53125500D01*
X162631380Y-53268357D01*
X162631380Y-53506452D01*
X162536142Y-51173119D02*
X162583761Y-51220738D01*
X162631380Y-51363595D01*
X162631380Y-51458833D01*
X162583761Y-51601690D01*
X162488523Y-51696928D01*
X162393285Y-51744547D01*
X162202809Y-51792166D01*
X162059952Y-51792166D01*
X161869476Y-51744547D01*
X161774238Y-51696928D01*
X161679000Y-51601690D01*
X161631380Y-51458833D01*
X161631380Y-51363595D01*
X161679000Y-51220738D01*
X161726619Y-51173119D01*
X162631380Y-50315976D02*
X162107571Y-50315976D01*
X162012333Y-50363595D01*
X161964714Y-50458833D01*
X161964714Y-50649309D01*
X162012333Y-50744547D01*
X162583761Y-50315976D02*
X162631380Y-50411214D01*
X162631380Y-50649309D01*
X162583761Y-50744547D01*
X162488523Y-50792166D01*
X162393285Y-50792166D01*
X162298047Y-50744547D01*
X162250428Y-50649309D01*
X162250428Y-50411214D01*
X162202809Y-50315976D01*
X162631380Y-49839785D02*
X161964714Y-49839785D01*
X162155190Y-49839785D02*
X162059952Y-49792166D01*
X162012333Y-49744547D01*
X161964714Y-49649309D01*
X161964714Y-49554071D01*
X162631380Y-48792166D02*
X161631380Y-48792166D01*
X162583761Y-48792166D02*
X162631380Y-48887404D01*
X162631380Y-49077880D01*
X162583761Y-49173119D01*
X162536142Y-49220738D01*
X162440904Y-49268357D01*
X162155190Y-49268357D01*
X162059952Y-49220738D01*
X162012333Y-49173119D01*
X161964714Y-49077880D01*
X161964714Y-48887404D01*
X162012333Y-48792166D01*
X129667095Y-44775500D02*
X129571857Y-44727880D01*
X129429000Y-44727880D01*
X129286142Y-44775500D01*
X129190904Y-44870738D01*
X129143285Y-44965976D01*
X129095666Y-45156452D01*
X129095666Y-45299309D01*
X129143285Y-45489785D01*
X129190904Y-45585023D01*
X129286142Y-45680261D01*
X129429000Y-45727880D01*
X129524238Y-45727880D01*
X129667095Y-45680261D01*
X129714714Y-45632642D01*
X129714714Y-45299309D01*
X129524238Y-45299309D01*
X130143285Y-45727880D02*
X130143285Y-44727880D01*
X130714714Y-45727880D01*
X130714714Y-44727880D01*
X131190904Y-45727880D02*
X131190904Y-44727880D01*
X131429000Y-44727880D01*
X131571857Y-44775500D01*
X131667095Y-44870738D01*
X131714714Y-44965976D01*
X131762333Y-45156452D01*
X131762333Y-45299309D01*
X131714714Y-45489785D01*
X131667095Y-45585023D01*
X131571857Y-45680261D01*
X131429000Y-45727880D01*
X131190904Y-45727880D01*
X129095666Y-47267880D02*
X129429000Y-48267880D01*
X129762333Y-47267880D01*
X130667095Y-48172642D02*
X130619476Y-48220261D01*
X130476619Y-48267880D01*
X130381380Y-48267880D01*
X130238523Y-48220261D01*
X130143285Y-48125023D01*
X130095666Y-48029785D01*
X130048047Y-47839309D01*
X130048047Y-47696452D01*
X130095666Y-47505976D01*
X130143285Y-47410738D01*
X130238523Y-47315500D01*
X130381380Y-47267880D01*
X130476619Y-47267880D01*
X130619476Y-47315500D01*
X130667095Y-47363119D01*
X131667095Y-48172642D02*
X131619476Y-48220261D01*
X131476619Y-48267880D01*
X131381380Y-48267880D01*
X131238523Y-48220261D01*
X131143285Y-48125023D01*
X131095666Y-48029785D01*
X131048047Y-47839309D01*
X131048047Y-47696452D01*
X131095666Y-47505976D01*
X131143285Y-47410738D01*
X131238523Y-47315500D01*
X131381380Y-47267880D01*
X131476619Y-47267880D01*
X131619476Y-47315500D01*
X131667095Y-47363119D01*
X129111571Y-50807880D02*
X129111571Y-49807880D01*
X129444904Y-50522166D01*
X129778238Y-49807880D01*
X129778238Y-50807880D01*
X130254428Y-50807880D02*
X130254428Y-49807880D01*
X130683000Y-50760261D02*
X130825857Y-50807880D01*
X131063952Y-50807880D01*
X131159190Y-50760261D01*
X131206809Y-50712642D01*
X131254428Y-50617404D01*
X131254428Y-50522166D01*
X131206809Y-50426928D01*
X131159190Y-50379309D01*
X131063952Y-50331690D01*
X130873476Y-50284071D01*
X130778238Y-50236452D01*
X130730619Y-50188833D01*
X130683000Y-50093595D01*
X130683000Y-49998357D01*
X130730619Y-49903119D01*
X130778238Y-49855500D01*
X130873476Y-49807880D01*
X131111571Y-49807880D01*
X131254428Y-49855500D01*
X131873476Y-49807880D02*
X132063952Y-49807880D01*
X132159190Y-49855500D01*
X132254428Y-49950738D01*
X132302047Y-50141214D01*
X132302047Y-50474547D01*
X132254428Y-50665023D01*
X132159190Y-50760261D01*
X132063952Y-50807880D01*
X131873476Y-50807880D01*
X131778238Y-50760261D01*
X131683000Y-50665023D01*
X131635380Y-50474547D01*
X131635380Y-50141214D01*
X131683000Y-49950738D01*
X131778238Y-49855500D01*
X131873476Y-49807880D01*
X129111571Y-53347880D02*
X129111571Y-52347880D01*
X129444904Y-53062166D01*
X129778238Y-52347880D01*
X129778238Y-53347880D01*
X130444904Y-52347880D02*
X130635380Y-52347880D01*
X130730619Y-52395500D01*
X130825857Y-52490738D01*
X130873476Y-52681214D01*
X130873476Y-53014547D01*
X130825857Y-53205023D01*
X130730619Y-53300261D01*
X130635380Y-53347880D01*
X130444904Y-53347880D01*
X130349666Y-53300261D01*
X130254428Y-53205023D01*
X130206809Y-53014547D01*
X130206809Y-52681214D01*
X130254428Y-52490738D01*
X130349666Y-52395500D01*
X130444904Y-52347880D01*
X131254428Y-53300261D02*
X131397285Y-53347880D01*
X131635380Y-53347880D01*
X131730619Y-53300261D01*
X131778238Y-53252642D01*
X131825857Y-53157404D01*
X131825857Y-53062166D01*
X131778238Y-52966928D01*
X131730619Y-52919309D01*
X131635380Y-52871690D01*
X131444904Y-52824071D01*
X131349666Y-52776452D01*
X131302047Y-52728833D01*
X131254428Y-52633595D01*
X131254428Y-52538357D01*
X131302047Y-52443119D01*
X131349666Y-52395500D01*
X131444904Y-52347880D01*
X131683000Y-52347880D01*
X131825857Y-52395500D01*
X132254428Y-53347880D02*
X132254428Y-52347880D01*
X129143285Y-55840261D02*
X129286142Y-55887880D01*
X129524238Y-55887880D01*
X129619476Y-55840261D01*
X129667095Y-55792642D01*
X129714714Y-55697404D01*
X129714714Y-55602166D01*
X129667095Y-55506928D01*
X129619476Y-55459309D01*
X129524238Y-55411690D01*
X129333761Y-55364071D01*
X129238523Y-55316452D01*
X129190904Y-55268833D01*
X129143285Y-55173595D01*
X129143285Y-55078357D01*
X129190904Y-54983119D01*
X129238523Y-54935500D01*
X129333761Y-54887880D01*
X129571857Y-54887880D01*
X129714714Y-54935500D01*
X130714714Y-55792642D02*
X130667095Y-55840261D01*
X130524238Y-55887880D01*
X130429000Y-55887880D01*
X130286142Y-55840261D01*
X130190904Y-55745023D01*
X130143285Y-55649785D01*
X130095666Y-55459309D01*
X130095666Y-55316452D01*
X130143285Y-55125976D01*
X130190904Y-55030738D01*
X130286142Y-54935500D01*
X130429000Y-54887880D01*
X130524238Y-54887880D01*
X130667095Y-54935500D01*
X130714714Y-54983119D01*
X131143285Y-55887880D02*
X131143285Y-54887880D01*
X131714714Y-55887880D02*
X131286142Y-55316452D01*
X131714714Y-54887880D02*
X131143285Y-55459309D01*
X130262333Y-58332642D02*
X130214714Y-58380261D01*
X130071857Y-58427880D01*
X129976619Y-58427880D01*
X129833761Y-58380261D01*
X129738523Y-58285023D01*
X129690904Y-58189785D01*
X129643285Y-57999309D01*
X129643285Y-57856452D01*
X129690904Y-57665976D01*
X129738523Y-57570738D01*
X129833761Y-57475500D01*
X129976619Y-57427880D01*
X130071857Y-57427880D01*
X130214714Y-57475500D01*
X130262333Y-57523119D01*
X130643285Y-58380261D02*
X130786142Y-58427880D01*
X131024238Y-58427880D01*
X131119476Y-58380261D01*
X131167095Y-58332642D01*
X131214714Y-58237404D01*
X131214714Y-58142166D01*
X131167095Y-58046928D01*
X131119476Y-57999309D01*
X131024238Y-57951690D01*
X130833761Y-57904071D01*
X130738523Y-57856452D01*
X130690904Y-57808833D01*
X130643285Y-57713595D01*
X130643285Y-57618357D01*
X130690904Y-57523119D01*
X130738523Y-57475500D01*
X130833761Y-57427880D01*
X131071857Y-57427880D01*
X131214714Y-57475500D01*
X123928166Y-134349928D02*
X123928166Y-133873738D01*
X124213880Y-134445166D02*
X123213880Y-134111833D01*
X124213880Y-133778500D01*
X123309119Y-133492785D02*
X123261500Y-133445166D01*
X123213880Y-133349928D01*
X123213880Y-133111833D01*
X123261500Y-133016595D01*
X123309119Y-132968976D01*
X123404357Y-132921357D01*
X123499595Y-132921357D01*
X123642452Y-132968976D01*
X124213880Y-133540404D01*
X124213880Y-132921357D01*
X124309119Y-132730880D02*
X124309119Y-131968976D01*
X123213880Y-131826119D02*
X123213880Y-131207071D01*
X123594833Y-131540404D01*
X123594833Y-131397547D01*
X123642452Y-131302309D01*
X123690071Y-131254690D01*
X123785309Y-131207071D01*
X124023404Y-131207071D01*
X124118642Y-131254690D01*
X124166261Y-131302309D01*
X124213880Y-131397547D01*
X124213880Y-131683261D01*
X124166261Y-131778500D01*
X124118642Y-131826119D01*
X127150833Y-129166880D02*
X126817500Y-128690690D01*
X126579404Y-129166880D02*
X126579404Y-128166880D01*
X126960357Y-128166880D01*
X127055595Y-128214500D01*
X127103214Y-128262119D01*
X127150833Y-128357357D01*
X127150833Y-128500214D01*
X127103214Y-128595452D01*
X127055595Y-128643071D01*
X126960357Y-128690690D01*
X126579404Y-128690690D01*
X127484166Y-128166880D02*
X128150833Y-129166880D01*
X128150833Y-128166880D02*
X127484166Y-129166880D01*
X126555595Y-130706880D02*
X127127023Y-130706880D01*
X126841309Y-131706880D02*
X126841309Y-130706880D01*
X127365119Y-130706880D02*
X128031785Y-131706880D01*
X128031785Y-130706880D02*
X127365119Y-131706880D01*
X126047595Y-133294500D02*
X125952357Y-133246880D01*
X125809500Y-133246880D01*
X125666642Y-133294500D01*
X125571404Y-133389738D01*
X125523785Y-133484976D01*
X125476166Y-133675452D01*
X125476166Y-133818309D01*
X125523785Y-134008785D01*
X125571404Y-134104023D01*
X125666642Y-134199261D01*
X125809500Y-134246880D01*
X125904738Y-134246880D01*
X126047595Y-134199261D01*
X126095214Y-134151642D01*
X126095214Y-133818309D01*
X125904738Y-133818309D01*
X126523785Y-134246880D02*
X126523785Y-133246880D01*
X127095214Y-134246880D01*
X127095214Y-133246880D01*
X127571404Y-134246880D02*
X127571404Y-133246880D01*
X127809500Y-133246880D01*
X127952357Y-133294500D01*
X128047595Y-133389738D01*
X128095214Y-133484976D01*
X128142833Y-133675452D01*
X128142833Y-133818309D01*
X128095214Y-134008785D01*
X128047595Y-134104023D01*
X127952357Y-134199261D01*
X127809500Y-134246880D01*
X127571404Y-134246880D01*
X125476166Y-135786880D02*
X125809500Y-136786880D01*
X126142833Y-135786880D01*
X127047595Y-136691642D02*
X126999976Y-136739261D01*
X126857119Y-136786880D01*
X126761880Y-136786880D01*
X126619023Y-136739261D01*
X126523785Y-136644023D01*
X126476166Y-136548785D01*
X126428547Y-136358309D01*
X126428547Y-136215452D01*
X126476166Y-136024976D01*
X126523785Y-135929738D01*
X126619023Y-135834500D01*
X126761880Y-135786880D01*
X126857119Y-135786880D01*
X126999976Y-135834500D01*
X127047595Y-135882119D01*
X128047595Y-136691642D02*
X127999976Y-136739261D01*
X127857119Y-136786880D01*
X127761880Y-136786880D01*
X127619023Y-136739261D01*
X127523785Y-136644023D01*
X127476166Y-136548785D01*
X127428547Y-136358309D01*
X127428547Y-136215452D01*
X127476166Y-136024976D01*
X127523785Y-135929738D01*
X127619023Y-135834500D01*
X127761880Y-135786880D01*
X127857119Y-135786880D01*
X127999976Y-135834500D01*
X128047595Y-135882119D01*
X165488880Y-74056666D02*
X164488880Y-74056666D01*
X165203166Y-73723333D01*
X164488880Y-73390000D01*
X165488880Y-73390000D01*
X165488880Y-72390000D02*
X165488880Y-72961428D01*
X165488880Y-72675714D02*
X164488880Y-72675714D01*
X164631738Y-72770952D01*
X164726976Y-72866190D01*
X164774595Y-72961428D01*
X165584119Y-72199523D02*
X165584119Y-71437619D01*
X165488880Y-70675714D02*
X165488880Y-71247142D01*
X165488880Y-70961428D02*
X164488880Y-70961428D01*
X164631738Y-71056666D01*
X164726976Y-71151904D01*
X164774595Y-71247142D01*
X140589166Y-66762380D02*
X140922500Y-67762380D01*
X141255833Y-66762380D01*
X142160595Y-67667142D02*
X142112976Y-67714761D01*
X141970119Y-67762380D01*
X141874880Y-67762380D01*
X141732023Y-67714761D01*
X141636785Y-67619523D01*
X141589166Y-67524285D01*
X141541547Y-67333809D01*
X141541547Y-67190952D01*
X141589166Y-67000476D01*
X141636785Y-66905238D01*
X141732023Y-66810000D01*
X141874880Y-66762380D01*
X141970119Y-66762380D01*
X142112976Y-66810000D01*
X142160595Y-66857619D01*
X143160595Y-67667142D02*
X143112976Y-67714761D01*
X142970119Y-67762380D01*
X142874880Y-67762380D01*
X142732023Y-67714761D01*
X142636785Y-67619523D01*
X142589166Y-67524285D01*
X142541547Y-67333809D01*
X142541547Y-67190952D01*
X142589166Y-67000476D01*
X142636785Y-66905238D01*
X142732023Y-66810000D01*
X142874880Y-66762380D01*
X142970119Y-66762380D01*
X143112976Y-66810000D01*
X143160595Y-66857619D01*
X141160595Y-69350000D02*
X141065357Y-69302380D01*
X140922500Y-69302380D01*
X140779642Y-69350000D01*
X140684404Y-69445238D01*
X140636785Y-69540476D01*
X140589166Y-69730952D01*
X140589166Y-69873809D01*
X140636785Y-70064285D01*
X140684404Y-70159523D01*
X140779642Y-70254761D01*
X140922500Y-70302380D01*
X141017738Y-70302380D01*
X141160595Y-70254761D01*
X141208214Y-70207142D01*
X141208214Y-69873809D01*
X141017738Y-69873809D01*
X141636785Y-70302380D02*
X141636785Y-69302380D01*
X142208214Y-70302380D01*
X142208214Y-69302380D01*
X142684404Y-70302380D02*
X142684404Y-69302380D01*
X142922500Y-69302380D01*
X143065357Y-69350000D01*
X143160595Y-69445238D01*
X143208214Y-69540476D01*
X143255833Y-69730952D01*
X143255833Y-69873809D01*
X143208214Y-70064285D01*
X143160595Y-70159523D01*
X143065357Y-70254761D01*
X142922500Y-70302380D01*
X142684404Y-70302380D01*
X141247833Y-72842380D02*
X140914500Y-72366190D01*
X140676404Y-72842380D02*
X140676404Y-71842380D01*
X141057357Y-71842380D01*
X141152595Y-71890000D01*
X141200214Y-71937619D01*
X141247833Y-72032857D01*
X141247833Y-72175714D01*
X141200214Y-72270952D01*
X141152595Y-72318571D01*
X141057357Y-72366190D01*
X140676404Y-72366190D01*
X141581166Y-71842380D02*
X142247833Y-72842380D01*
X142247833Y-71842380D02*
X141581166Y-72842380D01*
X140398595Y-74382380D02*
X140970023Y-74382380D01*
X140684309Y-75382380D02*
X140684309Y-74382380D01*
X141208119Y-74382380D02*
X141874785Y-75382380D01*
X141874785Y-74382380D02*
X141208119Y-75382380D01*
X140549452Y-77874761D02*
X140692309Y-77922380D01*
X140930404Y-77922380D01*
X141025642Y-77874761D01*
X141073261Y-77827142D01*
X141120880Y-77731904D01*
X141120880Y-77636666D01*
X141073261Y-77541428D01*
X141025642Y-77493809D01*
X140930404Y-77446190D01*
X140739928Y-77398571D01*
X140644690Y-77350952D01*
X140597071Y-77303333D01*
X140549452Y-77208095D01*
X140549452Y-77112857D01*
X140597071Y-77017619D01*
X140644690Y-76970000D01*
X140739928Y-76922380D01*
X140978023Y-76922380D01*
X141120880Y-76970000D01*
X141549452Y-77398571D02*
X141882785Y-77398571D01*
X142025642Y-77922380D02*
X141549452Y-77922380D01*
X141549452Y-76922380D01*
X142025642Y-76922380D01*
X142311357Y-76922380D02*
X142882785Y-76922380D01*
X142597071Y-77922380D02*
X142597071Y-76922380D01*
X124737833Y-110223380D02*
X124404500Y-109747190D01*
X124166404Y-110223380D02*
X124166404Y-109223380D01*
X124547357Y-109223380D01*
X124642595Y-109271000D01*
X124690214Y-109318619D01*
X124737833Y-109413857D01*
X124737833Y-109556714D01*
X124690214Y-109651952D01*
X124642595Y-109699571D01*
X124547357Y-109747190D01*
X124166404Y-109747190D01*
X125690214Y-110223380D02*
X125118785Y-110223380D01*
X125404500Y-110223380D02*
X125404500Y-109223380D01*
X125309261Y-109366238D01*
X125214023Y-109461476D01*
X125118785Y-109509095D01*
X124610833Y-119260880D02*
X124277500Y-118784690D01*
X124039404Y-119260880D02*
X124039404Y-118260880D01*
X124420357Y-118260880D01*
X124515595Y-118308500D01*
X124563214Y-118356119D01*
X124610833Y-118451357D01*
X124610833Y-118594214D01*
X124563214Y-118689452D01*
X124515595Y-118737071D01*
X124420357Y-118784690D01*
X124039404Y-118784690D01*
X124991785Y-118356119D02*
X125039404Y-118308500D01*
X125134642Y-118260880D01*
X125372738Y-118260880D01*
X125467976Y-118308500D01*
X125515595Y-118356119D01*
X125563214Y-118451357D01*
X125563214Y-118546595D01*
X125515595Y-118689452D01*
X124944166Y-119260880D01*
X125563214Y-119260880D01*
X76493666Y-129460428D02*
X76493666Y-128984238D01*
X76779380Y-129555666D02*
X75779380Y-129222333D01*
X76779380Y-128889000D01*
X75874619Y-128603285D02*
X75827000Y-128555666D01*
X75779380Y-128460428D01*
X75779380Y-128222333D01*
X75827000Y-128127095D01*
X75874619Y-128079476D01*
X75969857Y-128031857D01*
X76065095Y-128031857D01*
X76207952Y-128079476D01*
X76779380Y-128650904D01*
X76779380Y-128031857D01*
X76874619Y-127841380D02*
X76874619Y-127079476D01*
X75874619Y-126889000D02*
X75827000Y-126841380D01*
X75779380Y-126746142D01*
X75779380Y-126508047D01*
X75827000Y-126412809D01*
X75874619Y-126365190D01*
X75969857Y-126317571D01*
X76065095Y-126317571D01*
X76207952Y-126365190D01*
X76779380Y-126936619D01*
X76779380Y-126317571D01*
X93535666Y-129881380D02*
X93869000Y-130881380D01*
X94202333Y-129881380D01*
X95107095Y-130786142D02*
X95059476Y-130833761D01*
X94916619Y-130881380D01*
X94821380Y-130881380D01*
X94678523Y-130833761D01*
X94583285Y-130738523D01*
X94535666Y-130643285D01*
X94488047Y-130452809D01*
X94488047Y-130309952D01*
X94535666Y-130119476D01*
X94583285Y-130024238D01*
X94678523Y-129929000D01*
X94821380Y-129881380D01*
X94916619Y-129881380D01*
X95059476Y-129929000D01*
X95107095Y-129976619D01*
X96107095Y-130786142D02*
X96059476Y-130833761D01*
X95916619Y-130881380D01*
X95821380Y-130881380D01*
X95678523Y-130833761D01*
X95583285Y-130738523D01*
X95535666Y-130643285D01*
X95488047Y-130452809D01*
X95488047Y-130309952D01*
X95535666Y-130119476D01*
X95583285Y-130024238D01*
X95678523Y-129929000D01*
X95821380Y-129881380D01*
X95916619Y-129881380D01*
X96059476Y-129929000D01*
X96107095Y-129976619D01*
X93869000Y-127341380D02*
X94059476Y-127341380D01*
X94154714Y-127389000D01*
X94249952Y-127484238D01*
X94297571Y-127674714D01*
X94297571Y-128008047D01*
X94249952Y-128198523D01*
X94154714Y-128293761D01*
X94059476Y-128341380D01*
X93869000Y-128341380D01*
X93773761Y-128293761D01*
X93678523Y-128198523D01*
X93630904Y-128008047D01*
X93630904Y-127674714D01*
X93678523Y-127484238D01*
X93773761Y-127389000D01*
X93869000Y-127341380D01*
X94726142Y-127341380D02*
X94726142Y-128150904D01*
X94773761Y-128246142D01*
X94821380Y-128293761D01*
X94916619Y-128341380D01*
X95107095Y-128341380D01*
X95202333Y-128293761D01*
X95249952Y-128246142D01*
X95297571Y-128150904D01*
X95297571Y-127341380D01*
X95630904Y-127341380D02*
X96202333Y-127341380D01*
X95916619Y-128341380D02*
X95916619Y-127341380D01*
X94107095Y-124849000D02*
X94011857Y-124801380D01*
X93869000Y-124801380D01*
X93726142Y-124849000D01*
X93630904Y-124944238D01*
X93583285Y-125039476D01*
X93535666Y-125229952D01*
X93535666Y-125372809D01*
X93583285Y-125563285D01*
X93630904Y-125658523D01*
X93726142Y-125753761D01*
X93869000Y-125801380D01*
X93964238Y-125801380D01*
X94107095Y-125753761D01*
X94154714Y-125706142D01*
X94154714Y-125372809D01*
X93964238Y-125372809D01*
X94583285Y-125801380D02*
X94583285Y-124801380D01*
X95154714Y-125801380D01*
X95154714Y-124801380D01*
X95630904Y-125801380D02*
X95630904Y-124801380D01*
X95869000Y-124801380D01*
X96011857Y-124849000D01*
X96107095Y-124944238D01*
X96154714Y-125039476D01*
X96202333Y-125229952D01*
X96202333Y-125372809D01*
X96154714Y-125563285D01*
X96107095Y-125658523D01*
X96011857Y-125753761D01*
X95869000Y-125801380D01*
X95630904Y-125801380D01*
X137190666Y-34806380D02*
X137190666Y-35520666D01*
X137143047Y-35663523D01*
X137047809Y-35758761D01*
X136904952Y-35806380D01*
X136809714Y-35806380D01*
X138190666Y-35806380D02*
X137619238Y-35806380D01*
X137904952Y-35806380D02*
X137904952Y-34806380D01*
X137809714Y-34949238D01*
X137714476Y-35044476D01*
X137619238Y-35092095D01*
X115673166Y-71778428D02*
X115673166Y-71302238D01*
X115958880Y-71873666D02*
X114958880Y-71540333D01*
X115958880Y-71207000D01*
X115958880Y-70873666D02*
X115292214Y-70873666D01*
X115482690Y-70873666D02*
X115387452Y-70826047D01*
X115339833Y-70778428D01*
X115292214Y-70683190D01*
X115292214Y-70587952D01*
X115958880Y-69826047D02*
X114958880Y-69826047D01*
X115911261Y-69826047D02*
X115958880Y-69921285D01*
X115958880Y-70111761D01*
X115911261Y-70207000D01*
X115863642Y-70254619D01*
X115768404Y-70302238D01*
X115482690Y-70302238D01*
X115387452Y-70254619D01*
X115339833Y-70207000D01*
X115292214Y-70111761D01*
X115292214Y-69921285D01*
X115339833Y-69826047D01*
X115292214Y-68921285D02*
X115958880Y-68921285D01*
X115292214Y-69349857D02*
X115816023Y-69349857D01*
X115911261Y-69302238D01*
X115958880Y-69207000D01*
X115958880Y-69064142D01*
X115911261Y-68968904D01*
X115863642Y-68921285D01*
X115958880Y-68445095D02*
X115292214Y-68445095D01*
X114958880Y-68445095D02*
X115006500Y-68492714D01*
X115054119Y-68445095D01*
X115006500Y-68397476D01*
X114958880Y-68445095D01*
X115054119Y-68445095D01*
X115292214Y-67968904D02*
X115958880Y-67968904D01*
X115387452Y-67968904D02*
X115339833Y-67921285D01*
X115292214Y-67826047D01*
X115292214Y-67683190D01*
X115339833Y-67587952D01*
X115435071Y-67540333D01*
X115958880Y-67540333D01*
X115958880Y-66921285D02*
X115911261Y-67016523D01*
X115863642Y-67064142D01*
X115768404Y-67111761D01*
X115482690Y-67111761D01*
X115387452Y-67064142D01*
X115339833Y-67016523D01*
X115292214Y-66921285D01*
X115292214Y-66778428D01*
X115339833Y-66683190D01*
X115387452Y-66635571D01*
X115482690Y-66587952D01*
X115768404Y-66587952D01*
X115863642Y-66635571D01*
X115911261Y-66683190D01*
X115958880Y-66778428D01*
X115958880Y-66921285D01*
X114958880Y-66254619D02*
X114958880Y-65635571D01*
X115339833Y-65968904D01*
X115339833Y-65826047D01*
X115387452Y-65730809D01*
X115435071Y-65683190D01*
X115530309Y-65635571D01*
X115768404Y-65635571D01*
X115863642Y-65683190D01*
X115911261Y-65730809D01*
X115958880Y-65826047D01*
X115958880Y-66111761D01*
X115911261Y-66207000D01*
X115863642Y-66254619D01*
X70270666Y-114093428D02*
X70270666Y-113617238D01*
X70556380Y-114188666D02*
X69556380Y-113855333D01*
X70556380Y-113522000D01*
X69651619Y-113236285D02*
X69604000Y-113188666D01*
X69556380Y-113093428D01*
X69556380Y-112855333D01*
X69604000Y-112760095D01*
X69651619Y-112712476D01*
X69746857Y-112664857D01*
X69842095Y-112664857D01*
X69984952Y-112712476D01*
X70556380Y-113283904D01*
X70556380Y-112664857D01*
X70651619Y-112474380D02*
X70651619Y-111712476D01*
X70556380Y-110950571D02*
X70556380Y-111522000D01*
X70556380Y-111236285D02*
X69556380Y-111236285D01*
X69699238Y-111331523D01*
X69794476Y-111426761D01*
X69842095Y-111522000D01*
X71334380Y-115124857D02*
X71334380Y-114553428D01*
X72334380Y-114839142D02*
X71334380Y-114839142D01*
X72334380Y-114220095D02*
X71334380Y-114220095D01*
X72334380Y-113791523D02*
X71810571Y-113791523D01*
X71715333Y-113839142D01*
X71667714Y-113934380D01*
X71667714Y-114077238D01*
X71715333Y-114172476D01*
X71762952Y-114220095D01*
X72286761Y-112934380D02*
X72334380Y-113029619D01*
X72334380Y-113220095D01*
X72286761Y-113315333D01*
X72191523Y-113362952D01*
X71810571Y-113362952D01*
X71715333Y-113315333D01*
X71667714Y-113220095D01*
X71667714Y-113029619D01*
X71715333Y-112934380D01*
X71810571Y-112886761D01*
X71905809Y-112886761D01*
X72001047Y-113362952D01*
X72334380Y-112458190D02*
X71667714Y-112458190D01*
X71858190Y-112458190D02*
X71762952Y-112410571D01*
X71715333Y-112362952D01*
X71667714Y-112267714D01*
X71667714Y-112172476D01*
X72334380Y-111839142D02*
X71667714Y-111839142D01*
X71762952Y-111839142D02*
X71715333Y-111791523D01*
X71667714Y-111696285D01*
X71667714Y-111553428D01*
X71715333Y-111458190D01*
X71810571Y-111410571D01*
X72334380Y-111410571D01*
X71810571Y-111410571D02*
X71715333Y-111362952D01*
X71667714Y-111267714D01*
X71667714Y-111124857D01*
X71715333Y-111029619D01*
X71810571Y-110982000D01*
X72334380Y-110982000D01*
X72334380Y-110362952D02*
X72286761Y-110458190D01*
X72239142Y-110505809D01*
X72143904Y-110553428D01*
X71858190Y-110553428D01*
X71762952Y-110505809D01*
X71715333Y-110458190D01*
X71667714Y-110362952D01*
X71667714Y-110220095D01*
X71715333Y-110124857D01*
X71762952Y-110077238D01*
X71858190Y-110029619D01*
X72143904Y-110029619D01*
X72239142Y-110077238D01*
X72286761Y-110124857D01*
X72334380Y-110220095D01*
X72334380Y-110362952D01*
X72239142Y-109029619D02*
X72286761Y-109077238D01*
X72334380Y-109220095D01*
X72334380Y-109315333D01*
X72286761Y-109458190D01*
X72191523Y-109553428D01*
X72096285Y-109601047D01*
X71905809Y-109648666D01*
X71762952Y-109648666D01*
X71572476Y-109601047D01*
X71477238Y-109553428D01*
X71382000Y-109458190D01*
X71334380Y-109315333D01*
X71334380Y-109220095D01*
X71382000Y-109077238D01*
X71429619Y-109029619D01*
X72334380Y-108458190D02*
X72286761Y-108553428D01*
X72239142Y-108601047D01*
X72143904Y-108648666D01*
X71858190Y-108648666D01*
X71762952Y-108601047D01*
X71715333Y-108553428D01*
X71667714Y-108458190D01*
X71667714Y-108315333D01*
X71715333Y-108220095D01*
X71762952Y-108172476D01*
X71858190Y-108124857D01*
X72143904Y-108124857D01*
X72239142Y-108172476D01*
X72286761Y-108220095D01*
X72334380Y-108315333D01*
X72334380Y-108458190D01*
X71667714Y-107267714D02*
X72334380Y-107267714D01*
X71667714Y-107696285D02*
X72191523Y-107696285D01*
X72286761Y-107648666D01*
X72334380Y-107553428D01*
X72334380Y-107410571D01*
X72286761Y-107315333D01*
X72239142Y-107267714D01*
X71667714Y-106791523D02*
X72667714Y-106791523D01*
X71715333Y-106791523D02*
X71667714Y-106696285D01*
X71667714Y-106505809D01*
X71715333Y-106410571D01*
X71762952Y-106362952D01*
X71858190Y-106315333D01*
X72143904Y-106315333D01*
X72239142Y-106362952D01*
X72286761Y-106410571D01*
X72334380Y-106505809D01*
X72334380Y-106696285D01*
X72286761Y-106791523D01*
X72334380Y-105743904D02*
X72286761Y-105839142D01*
X72191523Y-105886761D01*
X71334380Y-105886761D01*
X72286761Y-104982000D02*
X72334380Y-105077238D01*
X72334380Y-105267714D01*
X72286761Y-105362952D01*
X72191523Y-105410571D01*
X71810571Y-105410571D01*
X71715333Y-105362952D01*
X71667714Y-105267714D01*
X71667714Y-105077238D01*
X71715333Y-104982000D01*
X71810571Y-104934380D01*
X71905809Y-104934380D01*
X72001047Y-105410571D01*
X87058666Y-116038380D02*
X87392000Y-117038380D01*
X87725333Y-116038380D01*
X88630095Y-116943142D02*
X88582476Y-116990761D01*
X88439619Y-117038380D01*
X88344380Y-117038380D01*
X88201523Y-116990761D01*
X88106285Y-116895523D01*
X88058666Y-116800285D01*
X88011047Y-116609809D01*
X88011047Y-116466952D01*
X88058666Y-116276476D01*
X88106285Y-116181238D01*
X88201523Y-116086000D01*
X88344380Y-116038380D01*
X88439619Y-116038380D01*
X88582476Y-116086000D01*
X88630095Y-116133619D01*
X89630095Y-116943142D02*
X89582476Y-116990761D01*
X89439619Y-117038380D01*
X89344380Y-117038380D01*
X89201523Y-116990761D01*
X89106285Y-116895523D01*
X89058666Y-116800285D01*
X89011047Y-116609809D01*
X89011047Y-116466952D01*
X89058666Y-116276476D01*
X89106285Y-116181238D01*
X89201523Y-116086000D01*
X89344380Y-116038380D01*
X89439619Y-116038380D01*
X89582476Y-116086000D01*
X89630095Y-116133619D01*
X87376095Y-113546000D02*
X87280857Y-113498380D01*
X87138000Y-113498380D01*
X86995142Y-113546000D01*
X86899904Y-113641238D01*
X86852285Y-113736476D01*
X86804666Y-113926952D01*
X86804666Y-114069809D01*
X86852285Y-114260285D01*
X86899904Y-114355523D01*
X86995142Y-114450761D01*
X87138000Y-114498380D01*
X87233238Y-114498380D01*
X87376095Y-114450761D01*
X87423714Y-114403142D01*
X87423714Y-114069809D01*
X87233238Y-114069809D01*
X87852285Y-114498380D02*
X87852285Y-113498380D01*
X88423714Y-114498380D01*
X88423714Y-113498380D01*
X88899904Y-114498380D02*
X88899904Y-113498380D01*
X89138000Y-113498380D01*
X89280857Y-113546000D01*
X89376095Y-113641238D01*
X89423714Y-113736476D01*
X89471333Y-113926952D01*
X89471333Y-114069809D01*
X89423714Y-114260285D01*
X89376095Y-114355523D01*
X89280857Y-114450761D01*
X89138000Y-114498380D01*
X88899904Y-114498380D01*
X86447523Y-112164761D02*
X86590380Y-112212380D01*
X86828476Y-112212380D01*
X86923714Y-112164761D01*
X86971333Y-112117142D01*
X87018952Y-112021904D01*
X87018952Y-111926666D01*
X86971333Y-111831428D01*
X86923714Y-111783809D01*
X86828476Y-111736190D01*
X86638000Y-111688571D01*
X86542761Y-111640952D01*
X86495142Y-111593333D01*
X86447523Y-111498095D01*
X86447523Y-111402857D01*
X86495142Y-111307619D01*
X86542761Y-111260000D01*
X86638000Y-111212380D01*
X86876095Y-111212380D01*
X87018952Y-111260000D01*
X88018952Y-112117142D02*
X87971333Y-112164761D01*
X87828476Y-112212380D01*
X87733238Y-112212380D01*
X87590380Y-112164761D01*
X87495142Y-112069523D01*
X87447523Y-111974285D01*
X87399904Y-111783809D01*
X87399904Y-111640952D01*
X87447523Y-111450476D01*
X87495142Y-111355238D01*
X87590380Y-111260000D01*
X87733238Y-111212380D01*
X87828476Y-111212380D01*
X87971333Y-111260000D01*
X88018952Y-111307619D01*
X88923714Y-112212380D02*
X88447523Y-112212380D01*
X88447523Y-111212380D01*
X89257047Y-112212380D02*
X89257047Y-111212380D01*
X89828476Y-112212380D02*
X89399904Y-111640952D01*
X89828476Y-111212380D02*
X89257047Y-111783809D01*
X86312571Y-109672380D02*
X86312571Y-108672380D01*
X86645904Y-109386666D01*
X86979238Y-108672380D01*
X86979238Y-109672380D01*
X87455428Y-109672380D02*
X87455428Y-108672380D01*
X87884000Y-109624761D02*
X88026857Y-109672380D01*
X88264952Y-109672380D01*
X88360190Y-109624761D01*
X88407809Y-109577142D01*
X88455428Y-109481904D01*
X88455428Y-109386666D01*
X88407809Y-109291428D01*
X88360190Y-109243809D01*
X88264952Y-109196190D01*
X88074476Y-109148571D01*
X87979238Y-109100952D01*
X87931619Y-109053333D01*
X87884000Y-108958095D01*
X87884000Y-108862857D01*
X87931619Y-108767619D01*
X87979238Y-108720000D01*
X88074476Y-108672380D01*
X88312571Y-108672380D01*
X88455428Y-108720000D01*
X89074476Y-108672380D02*
X89264952Y-108672380D01*
X89360190Y-108720000D01*
X89455428Y-108815238D01*
X89503047Y-109005714D01*
X89503047Y-109339047D01*
X89455428Y-109529523D01*
X89360190Y-109624761D01*
X89264952Y-109672380D01*
X89074476Y-109672380D01*
X88979238Y-109624761D01*
X88884000Y-109529523D01*
X88836380Y-109339047D01*
X88836380Y-109005714D01*
X88884000Y-108815238D01*
X88979238Y-108720000D01*
X89074476Y-108672380D01*
X88225333Y-104243142D02*
X88177714Y-104290761D01*
X88034857Y-104338380D01*
X87939619Y-104338380D01*
X87796761Y-104290761D01*
X87701523Y-104195523D01*
X87653904Y-104100285D01*
X87606285Y-103909809D01*
X87606285Y-103766952D01*
X87653904Y-103576476D01*
X87701523Y-103481238D01*
X87796761Y-103386000D01*
X87939619Y-103338380D01*
X88034857Y-103338380D01*
X88177714Y-103386000D01*
X88225333Y-103433619D01*
X88606285Y-104290761D02*
X88749142Y-104338380D01*
X88987238Y-104338380D01*
X89082476Y-104290761D01*
X89130095Y-104243142D01*
X89177714Y-104147904D01*
X89177714Y-104052666D01*
X89130095Y-103957428D01*
X89082476Y-103909809D01*
X88987238Y-103862190D01*
X88796761Y-103814571D01*
X88701523Y-103766952D01*
X88653904Y-103719333D01*
X88606285Y-103624095D01*
X88606285Y-103528857D01*
X88653904Y-103433619D01*
X88701523Y-103386000D01*
X88796761Y-103338380D01*
X89034857Y-103338380D01*
X89177714Y-103386000D01*
X115482666Y-92352428D02*
X115482666Y-91876238D01*
X115768380Y-92447666D02*
X114768380Y-92114333D01*
X115768380Y-91781000D01*
X115768380Y-91447666D02*
X115101714Y-91447666D01*
X115292190Y-91447666D02*
X115196952Y-91400047D01*
X115149333Y-91352428D01*
X115101714Y-91257190D01*
X115101714Y-91161952D01*
X115768380Y-90400047D02*
X114768380Y-90400047D01*
X115720761Y-90400047D02*
X115768380Y-90495285D01*
X115768380Y-90685761D01*
X115720761Y-90781000D01*
X115673142Y-90828619D01*
X115577904Y-90876238D01*
X115292190Y-90876238D01*
X115196952Y-90828619D01*
X115149333Y-90781000D01*
X115101714Y-90685761D01*
X115101714Y-90495285D01*
X115149333Y-90400047D01*
X115101714Y-89495285D02*
X115768380Y-89495285D01*
X115101714Y-89923857D02*
X115625523Y-89923857D01*
X115720761Y-89876238D01*
X115768380Y-89781000D01*
X115768380Y-89638142D01*
X115720761Y-89542904D01*
X115673142Y-89495285D01*
X115768380Y-89019095D02*
X115101714Y-89019095D01*
X114768380Y-89019095D02*
X114816000Y-89066714D01*
X114863619Y-89019095D01*
X114816000Y-88971476D01*
X114768380Y-89019095D01*
X114863619Y-89019095D01*
X115101714Y-88542904D02*
X115768380Y-88542904D01*
X115196952Y-88542904D02*
X115149333Y-88495285D01*
X115101714Y-88400047D01*
X115101714Y-88257190D01*
X115149333Y-88161952D01*
X115244571Y-88114333D01*
X115768380Y-88114333D01*
X115768380Y-87495285D02*
X115720761Y-87590523D01*
X115673142Y-87638142D01*
X115577904Y-87685761D01*
X115292190Y-87685761D01*
X115196952Y-87638142D01*
X115149333Y-87590523D01*
X115101714Y-87495285D01*
X115101714Y-87352428D01*
X115149333Y-87257190D01*
X115196952Y-87209571D01*
X115292190Y-87161952D01*
X115577904Y-87161952D01*
X115673142Y-87209571D01*
X115720761Y-87257190D01*
X115768380Y-87352428D01*
X115768380Y-87495285D01*
X114863619Y-86781000D02*
X114816000Y-86733380D01*
X114768380Y-86638142D01*
X114768380Y-86400047D01*
X114816000Y-86304809D01*
X114863619Y-86257190D01*
X114958857Y-86209571D01*
X115054095Y-86209571D01*
X115196952Y-86257190D01*
X115768380Y-86828619D01*
X115768380Y-86209571D01*
X165330166Y-95360928D02*
X165330166Y-94884738D01*
X165615880Y-95456166D02*
X164615880Y-95122833D01*
X165615880Y-94789500D01*
X164615880Y-94551404D02*
X164615880Y-93932357D01*
X164996833Y-94265690D01*
X164996833Y-94122833D01*
X165044452Y-94027595D01*
X165092071Y-93979976D01*
X165187309Y-93932357D01*
X165425404Y-93932357D01*
X165520642Y-93979976D01*
X165568261Y-94027595D01*
X165615880Y-94122833D01*
X165615880Y-94408547D01*
X165568261Y-94503785D01*
X165520642Y-94551404D01*
X165711119Y-93741880D02*
X165711119Y-92979976D01*
X165615880Y-92218071D02*
X165615880Y-92789500D01*
X165615880Y-92503785D02*
X164615880Y-92503785D01*
X164758738Y-92599023D01*
X164853976Y-92694261D01*
X164901595Y-92789500D01*
X162377500Y-94503785D02*
X162329880Y-94599023D01*
X162329880Y-94741880D01*
X162377500Y-94884738D01*
X162472738Y-94979976D01*
X162567976Y-95027595D01*
X162758452Y-95075214D01*
X162901309Y-95075214D01*
X163091785Y-95027595D01*
X163187023Y-94979976D01*
X163282261Y-94884738D01*
X163329880Y-94741880D01*
X163329880Y-94646642D01*
X163282261Y-94503785D01*
X163234642Y-94456166D01*
X162901309Y-94456166D01*
X162901309Y-94646642D01*
X163329880Y-94027595D02*
X162329880Y-94027595D01*
X162329880Y-93646642D01*
X162377500Y-93551404D01*
X162425119Y-93503785D01*
X162520357Y-93456166D01*
X162663214Y-93456166D01*
X162758452Y-93503785D01*
X162806071Y-93551404D01*
X162853690Y-93646642D01*
X162853690Y-94027595D01*
X163282261Y-93075214D02*
X163329880Y-92932357D01*
X163329880Y-92694261D01*
X163282261Y-92599023D01*
X163234642Y-92551404D01*
X163139404Y-92503785D01*
X163044166Y-92503785D01*
X162948928Y-92551404D01*
X162901309Y-92599023D01*
X162853690Y-92694261D01*
X162806071Y-92884738D01*
X162758452Y-92979976D01*
X162710833Y-93027595D01*
X162615595Y-93075214D01*
X162520357Y-93075214D01*
X162425119Y-93027595D01*
X162377500Y-92979976D01*
X162329880Y-92884738D01*
X162329880Y-92646642D01*
X162377500Y-92503785D01*
X137668166Y-97051880D02*
X138001500Y-98051880D01*
X138334833Y-97051880D01*
X139239595Y-97956642D02*
X139191976Y-98004261D01*
X139049119Y-98051880D01*
X138953880Y-98051880D01*
X138811023Y-98004261D01*
X138715785Y-97909023D01*
X138668166Y-97813785D01*
X138620547Y-97623309D01*
X138620547Y-97480452D01*
X138668166Y-97289976D01*
X138715785Y-97194738D01*
X138811023Y-97099500D01*
X138953880Y-97051880D01*
X139049119Y-97051880D01*
X139191976Y-97099500D01*
X139239595Y-97147119D01*
X140239595Y-97956642D02*
X140191976Y-98004261D01*
X140049119Y-98051880D01*
X139953880Y-98051880D01*
X139811023Y-98004261D01*
X139715785Y-97909023D01*
X139668166Y-97813785D01*
X139620547Y-97623309D01*
X139620547Y-97480452D01*
X139668166Y-97289976D01*
X139715785Y-97194738D01*
X139811023Y-97099500D01*
X139953880Y-97051880D01*
X140049119Y-97051880D01*
X140191976Y-97099500D01*
X140239595Y-97147119D01*
X138326833Y-95511880D02*
X137993500Y-95035690D01*
X137755404Y-95511880D02*
X137755404Y-94511880D01*
X138136357Y-94511880D01*
X138231595Y-94559500D01*
X138279214Y-94607119D01*
X138326833Y-94702357D01*
X138326833Y-94845214D01*
X138279214Y-94940452D01*
X138231595Y-94988071D01*
X138136357Y-95035690D01*
X137755404Y-95035690D01*
X138660166Y-94511880D02*
X139326833Y-95511880D01*
X139326833Y-94511880D02*
X138660166Y-95511880D01*
X137477595Y-91971880D02*
X138049023Y-91971880D01*
X137763309Y-92971880D02*
X137763309Y-91971880D01*
X138287119Y-91971880D02*
X138953785Y-92971880D01*
X138953785Y-91971880D02*
X138287119Y-92971880D01*
X137985595Y-89479500D02*
X137890357Y-89431880D01*
X137747500Y-89431880D01*
X137604642Y-89479500D01*
X137509404Y-89574738D01*
X137461785Y-89669976D01*
X137414166Y-89860452D01*
X137414166Y-90003309D01*
X137461785Y-90193785D01*
X137509404Y-90289023D01*
X137604642Y-90384261D01*
X137747500Y-90431880D01*
X137842738Y-90431880D01*
X137985595Y-90384261D01*
X138033214Y-90336642D01*
X138033214Y-90003309D01*
X137842738Y-90003309D01*
X138461785Y-90431880D02*
X138461785Y-89431880D01*
X139033214Y-90431880D01*
X139033214Y-89431880D01*
X139509404Y-90431880D02*
X139509404Y-89431880D01*
X139747500Y-89431880D01*
X139890357Y-89479500D01*
X139985595Y-89574738D01*
X140033214Y-89669976D01*
X140080833Y-89860452D01*
X140080833Y-90003309D01*
X140033214Y-90193785D01*
X139985595Y-90289023D01*
X139890357Y-90384261D01*
X139747500Y-90431880D01*
X139509404Y-90431880D01*
X148756666Y-119300428D02*
X148756666Y-118824238D01*
X149042380Y-119395666D02*
X148042380Y-119062333D01*
X149042380Y-118729000D01*
X148042380Y-118490904D02*
X148042380Y-117871857D01*
X148423333Y-118205190D01*
X148423333Y-118062333D01*
X148470952Y-117967095D01*
X148518571Y-117919476D01*
X148613809Y-117871857D01*
X148851904Y-117871857D01*
X148947142Y-117919476D01*
X148994761Y-117967095D01*
X149042380Y-118062333D01*
X149042380Y-118348047D01*
X148994761Y-118443285D01*
X148947142Y-118490904D01*
X149137619Y-117681380D02*
X149137619Y-116919476D01*
X148137619Y-116729000D02*
X148090000Y-116681380D01*
X148042380Y-116586142D01*
X148042380Y-116348047D01*
X148090000Y-116252809D01*
X148137619Y-116205190D01*
X148232857Y-116157571D01*
X148328095Y-116157571D01*
X148470952Y-116205190D01*
X149042380Y-116776619D01*
X149042380Y-116157571D01*
X145804000Y-118665476D02*
X145756380Y-118760714D01*
X145756380Y-118903571D01*
X145804000Y-119046428D01*
X145899238Y-119141666D01*
X145994476Y-119189285D01*
X146184952Y-119236904D01*
X146327809Y-119236904D01*
X146518285Y-119189285D01*
X146613523Y-119141666D01*
X146708761Y-119046428D01*
X146756380Y-118903571D01*
X146756380Y-118808333D01*
X146708761Y-118665476D01*
X146661142Y-118617857D01*
X146327809Y-118617857D01*
X146327809Y-118808333D01*
X146280190Y-117998809D02*
X146756380Y-117998809D01*
X145756380Y-118332142D02*
X146280190Y-117998809D01*
X145756380Y-117665476D01*
X146756380Y-116760714D02*
X146280190Y-117094047D01*
X146756380Y-117332142D02*
X145756380Y-117332142D01*
X145756380Y-116951190D01*
X145804000Y-116855952D01*
X145851619Y-116808333D01*
X145946857Y-116760714D01*
X146089714Y-116760714D01*
X146184952Y-116808333D01*
X146232571Y-116855952D01*
X146280190Y-116951190D01*
X146280190Y-117332142D01*
X145756380Y-116141666D02*
X145756380Y-115951190D01*
X145804000Y-115855952D01*
X145899238Y-115760714D01*
X146089714Y-115713095D01*
X146423047Y-115713095D01*
X146613523Y-115760714D01*
X146708761Y-115855952D01*
X146756380Y-115951190D01*
X146756380Y-116141666D01*
X146708761Y-116236904D01*
X146613523Y-116332142D01*
X146423047Y-116379761D01*
X146089714Y-116379761D01*
X145899238Y-116332142D01*
X145804000Y-116236904D01*
X145756380Y-116141666D01*
X136763238Y-127071380D02*
X136763238Y-126071380D01*
X137239428Y-127071380D02*
X137239428Y-126071380D01*
X137810857Y-127071380D01*
X137810857Y-126071380D01*
X138144190Y-126071380D02*
X138715619Y-126071380D01*
X138429904Y-127071380D02*
X138429904Y-126071380D01*
X136453714Y-124245666D02*
X136929904Y-124245666D01*
X136358476Y-124531380D02*
X136691809Y-123531380D01*
X137025142Y-124531380D01*
X137358476Y-124531380D02*
X137358476Y-123531380D01*
X137596571Y-123531380D01*
X137739428Y-123579000D01*
X137834666Y-123674238D01*
X137882285Y-123769476D01*
X137929904Y-123959952D01*
X137929904Y-124102809D01*
X137882285Y-124293285D01*
X137834666Y-124388523D01*
X137739428Y-124483761D01*
X137596571Y-124531380D01*
X137358476Y-124531380D01*
X138548952Y-123531380D02*
X138644190Y-123531380D01*
X138739428Y-123579000D01*
X138787047Y-123626619D01*
X138834666Y-123721857D01*
X138882285Y-123912333D01*
X138882285Y-124150428D01*
X138834666Y-124340904D01*
X138787047Y-124436142D01*
X138739428Y-124483761D01*
X138644190Y-124531380D01*
X138548952Y-124531380D01*
X138453714Y-124483761D01*
X138406095Y-124436142D01*
X138358476Y-124340904D01*
X138310857Y-124150428D01*
X138310857Y-123912333D01*
X138358476Y-123721857D01*
X138406095Y-123626619D01*
X138453714Y-123579000D01*
X138548952Y-123531380D01*
X136429904Y-120991380D02*
X137096571Y-121991380D01*
X137096571Y-120991380D02*
X136429904Y-121991380D01*
X138048952Y-121896142D02*
X138001333Y-121943761D01*
X137858476Y-121991380D01*
X137763238Y-121991380D01*
X137620380Y-121943761D01*
X137525142Y-121848523D01*
X137477523Y-121753285D01*
X137429904Y-121562809D01*
X137429904Y-121419952D01*
X137477523Y-121229476D01*
X137525142Y-121134238D01*
X137620380Y-121039000D01*
X137763238Y-120991380D01*
X137858476Y-120991380D01*
X138001333Y-121039000D01*
X138048952Y-121086619D01*
X138953714Y-121991380D02*
X138477523Y-121991380D01*
X138477523Y-120991380D01*
X136406095Y-118451380D02*
X137072761Y-119451380D01*
X137072761Y-118451380D02*
X136406095Y-119451380D01*
X137453714Y-119451380D02*
X137453714Y-118451380D01*
X137691809Y-118451380D01*
X137834666Y-118499000D01*
X137929904Y-118594238D01*
X137977523Y-118689476D01*
X138025142Y-118879952D01*
X138025142Y-119022809D01*
X137977523Y-119213285D01*
X137929904Y-119308523D01*
X137834666Y-119403761D01*
X137691809Y-119451380D01*
X137453714Y-119451380D01*
X138406095Y-119165666D02*
X138882285Y-119165666D01*
X138310857Y-119451380D02*
X138644190Y-118451380D01*
X138977523Y-119451380D01*
X136453714Y-116863761D02*
X136596571Y-116911380D01*
X136834666Y-116911380D01*
X136929904Y-116863761D01*
X136977523Y-116816142D01*
X137025142Y-116720904D01*
X137025142Y-116625666D01*
X136977523Y-116530428D01*
X136929904Y-116482809D01*
X136834666Y-116435190D01*
X136644190Y-116387571D01*
X136548952Y-116339952D01*
X136501333Y-116292333D01*
X136453714Y-116197095D01*
X136453714Y-116101857D01*
X136501333Y-116006619D01*
X136548952Y-115959000D01*
X136644190Y-115911380D01*
X136882285Y-115911380D01*
X137025142Y-115959000D01*
X137453714Y-116911380D02*
X137453714Y-115911380D01*
X137691809Y-115911380D01*
X137834666Y-115959000D01*
X137929904Y-116054238D01*
X137977523Y-116149476D01*
X138025142Y-116339952D01*
X138025142Y-116482809D01*
X137977523Y-116673285D01*
X137929904Y-116768523D01*
X137834666Y-116863761D01*
X137691809Y-116911380D01*
X137453714Y-116911380D01*
X138406095Y-116625666D02*
X138882285Y-116625666D01*
X138310857Y-116911380D02*
X138644190Y-115911380D01*
X138977523Y-116911380D01*
X136477523Y-114323761D02*
X136620380Y-114371380D01*
X136858476Y-114371380D01*
X136953714Y-114323761D01*
X137001333Y-114276142D01*
X137048952Y-114180904D01*
X137048952Y-114085666D01*
X137001333Y-113990428D01*
X136953714Y-113942809D01*
X136858476Y-113895190D01*
X136668000Y-113847571D01*
X136572761Y-113799952D01*
X136525142Y-113752333D01*
X136477523Y-113657095D01*
X136477523Y-113561857D01*
X136525142Y-113466619D01*
X136572761Y-113419000D01*
X136668000Y-113371380D01*
X136906095Y-113371380D01*
X137048952Y-113419000D01*
X138048952Y-114276142D02*
X138001333Y-114323761D01*
X137858476Y-114371380D01*
X137763238Y-114371380D01*
X137620380Y-114323761D01*
X137525142Y-114228523D01*
X137477523Y-114133285D01*
X137429904Y-113942809D01*
X137429904Y-113799952D01*
X137477523Y-113609476D01*
X137525142Y-113514238D01*
X137620380Y-113419000D01*
X137763238Y-113371380D01*
X137858476Y-113371380D01*
X138001333Y-113419000D01*
X138048952Y-113466619D01*
X138953714Y-114371380D02*
X138477523Y-114371380D01*
X138477523Y-113371380D01*
X136906095Y-110879000D02*
X136810857Y-110831380D01*
X136668000Y-110831380D01*
X136525142Y-110879000D01*
X136429904Y-110974238D01*
X136382285Y-111069476D01*
X136334666Y-111259952D01*
X136334666Y-111402809D01*
X136382285Y-111593285D01*
X136429904Y-111688523D01*
X136525142Y-111783761D01*
X136668000Y-111831380D01*
X136763238Y-111831380D01*
X136906095Y-111783761D01*
X136953714Y-111736142D01*
X136953714Y-111402809D01*
X136763238Y-111402809D01*
X137382285Y-111831380D02*
X137382285Y-110831380D01*
X137953714Y-111831380D01*
X137953714Y-110831380D01*
X138429904Y-111831380D02*
X138429904Y-110831380D01*
X138668000Y-110831380D01*
X138810857Y-110879000D01*
X138906095Y-110974238D01*
X138953714Y-111069476D01*
X139001333Y-111259952D01*
X139001333Y-111402809D01*
X138953714Y-111593285D01*
X138906095Y-111688523D01*
X138810857Y-111783761D01*
X138668000Y-111831380D01*
X138429904Y-111831380D01*
X136334666Y-108291380D02*
X136668000Y-109291380D01*
X137001333Y-108291380D01*
X137906095Y-109196142D02*
X137858476Y-109243761D01*
X137715619Y-109291380D01*
X137620380Y-109291380D01*
X137477523Y-109243761D01*
X137382285Y-109148523D01*
X137334666Y-109053285D01*
X137287047Y-108862809D01*
X137287047Y-108719952D01*
X137334666Y-108529476D01*
X137382285Y-108434238D01*
X137477523Y-108339000D01*
X137620380Y-108291380D01*
X137715619Y-108291380D01*
X137858476Y-108339000D01*
X137906095Y-108386619D01*
X138906095Y-109196142D02*
X138858476Y-109243761D01*
X138715619Y-109291380D01*
X138620380Y-109291380D01*
X138477523Y-109243761D01*
X138382285Y-109148523D01*
X138334666Y-109053285D01*
X138287047Y-108862809D01*
X138287047Y-108719952D01*
X138334666Y-108529476D01*
X138382285Y-108434238D01*
X138477523Y-108339000D01*
X138620380Y-108291380D01*
X138715619Y-108291380D01*
X138858476Y-108339000D01*
X138906095Y-108386619D01*
X115768380Y-51204476D02*
X114768380Y-51204476D01*
X115482666Y-50871142D01*
X114768380Y-50537809D01*
X115768380Y-50537809D01*
X115768380Y-49633047D02*
X115244571Y-49633047D01*
X115149333Y-49680666D01*
X115101714Y-49775904D01*
X115101714Y-49966380D01*
X115149333Y-50061619D01*
X115720761Y-49633047D02*
X115768380Y-49728285D01*
X115768380Y-49966380D01*
X115720761Y-50061619D01*
X115625523Y-50109238D01*
X115530285Y-50109238D01*
X115435047Y-50061619D01*
X115387428Y-49966380D01*
X115387428Y-49728285D01*
X115339809Y-49633047D01*
X115720761Y-49204476D02*
X115768380Y-49109238D01*
X115768380Y-48918761D01*
X115720761Y-48823523D01*
X115625523Y-48775904D01*
X115577904Y-48775904D01*
X115482666Y-48823523D01*
X115435047Y-48918761D01*
X115435047Y-49061619D01*
X115387428Y-49156857D01*
X115292190Y-49204476D01*
X115244571Y-49204476D01*
X115149333Y-49156857D01*
X115101714Y-49061619D01*
X115101714Y-48918761D01*
X115149333Y-48823523D01*
X115101714Y-48490190D02*
X115101714Y-48109238D01*
X114768380Y-48347333D02*
X115625523Y-48347333D01*
X115720761Y-48299714D01*
X115768380Y-48204476D01*
X115768380Y-48109238D01*
X115720761Y-47394952D02*
X115768380Y-47490190D01*
X115768380Y-47680666D01*
X115720761Y-47775904D01*
X115625523Y-47823523D01*
X115244571Y-47823523D01*
X115149333Y-47775904D01*
X115101714Y-47680666D01*
X115101714Y-47490190D01*
X115149333Y-47394952D01*
X115244571Y-47347333D01*
X115339809Y-47347333D01*
X115435047Y-47823523D01*
X115768380Y-46918761D02*
X115101714Y-46918761D01*
X115292190Y-46918761D02*
X115196952Y-46871142D01*
X115149333Y-46823523D01*
X115101714Y-46728285D01*
X115101714Y-46633047D01*
X115768380Y-45775904D02*
X115768380Y-46347333D01*
X115768380Y-46061619D02*
X114768380Y-46061619D01*
X114911238Y-46156857D01*
X115006476Y-46252095D01*
X115054095Y-46347333D01*
X68397380Y-28233595D02*
X67397380Y-28233595D01*
X67397380Y-27852642D01*
X67445000Y-27757404D01*
X67492619Y-27709785D01*
X67587857Y-27662166D01*
X67730714Y-27662166D01*
X67825952Y-27709785D01*
X67873571Y-27757404D01*
X67921190Y-27852642D01*
X67921190Y-28233595D01*
X68397380Y-26709785D02*
X68397380Y-27281214D01*
X68397380Y-26995500D02*
X67397380Y-26995500D01*
X67540238Y-27090738D01*
X67635476Y-27185976D01*
X67683095Y-27281214D01*
M02*
