G04 #@! TF.GenerationSoftware,KiCad,Pcbnew,(5.1.0)-1*
G04 #@! TF.CreationDate,2019-05-30T15:11:01+01:00*
G04 #@! TF.ProjectId,Eco-PCB-Final,45636f2d-5043-4422-9d46-696e616c2e6b,rev?*
G04 #@! TF.SameCoordinates,Original*
G04 #@! TF.FileFunction,Soldermask,Top*
G04 #@! TF.FilePolarity,Negative*
%FSLAX46Y46*%
G04 Gerber Fmt 4.6, Leading zero omitted, Abs format (unit mm)*
G04 Created by KiCad (PCBNEW (5.1.0)-1) date 2019-05-30 15:11:01*
%MOMM*%
%LPD*%
G04 APERTURE LIST*
%ADD10C,0.100000*%
G04 APERTURE END LIST*
D10*
G36*
X129586642Y-135552742D02*
G01*
X129734601Y-135614029D01*
X129867755Y-135702999D01*
X129981001Y-135816245D01*
X130069971Y-135949399D01*
X130131258Y-136097358D01*
X130162500Y-136254425D01*
X130162500Y-136414575D01*
X130131258Y-136571642D01*
X130069971Y-136719601D01*
X129981001Y-136852755D01*
X129867755Y-136966001D01*
X129734601Y-137054971D01*
X129586642Y-137116258D01*
X129429575Y-137147500D01*
X129269425Y-137147500D01*
X129112358Y-137116258D01*
X128964399Y-137054971D01*
X128831245Y-136966001D01*
X128717999Y-136852755D01*
X128629029Y-136719601D01*
X128567742Y-136571642D01*
X128536500Y-136414575D01*
X128536500Y-136254425D01*
X128567742Y-136097358D01*
X128629029Y-135949399D01*
X128717999Y-135816245D01*
X128831245Y-135702999D01*
X128964399Y-135614029D01*
X129112358Y-135552742D01*
X129269425Y-135521500D01*
X129429575Y-135521500D01*
X129586642Y-135552742D01*
X129586642Y-135552742D01*
G37*
G36*
X129586642Y-132942742D02*
G01*
X129734601Y-133004029D01*
X129867755Y-133092999D01*
X129981001Y-133206245D01*
X130069971Y-133339399D01*
X130131258Y-133487358D01*
X130162500Y-133644425D01*
X130162500Y-133804575D01*
X130131258Y-133961642D01*
X130069971Y-134109601D01*
X129981001Y-134242755D01*
X129867755Y-134356001D01*
X129734601Y-134444971D01*
X129586642Y-134506258D01*
X129429575Y-134537500D01*
X129269425Y-134537500D01*
X129112358Y-134506258D01*
X128964399Y-134444971D01*
X128831245Y-134356001D01*
X128717999Y-134242755D01*
X128629029Y-134109601D01*
X128567742Y-133961642D01*
X128536500Y-133804575D01*
X128536500Y-133644425D01*
X128567742Y-133487358D01*
X128629029Y-133339399D01*
X128717999Y-133206245D01*
X128831245Y-133092999D01*
X128964399Y-133004029D01*
X129112358Y-132942742D01*
X129269425Y-132911500D01*
X129429575Y-132911500D01*
X129586642Y-132942742D01*
X129586642Y-132942742D01*
G37*
G36*
X129586642Y-130472742D02*
G01*
X129734601Y-130534029D01*
X129867755Y-130622999D01*
X129981001Y-130736245D01*
X130069971Y-130869399D01*
X130131258Y-131017358D01*
X130162500Y-131174425D01*
X130162500Y-131334575D01*
X130131258Y-131491642D01*
X130069971Y-131639601D01*
X129981001Y-131772755D01*
X129867755Y-131886001D01*
X129734601Y-131974971D01*
X129586642Y-132036258D01*
X129429575Y-132067500D01*
X129269425Y-132067500D01*
X129112358Y-132036258D01*
X128964399Y-131974971D01*
X128831245Y-131886001D01*
X128717999Y-131772755D01*
X128629029Y-131639601D01*
X128567742Y-131491642D01*
X128536500Y-131334575D01*
X128536500Y-131174425D01*
X128567742Y-131017358D01*
X128629029Y-130869399D01*
X128717999Y-130736245D01*
X128831245Y-130622999D01*
X128964399Y-130534029D01*
X129112358Y-130472742D01*
X129269425Y-130441500D01*
X129429575Y-130441500D01*
X129586642Y-130472742D01*
X129586642Y-130472742D01*
G37*
G36*
X97684142Y-129647242D02*
G01*
X97832101Y-129708529D01*
X97965255Y-129797499D01*
X98078501Y-129910745D01*
X98167471Y-130043899D01*
X98228758Y-130191858D01*
X98260000Y-130348925D01*
X98260000Y-130509075D01*
X98228758Y-130666142D01*
X98167471Y-130814101D01*
X98078501Y-130947255D01*
X97965255Y-131060501D01*
X97832101Y-131149471D01*
X97684142Y-131210758D01*
X97527075Y-131242000D01*
X97366925Y-131242000D01*
X97209858Y-131210758D01*
X97061899Y-131149471D01*
X96928745Y-131060501D01*
X96815499Y-130947255D01*
X96726529Y-130814101D01*
X96665242Y-130666142D01*
X96634000Y-130509075D01*
X96634000Y-130348925D01*
X96665242Y-130191858D01*
X96726529Y-130043899D01*
X96815499Y-129910745D01*
X96928745Y-129797499D01*
X97061899Y-129708529D01*
X97209858Y-129647242D01*
X97366925Y-129616000D01*
X97527075Y-129616000D01*
X97684142Y-129647242D01*
X97684142Y-129647242D01*
G37*
G36*
X129586642Y-127932742D02*
G01*
X129734601Y-127994029D01*
X129867755Y-128082999D01*
X129981001Y-128196245D01*
X130069971Y-128329399D01*
X130131258Y-128477358D01*
X130162500Y-128634425D01*
X130162500Y-128794575D01*
X130131258Y-128951642D01*
X130069971Y-129099601D01*
X129981001Y-129232755D01*
X129867755Y-129346001D01*
X129734601Y-129434971D01*
X129586642Y-129496258D01*
X129429575Y-129527500D01*
X129269425Y-129527500D01*
X129112358Y-129496258D01*
X128964399Y-129434971D01*
X128831245Y-129346001D01*
X128717999Y-129232755D01*
X128629029Y-129099601D01*
X128567742Y-128951642D01*
X128536500Y-128794575D01*
X128536500Y-128634425D01*
X128567742Y-128477358D01*
X128629029Y-128329399D01*
X128717999Y-128196245D01*
X128831245Y-128082999D01*
X128964399Y-127994029D01*
X129112358Y-127932742D01*
X129269425Y-127901500D01*
X129429575Y-127901500D01*
X129586642Y-127932742D01*
X129586642Y-127932742D01*
G37*
G36*
X97684142Y-127107242D02*
G01*
X97832101Y-127168529D01*
X97965255Y-127257499D01*
X98078501Y-127370745D01*
X98167471Y-127503899D01*
X98228758Y-127651858D01*
X98260000Y-127808925D01*
X98260000Y-127969075D01*
X98228758Y-128126142D01*
X98167471Y-128274101D01*
X98078501Y-128407255D01*
X97965255Y-128520501D01*
X97832101Y-128609471D01*
X97684142Y-128670758D01*
X97527075Y-128702000D01*
X97366925Y-128702000D01*
X97209858Y-128670758D01*
X97061899Y-128609471D01*
X96928745Y-128520501D01*
X96815499Y-128407255D01*
X96726529Y-128274101D01*
X96665242Y-128126142D01*
X96634000Y-127969075D01*
X96634000Y-127808925D01*
X96665242Y-127651858D01*
X96726529Y-127503899D01*
X96815499Y-127370745D01*
X96928745Y-127257499D01*
X97061899Y-127168529D01*
X97209858Y-127107242D01*
X97366925Y-127076000D01*
X97527075Y-127076000D01*
X97684142Y-127107242D01*
X97684142Y-127107242D01*
G37*
G36*
X135423142Y-125837242D02*
G01*
X135571101Y-125898529D01*
X135704255Y-125987499D01*
X135817501Y-126100745D01*
X135906471Y-126233899D01*
X135967758Y-126381858D01*
X135999000Y-126538925D01*
X135999000Y-126699075D01*
X135967758Y-126856142D01*
X135906471Y-127004101D01*
X135817501Y-127137255D01*
X135704255Y-127250501D01*
X135571101Y-127339471D01*
X135423142Y-127400758D01*
X135266075Y-127432000D01*
X135105925Y-127432000D01*
X134948858Y-127400758D01*
X134800899Y-127339471D01*
X134667745Y-127250501D01*
X134554499Y-127137255D01*
X134465529Y-127004101D01*
X134404242Y-126856142D01*
X134373000Y-126699075D01*
X134373000Y-126538925D01*
X134404242Y-126381858D01*
X134465529Y-126233899D01*
X134554499Y-126100745D01*
X134667745Y-125987499D01*
X134800899Y-125898529D01*
X134948858Y-125837242D01*
X135105925Y-125806000D01*
X135266075Y-125806000D01*
X135423142Y-125837242D01*
X135423142Y-125837242D01*
G37*
G36*
X97684142Y-124567242D02*
G01*
X97832101Y-124628529D01*
X97965255Y-124717499D01*
X98078501Y-124830745D01*
X98167471Y-124963899D01*
X98228758Y-125111858D01*
X98260000Y-125268925D01*
X98260000Y-125429075D01*
X98228758Y-125586142D01*
X98167471Y-125734101D01*
X98078501Y-125867255D01*
X97965255Y-125980501D01*
X97832101Y-126069471D01*
X97684142Y-126130758D01*
X97527075Y-126162000D01*
X97366925Y-126162000D01*
X97209858Y-126130758D01*
X97061899Y-126069471D01*
X96928745Y-125980501D01*
X96815499Y-125867255D01*
X96726529Y-125734101D01*
X96665242Y-125586142D01*
X96634000Y-125429075D01*
X96634000Y-125268925D01*
X96665242Y-125111858D01*
X96726529Y-124963899D01*
X96815499Y-124830745D01*
X96928745Y-124717499D01*
X97061899Y-124628529D01*
X97209858Y-124567242D01*
X97366925Y-124536000D01*
X97527075Y-124536000D01*
X97684142Y-124567242D01*
X97684142Y-124567242D01*
G37*
G36*
X135423142Y-123297242D02*
G01*
X135571101Y-123358529D01*
X135704255Y-123447499D01*
X135817501Y-123560745D01*
X135906471Y-123693899D01*
X135967758Y-123841858D01*
X135999000Y-123998925D01*
X135999000Y-124159075D01*
X135967758Y-124316142D01*
X135906471Y-124464101D01*
X135817501Y-124597255D01*
X135704255Y-124710501D01*
X135571101Y-124799471D01*
X135423142Y-124860758D01*
X135266075Y-124892000D01*
X135105925Y-124892000D01*
X134948858Y-124860758D01*
X134800899Y-124799471D01*
X134667745Y-124710501D01*
X134554499Y-124597255D01*
X134465529Y-124464101D01*
X134404242Y-124316142D01*
X134373000Y-124159075D01*
X134373000Y-123998925D01*
X134404242Y-123841858D01*
X134465529Y-123693899D01*
X134554499Y-123560745D01*
X134667745Y-123447499D01*
X134800899Y-123358529D01*
X134948858Y-123297242D01*
X135105925Y-123266000D01*
X135266075Y-123266000D01*
X135423142Y-123297242D01*
X135423142Y-123297242D01*
G37*
G36*
X135423142Y-120757242D02*
G01*
X135571101Y-120818529D01*
X135704255Y-120907499D01*
X135817501Y-121020745D01*
X135906471Y-121153899D01*
X135967758Y-121301858D01*
X135999000Y-121458925D01*
X135999000Y-121619075D01*
X135967758Y-121776142D01*
X135906471Y-121924101D01*
X135817501Y-122057255D01*
X135704255Y-122170501D01*
X135571101Y-122259471D01*
X135423142Y-122320758D01*
X135266075Y-122352000D01*
X135105925Y-122352000D01*
X134948858Y-122320758D01*
X134800899Y-122259471D01*
X134667745Y-122170501D01*
X134554499Y-122057255D01*
X134465529Y-121924101D01*
X134404242Y-121776142D01*
X134373000Y-121619075D01*
X134373000Y-121458925D01*
X134404242Y-121301858D01*
X134465529Y-121153899D01*
X134554499Y-121020745D01*
X134667745Y-120907499D01*
X134800899Y-120818529D01*
X134948858Y-120757242D01*
X135105925Y-120726000D01*
X135266075Y-120726000D01*
X135423142Y-120757242D01*
X135423142Y-120757242D01*
G37*
G36*
X135423142Y-118217242D02*
G01*
X135571101Y-118278529D01*
X135704255Y-118367499D01*
X135817501Y-118480745D01*
X135906471Y-118613899D01*
X135967758Y-118761858D01*
X135999000Y-118918925D01*
X135999000Y-119079075D01*
X135967758Y-119236142D01*
X135906471Y-119384101D01*
X135817501Y-119517255D01*
X135704255Y-119630501D01*
X135571101Y-119719471D01*
X135423142Y-119780758D01*
X135266075Y-119812000D01*
X135105925Y-119812000D01*
X134948858Y-119780758D01*
X134800899Y-119719471D01*
X134667745Y-119630501D01*
X134554499Y-119517255D01*
X134465529Y-119384101D01*
X134404242Y-119236142D01*
X134373000Y-119079075D01*
X134373000Y-118918925D01*
X134404242Y-118761858D01*
X134465529Y-118613899D01*
X134554499Y-118480745D01*
X134667745Y-118367499D01*
X134800899Y-118278529D01*
X134948858Y-118217242D01*
X135105925Y-118186000D01*
X135266075Y-118186000D01*
X135423142Y-118217242D01*
X135423142Y-118217242D01*
G37*
G36*
X91169142Y-115804242D02*
G01*
X91317101Y-115865529D01*
X91450255Y-115954499D01*
X91563501Y-116067745D01*
X91652471Y-116200899D01*
X91713758Y-116348858D01*
X91745000Y-116505925D01*
X91745000Y-116666075D01*
X91713758Y-116823142D01*
X91652471Y-116971101D01*
X91563501Y-117104255D01*
X91450255Y-117217501D01*
X91317101Y-117306471D01*
X91169142Y-117367758D01*
X91012075Y-117399000D01*
X90851925Y-117399000D01*
X90694858Y-117367758D01*
X90546899Y-117306471D01*
X90413745Y-117217501D01*
X90300499Y-117104255D01*
X90211529Y-116971101D01*
X90150242Y-116823142D01*
X90119000Y-116666075D01*
X90119000Y-116505925D01*
X90150242Y-116348858D01*
X90211529Y-116200899D01*
X90300499Y-116067745D01*
X90413745Y-115954499D01*
X90546899Y-115865529D01*
X90694858Y-115804242D01*
X90851925Y-115773000D01*
X91012075Y-115773000D01*
X91169142Y-115804242D01*
X91169142Y-115804242D01*
G37*
G36*
X130151323Y-115620313D02*
G01*
X130311742Y-115668976D01*
X130378861Y-115704852D01*
X130459578Y-115747996D01*
X130589159Y-115854341D01*
X130695504Y-115983922D01*
X130695505Y-115983924D01*
X130774524Y-116131758D01*
X130823187Y-116292177D01*
X130839617Y-116459000D01*
X130823187Y-116625823D01*
X130774524Y-116786242D01*
X130733977Y-116862100D01*
X130695504Y-116934078D01*
X130589159Y-117063659D01*
X130459578Y-117170004D01*
X130459576Y-117170005D01*
X130311742Y-117249024D01*
X130151323Y-117297687D01*
X130026304Y-117310000D01*
X129942696Y-117310000D01*
X129817677Y-117297687D01*
X129657258Y-117249024D01*
X129509424Y-117170005D01*
X129509422Y-117170004D01*
X129379841Y-117063659D01*
X129273496Y-116934078D01*
X129235023Y-116862100D01*
X129194476Y-116786242D01*
X129145813Y-116625823D01*
X129129383Y-116459000D01*
X129145813Y-116292177D01*
X129194476Y-116131758D01*
X129273495Y-115983924D01*
X129273496Y-115983922D01*
X129379841Y-115854341D01*
X129509422Y-115747996D01*
X129590139Y-115704852D01*
X129657258Y-115668976D01*
X129817677Y-115620313D01*
X129942696Y-115608000D01*
X130026304Y-115608000D01*
X130151323Y-115620313D01*
X130151323Y-115620313D01*
G37*
G36*
X120072728Y-115640703D02*
G01*
X120227600Y-115704853D01*
X120366981Y-115797985D01*
X120485515Y-115916519D01*
X120578647Y-116055900D01*
X120642797Y-116210772D01*
X120675500Y-116375184D01*
X120675500Y-116542816D01*
X120642797Y-116707228D01*
X120578647Y-116862100D01*
X120485515Y-117001481D01*
X120366981Y-117120015D01*
X120227600Y-117213147D01*
X120072728Y-117277297D01*
X119908316Y-117310000D01*
X119740684Y-117310000D01*
X119576272Y-117277297D01*
X119421400Y-117213147D01*
X119282019Y-117120015D01*
X119163485Y-117001481D01*
X119070353Y-116862100D01*
X119006203Y-116707228D01*
X118973500Y-116542816D01*
X118973500Y-116375184D01*
X119006203Y-116210772D01*
X119070353Y-116055900D01*
X119163485Y-115916519D01*
X119282019Y-115797985D01*
X119421400Y-115704853D01*
X119576272Y-115640703D01*
X119740684Y-115608000D01*
X119908316Y-115608000D01*
X120072728Y-115640703D01*
X120072728Y-115640703D01*
G37*
G36*
X135423142Y-115677242D02*
G01*
X135571101Y-115738529D01*
X135704255Y-115827499D01*
X135817501Y-115940745D01*
X135906471Y-116073899D01*
X135967758Y-116221858D01*
X135999000Y-116378925D01*
X135999000Y-116539075D01*
X135967758Y-116696142D01*
X135906471Y-116844101D01*
X135817501Y-116977255D01*
X135704255Y-117090501D01*
X135571101Y-117179471D01*
X135423142Y-117240758D01*
X135266075Y-117272000D01*
X135105925Y-117272000D01*
X134948858Y-117240758D01*
X134800899Y-117179471D01*
X134667745Y-117090501D01*
X134554499Y-116977255D01*
X134465529Y-116844101D01*
X134404242Y-116696142D01*
X134373000Y-116539075D01*
X134373000Y-116378925D01*
X134404242Y-116221858D01*
X134465529Y-116073899D01*
X134554499Y-115940745D01*
X134667745Y-115827499D01*
X134800899Y-115738529D01*
X134948858Y-115677242D01*
X135105925Y-115646000D01*
X135266075Y-115646000D01*
X135423142Y-115677242D01*
X135423142Y-115677242D01*
G37*
G36*
X91169142Y-113264242D02*
G01*
X91317101Y-113325529D01*
X91450255Y-113414499D01*
X91563501Y-113527745D01*
X91652471Y-113660899D01*
X91713758Y-113808858D01*
X91745000Y-113965925D01*
X91745000Y-114126075D01*
X91713758Y-114283142D01*
X91652471Y-114431101D01*
X91563501Y-114564255D01*
X91450255Y-114677501D01*
X91317101Y-114766471D01*
X91169142Y-114827758D01*
X91012075Y-114859000D01*
X90851925Y-114859000D01*
X90694858Y-114827758D01*
X90546899Y-114766471D01*
X90413745Y-114677501D01*
X90300499Y-114564255D01*
X90211529Y-114431101D01*
X90150242Y-114283142D01*
X90119000Y-114126075D01*
X90119000Y-113965925D01*
X90150242Y-113808858D01*
X90211529Y-113660899D01*
X90300499Y-113527745D01*
X90413745Y-113414499D01*
X90546899Y-113325529D01*
X90694858Y-113264242D01*
X90851925Y-113233000D01*
X91012075Y-113233000D01*
X91169142Y-113264242D01*
X91169142Y-113264242D01*
G37*
G36*
X135423142Y-113137242D02*
G01*
X135571101Y-113198529D01*
X135704255Y-113287499D01*
X135817501Y-113400745D01*
X135906471Y-113533899D01*
X135967758Y-113681858D01*
X135999000Y-113838925D01*
X135999000Y-113999075D01*
X135967758Y-114156142D01*
X135906471Y-114304101D01*
X135817501Y-114437255D01*
X135704255Y-114550501D01*
X135571101Y-114639471D01*
X135423142Y-114700758D01*
X135266075Y-114732000D01*
X135105925Y-114732000D01*
X134948858Y-114700758D01*
X134800899Y-114639471D01*
X134667745Y-114550501D01*
X134554499Y-114437255D01*
X134465529Y-114304101D01*
X134404242Y-114156142D01*
X134373000Y-113999075D01*
X134373000Y-113838925D01*
X134404242Y-113681858D01*
X134465529Y-113533899D01*
X134554499Y-113400745D01*
X134667745Y-113287499D01*
X134800899Y-113198529D01*
X134948858Y-113137242D01*
X135105925Y-113106000D01*
X135266075Y-113106000D01*
X135423142Y-113137242D01*
X135423142Y-113137242D01*
G37*
G36*
X130151323Y-111302313D02*
G01*
X130311742Y-111350976D01*
X130378861Y-111386852D01*
X130459578Y-111429996D01*
X130589159Y-111536341D01*
X130695504Y-111665922D01*
X130695505Y-111665924D01*
X130774524Y-111813758D01*
X130823187Y-111974177D01*
X130839617Y-112141000D01*
X130823187Y-112307823D01*
X130774524Y-112468242D01*
X130733977Y-112544100D01*
X130695504Y-112616078D01*
X130589159Y-112745659D01*
X130459578Y-112852004D01*
X130459576Y-112852005D01*
X130311742Y-112931024D01*
X130151323Y-112979687D01*
X130026304Y-112992000D01*
X129942696Y-112992000D01*
X129817677Y-112979687D01*
X129657258Y-112931024D01*
X129509424Y-112852005D01*
X129509422Y-112852004D01*
X129379841Y-112745659D01*
X129273496Y-112616078D01*
X129235023Y-112544100D01*
X129194476Y-112468242D01*
X129145813Y-112307823D01*
X129129383Y-112141000D01*
X129145813Y-111974177D01*
X129194476Y-111813758D01*
X129273495Y-111665924D01*
X129273496Y-111665922D01*
X129379841Y-111536341D01*
X129509422Y-111429996D01*
X129590139Y-111386852D01*
X129657258Y-111350976D01*
X129817677Y-111302313D01*
X129942696Y-111290000D01*
X130026304Y-111290000D01*
X130151323Y-111302313D01*
X130151323Y-111302313D01*
G37*
G36*
X120072728Y-111322703D02*
G01*
X120227600Y-111386853D01*
X120366981Y-111479985D01*
X120485515Y-111598519D01*
X120578647Y-111737900D01*
X120642797Y-111892772D01*
X120675500Y-112057184D01*
X120675500Y-112224816D01*
X120642797Y-112389228D01*
X120578647Y-112544100D01*
X120485515Y-112683481D01*
X120366981Y-112802015D01*
X120227600Y-112895147D01*
X120072728Y-112959297D01*
X119908316Y-112992000D01*
X119740684Y-112992000D01*
X119576272Y-112959297D01*
X119421400Y-112895147D01*
X119282019Y-112802015D01*
X119163485Y-112683481D01*
X119070353Y-112544100D01*
X119006203Y-112389228D01*
X118973500Y-112224816D01*
X118973500Y-112057184D01*
X119006203Y-111892772D01*
X119070353Y-111737900D01*
X119163485Y-111598519D01*
X119282019Y-111479985D01*
X119421400Y-111386853D01*
X119576272Y-111322703D01*
X119740684Y-111290000D01*
X119908316Y-111290000D01*
X120072728Y-111322703D01*
X120072728Y-111322703D01*
G37*
G36*
X91169142Y-110724242D02*
G01*
X91317101Y-110785529D01*
X91450255Y-110874499D01*
X91563501Y-110987745D01*
X91652471Y-111120899D01*
X91713758Y-111268858D01*
X91745000Y-111425925D01*
X91745000Y-111586075D01*
X91713758Y-111743142D01*
X91652471Y-111891101D01*
X91563501Y-112024255D01*
X91450255Y-112137501D01*
X91317101Y-112226471D01*
X91169142Y-112287758D01*
X91012075Y-112319000D01*
X90851925Y-112319000D01*
X90694858Y-112287758D01*
X90546899Y-112226471D01*
X90413745Y-112137501D01*
X90300499Y-112024255D01*
X90211529Y-111891101D01*
X90150242Y-111743142D01*
X90119000Y-111586075D01*
X90119000Y-111425925D01*
X90150242Y-111268858D01*
X90211529Y-111120899D01*
X90300499Y-110987745D01*
X90413745Y-110874499D01*
X90546899Y-110785529D01*
X90694858Y-110724242D01*
X90851925Y-110693000D01*
X91012075Y-110693000D01*
X91169142Y-110724242D01*
X91169142Y-110724242D01*
G37*
G36*
X135423142Y-110597242D02*
G01*
X135571101Y-110658529D01*
X135704255Y-110747499D01*
X135817501Y-110860745D01*
X135906471Y-110993899D01*
X135967758Y-111141858D01*
X135999000Y-111298925D01*
X135999000Y-111459075D01*
X135967758Y-111616142D01*
X135906471Y-111764101D01*
X135817501Y-111897255D01*
X135704255Y-112010501D01*
X135571101Y-112099471D01*
X135423142Y-112160758D01*
X135266075Y-112192000D01*
X135105925Y-112192000D01*
X134948858Y-112160758D01*
X134800899Y-112099471D01*
X134667745Y-112010501D01*
X134554499Y-111897255D01*
X134465529Y-111764101D01*
X134404242Y-111616142D01*
X134373000Y-111459075D01*
X134373000Y-111298925D01*
X134404242Y-111141858D01*
X134465529Y-110993899D01*
X134554499Y-110860745D01*
X134667745Y-110747499D01*
X134800899Y-110658529D01*
X134948858Y-110597242D01*
X135105925Y-110566000D01*
X135266075Y-110566000D01*
X135423142Y-110597242D01*
X135423142Y-110597242D01*
G37*
G36*
X91169142Y-108184242D02*
G01*
X91317101Y-108245529D01*
X91450255Y-108334499D01*
X91563501Y-108447745D01*
X91652471Y-108580899D01*
X91713758Y-108728858D01*
X91745000Y-108885925D01*
X91745000Y-109046075D01*
X91713758Y-109203142D01*
X91652471Y-109351101D01*
X91563501Y-109484255D01*
X91450255Y-109597501D01*
X91317101Y-109686471D01*
X91169142Y-109747758D01*
X91012075Y-109779000D01*
X90851925Y-109779000D01*
X90694858Y-109747758D01*
X90546899Y-109686471D01*
X90413745Y-109597501D01*
X90300499Y-109484255D01*
X90211529Y-109351101D01*
X90150242Y-109203142D01*
X90119000Y-109046075D01*
X90119000Y-108885925D01*
X90150242Y-108728858D01*
X90211529Y-108580899D01*
X90300499Y-108447745D01*
X90413745Y-108334499D01*
X90546899Y-108245529D01*
X90694858Y-108184242D01*
X90851925Y-108153000D01*
X91012075Y-108153000D01*
X91169142Y-108184242D01*
X91169142Y-108184242D01*
G37*
G36*
X135423142Y-108057242D02*
G01*
X135571101Y-108118529D01*
X135704255Y-108207499D01*
X135817501Y-108320745D01*
X135906471Y-108453899D01*
X135967758Y-108601858D01*
X135999000Y-108758925D01*
X135999000Y-108919075D01*
X135967758Y-109076142D01*
X135906471Y-109224101D01*
X135817501Y-109357255D01*
X135704255Y-109470501D01*
X135571101Y-109559471D01*
X135423142Y-109620758D01*
X135266075Y-109652000D01*
X135105925Y-109652000D01*
X134948858Y-109620758D01*
X134800899Y-109559471D01*
X134667745Y-109470501D01*
X134554499Y-109357255D01*
X134465529Y-109224101D01*
X134404242Y-109076142D01*
X134373000Y-108919075D01*
X134373000Y-108758925D01*
X134404242Y-108601858D01*
X134465529Y-108453899D01*
X134554499Y-108320745D01*
X134667745Y-108207499D01*
X134800899Y-108118529D01*
X134948858Y-108057242D01*
X135105925Y-108026000D01*
X135266075Y-108026000D01*
X135423142Y-108057242D01*
X135423142Y-108057242D01*
G37*
G36*
X91169142Y-105644242D02*
G01*
X91317101Y-105705529D01*
X91450255Y-105794499D01*
X91563501Y-105907745D01*
X91652471Y-106040899D01*
X91713758Y-106188858D01*
X91745000Y-106345925D01*
X91745000Y-106506075D01*
X91713758Y-106663142D01*
X91652471Y-106811101D01*
X91563501Y-106944255D01*
X91450255Y-107057501D01*
X91317101Y-107146471D01*
X91169142Y-107207758D01*
X91012075Y-107239000D01*
X90851925Y-107239000D01*
X90694858Y-107207758D01*
X90546899Y-107146471D01*
X90413745Y-107057501D01*
X90300499Y-106944255D01*
X90211529Y-106811101D01*
X90150242Y-106663142D01*
X90119000Y-106506075D01*
X90119000Y-106345925D01*
X90150242Y-106188858D01*
X90211529Y-106040899D01*
X90300499Y-105907745D01*
X90413745Y-105794499D01*
X90546899Y-105705529D01*
X90694858Y-105644242D01*
X90851925Y-105613000D01*
X91012075Y-105613000D01*
X91169142Y-105644242D01*
X91169142Y-105644242D01*
G37*
G36*
X91169142Y-103104242D02*
G01*
X91317101Y-103165529D01*
X91450255Y-103254499D01*
X91563501Y-103367745D01*
X91652471Y-103500899D01*
X91713758Y-103648858D01*
X91745000Y-103805925D01*
X91745000Y-103966075D01*
X91713758Y-104123142D01*
X91652471Y-104271101D01*
X91563501Y-104404255D01*
X91450255Y-104517501D01*
X91317101Y-104606471D01*
X91169142Y-104667758D01*
X91012075Y-104699000D01*
X90851925Y-104699000D01*
X90694858Y-104667758D01*
X90546899Y-104606471D01*
X90413745Y-104517501D01*
X90300499Y-104404255D01*
X90211529Y-104271101D01*
X90150242Y-104123142D01*
X90119000Y-103966075D01*
X90119000Y-103805925D01*
X90150242Y-103648858D01*
X90211529Y-103500899D01*
X90300499Y-103367745D01*
X90413745Y-103254499D01*
X90546899Y-103165529D01*
X90694858Y-103104242D01*
X90851925Y-103073000D01*
X91012075Y-103073000D01*
X91169142Y-103104242D01*
X91169142Y-103104242D01*
G37*
G36*
X136446642Y-96817742D02*
G01*
X136594601Y-96879029D01*
X136727755Y-96967999D01*
X136841001Y-97081245D01*
X136929971Y-97214399D01*
X136991258Y-97362358D01*
X137022500Y-97519425D01*
X137022500Y-97679575D01*
X136991258Y-97836642D01*
X136929971Y-97984601D01*
X136841001Y-98117755D01*
X136727755Y-98231001D01*
X136594601Y-98319971D01*
X136446642Y-98381258D01*
X136289575Y-98412500D01*
X136129425Y-98412500D01*
X135972358Y-98381258D01*
X135824399Y-98319971D01*
X135691245Y-98231001D01*
X135577999Y-98117755D01*
X135489029Y-97984601D01*
X135427742Y-97836642D01*
X135396500Y-97679575D01*
X135396500Y-97519425D01*
X135427742Y-97362358D01*
X135489029Y-97214399D01*
X135577999Y-97081245D01*
X135691245Y-96967999D01*
X135824399Y-96879029D01*
X135972358Y-96817742D01*
X136129425Y-96786500D01*
X136289575Y-96786500D01*
X136446642Y-96817742D01*
X136446642Y-96817742D01*
G37*
G36*
X72319580Y-95978081D02*
G01*
X72410480Y-95996162D01*
X72524647Y-96043452D01*
X72581732Y-96067097D01*
X72735850Y-96170075D01*
X72866925Y-96301150D01*
X72969903Y-96455268D01*
X72969903Y-96455269D01*
X73040838Y-96626520D01*
X73077000Y-96808320D01*
X73077000Y-96993680D01*
X73040838Y-97175480D01*
X73018984Y-97228239D01*
X72969903Y-97346732D01*
X72866925Y-97500850D01*
X72735850Y-97631925D01*
X72581732Y-97734903D01*
X72524647Y-97758548D01*
X72410480Y-97805838D01*
X72319580Y-97823919D01*
X72228682Y-97842000D01*
X72043318Y-97842000D01*
X71952420Y-97823919D01*
X71861520Y-97805838D01*
X71747353Y-97758548D01*
X71690268Y-97734903D01*
X71536150Y-97631925D01*
X71405075Y-97500850D01*
X71302097Y-97346732D01*
X71253016Y-97228239D01*
X71231162Y-97175480D01*
X71195000Y-96993680D01*
X71195000Y-96808320D01*
X71231162Y-96626520D01*
X71302097Y-96455269D01*
X71302097Y-96455268D01*
X71405075Y-96301150D01*
X71536150Y-96170075D01*
X71690268Y-96067097D01*
X71747353Y-96043452D01*
X71861520Y-95996162D01*
X71952420Y-95978081D01*
X72043318Y-95960000D01*
X72228682Y-95960000D01*
X72319580Y-95978081D01*
X72319580Y-95978081D01*
G37*
G36*
X112959580Y-95978081D02*
G01*
X113050480Y-95996162D01*
X113164647Y-96043452D01*
X113221732Y-96067097D01*
X113375850Y-96170075D01*
X113506925Y-96301150D01*
X113609903Y-96455268D01*
X113609903Y-96455269D01*
X113680838Y-96626520D01*
X113717000Y-96808320D01*
X113717000Y-96993680D01*
X113680838Y-97175480D01*
X113658984Y-97228239D01*
X113609903Y-97346732D01*
X113506925Y-97500850D01*
X113375850Y-97631925D01*
X113221732Y-97734903D01*
X113164647Y-97758548D01*
X113050480Y-97805838D01*
X112959580Y-97823919D01*
X112868682Y-97842000D01*
X112683318Y-97842000D01*
X112592420Y-97823919D01*
X112501520Y-97805838D01*
X112387353Y-97758548D01*
X112330268Y-97734903D01*
X112176150Y-97631925D01*
X112045075Y-97500850D01*
X111942097Y-97346732D01*
X111893016Y-97228239D01*
X111871162Y-97175480D01*
X111835000Y-96993680D01*
X111835000Y-96808320D01*
X111871162Y-96626520D01*
X111942097Y-96455269D01*
X111942097Y-96455268D01*
X112045075Y-96301150D01*
X112176150Y-96170075D01*
X112330268Y-96067097D01*
X112387353Y-96043452D01*
X112501520Y-95996162D01*
X112592420Y-95978081D01*
X112683318Y-95960000D01*
X112868682Y-95960000D01*
X112959580Y-95978081D01*
X112959580Y-95978081D01*
G37*
G36*
X110402823Y-96062313D02*
G01*
X110563242Y-96110976D01*
X110673808Y-96170075D01*
X110711078Y-96189996D01*
X110840659Y-96296341D01*
X110947004Y-96425922D01*
X110947005Y-96425924D01*
X111026024Y-96573758D01*
X111074687Y-96734177D01*
X111091117Y-96901000D01*
X111074687Y-97067823D01*
X111026024Y-97228242D01*
X110962690Y-97346731D01*
X110947004Y-97376078D01*
X110840659Y-97505659D01*
X110711078Y-97612004D01*
X110711076Y-97612005D01*
X110563242Y-97691024D01*
X110402823Y-97739687D01*
X110277804Y-97752000D01*
X110194196Y-97752000D01*
X110069177Y-97739687D01*
X109908758Y-97691024D01*
X109760924Y-97612005D01*
X109760922Y-97612004D01*
X109631341Y-97505659D01*
X109524996Y-97376078D01*
X109509310Y-97346731D01*
X109445976Y-97228242D01*
X109397313Y-97067823D01*
X109380883Y-96901000D01*
X109397313Y-96734177D01*
X109445976Y-96573758D01*
X109524995Y-96425924D01*
X109524996Y-96425922D01*
X109631341Y-96296341D01*
X109760922Y-96189996D01*
X109798192Y-96170075D01*
X109908758Y-96110976D01*
X110069177Y-96062313D01*
X110194196Y-96050000D01*
X110277804Y-96050000D01*
X110402823Y-96062313D01*
X110402823Y-96062313D01*
G37*
G36*
X90082823Y-96062313D02*
G01*
X90243242Y-96110976D01*
X90353808Y-96170075D01*
X90391078Y-96189996D01*
X90520659Y-96296341D01*
X90627004Y-96425922D01*
X90627005Y-96425924D01*
X90706024Y-96573758D01*
X90754687Y-96734177D01*
X90771117Y-96901000D01*
X90754687Y-97067823D01*
X90706024Y-97228242D01*
X90642690Y-97346731D01*
X90627004Y-97376078D01*
X90520659Y-97505659D01*
X90391078Y-97612004D01*
X90391076Y-97612005D01*
X90243242Y-97691024D01*
X90082823Y-97739687D01*
X89957804Y-97752000D01*
X89874196Y-97752000D01*
X89749177Y-97739687D01*
X89588758Y-97691024D01*
X89440924Y-97612005D01*
X89440922Y-97612004D01*
X89311341Y-97505659D01*
X89204996Y-97376078D01*
X89189310Y-97346731D01*
X89125976Y-97228242D01*
X89077313Y-97067823D01*
X89060883Y-96901000D01*
X89077313Y-96734177D01*
X89125976Y-96573758D01*
X89204995Y-96425924D01*
X89204996Y-96425922D01*
X89311341Y-96296341D01*
X89440922Y-96189996D01*
X89478192Y-96170075D01*
X89588758Y-96110976D01*
X89749177Y-96062313D01*
X89874196Y-96050000D01*
X89957804Y-96050000D01*
X90082823Y-96062313D01*
X90082823Y-96062313D01*
G37*
G36*
X85002823Y-96062313D02*
G01*
X85163242Y-96110976D01*
X85273808Y-96170075D01*
X85311078Y-96189996D01*
X85440659Y-96296341D01*
X85547004Y-96425922D01*
X85547005Y-96425924D01*
X85626024Y-96573758D01*
X85674687Y-96734177D01*
X85691117Y-96901000D01*
X85674687Y-97067823D01*
X85626024Y-97228242D01*
X85562690Y-97346731D01*
X85547004Y-97376078D01*
X85440659Y-97505659D01*
X85311078Y-97612004D01*
X85311076Y-97612005D01*
X85163242Y-97691024D01*
X85002823Y-97739687D01*
X84877804Y-97752000D01*
X84794196Y-97752000D01*
X84669177Y-97739687D01*
X84508758Y-97691024D01*
X84360924Y-97612005D01*
X84360922Y-97612004D01*
X84231341Y-97505659D01*
X84124996Y-97376078D01*
X84109310Y-97346731D01*
X84045976Y-97228242D01*
X83997313Y-97067823D01*
X83980883Y-96901000D01*
X83997313Y-96734177D01*
X84045976Y-96573758D01*
X84124995Y-96425924D01*
X84124996Y-96425922D01*
X84231341Y-96296341D01*
X84360922Y-96189996D01*
X84398192Y-96170075D01*
X84508758Y-96110976D01*
X84669177Y-96062313D01*
X84794196Y-96050000D01*
X84877804Y-96050000D01*
X85002823Y-96062313D01*
X85002823Y-96062313D01*
G37*
G36*
X82462823Y-96062313D02*
G01*
X82623242Y-96110976D01*
X82733808Y-96170075D01*
X82771078Y-96189996D01*
X82900659Y-96296341D01*
X83007004Y-96425922D01*
X83007005Y-96425924D01*
X83086024Y-96573758D01*
X83134687Y-96734177D01*
X83151117Y-96901000D01*
X83134687Y-97067823D01*
X83086024Y-97228242D01*
X83022690Y-97346731D01*
X83007004Y-97376078D01*
X82900659Y-97505659D01*
X82771078Y-97612004D01*
X82771076Y-97612005D01*
X82623242Y-97691024D01*
X82462823Y-97739687D01*
X82337804Y-97752000D01*
X82254196Y-97752000D01*
X82129177Y-97739687D01*
X81968758Y-97691024D01*
X81820924Y-97612005D01*
X81820922Y-97612004D01*
X81691341Y-97505659D01*
X81584996Y-97376078D01*
X81569310Y-97346731D01*
X81505976Y-97228242D01*
X81457313Y-97067823D01*
X81440883Y-96901000D01*
X81457313Y-96734177D01*
X81505976Y-96573758D01*
X81584995Y-96425924D01*
X81584996Y-96425922D01*
X81691341Y-96296341D01*
X81820922Y-96189996D01*
X81858192Y-96170075D01*
X81968758Y-96110976D01*
X82129177Y-96062313D01*
X82254196Y-96050000D01*
X82337804Y-96050000D01*
X82462823Y-96062313D01*
X82462823Y-96062313D01*
G37*
G36*
X79922823Y-96062313D02*
G01*
X80083242Y-96110976D01*
X80193808Y-96170075D01*
X80231078Y-96189996D01*
X80360659Y-96296341D01*
X80467004Y-96425922D01*
X80467005Y-96425924D01*
X80546024Y-96573758D01*
X80594687Y-96734177D01*
X80611117Y-96901000D01*
X80594687Y-97067823D01*
X80546024Y-97228242D01*
X80482690Y-97346731D01*
X80467004Y-97376078D01*
X80360659Y-97505659D01*
X80231078Y-97612004D01*
X80231076Y-97612005D01*
X80083242Y-97691024D01*
X79922823Y-97739687D01*
X79797804Y-97752000D01*
X79714196Y-97752000D01*
X79589177Y-97739687D01*
X79428758Y-97691024D01*
X79280924Y-97612005D01*
X79280922Y-97612004D01*
X79151341Y-97505659D01*
X79044996Y-97376078D01*
X79029310Y-97346731D01*
X78965976Y-97228242D01*
X78917313Y-97067823D01*
X78900883Y-96901000D01*
X78917313Y-96734177D01*
X78965976Y-96573758D01*
X79044995Y-96425924D01*
X79044996Y-96425922D01*
X79151341Y-96296341D01*
X79280922Y-96189996D01*
X79318192Y-96170075D01*
X79428758Y-96110976D01*
X79589177Y-96062313D01*
X79714196Y-96050000D01*
X79797804Y-96050000D01*
X79922823Y-96062313D01*
X79922823Y-96062313D01*
G37*
G36*
X77382823Y-96062313D02*
G01*
X77543242Y-96110976D01*
X77653808Y-96170075D01*
X77691078Y-96189996D01*
X77820659Y-96296341D01*
X77927004Y-96425922D01*
X77927005Y-96425924D01*
X78006024Y-96573758D01*
X78054687Y-96734177D01*
X78071117Y-96901000D01*
X78054687Y-97067823D01*
X78006024Y-97228242D01*
X77942690Y-97346731D01*
X77927004Y-97376078D01*
X77820659Y-97505659D01*
X77691078Y-97612004D01*
X77691076Y-97612005D01*
X77543242Y-97691024D01*
X77382823Y-97739687D01*
X77257804Y-97752000D01*
X77174196Y-97752000D01*
X77049177Y-97739687D01*
X76888758Y-97691024D01*
X76740924Y-97612005D01*
X76740922Y-97612004D01*
X76611341Y-97505659D01*
X76504996Y-97376078D01*
X76489310Y-97346731D01*
X76425976Y-97228242D01*
X76377313Y-97067823D01*
X76360883Y-96901000D01*
X76377313Y-96734177D01*
X76425976Y-96573758D01*
X76504995Y-96425924D01*
X76504996Y-96425922D01*
X76611341Y-96296341D01*
X76740922Y-96189996D01*
X76778192Y-96170075D01*
X76888758Y-96110976D01*
X77049177Y-96062313D01*
X77174196Y-96050000D01*
X77257804Y-96050000D01*
X77382823Y-96062313D01*
X77382823Y-96062313D01*
G37*
G36*
X87542823Y-96062313D02*
G01*
X87703242Y-96110976D01*
X87813808Y-96170075D01*
X87851078Y-96189996D01*
X87980659Y-96296341D01*
X88087004Y-96425922D01*
X88087005Y-96425924D01*
X88166024Y-96573758D01*
X88214687Y-96734177D01*
X88231117Y-96901000D01*
X88214687Y-97067823D01*
X88166024Y-97228242D01*
X88102690Y-97346731D01*
X88087004Y-97376078D01*
X87980659Y-97505659D01*
X87851078Y-97612004D01*
X87851076Y-97612005D01*
X87703242Y-97691024D01*
X87542823Y-97739687D01*
X87417804Y-97752000D01*
X87334196Y-97752000D01*
X87209177Y-97739687D01*
X87048758Y-97691024D01*
X86900924Y-97612005D01*
X86900922Y-97612004D01*
X86771341Y-97505659D01*
X86664996Y-97376078D01*
X86649310Y-97346731D01*
X86585976Y-97228242D01*
X86537313Y-97067823D01*
X86520883Y-96901000D01*
X86537313Y-96734177D01*
X86585976Y-96573758D01*
X86664995Y-96425924D01*
X86664996Y-96425922D01*
X86771341Y-96296341D01*
X86900922Y-96189996D01*
X86938192Y-96170075D01*
X87048758Y-96110976D01*
X87209177Y-96062313D01*
X87334196Y-96050000D01*
X87417804Y-96050000D01*
X87542823Y-96062313D01*
X87542823Y-96062313D01*
G37*
G36*
X107862823Y-96062313D02*
G01*
X108023242Y-96110976D01*
X108133808Y-96170075D01*
X108171078Y-96189996D01*
X108300659Y-96296341D01*
X108407004Y-96425922D01*
X108407005Y-96425924D01*
X108486024Y-96573758D01*
X108534687Y-96734177D01*
X108551117Y-96901000D01*
X108534687Y-97067823D01*
X108486024Y-97228242D01*
X108422690Y-97346731D01*
X108407004Y-97376078D01*
X108300659Y-97505659D01*
X108171078Y-97612004D01*
X108171076Y-97612005D01*
X108023242Y-97691024D01*
X107862823Y-97739687D01*
X107737804Y-97752000D01*
X107654196Y-97752000D01*
X107529177Y-97739687D01*
X107368758Y-97691024D01*
X107220924Y-97612005D01*
X107220922Y-97612004D01*
X107091341Y-97505659D01*
X106984996Y-97376078D01*
X106969310Y-97346731D01*
X106905976Y-97228242D01*
X106857313Y-97067823D01*
X106840883Y-96901000D01*
X106857313Y-96734177D01*
X106905976Y-96573758D01*
X106984995Y-96425924D01*
X106984996Y-96425922D01*
X107091341Y-96296341D01*
X107220922Y-96189996D01*
X107258192Y-96170075D01*
X107368758Y-96110976D01*
X107529177Y-96062313D01*
X107654196Y-96050000D01*
X107737804Y-96050000D01*
X107862823Y-96062313D01*
X107862823Y-96062313D01*
G37*
G36*
X105322823Y-96062313D02*
G01*
X105483242Y-96110976D01*
X105593808Y-96170075D01*
X105631078Y-96189996D01*
X105760659Y-96296341D01*
X105867004Y-96425922D01*
X105867005Y-96425924D01*
X105946024Y-96573758D01*
X105994687Y-96734177D01*
X106011117Y-96901000D01*
X105994687Y-97067823D01*
X105946024Y-97228242D01*
X105882690Y-97346731D01*
X105867004Y-97376078D01*
X105760659Y-97505659D01*
X105631078Y-97612004D01*
X105631076Y-97612005D01*
X105483242Y-97691024D01*
X105322823Y-97739687D01*
X105197804Y-97752000D01*
X105114196Y-97752000D01*
X104989177Y-97739687D01*
X104828758Y-97691024D01*
X104680924Y-97612005D01*
X104680922Y-97612004D01*
X104551341Y-97505659D01*
X104444996Y-97376078D01*
X104429310Y-97346731D01*
X104365976Y-97228242D01*
X104317313Y-97067823D01*
X104300883Y-96901000D01*
X104317313Y-96734177D01*
X104365976Y-96573758D01*
X104444995Y-96425924D01*
X104444996Y-96425922D01*
X104551341Y-96296341D01*
X104680922Y-96189996D01*
X104718192Y-96170075D01*
X104828758Y-96110976D01*
X104989177Y-96062313D01*
X105114196Y-96050000D01*
X105197804Y-96050000D01*
X105322823Y-96062313D01*
X105322823Y-96062313D01*
G37*
G36*
X102782823Y-96062313D02*
G01*
X102943242Y-96110976D01*
X103053808Y-96170075D01*
X103091078Y-96189996D01*
X103220659Y-96296341D01*
X103327004Y-96425922D01*
X103327005Y-96425924D01*
X103406024Y-96573758D01*
X103454687Y-96734177D01*
X103471117Y-96901000D01*
X103454687Y-97067823D01*
X103406024Y-97228242D01*
X103342690Y-97346731D01*
X103327004Y-97376078D01*
X103220659Y-97505659D01*
X103091078Y-97612004D01*
X103091076Y-97612005D01*
X102943242Y-97691024D01*
X102782823Y-97739687D01*
X102657804Y-97752000D01*
X102574196Y-97752000D01*
X102449177Y-97739687D01*
X102288758Y-97691024D01*
X102140924Y-97612005D01*
X102140922Y-97612004D01*
X102011341Y-97505659D01*
X101904996Y-97376078D01*
X101889310Y-97346731D01*
X101825976Y-97228242D01*
X101777313Y-97067823D01*
X101760883Y-96901000D01*
X101777313Y-96734177D01*
X101825976Y-96573758D01*
X101904995Y-96425924D01*
X101904996Y-96425922D01*
X102011341Y-96296341D01*
X102140922Y-96189996D01*
X102178192Y-96170075D01*
X102288758Y-96110976D01*
X102449177Y-96062313D01*
X102574196Y-96050000D01*
X102657804Y-96050000D01*
X102782823Y-96062313D01*
X102782823Y-96062313D01*
G37*
G36*
X92622823Y-96062313D02*
G01*
X92783242Y-96110976D01*
X92893808Y-96170075D01*
X92931078Y-96189996D01*
X93060659Y-96296341D01*
X93167004Y-96425922D01*
X93167005Y-96425924D01*
X93246024Y-96573758D01*
X93294687Y-96734177D01*
X93311117Y-96901000D01*
X93294687Y-97067823D01*
X93246024Y-97228242D01*
X93182690Y-97346731D01*
X93167004Y-97376078D01*
X93060659Y-97505659D01*
X92931078Y-97612004D01*
X92931076Y-97612005D01*
X92783242Y-97691024D01*
X92622823Y-97739687D01*
X92497804Y-97752000D01*
X92414196Y-97752000D01*
X92289177Y-97739687D01*
X92128758Y-97691024D01*
X91980924Y-97612005D01*
X91980922Y-97612004D01*
X91851341Y-97505659D01*
X91744996Y-97376078D01*
X91729310Y-97346731D01*
X91665976Y-97228242D01*
X91617313Y-97067823D01*
X91600883Y-96901000D01*
X91617313Y-96734177D01*
X91665976Y-96573758D01*
X91744995Y-96425924D01*
X91744996Y-96425922D01*
X91851341Y-96296341D01*
X91980922Y-96189996D01*
X92018192Y-96170075D01*
X92128758Y-96110976D01*
X92289177Y-96062313D01*
X92414196Y-96050000D01*
X92497804Y-96050000D01*
X92622823Y-96062313D01*
X92622823Y-96062313D01*
G37*
G36*
X100242823Y-96062313D02*
G01*
X100403242Y-96110976D01*
X100513808Y-96170075D01*
X100551078Y-96189996D01*
X100680659Y-96296341D01*
X100787004Y-96425922D01*
X100787005Y-96425924D01*
X100866024Y-96573758D01*
X100914687Y-96734177D01*
X100931117Y-96901000D01*
X100914687Y-97067823D01*
X100866024Y-97228242D01*
X100802690Y-97346731D01*
X100787004Y-97376078D01*
X100680659Y-97505659D01*
X100551078Y-97612004D01*
X100551076Y-97612005D01*
X100403242Y-97691024D01*
X100242823Y-97739687D01*
X100117804Y-97752000D01*
X100034196Y-97752000D01*
X99909177Y-97739687D01*
X99748758Y-97691024D01*
X99600924Y-97612005D01*
X99600922Y-97612004D01*
X99471341Y-97505659D01*
X99364996Y-97376078D01*
X99349310Y-97346731D01*
X99285976Y-97228242D01*
X99237313Y-97067823D01*
X99220883Y-96901000D01*
X99237313Y-96734177D01*
X99285976Y-96573758D01*
X99364995Y-96425924D01*
X99364996Y-96425922D01*
X99471341Y-96296341D01*
X99600922Y-96189996D01*
X99638192Y-96170075D01*
X99748758Y-96110976D01*
X99909177Y-96062313D01*
X100034196Y-96050000D01*
X100117804Y-96050000D01*
X100242823Y-96062313D01*
X100242823Y-96062313D01*
G37*
G36*
X97702823Y-96062313D02*
G01*
X97863242Y-96110976D01*
X97973808Y-96170075D01*
X98011078Y-96189996D01*
X98140659Y-96296341D01*
X98247004Y-96425922D01*
X98247005Y-96425924D01*
X98326024Y-96573758D01*
X98374687Y-96734177D01*
X98391117Y-96901000D01*
X98374687Y-97067823D01*
X98326024Y-97228242D01*
X98262690Y-97346731D01*
X98247004Y-97376078D01*
X98140659Y-97505659D01*
X98011078Y-97612004D01*
X98011076Y-97612005D01*
X97863242Y-97691024D01*
X97702823Y-97739687D01*
X97577804Y-97752000D01*
X97494196Y-97752000D01*
X97369177Y-97739687D01*
X97208758Y-97691024D01*
X97060924Y-97612005D01*
X97060922Y-97612004D01*
X96931341Y-97505659D01*
X96824996Y-97376078D01*
X96809310Y-97346731D01*
X96745976Y-97228242D01*
X96697313Y-97067823D01*
X96680883Y-96901000D01*
X96697313Y-96734177D01*
X96745976Y-96573758D01*
X96824995Y-96425924D01*
X96824996Y-96425922D01*
X96931341Y-96296341D01*
X97060922Y-96189996D01*
X97098192Y-96170075D01*
X97208758Y-96110976D01*
X97369177Y-96062313D01*
X97494196Y-96050000D01*
X97577804Y-96050000D01*
X97702823Y-96062313D01*
X97702823Y-96062313D01*
G37*
G36*
X95162823Y-96062313D02*
G01*
X95323242Y-96110976D01*
X95433808Y-96170075D01*
X95471078Y-96189996D01*
X95600659Y-96296341D01*
X95707004Y-96425922D01*
X95707005Y-96425924D01*
X95786024Y-96573758D01*
X95834687Y-96734177D01*
X95851117Y-96901000D01*
X95834687Y-97067823D01*
X95786024Y-97228242D01*
X95722690Y-97346731D01*
X95707004Y-97376078D01*
X95600659Y-97505659D01*
X95471078Y-97612004D01*
X95471076Y-97612005D01*
X95323242Y-97691024D01*
X95162823Y-97739687D01*
X95037804Y-97752000D01*
X94954196Y-97752000D01*
X94829177Y-97739687D01*
X94668758Y-97691024D01*
X94520924Y-97612005D01*
X94520922Y-97612004D01*
X94391341Y-97505659D01*
X94284996Y-97376078D01*
X94269310Y-97346731D01*
X94205976Y-97228242D01*
X94157313Y-97067823D01*
X94140883Y-96901000D01*
X94157313Y-96734177D01*
X94205976Y-96573758D01*
X94284995Y-96425924D01*
X94284996Y-96425922D01*
X94391341Y-96296341D01*
X94520922Y-96189996D01*
X94558192Y-96170075D01*
X94668758Y-96110976D01*
X94829177Y-96062313D01*
X94954196Y-96050000D01*
X95037804Y-96050000D01*
X95162823Y-96062313D01*
X95162823Y-96062313D01*
G37*
G36*
X74842823Y-96062313D02*
G01*
X75003242Y-96110976D01*
X75113808Y-96170075D01*
X75151078Y-96189996D01*
X75280659Y-96296341D01*
X75387004Y-96425922D01*
X75387005Y-96425924D01*
X75466024Y-96573758D01*
X75514687Y-96734177D01*
X75531117Y-96901000D01*
X75514687Y-97067823D01*
X75466024Y-97228242D01*
X75402690Y-97346731D01*
X75387004Y-97376078D01*
X75280659Y-97505659D01*
X75151078Y-97612004D01*
X75151076Y-97612005D01*
X75003242Y-97691024D01*
X74842823Y-97739687D01*
X74717804Y-97752000D01*
X74634196Y-97752000D01*
X74509177Y-97739687D01*
X74348758Y-97691024D01*
X74200924Y-97612005D01*
X74200922Y-97612004D01*
X74071341Y-97505659D01*
X73964996Y-97376078D01*
X73949310Y-97346731D01*
X73885976Y-97228242D01*
X73837313Y-97067823D01*
X73820883Y-96901000D01*
X73837313Y-96734177D01*
X73885976Y-96573758D01*
X73964995Y-96425924D01*
X73964996Y-96425922D01*
X74071341Y-96296341D01*
X74200922Y-96189996D01*
X74238192Y-96170075D01*
X74348758Y-96110976D01*
X74509177Y-96062313D01*
X74634196Y-96050000D01*
X74717804Y-96050000D01*
X74842823Y-96062313D01*
X74842823Y-96062313D01*
G37*
G36*
X136446642Y-94277742D02*
G01*
X136594601Y-94339029D01*
X136727755Y-94427999D01*
X136841001Y-94541245D01*
X136929971Y-94674399D01*
X136991258Y-94822358D01*
X137022500Y-94979425D01*
X137022500Y-95139575D01*
X136991258Y-95296642D01*
X136929971Y-95444601D01*
X136841001Y-95577755D01*
X136727755Y-95691001D01*
X136594601Y-95779971D01*
X136446642Y-95841258D01*
X136289575Y-95872500D01*
X136129425Y-95872500D01*
X135972358Y-95841258D01*
X135824399Y-95779971D01*
X135691245Y-95691001D01*
X135577999Y-95577755D01*
X135489029Y-95444601D01*
X135427742Y-95296642D01*
X135396500Y-95139575D01*
X135396500Y-94979425D01*
X135427742Y-94822358D01*
X135489029Y-94674399D01*
X135577999Y-94541245D01*
X135691245Y-94427999D01*
X135824399Y-94339029D01*
X135972358Y-94277742D01*
X136129425Y-94246500D01*
X136289575Y-94246500D01*
X136446642Y-94277742D01*
X136446642Y-94277742D01*
G37*
G36*
X136446642Y-91737742D02*
G01*
X136594601Y-91799029D01*
X136727755Y-91887999D01*
X136841001Y-92001245D01*
X136929971Y-92134399D01*
X136991258Y-92282358D01*
X137022500Y-92439425D01*
X137022500Y-92599575D01*
X136991258Y-92756642D01*
X136929971Y-92904601D01*
X136841001Y-93037755D01*
X136727755Y-93151001D01*
X136594601Y-93239971D01*
X136446642Y-93301258D01*
X136289575Y-93332500D01*
X136129425Y-93332500D01*
X135972358Y-93301258D01*
X135824399Y-93239971D01*
X135691245Y-93151001D01*
X135577999Y-93037755D01*
X135489029Y-92904601D01*
X135427742Y-92756642D01*
X135396500Y-92599575D01*
X135396500Y-92439425D01*
X135427742Y-92282358D01*
X135489029Y-92134399D01*
X135577999Y-92001245D01*
X135691245Y-91887999D01*
X135824399Y-91799029D01*
X135972358Y-91737742D01*
X136129425Y-91706500D01*
X136289575Y-91706500D01*
X136446642Y-91737742D01*
X136446642Y-91737742D01*
G37*
G36*
X136446642Y-89197742D02*
G01*
X136594601Y-89259029D01*
X136727755Y-89347999D01*
X136841001Y-89461245D01*
X136929971Y-89594399D01*
X136991258Y-89742358D01*
X137022500Y-89899425D01*
X137022500Y-90059575D01*
X136991258Y-90216642D01*
X136929971Y-90364601D01*
X136841001Y-90497755D01*
X136727755Y-90611001D01*
X136594601Y-90699971D01*
X136446642Y-90761258D01*
X136289575Y-90792500D01*
X136129425Y-90792500D01*
X135972358Y-90761258D01*
X135824399Y-90699971D01*
X135691245Y-90611001D01*
X135577999Y-90497755D01*
X135489029Y-90364601D01*
X135427742Y-90216642D01*
X135396500Y-90059575D01*
X135396500Y-89899425D01*
X135427742Y-89742358D01*
X135489029Y-89594399D01*
X135577999Y-89461245D01*
X135691245Y-89347999D01*
X135824399Y-89259029D01*
X135972358Y-89197742D01*
X136129425Y-89166500D01*
X136289575Y-89166500D01*
X136446642Y-89197742D01*
X136446642Y-89197742D01*
G37*
G36*
X72319580Y-80738081D02*
G01*
X72410480Y-80756162D01*
X72524647Y-80803452D01*
X72581732Y-80827097D01*
X72735850Y-80930075D01*
X72866925Y-81061150D01*
X72969903Y-81215268D01*
X72969903Y-81215269D01*
X73040838Y-81386520D01*
X73077000Y-81568320D01*
X73077000Y-81753680D01*
X73040838Y-81935480D01*
X73018984Y-81988239D01*
X72969903Y-82106732D01*
X72866925Y-82260850D01*
X72735850Y-82391925D01*
X72581732Y-82494903D01*
X72524647Y-82518548D01*
X72410480Y-82565838D01*
X72319580Y-82583919D01*
X72228682Y-82602000D01*
X72043318Y-82602000D01*
X71952420Y-82583919D01*
X71861520Y-82565838D01*
X71747353Y-82518548D01*
X71690268Y-82494903D01*
X71536150Y-82391925D01*
X71405075Y-82260850D01*
X71302097Y-82106732D01*
X71253016Y-81988239D01*
X71231162Y-81935480D01*
X71195000Y-81753680D01*
X71195000Y-81568320D01*
X71231162Y-81386520D01*
X71302097Y-81215269D01*
X71302097Y-81215268D01*
X71405075Y-81061150D01*
X71536150Y-80930075D01*
X71690268Y-80827097D01*
X71747353Y-80803452D01*
X71861520Y-80756162D01*
X71952420Y-80738081D01*
X72043318Y-80720000D01*
X72228682Y-80720000D01*
X72319580Y-80738081D01*
X72319580Y-80738081D01*
G37*
G36*
X112959580Y-80738081D02*
G01*
X113050480Y-80756162D01*
X113164647Y-80803452D01*
X113221732Y-80827097D01*
X113375850Y-80930075D01*
X113506925Y-81061150D01*
X113609903Y-81215268D01*
X113609903Y-81215269D01*
X113680838Y-81386520D01*
X113717000Y-81568320D01*
X113717000Y-81753680D01*
X113680838Y-81935480D01*
X113658984Y-81988239D01*
X113609903Y-82106732D01*
X113506925Y-82260850D01*
X113375850Y-82391925D01*
X113221732Y-82494903D01*
X113164647Y-82518548D01*
X113050480Y-82565838D01*
X112959580Y-82583919D01*
X112868682Y-82602000D01*
X112683318Y-82602000D01*
X112592420Y-82583919D01*
X112501520Y-82565838D01*
X112387353Y-82518548D01*
X112330268Y-82494903D01*
X112176150Y-82391925D01*
X112045075Y-82260850D01*
X111942097Y-82106732D01*
X111893016Y-81988239D01*
X111871162Y-81935480D01*
X111835000Y-81753680D01*
X111835000Y-81568320D01*
X111871162Y-81386520D01*
X111942097Y-81215269D01*
X111942097Y-81215268D01*
X112045075Y-81061150D01*
X112176150Y-80930075D01*
X112330268Y-80827097D01*
X112387353Y-80803452D01*
X112501520Y-80756162D01*
X112592420Y-80738081D01*
X112683318Y-80720000D01*
X112868682Y-80720000D01*
X112959580Y-80738081D01*
X112959580Y-80738081D01*
G37*
G36*
X85002823Y-80822313D02*
G01*
X85163242Y-80870976D01*
X85273808Y-80930075D01*
X85311078Y-80949996D01*
X85440659Y-81056341D01*
X85547004Y-81185922D01*
X85547005Y-81185924D01*
X85626024Y-81333758D01*
X85674687Y-81494177D01*
X85691117Y-81661000D01*
X85674687Y-81827823D01*
X85626024Y-81988242D01*
X85562690Y-82106731D01*
X85547004Y-82136078D01*
X85440659Y-82265659D01*
X85311078Y-82372004D01*
X85311076Y-82372005D01*
X85163242Y-82451024D01*
X85002823Y-82499687D01*
X84877804Y-82512000D01*
X84794196Y-82512000D01*
X84669177Y-82499687D01*
X84508758Y-82451024D01*
X84360924Y-82372005D01*
X84360922Y-82372004D01*
X84231341Y-82265659D01*
X84124996Y-82136078D01*
X84109310Y-82106731D01*
X84045976Y-81988242D01*
X83997313Y-81827823D01*
X83980883Y-81661000D01*
X83997313Y-81494177D01*
X84045976Y-81333758D01*
X84124995Y-81185924D01*
X84124996Y-81185922D01*
X84231341Y-81056341D01*
X84360922Y-80949996D01*
X84398192Y-80930075D01*
X84508758Y-80870976D01*
X84669177Y-80822313D01*
X84794196Y-80810000D01*
X84877804Y-80810000D01*
X85002823Y-80822313D01*
X85002823Y-80822313D01*
G37*
G36*
X90082823Y-80822313D02*
G01*
X90243242Y-80870976D01*
X90353808Y-80930075D01*
X90391078Y-80949996D01*
X90520659Y-81056341D01*
X90627004Y-81185922D01*
X90627005Y-81185924D01*
X90706024Y-81333758D01*
X90754687Y-81494177D01*
X90771117Y-81661000D01*
X90754687Y-81827823D01*
X90706024Y-81988242D01*
X90642690Y-82106731D01*
X90627004Y-82136078D01*
X90520659Y-82265659D01*
X90391078Y-82372004D01*
X90391076Y-82372005D01*
X90243242Y-82451024D01*
X90082823Y-82499687D01*
X89957804Y-82512000D01*
X89874196Y-82512000D01*
X89749177Y-82499687D01*
X89588758Y-82451024D01*
X89440924Y-82372005D01*
X89440922Y-82372004D01*
X89311341Y-82265659D01*
X89204996Y-82136078D01*
X89189310Y-82106731D01*
X89125976Y-81988242D01*
X89077313Y-81827823D01*
X89060883Y-81661000D01*
X89077313Y-81494177D01*
X89125976Y-81333758D01*
X89204995Y-81185924D01*
X89204996Y-81185922D01*
X89311341Y-81056341D01*
X89440922Y-80949996D01*
X89478192Y-80930075D01*
X89588758Y-80870976D01*
X89749177Y-80822313D01*
X89874196Y-80810000D01*
X89957804Y-80810000D01*
X90082823Y-80822313D01*
X90082823Y-80822313D01*
G37*
G36*
X87542823Y-80822313D02*
G01*
X87703242Y-80870976D01*
X87813808Y-80930075D01*
X87851078Y-80949996D01*
X87980659Y-81056341D01*
X88087004Y-81185922D01*
X88087005Y-81185924D01*
X88166024Y-81333758D01*
X88214687Y-81494177D01*
X88231117Y-81661000D01*
X88214687Y-81827823D01*
X88166024Y-81988242D01*
X88102690Y-82106731D01*
X88087004Y-82136078D01*
X87980659Y-82265659D01*
X87851078Y-82372004D01*
X87851076Y-82372005D01*
X87703242Y-82451024D01*
X87542823Y-82499687D01*
X87417804Y-82512000D01*
X87334196Y-82512000D01*
X87209177Y-82499687D01*
X87048758Y-82451024D01*
X86900924Y-82372005D01*
X86900922Y-82372004D01*
X86771341Y-82265659D01*
X86664996Y-82136078D01*
X86649310Y-82106731D01*
X86585976Y-81988242D01*
X86537313Y-81827823D01*
X86520883Y-81661000D01*
X86537313Y-81494177D01*
X86585976Y-81333758D01*
X86664995Y-81185924D01*
X86664996Y-81185922D01*
X86771341Y-81056341D01*
X86900922Y-80949996D01*
X86938192Y-80930075D01*
X87048758Y-80870976D01*
X87209177Y-80822313D01*
X87334196Y-80810000D01*
X87417804Y-80810000D01*
X87542823Y-80822313D01*
X87542823Y-80822313D01*
G37*
G36*
X82462823Y-80822313D02*
G01*
X82623242Y-80870976D01*
X82733808Y-80930075D01*
X82771078Y-80949996D01*
X82900659Y-81056341D01*
X83007004Y-81185922D01*
X83007005Y-81185924D01*
X83086024Y-81333758D01*
X83134687Y-81494177D01*
X83151117Y-81661000D01*
X83134687Y-81827823D01*
X83086024Y-81988242D01*
X83022690Y-82106731D01*
X83007004Y-82136078D01*
X82900659Y-82265659D01*
X82771078Y-82372004D01*
X82771076Y-82372005D01*
X82623242Y-82451024D01*
X82462823Y-82499687D01*
X82337804Y-82512000D01*
X82254196Y-82512000D01*
X82129177Y-82499687D01*
X81968758Y-82451024D01*
X81820924Y-82372005D01*
X81820922Y-82372004D01*
X81691341Y-82265659D01*
X81584996Y-82136078D01*
X81569310Y-82106731D01*
X81505976Y-81988242D01*
X81457313Y-81827823D01*
X81440883Y-81661000D01*
X81457313Y-81494177D01*
X81505976Y-81333758D01*
X81584995Y-81185924D01*
X81584996Y-81185922D01*
X81691341Y-81056341D01*
X81820922Y-80949996D01*
X81858192Y-80930075D01*
X81968758Y-80870976D01*
X82129177Y-80822313D01*
X82254196Y-80810000D01*
X82337804Y-80810000D01*
X82462823Y-80822313D01*
X82462823Y-80822313D01*
G37*
G36*
X79922823Y-80822313D02*
G01*
X80083242Y-80870976D01*
X80193808Y-80930075D01*
X80231078Y-80949996D01*
X80360659Y-81056341D01*
X80467004Y-81185922D01*
X80467005Y-81185924D01*
X80546024Y-81333758D01*
X80594687Y-81494177D01*
X80611117Y-81661000D01*
X80594687Y-81827823D01*
X80546024Y-81988242D01*
X80482690Y-82106731D01*
X80467004Y-82136078D01*
X80360659Y-82265659D01*
X80231078Y-82372004D01*
X80231076Y-82372005D01*
X80083242Y-82451024D01*
X79922823Y-82499687D01*
X79797804Y-82512000D01*
X79714196Y-82512000D01*
X79589177Y-82499687D01*
X79428758Y-82451024D01*
X79280924Y-82372005D01*
X79280922Y-82372004D01*
X79151341Y-82265659D01*
X79044996Y-82136078D01*
X79029310Y-82106731D01*
X78965976Y-81988242D01*
X78917313Y-81827823D01*
X78900883Y-81661000D01*
X78917313Y-81494177D01*
X78965976Y-81333758D01*
X79044995Y-81185924D01*
X79044996Y-81185922D01*
X79151341Y-81056341D01*
X79280922Y-80949996D01*
X79318192Y-80930075D01*
X79428758Y-80870976D01*
X79589177Y-80822313D01*
X79714196Y-80810000D01*
X79797804Y-80810000D01*
X79922823Y-80822313D01*
X79922823Y-80822313D01*
G37*
G36*
X111087000Y-82512000D02*
G01*
X109385000Y-82512000D01*
X109385000Y-80810000D01*
X111087000Y-80810000D01*
X111087000Y-82512000D01*
X111087000Y-82512000D01*
G37*
G36*
X77382823Y-80822313D02*
G01*
X77543242Y-80870976D01*
X77653808Y-80930075D01*
X77691078Y-80949996D01*
X77820659Y-81056341D01*
X77927004Y-81185922D01*
X77927005Y-81185924D01*
X78006024Y-81333758D01*
X78054687Y-81494177D01*
X78071117Y-81661000D01*
X78054687Y-81827823D01*
X78006024Y-81988242D01*
X77942690Y-82106731D01*
X77927004Y-82136078D01*
X77820659Y-82265659D01*
X77691078Y-82372004D01*
X77691076Y-82372005D01*
X77543242Y-82451024D01*
X77382823Y-82499687D01*
X77257804Y-82512000D01*
X77174196Y-82512000D01*
X77049177Y-82499687D01*
X76888758Y-82451024D01*
X76740924Y-82372005D01*
X76740922Y-82372004D01*
X76611341Y-82265659D01*
X76504996Y-82136078D01*
X76489310Y-82106731D01*
X76425976Y-81988242D01*
X76377313Y-81827823D01*
X76360883Y-81661000D01*
X76377313Y-81494177D01*
X76425976Y-81333758D01*
X76504995Y-81185924D01*
X76504996Y-81185922D01*
X76611341Y-81056341D01*
X76740922Y-80949996D01*
X76778192Y-80930075D01*
X76888758Y-80870976D01*
X77049177Y-80822313D01*
X77174196Y-80810000D01*
X77257804Y-80810000D01*
X77382823Y-80822313D01*
X77382823Y-80822313D01*
G37*
G36*
X74842823Y-80822313D02*
G01*
X75003242Y-80870976D01*
X75113808Y-80930075D01*
X75151078Y-80949996D01*
X75280659Y-81056341D01*
X75387004Y-81185922D01*
X75387005Y-81185924D01*
X75466024Y-81333758D01*
X75514687Y-81494177D01*
X75531117Y-81661000D01*
X75514687Y-81827823D01*
X75466024Y-81988242D01*
X75402690Y-82106731D01*
X75387004Y-82136078D01*
X75280659Y-82265659D01*
X75151078Y-82372004D01*
X75151076Y-82372005D01*
X75003242Y-82451024D01*
X74842823Y-82499687D01*
X74717804Y-82512000D01*
X74634196Y-82512000D01*
X74509177Y-82499687D01*
X74348758Y-82451024D01*
X74200924Y-82372005D01*
X74200922Y-82372004D01*
X74071341Y-82265659D01*
X73964996Y-82136078D01*
X73949310Y-82106731D01*
X73885976Y-81988242D01*
X73837313Y-81827823D01*
X73820883Y-81661000D01*
X73837313Y-81494177D01*
X73885976Y-81333758D01*
X73964995Y-81185924D01*
X73964996Y-81185922D01*
X74071341Y-81056341D01*
X74200922Y-80949996D01*
X74238192Y-80930075D01*
X74348758Y-80870976D01*
X74509177Y-80822313D01*
X74634196Y-80810000D01*
X74717804Y-80810000D01*
X74842823Y-80822313D01*
X74842823Y-80822313D01*
G37*
G36*
X105322823Y-80822313D02*
G01*
X105483242Y-80870976D01*
X105593808Y-80930075D01*
X105631078Y-80949996D01*
X105760659Y-81056341D01*
X105867004Y-81185922D01*
X105867005Y-81185924D01*
X105946024Y-81333758D01*
X105994687Y-81494177D01*
X106011117Y-81661000D01*
X105994687Y-81827823D01*
X105946024Y-81988242D01*
X105882690Y-82106731D01*
X105867004Y-82136078D01*
X105760659Y-82265659D01*
X105631078Y-82372004D01*
X105631076Y-82372005D01*
X105483242Y-82451024D01*
X105322823Y-82499687D01*
X105197804Y-82512000D01*
X105114196Y-82512000D01*
X104989177Y-82499687D01*
X104828758Y-82451024D01*
X104680924Y-82372005D01*
X104680922Y-82372004D01*
X104551341Y-82265659D01*
X104444996Y-82136078D01*
X104429310Y-82106731D01*
X104365976Y-81988242D01*
X104317313Y-81827823D01*
X104300883Y-81661000D01*
X104317313Y-81494177D01*
X104365976Y-81333758D01*
X104444995Y-81185924D01*
X104444996Y-81185922D01*
X104551341Y-81056341D01*
X104680922Y-80949996D01*
X104718192Y-80930075D01*
X104828758Y-80870976D01*
X104989177Y-80822313D01*
X105114196Y-80810000D01*
X105197804Y-80810000D01*
X105322823Y-80822313D01*
X105322823Y-80822313D01*
G37*
G36*
X102782823Y-80822313D02*
G01*
X102943242Y-80870976D01*
X103053808Y-80930075D01*
X103091078Y-80949996D01*
X103220659Y-81056341D01*
X103327004Y-81185922D01*
X103327005Y-81185924D01*
X103406024Y-81333758D01*
X103454687Y-81494177D01*
X103471117Y-81661000D01*
X103454687Y-81827823D01*
X103406024Y-81988242D01*
X103342690Y-82106731D01*
X103327004Y-82136078D01*
X103220659Y-82265659D01*
X103091078Y-82372004D01*
X103091076Y-82372005D01*
X102943242Y-82451024D01*
X102782823Y-82499687D01*
X102657804Y-82512000D01*
X102574196Y-82512000D01*
X102449177Y-82499687D01*
X102288758Y-82451024D01*
X102140924Y-82372005D01*
X102140922Y-82372004D01*
X102011341Y-82265659D01*
X101904996Y-82136078D01*
X101889310Y-82106731D01*
X101825976Y-81988242D01*
X101777313Y-81827823D01*
X101760883Y-81661000D01*
X101777313Y-81494177D01*
X101825976Y-81333758D01*
X101904995Y-81185924D01*
X101904996Y-81185922D01*
X102011341Y-81056341D01*
X102140922Y-80949996D01*
X102178192Y-80930075D01*
X102288758Y-80870976D01*
X102449177Y-80822313D01*
X102574196Y-80810000D01*
X102657804Y-80810000D01*
X102782823Y-80822313D01*
X102782823Y-80822313D01*
G37*
G36*
X100242823Y-80822313D02*
G01*
X100403242Y-80870976D01*
X100513808Y-80930075D01*
X100551078Y-80949996D01*
X100680659Y-81056341D01*
X100787004Y-81185922D01*
X100787005Y-81185924D01*
X100866024Y-81333758D01*
X100914687Y-81494177D01*
X100931117Y-81661000D01*
X100914687Y-81827823D01*
X100866024Y-81988242D01*
X100802690Y-82106731D01*
X100787004Y-82136078D01*
X100680659Y-82265659D01*
X100551078Y-82372004D01*
X100551076Y-82372005D01*
X100403242Y-82451024D01*
X100242823Y-82499687D01*
X100117804Y-82512000D01*
X100034196Y-82512000D01*
X99909177Y-82499687D01*
X99748758Y-82451024D01*
X99600924Y-82372005D01*
X99600922Y-82372004D01*
X99471341Y-82265659D01*
X99364996Y-82136078D01*
X99349310Y-82106731D01*
X99285976Y-81988242D01*
X99237313Y-81827823D01*
X99220883Y-81661000D01*
X99237313Y-81494177D01*
X99285976Y-81333758D01*
X99364995Y-81185924D01*
X99364996Y-81185922D01*
X99471341Y-81056341D01*
X99600922Y-80949996D01*
X99638192Y-80930075D01*
X99748758Y-80870976D01*
X99909177Y-80822313D01*
X100034196Y-80810000D01*
X100117804Y-80810000D01*
X100242823Y-80822313D01*
X100242823Y-80822313D01*
G37*
G36*
X92622823Y-80822313D02*
G01*
X92783242Y-80870976D01*
X92893808Y-80930075D01*
X92931078Y-80949996D01*
X93060659Y-81056341D01*
X93167004Y-81185922D01*
X93167005Y-81185924D01*
X93246024Y-81333758D01*
X93294687Y-81494177D01*
X93311117Y-81661000D01*
X93294687Y-81827823D01*
X93246024Y-81988242D01*
X93182690Y-82106731D01*
X93167004Y-82136078D01*
X93060659Y-82265659D01*
X92931078Y-82372004D01*
X92931076Y-82372005D01*
X92783242Y-82451024D01*
X92622823Y-82499687D01*
X92497804Y-82512000D01*
X92414196Y-82512000D01*
X92289177Y-82499687D01*
X92128758Y-82451024D01*
X91980924Y-82372005D01*
X91980922Y-82372004D01*
X91851341Y-82265659D01*
X91744996Y-82136078D01*
X91729310Y-82106731D01*
X91665976Y-81988242D01*
X91617313Y-81827823D01*
X91600883Y-81661000D01*
X91617313Y-81494177D01*
X91665976Y-81333758D01*
X91744995Y-81185924D01*
X91744996Y-81185922D01*
X91851341Y-81056341D01*
X91980922Y-80949996D01*
X92018192Y-80930075D01*
X92128758Y-80870976D01*
X92289177Y-80822313D01*
X92414196Y-80810000D01*
X92497804Y-80810000D01*
X92622823Y-80822313D01*
X92622823Y-80822313D01*
G37*
G36*
X97702823Y-80822313D02*
G01*
X97863242Y-80870976D01*
X97973808Y-80930075D01*
X98011078Y-80949996D01*
X98140659Y-81056341D01*
X98247004Y-81185922D01*
X98247005Y-81185924D01*
X98326024Y-81333758D01*
X98374687Y-81494177D01*
X98391117Y-81661000D01*
X98374687Y-81827823D01*
X98326024Y-81988242D01*
X98262690Y-82106731D01*
X98247004Y-82136078D01*
X98140659Y-82265659D01*
X98011078Y-82372004D01*
X98011076Y-82372005D01*
X97863242Y-82451024D01*
X97702823Y-82499687D01*
X97577804Y-82512000D01*
X97494196Y-82512000D01*
X97369177Y-82499687D01*
X97208758Y-82451024D01*
X97060924Y-82372005D01*
X97060922Y-82372004D01*
X96931341Y-82265659D01*
X96824996Y-82136078D01*
X96809310Y-82106731D01*
X96745976Y-81988242D01*
X96697313Y-81827823D01*
X96680883Y-81661000D01*
X96697313Y-81494177D01*
X96745976Y-81333758D01*
X96824995Y-81185924D01*
X96824996Y-81185922D01*
X96931341Y-81056341D01*
X97060922Y-80949996D01*
X97098192Y-80930075D01*
X97208758Y-80870976D01*
X97369177Y-80822313D01*
X97494196Y-80810000D01*
X97577804Y-80810000D01*
X97702823Y-80822313D01*
X97702823Y-80822313D01*
G37*
G36*
X95162823Y-80822313D02*
G01*
X95323242Y-80870976D01*
X95433808Y-80930075D01*
X95471078Y-80949996D01*
X95600659Y-81056341D01*
X95707004Y-81185922D01*
X95707005Y-81185924D01*
X95786024Y-81333758D01*
X95834687Y-81494177D01*
X95851117Y-81661000D01*
X95834687Y-81827823D01*
X95786024Y-81988242D01*
X95722690Y-82106731D01*
X95707004Y-82136078D01*
X95600659Y-82265659D01*
X95471078Y-82372004D01*
X95471076Y-82372005D01*
X95323242Y-82451024D01*
X95162823Y-82499687D01*
X95037804Y-82512000D01*
X94954196Y-82512000D01*
X94829177Y-82499687D01*
X94668758Y-82451024D01*
X94520924Y-82372005D01*
X94520922Y-82372004D01*
X94391341Y-82265659D01*
X94284996Y-82136078D01*
X94269310Y-82106731D01*
X94205976Y-81988242D01*
X94157313Y-81827823D01*
X94140883Y-81661000D01*
X94157313Y-81494177D01*
X94205976Y-81333758D01*
X94284995Y-81185924D01*
X94284996Y-81185922D01*
X94391341Y-81056341D01*
X94520922Y-80949996D01*
X94558192Y-80930075D01*
X94668758Y-80870976D01*
X94829177Y-80822313D01*
X94954196Y-80810000D01*
X95037804Y-80810000D01*
X95162823Y-80822313D01*
X95162823Y-80822313D01*
G37*
G36*
X107862823Y-80822313D02*
G01*
X108023242Y-80870976D01*
X108133808Y-80930075D01*
X108171078Y-80949996D01*
X108300659Y-81056341D01*
X108407004Y-81185922D01*
X108407005Y-81185924D01*
X108486024Y-81333758D01*
X108534687Y-81494177D01*
X108551117Y-81661000D01*
X108534687Y-81827823D01*
X108486024Y-81988242D01*
X108422690Y-82106731D01*
X108407004Y-82136078D01*
X108300659Y-82265659D01*
X108171078Y-82372004D01*
X108171076Y-82372005D01*
X108023242Y-82451024D01*
X107862823Y-82499687D01*
X107737804Y-82512000D01*
X107654196Y-82512000D01*
X107529177Y-82499687D01*
X107368758Y-82451024D01*
X107220924Y-82372005D01*
X107220922Y-82372004D01*
X107091341Y-82265659D01*
X106984996Y-82136078D01*
X106969310Y-82106731D01*
X106905976Y-81988242D01*
X106857313Y-81827823D01*
X106840883Y-81661000D01*
X106857313Y-81494177D01*
X106905976Y-81333758D01*
X106984995Y-81185924D01*
X106984996Y-81185922D01*
X107091341Y-81056341D01*
X107220922Y-80949996D01*
X107258192Y-80930075D01*
X107368758Y-80870976D01*
X107529177Y-80822313D01*
X107654196Y-80810000D01*
X107737804Y-80810000D01*
X107862823Y-80822313D01*
X107862823Y-80822313D01*
G37*
G36*
X139673642Y-76688242D02*
G01*
X139821601Y-76749529D01*
X139954755Y-76838499D01*
X140068001Y-76951745D01*
X140156971Y-77084899D01*
X140218258Y-77232858D01*
X140249500Y-77389925D01*
X140249500Y-77550075D01*
X140218258Y-77707142D01*
X140156971Y-77855101D01*
X140068001Y-77988255D01*
X139954755Y-78101501D01*
X139821601Y-78190471D01*
X139673642Y-78251758D01*
X139516575Y-78283000D01*
X139356425Y-78283000D01*
X139199358Y-78251758D01*
X139051399Y-78190471D01*
X138918245Y-78101501D01*
X138804999Y-77988255D01*
X138716029Y-77855101D01*
X138654742Y-77707142D01*
X138623500Y-77550075D01*
X138623500Y-77389925D01*
X138654742Y-77232858D01*
X138716029Y-77084899D01*
X138804999Y-76951745D01*
X138918245Y-76838499D01*
X139051399Y-76749529D01*
X139199358Y-76688242D01*
X139356425Y-76657000D01*
X139516575Y-76657000D01*
X139673642Y-76688242D01*
X139673642Y-76688242D01*
G37*
G36*
X113150080Y-75404081D02*
G01*
X113240980Y-75422162D01*
X113303978Y-75448257D01*
X113412232Y-75493097D01*
X113566350Y-75596075D01*
X113697425Y-75727150D01*
X113800403Y-75881268D01*
X113800403Y-75881269D01*
X113871338Y-76052520D01*
X113907500Y-76234320D01*
X113907500Y-76419680D01*
X113871338Y-76601480D01*
X113835400Y-76688242D01*
X113800403Y-76772732D01*
X113697425Y-76926850D01*
X113566350Y-77057925D01*
X113412232Y-77160903D01*
X113355147Y-77184548D01*
X113240980Y-77231838D01*
X113150080Y-77249919D01*
X113059182Y-77268000D01*
X112873818Y-77268000D01*
X112782920Y-77249919D01*
X112692020Y-77231838D01*
X112577853Y-77184548D01*
X112520768Y-77160903D01*
X112366650Y-77057925D01*
X112235575Y-76926850D01*
X112132597Y-76772732D01*
X112097600Y-76688242D01*
X112061662Y-76601480D01*
X112025500Y-76419680D01*
X112025500Y-76234320D01*
X112061662Y-76052520D01*
X112132597Y-75881269D01*
X112132597Y-75881268D01*
X112235575Y-75727150D01*
X112366650Y-75596075D01*
X112520768Y-75493097D01*
X112629022Y-75448257D01*
X112692020Y-75422162D01*
X112782920Y-75404081D01*
X112873818Y-75386000D01*
X113059182Y-75386000D01*
X113150080Y-75404081D01*
X113150080Y-75404081D01*
G37*
G36*
X72510080Y-75404081D02*
G01*
X72600980Y-75422162D01*
X72663978Y-75448257D01*
X72772232Y-75493097D01*
X72926350Y-75596075D01*
X73057425Y-75727150D01*
X73160403Y-75881268D01*
X73160403Y-75881269D01*
X73231338Y-76052520D01*
X73267500Y-76234320D01*
X73267500Y-76419680D01*
X73231338Y-76601480D01*
X73195400Y-76688242D01*
X73160403Y-76772732D01*
X73057425Y-76926850D01*
X72926350Y-77057925D01*
X72772232Y-77160903D01*
X72715147Y-77184548D01*
X72600980Y-77231838D01*
X72510080Y-77249919D01*
X72419182Y-77268000D01*
X72233818Y-77268000D01*
X72142920Y-77249919D01*
X72052020Y-77231838D01*
X71937853Y-77184548D01*
X71880768Y-77160903D01*
X71726650Y-77057925D01*
X71595575Y-76926850D01*
X71492597Y-76772732D01*
X71457600Y-76688242D01*
X71421662Y-76601480D01*
X71385500Y-76419680D01*
X71385500Y-76234320D01*
X71421662Y-76052520D01*
X71492597Y-75881269D01*
X71492597Y-75881268D01*
X71595575Y-75727150D01*
X71726650Y-75596075D01*
X71880768Y-75493097D01*
X71989022Y-75448257D01*
X72052020Y-75422162D01*
X72142920Y-75404081D01*
X72233818Y-75386000D01*
X72419182Y-75386000D01*
X72510080Y-75404081D01*
X72510080Y-75404081D01*
G37*
G36*
X110593323Y-75488313D02*
G01*
X110753742Y-75536976D01*
X110864308Y-75596075D01*
X110901578Y-75615996D01*
X111031159Y-75722341D01*
X111137504Y-75851922D01*
X111137505Y-75851924D01*
X111216524Y-75999758D01*
X111265187Y-76160177D01*
X111281617Y-76327000D01*
X111265187Y-76493823D01*
X111216524Y-76654242D01*
X111198350Y-76688243D01*
X111137504Y-76802078D01*
X111031159Y-76931659D01*
X110901578Y-77038004D01*
X110901576Y-77038005D01*
X110753742Y-77117024D01*
X110593323Y-77165687D01*
X110468304Y-77178000D01*
X110384696Y-77178000D01*
X110259677Y-77165687D01*
X110099258Y-77117024D01*
X109951424Y-77038005D01*
X109951422Y-77038004D01*
X109821841Y-76931659D01*
X109715496Y-76802078D01*
X109654650Y-76688243D01*
X109636476Y-76654242D01*
X109587813Y-76493823D01*
X109571383Y-76327000D01*
X109587813Y-76160177D01*
X109636476Y-75999758D01*
X109715495Y-75851924D01*
X109715496Y-75851922D01*
X109821841Y-75722341D01*
X109951422Y-75615996D01*
X109988692Y-75596075D01*
X110099258Y-75536976D01*
X110259677Y-75488313D01*
X110384696Y-75476000D01*
X110468304Y-75476000D01*
X110593323Y-75488313D01*
X110593323Y-75488313D01*
G37*
G36*
X95353323Y-75488313D02*
G01*
X95513742Y-75536976D01*
X95624308Y-75596075D01*
X95661578Y-75615996D01*
X95791159Y-75722341D01*
X95897504Y-75851922D01*
X95897505Y-75851924D01*
X95976524Y-75999758D01*
X96025187Y-76160177D01*
X96041617Y-76327000D01*
X96025187Y-76493823D01*
X95976524Y-76654242D01*
X95958350Y-76688243D01*
X95897504Y-76802078D01*
X95791159Y-76931659D01*
X95661578Y-77038004D01*
X95661576Y-77038005D01*
X95513742Y-77117024D01*
X95353323Y-77165687D01*
X95228304Y-77178000D01*
X95144696Y-77178000D01*
X95019677Y-77165687D01*
X94859258Y-77117024D01*
X94711424Y-77038005D01*
X94711422Y-77038004D01*
X94581841Y-76931659D01*
X94475496Y-76802078D01*
X94414650Y-76688243D01*
X94396476Y-76654242D01*
X94347813Y-76493823D01*
X94331383Y-76327000D01*
X94347813Y-76160177D01*
X94396476Y-75999758D01*
X94475495Y-75851924D01*
X94475496Y-75851922D01*
X94581841Y-75722341D01*
X94711422Y-75615996D01*
X94748692Y-75596075D01*
X94859258Y-75536976D01*
X95019677Y-75488313D01*
X95144696Y-75476000D01*
X95228304Y-75476000D01*
X95353323Y-75488313D01*
X95353323Y-75488313D01*
G37*
G36*
X108053323Y-75488313D02*
G01*
X108213742Y-75536976D01*
X108324308Y-75596075D01*
X108361578Y-75615996D01*
X108491159Y-75722341D01*
X108597504Y-75851922D01*
X108597505Y-75851924D01*
X108676524Y-75999758D01*
X108725187Y-76160177D01*
X108741617Y-76327000D01*
X108725187Y-76493823D01*
X108676524Y-76654242D01*
X108658350Y-76688243D01*
X108597504Y-76802078D01*
X108491159Y-76931659D01*
X108361578Y-77038004D01*
X108361576Y-77038005D01*
X108213742Y-77117024D01*
X108053323Y-77165687D01*
X107928304Y-77178000D01*
X107844696Y-77178000D01*
X107719677Y-77165687D01*
X107559258Y-77117024D01*
X107411424Y-77038005D01*
X107411422Y-77038004D01*
X107281841Y-76931659D01*
X107175496Y-76802078D01*
X107114650Y-76688243D01*
X107096476Y-76654242D01*
X107047813Y-76493823D01*
X107031383Y-76327000D01*
X107047813Y-76160177D01*
X107096476Y-75999758D01*
X107175495Y-75851924D01*
X107175496Y-75851922D01*
X107281841Y-75722341D01*
X107411422Y-75615996D01*
X107448692Y-75596075D01*
X107559258Y-75536976D01*
X107719677Y-75488313D01*
X107844696Y-75476000D01*
X107928304Y-75476000D01*
X108053323Y-75488313D01*
X108053323Y-75488313D01*
G37*
G36*
X105513323Y-75488313D02*
G01*
X105673742Y-75536976D01*
X105784308Y-75596075D01*
X105821578Y-75615996D01*
X105951159Y-75722341D01*
X106057504Y-75851922D01*
X106057505Y-75851924D01*
X106136524Y-75999758D01*
X106185187Y-76160177D01*
X106201617Y-76327000D01*
X106185187Y-76493823D01*
X106136524Y-76654242D01*
X106118350Y-76688243D01*
X106057504Y-76802078D01*
X105951159Y-76931659D01*
X105821578Y-77038004D01*
X105821576Y-77038005D01*
X105673742Y-77117024D01*
X105513323Y-77165687D01*
X105388304Y-77178000D01*
X105304696Y-77178000D01*
X105179677Y-77165687D01*
X105019258Y-77117024D01*
X104871424Y-77038005D01*
X104871422Y-77038004D01*
X104741841Y-76931659D01*
X104635496Y-76802078D01*
X104574650Y-76688243D01*
X104556476Y-76654242D01*
X104507813Y-76493823D01*
X104491383Y-76327000D01*
X104507813Y-76160177D01*
X104556476Y-75999758D01*
X104635495Y-75851924D01*
X104635496Y-75851922D01*
X104741841Y-75722341D01*
X104871422Y-75615996D01*
X104908692Y-75596075D01*
X105019258Y-75536976D01*
X105179677Y-75488313D01*
X105304696Y-75476000D01*
X105388304Y-75476000D01*
X105513323Y-75488313D01*
X105513323Y-75488313D01*
G37*
G36*
X100433323Y-75488313D02*
G01*
X100593742Y-75536976D01*
X100704308Y-75596075D01*
X100741578Y-75615996D01*
X100871159Y-75722341D01*
X100977504Y-75851922D01*
X100977505Y-75851924D01*
X101056524Y-75999758D01*
X101105187Y-76160177D01*
X101121617Y-76327000D01*
X101105187Y-76493823D01*
X101056524Y-76654242D01*
X101038350Y-76688243D01*
X100977504Y-76802078D01*
X100871159Y-76931659D01*
X100741578Y-77038004D01*
X100741576Y-77038005D01*
X100593742Y-77117024D01*
X100433323Y-77165687D01*
X100308304Y-77178000D01*
X100224696Y-77178000D01*
X100099677Y-77165687D01*
X99939258Y-77117024D01*
X99791424Y-77038005D01*
X99791422Y-77038004D01*
X99661841Y-76931659D01*
X99555496Y-76802078D01*
X99494650Y-76688243D01*
X99476476Y-76654242D01*
X99427813Y-76493823D01*
X99411383Y-76327000D01*
X99427813Y-76160177D01*
X99476476Y-75999758D01*
X99555495Y-75851924D01*
X99555496Y-75851922D01*
X99661841Y-75722341D01*
X99791422Y-75615996D01*
X99828692Y-75596075D01*
X99939258Y-75536976D01*
X100099677Y-75488313D01*
X100224696Y-75476000D01*
X100308304Y-75476000D01*
X100433323Y-75488313D01*
X100433323Y-75488313D01*
G37*
G36*
X102973323Y-75488313D02*
G01*
X103133742Y-75536976D01*
X103244308Y-75596075D01*
X103281578Y-75615996D01*
X103411159Y-75722341D01*
X103517504Y-75851922D01*
X103517505Y-75851924D01*
X103596524Y-75999758D01*
X103645187Y-76160177D01*
X103661617Y-76327000D01*
X103645187Y-76493823D01*
X103596524Y-76654242D01*
X103578350Y-76688243D01*
X103517504Y-76802078D01*
X103411159Y-76931659D01*
X103281578Y-77038004D01*
X103281576Y-77038005D01*
X103133742Y-77117024D01*
X102973323Y-77165687D01*
X102848304Y-77178000D01*
X102764696Y-77178000D01*
X102639677Y-77165687D01*
X102479258Y-77117024D01*
X102331424Y-77038005D01*
X102331422Y-77038004D01*
X102201841Y-76931659D01*
X102095496Y-76802078D01*
X102034650Y-76688243D01*
X102016476Y-76654242D01*
X101967813Y-76493823D01*
X101951383Y-76327000D01*
X101967813Y-76160177D01*
X102016476Y-75999758D01*
X102095495Y-75851924D01*
X102095496Y-75851922D01*
X102201841Y-75722341D01*
X102331422Y-75615996D01*
X102368692Y-75596075D01*
X102479258Y-75536976D01*
X102639677Y-75488313D01*
X102764696Y-75476000D01*
X102848304Y-75476000D01*
X102973323Y-75488313D01*
X102973323Y-75488313D01*
G37*
G36*
X82653323Y-75488313D02*
G01*
X82813742Y-75536976D01*
X82924308Y-75596075D01*
X82961578Y-75615996D01*
X83091159Y-75722341D01*
X83197504Y-75851922D01*
X83197505Y-75851924D01*
X83276524Y-75999758D01*
X83325187Y-76160177D01*
X83341617Y-76327000D01*
X83325187Y-76493823D01*
X83276524Y-76654242D01*
X83258350Y-76688243D01*
X83197504Y-76802078D01*
X83091159Y-76931659D01*
X82961578Y-77038004D01*
X82961576Y-77038005D01*
X82813742Y-77117024D01*
X82653323Y-77165687D01*
X82528304Y-77178000D01*
X82444696Y-77178000D01*
X82319677Y-77165687D01*
X82159258Y-77117024D01*
X82011424Y-77038005D01*
X82011422Y-77038004D01*
X81881841Y-76931659D01*
X81775496Y-76802078D01*
X81714650Y-76688243D01*
X81696476Y-76654242D01*
X81647813Y-76493823D01*
X81631383Y-76327000D01*
X81647813Y-76160177D01*
X81696476Y-75999758D01*
X81775495Y-75851924D01*
X81775496Y-75851922D01*
X81881841Y-75722341D01*
X82011422Y-75615996D01*
X82048692Y-75596075D01*
X82159258Y-75536976D01*
X82319677Y-75488313D01*
X82444696Y-75476000D01*
X82528304Y-75476000D01*
X82653323Y-75488313D01*
X82653323Y-75488313D01*
G37*
G36*
X75033323Y-75488313D02*
G01*
X75193742Y-75536976D01*
X75304308Y-75596075D01*
X75341578Y-75615996D01*
X75471159Y-75722341D01*
X75577504Y-75851922D01*
X75577505Y-75851924D01*
X75656524Y-75999758D01*
X75705187Y-76160177D01*
X75721617Y-76327000D01*
X75705187Y-76493823D01*
X75656524Y-76654242D01*
X75638350Y-76688243D01*
X75577504Y-76802078D01*
X75471159Y-76931659D01*
X75341578Y-77038004D01*
X75341576Y-77038005D01*
X75193742Y-77117024D01*
X75033323Y-77165687D01*
X74908304Y-77178000D01*
X74824696Y-77178000D01*
X74699677Y-77165687D01*
X74539258Y-77117024D01*
X74391424Y-77038005D01*
X74391422Y-77038004D01*
X74261841Y-76931659D01*
X74155496Y-76802078D01*
X74094650Y-76688243D01*
X74076476Y-76654242D01*
X74027813Y-76493823D01*
X74011383Y-76327000D01*
X74027813Y-76160177D01*
X74076476Y-75999758D01*
X74155495Y-75851924D01*
X74155496Y-75851922D01*
X74261841Y-75722341D01*
X74391422Y-75615996D01*
X74428692Y-75596075D01*
X74539258Y-75536976D01*
X74699677Y-75488313D01*
X74824696Y-75476000D01*
X74908304Y-75476000D01*
X75033323Y-75488313D01*
X75033323Y-75488313D01*
G37*
G36*
X80113323Y-75488313D02*
G01*
X80273742Y-75536976D01*
X80384308Y-75596075D01*
X80421578Y-75615996D01*
X80551159Y-75722341D01*
X80657504Y-75851922D01*
X80657505Y-75851924D01*
X80736524Y-75999758D01*
X80785187Y-76160177D01*
X80801617Y-76327000D01*
X80785187Y-76493823D01*
X80736524Y-76654242D01*
X80718350Y-76688243D01*
X80657504Y-76802078D01*
X80551159Y-76931659D01*
X80421578Y-77038004D01*
X80421576Y-77038005D01*
X80273742Y-77117024D01*
X80113323Y-77165687D01*
X79988304Y-77178000D01*
X79904696Y-77178000D01*
X79779677Y-77165687D01*
X79619258Y-77117024D01*
X79471424Y-77038005D01*
X79471422Y-77038004D01*
X79341841Y-76931659D01*
X79235496Y-76802078D01*
X79174650Y-76688243D01*
X79156476Y-76654242D01*
X79107813Y-76493823D01*
X79091383Y-76327000D01*
X79107813Y-76160177D01*
X79156476Y-75999758D01*
X79235495Y-75851924D01*
X79235496Y-75851922D01*
X79341841Y-75722341D01*
X79471422Y-75615996D01*
X79508692Y-75596075D01*
X79619258Y-75536976D01*
X79779677Y-75488313D01*
X79904696Y-75476000D01*
X79988304Y-75476000D01*
X80113323Y-75488313D01*
X80113323Y-75488313D01*
G37*
G36*
X77573323Y-75488313D02*
G01*
X77733742Y-75536976D01*
X77844308Y-75596075D01*
X77881578Y-75615996D01*
X78011159Y-75722341D01*
X78117504Y-75851922D01*
X78117505Y-75851924D01*
X78196524Y-75999758D01*
X78245187Y-76160177D01*
X78261617Y-76327000D01*
X78245187Y-76493823D01*
X78196524Y-76654242D01*
X78178350Y-76688243D01*
X78117504Y-76802078D01*
X78011159Y-76931659D01*
X77881578Y-77038004D01*
X77881576Y-77038005D01*
X77733742Y-77117024D01*
X77573323Y-77165687D01*
X77448304Y-77178000D01*
X77364696Y-77178000D01*
X77239677Y-77165687D01*
X77079258Y-77117024D01*
X76931424Y-77038005D01*
X76931422Y-77038004D01*
X76801841Y-76931659D01*
X76695496Y-76802078D01*
X76634650Y-76688243D01*
X76616476Y-76654242D01*
X76567813Y-76493823D01*
X76551383Y-76327000D01*
X76567813Y-76160177D01*
X76616476Y-75999758D01*
X76695495Y-75851924D01*
X76695496Y-75851922D01*
X76801841Y-75722341D01*
X76931422Y-75615996D01*
X76968692Y-75596075D01*
X77079258Y-75536976D01*
X77239677Y-75488313D01*
X77364696Y-75476000D01*
X77448304Y-75476000D01*
X77573323Y-75488313D01*
X77573323Y-75488313D01*
G37*
G36*
X85193323Y-75488313D02*
G01*
X85353742Y-75536976D01*
X85464308Y-75596075D01*
X85501578Y-75615996D01*
X85631159Y-75722341D01*
X85737504Y-75851922D01*
X85737505Y-75851924D01*
X85816524Y-75999758D01*
X85865187Y-76160177D01*
X85881617Y-76327000D01*
X85865187Y-76493823D01*
X85816524Y-76654242D01*
X85798350Y-76688243D01*
X85737504Y-76802078D01*
X85631159Y-76931659D01*
X85501578Y-77038004D01*
X85501576Y-77038005D01*
X85353742Y-77117024D01*
X85193323Y-77165687D01*
X85068304Y-77178000D01*
X84984696Y-77178000D01*
X84859677Y-77165687D01*
X84699258Y-77117024D01*
X84551424Y-77038005D01*
X84551422Y-77038004D01*
X84421841Y-76931659D01*
X84315496Y-76802078D01*
X84254650Y-76688243D01*
X84236476Y-76654242D01*
X84187813Y-76493823D01*
X84171383Y-76327000D01*
X84187813Y-76160177D01*
X84236476Y-75999758D01*
X84315495Y-75851924D01*
X84315496Y-75851922D01*
X84421841Y-75722341D01*
X84551422Y-75615996D01*
X84588692Y-75596075D01*
X84699258Y-75536976D01*
X84859677Y-75488313D01*
X84984696Y-75476000D01*
X85068304Y-75476000D01*
X85193323Y-75488313D01*
X85193323Y-75488313D01*
G37*
G36*
X87733323Y-75488313D02*
G01*
X87893742Y-75536976D01*
X88004308Y-75596075D01*
X88041578Y-75615996D01*
X88171159Y-75722341D01*
X88277504Y-75851922D01*
X88277505Y-75851924D01*
X88356524Y-75999758D01*
X88405187Y-76160177D01*
X88421617Y-76327000D01*
X88405187Y-76493823D01*
X88356524Y-76654242D01*
X88338350Y-76688243D01*
X88277504Y-76802078D01*
X88171159Y-76931659D01*
X88041578Y-77038004D01*
X88041576Y-77038005D01*
X87893742Y-77117024D01*
X87733323Y-77165687D01*
X87608304Y-77178000D01*
X87524696Y-77178000D01*
X87399677Y-77165687D01*
X87239258Y-77117024D01*
X87091424Y-77038005D01*
X87091422Y-77038004D01*
X86961841Y-76931659D01*
X86855496Y-76802078D01*
X86794650Y-76688243D01*
X86776476Y-76654242D01*
X86727813Y-76493823D01*
X86711383Y-76327000D01*
X86727813Y-76160177D01*
X86776476Y-75999758D01*
X86855495Y-75851924D01*
X86855496Y-75851922D01*
X86961841Y-75722341D01*
X87091422Y-75615996D01*
X87128692Y-75596075D01*
X87239258Y-75536976D01*
X87399677Y-75488313D01*
X87524696Y-75476000D01*
X87608304Y-75476000D01*
X87733323Y-75488313D01*
X87733323Y-75488313D01*
G37*
G36*
X90273323Y-75488313D02*
G01*
X90433742Y-75536976D01*
X90544308Y-75596075D01*
X90581578Y-75615996D01*
X90711159Y-75722341D01*
X90817504Y-75851922D01*
X90817505Y-75851924D01*
X90896524Y-75999758D01*
X90945187Y-76160177D01*
X90961617Y-76327000D01*
X90945187Y-76493823D01*
X90896524Y-76654242D01*
X90878350Y-76688243D01*
X90817504Y-76802078D01*
X90711159Y-76931659D01*
X90581578Y-77038004D01*
X90581576Y-77038005D01*
X90433742Y-77117024D01*
X90273323Y-77165687D01*
X90148304Y-77178000D01*
X90064696Y-77178000D01*
X89939677Y-77165687D01*
X89779258Y-77117024D01*
X89631424Y-77038005D01*
X89631422Y-77038004D01*
X89501841Y-76931659D01*
X89395496Y-76802078D01*
X89334650Y-76688243D01*
X89316476Y-76654242D01*
X89267813Y-76493823D01*
X89251383Y-76327000D01*
X89267813Y-76160177D01*
X89316476Y-75999758D01*
X89395495Y-75851924D01*
X89395496Y-75851922D01*
X89501841Y-75722341D01*
X89631422Y-75615996D01*
X89668692Y-75596075D01*
X89779258Y-75536976D01*
X89939677Y-75488313D01*
X90064696Y-75476000D01*
X90148304Y-75476000D01*
X90273323Y-75488313D01*
X90273323Y-75488313D01*
G37*
G36*
X92813323Y-75488313D02*
G01*
X92973742Y-75536976D01*
X93084308Y-75596075D01*
X93121578Y-75615996D01*
X93251159Y-75722341D01*
X93357504Y-75851922D01*
X93357505Y-75851924D01*
X93436524Y-75999758D01*
X93485187Y-76160177D01*
X93501617Y-76327000D01*
X93485187Y-76493823D01*
X93436524Y-76654242D01*
X93418350Y-76688243D01*
X93357504Y-76802078D01*
X93251159Y-76931659D01*
X93121578Y-77038004D01*
X93121576Y-77038005D01*
X92973742Y-77117024D01*
X92813323Y-77165687D01*
X92688304Y-77178000D01*
X92604696Y-77178000D01*
X92479677Y-77165687D01*
X92319258Y-77117024D01*
X92171424Y-77038005D01*
X92171422Y-77038004D01*
X92041841Y-76931659D01*
X91935496Y-76802078D01*
X91874650Y-76688243D01*
X91856476Y-76654242D01*
X91807813Y-76493823D01*
X91791383Y-76327000D01*
X91807813Y-76160177D01*
X91856476Y-75999758D01*
X91935495Y-75851924D01*
X91935496Y-75851922D01*
X92041841Y-75722341D01*
X92171422Y-75615996D01*
X92208692Y-75596075D01*
X92319258Y-75536976D01*
X92479677Y-75488313D01*
X92604696Y-75476000D01*
X92688304Y-75476000D01*
X92813323Y-75488313D01*
X92813323Y-75488313D01*
G37*
G36*
X97893323Y-75488313D02*
G01*
X98053742Y-75536976D01*
X98164308Y-75596075D01*
X98201578Y-75615996D01*
X98331159Y-75722341D01*
X98437504Y-75851922D01*
X98437505Y-75851924D01*
X98516524Y-75999758D01*
X98565187Y-76160177D01*
X98581617Y-76327000D01*
X98565187Y-76493823D01*
X98516524Y-76654242D01*
X98498350Y-76688243D01*
X98437504Y-76802078D01*
X98331159Y-76931659D01*
X98201578Y-77038004D01*
X98201576Y-77038005D01*
X98053742Y-77117024D01*
X97893323Y-77165687D01*
X97768304Y-77178000D01*
X97684696Y-77178000D01*
X97559677Y-77165687D01*
X97399258Y-77117024D01*
X97251424Y-77038005D01*
X97251422Y-77038004D01*
X97121841Y-76931659D01*
X97015496Y-76802078D01*
X96954650Y-76688243D01*
X96936476Y-76654242D01*
X96887813Y-76493823D01*
X96871383Y-76327000D01*
X96887813Y-76160177D01*
X96936476Y-75999758D01*
X97015495Y-75851924D01*
X97015496Y-75851922D01*
X97121841Y-75722341D01*
X97251422Y-75615996D01*
X97288692Y-75596075D01*
X97399258Y-75536976D01*
X97559677Y-75488313D01*
X97684696Y-75476000D01*
X97768304Y-75476000D01*
X97893323Y-75488313D01*
X97893323Y-75488313D01*
G37*
G36*
X139673642Y-74148242D02*
G01*
X139821601Y-74209529D01*
X139954755Y-74298499D01*
X140068001Y-74411745D01*
X140156971Y-74544899D01*
X140218258Y-74692858D01*
X140249500Y-74849925D01*
X140249500Y-75010075D01*
X140218258Y-75167142D01*
X140156971Y-75315101D01*
X140068001Y-75448255D01*
X139954755Y-75561501D01*
X139821601Y-75650471D01*
X139673642Y-75711758D01*
X139516575Y-75743000D01*
X139356425Y-75743000D01*
X139199358Y-75711758D01*
X139051399Y-75650471D01*
X138918245Y-75561501D01*
X138804999Y-75448255D01*
X138716029Y-75315101D01*
X138654742Y-75167142D01*
X138623500Y-75010075D01*
X138623500Y-74849925D01*
X138654742Y-74692858D01*
X138716029Y-74544899D01*
X138804999Y-74411745D01*
X138918245Y-74298499D01*
X139051399Y-74209529D01*
X139199358Y-74148242D01*
X139356425Y-74117000D01*
X139516575Y-74117000D01*
X139673642Y-74148242D01*
X139673642Y-74148242D01*
G37*
G36*
X128010228Y-72809703D02*
G01*
X128165100Y-72873853D01*
X128304481Y-72966985D01*
X128423015Y-73085519D01*
X128516147Y-73224900D01*
X128580297Y-73379772D01*
X128613000Y-73544184D01*
X128613000Y-73711816D01*
X128580297Y-73876228D01*
X128516147Y-74031100D01*
X128423015Y-74170481D01*
X128304481Y-74289015D01*
X128165100Y-74382147D01*
X128010228Y-74446297D01*
X127845816Y-74479000D01*
X127678184Y-74479000D01*
X127513772Y-74446297D01*
X127358900Y-74382147D01*
X127219519Y-74289015D01*
X127100985Y-74170481D01*
X127007853Y-74031100D01*
X126943703Y-73876228D01*
X126911000Y-73711816D01*
X126911000Y-73544184D01*
X126943703Y-73379772D01*
X127007853Y-73224900D01*
X127100985Y-73085519D01*
X127219519Y-72966985D01*
X127358900Y-72873853D01*
X127513772Y-72809703D01*
X127678184Y-72777000D01*
X127845816Y-72777000D01*
X128010228Y-72809703D01*
X128010228Y-72809703D01*
G37*
G36*
X139673642Y-71608242D02*
G01*
X139821601Y-71669529D01*
X139954755Y-71758499D01*
X140068001Y-71871745D01*
X140156971Y-72004899D01*
X140218258Y-72152858D01*
X140249500Y-72309925D01*
X140249500Y-72470075D01*
X140218258Y-72627142D01*
X140156971Y-72775101D01*
X140068001Y-72908255D01*
X139954755Y-73021501D01*
X139821601Y-73110471D01*
X139673642Y-73171758D01*
X139516575Y-73203000D01*
X139356425Y-73203000D01*
X139199358Y-73171758D01*
X139051399Y-73110471D01*
X138918245Y-73021501D01*
X138804999Y-72908255D01*
X138716029Y-72775101D01*
X138654742Y-72627142D01*
X138623500Y-72470075D01*
X138623500Y-72309925D01*
X138654742Y-72152858D01*
X138716029Y-72004899D01*
X138804999Y-71871745D01*
X138918245Y-71758499D01*
X139051399Y-71669529D01*
X139199358Y-71608242D01*
X139356425Y-71577000D01*
X139516575Y-71577000D01*
X139673642Y-71608242D01*
X139673642Y-71608242D01*
G37*
G36*
X128010228Y-70809703D02*
G01*
X128165100Y-70873853D01*
X128304481Y-70966985D01*
X128423015Y-71085519D01*
X128516147Y-71224900D01*
X128580297Y-71379772D01*
X128613000Y-71544184D01*
X128613000Y-71711816D01*
X128580297Y-71876228D01*
X128516147Y-72031100D01*
X128423015Y-72170481D01*
X128304481Y-72289015D01*
X128165100Y-72382147D01*
X128010228Y-72446297D01*
X127845816Y-72479000D01*
X127678184Y-72479000D01*
X127513772Y-72446297D01*
X127358900Y-72382147D01*
X127219519Y-72289015D01*
X127100985Y-72170481D01*
X127007853Y-72031100D01*
X126943703Y-71876228D01*
X126911000Y-71711816D01*
X126911000Y-71544184D01*
X126943703Y-71379772D01*
X127007853Y-71224900D01*
X127100985Y-71085519D01*
X127219519Y-70966985D01*
X127358900Y-70873853D01*
X127513772Y-70809703D01*
X127678184Y-70777000D01*
X127845816Y-70777000D01*
X128010228Y-70809703D01*
X128010228Y-70809703D01*
G37*
G36*
X139673642Y-69068242D02*
G01*
X139821601Y-69129529D01*
X139954755Y-69218499D01*
X140068001Y-69331745D01*
X140156971Y-69464899D01*
X140218258Y-69612858D01*
X140249500Y-69769925D01*
X140249500Y-69930075D01*
X140218258Y-70087142D01*
X140156971Y-70235101D01*
X140068001Y-70368255D01*
X139954755Y-70481501D01*
X139821601Y-70570471D01*
X139673642Y-70631758D01*
X139516575Y-70663000D01*
X139356425Y-70663000D01*
X139199358Y-70631758D01*
X139051399Y-70570471D01*
X138918245Y-70481501D01*
X138804999Y-70368255D01*
X138716029Y-70235101D01*
X138654742Y-70087142D01*
X138623500Y-69930075D01*
X138623500Y-69769925D01*
X138654742Y-69612858D01*
X138716029Y-69464899D01*
X138804999Y-69331745D01*
X138918245Y-69218499D01*
X139051399Y-69129529D01*
X139199358Y-69068242D01*
X139356425Y-69037000D01*
X139516575Y-69037000D01*
X139673642Y-69068242D01*
X139673642Y-69068242D01*
G37*
G36*
X139673642Y-66528242D02*
G01*
X139821601Y-66589529D01*
X139954755Y-66678499D01*
X140068001Y-66791745D01*
X140156971Y-66924899D01*
X140218258Y-67072858D01*
X140249500Y-67229925D01*
X140249500Y-67390075D01*
X140218258Y-67547142D01*
X140156971Y-67695101D01*
X140068001Y-67828255D01*
X139954755Y-67941501D01*
X139821601Y-68030471D01*
X139673642Y-68091758D01*
X139516575Y-68123000D01*
X139356425Y-68123000D01*
X139199358Y-68091758D01*
X139051399Y-68030471D01*
X138918245Y-67941501D01*
X138804999Y-67828255D01*
X138716029Y-67695101D01*
X138654742Y-67547142D01*
X138623500Y-67390075D01*
X138623500Y-67229925D01*
X138654742Y-67072858D01*
X138716029Y-66924899D01*
X138804999Y-66791745D01*
X138918245Y-66678499D01*
X139051399Y-66589529D01*
X139199358Y-66528242D01*
X139356425Y-66497000D01*
X139516575Y-66497000D01*
X139673642Y-66528242D01*
X139673642Y-66528242D01*
G37*
G36*
X121642323Y-66090313D02*
G01*
X121802742Y-66138976D01*
X121869861Y-66174852D01*
X121950578Y-66217996D01*
X122080159Y-66324341D01*
X122186504Y-66453922D01*
X122186505Y-66453924D01*
X122265524Y-66601758D01*
X122314187Y-66762177D01*
X122330617Y-66929000D01*
X122314187Y-67095823D01*
X122265524Y-67256242D01*
X122224977Y-67332100D01*
X122186504Y-67404078D01*
X122080159Y-67533659D01*
X121950578Y-67640004D01*
X121950576Y-67640005D01*
X121802742Y-67719024D01*
X121642323Y-67767687D01*
X121517304Y-67780000D01*
X121433696Y-67780000D01*
X121308677Y-67767687D01*
X121148258Y-67719024D01*
X121000424Y-67640005D01*
X121000422Y-67640004D01*
X120870841Y-67533659D01*
X120764496Y-67404078D01*
X120726023Y-67332100D01*
X120685476Y-67256242D01*
X120636813Y-67095823D01*
X120620383Y-66929000D01*
X120636813Y-66762177D01*
X120685476Y-66601758D01*
X120764495Y-66453924D01*
X120764496Y-66453922D01*
X120870841Y-66324341D01*
X121000422Y-66217996D01*
X121081139Y-66174852D01*
X121148258Y-66138976D01*
X121308677Y-66090313D01*
X121433696Y-66078000D01*
X121517304Y-66078000D01*
X121642323Y-66090313D01*
X121642323Y-66090313D01*
G37*
G36*
X131883728Y-66110703D02*
G01*
X132038600Y-66174853D01*
X132177981Y-66267985D01*
X132296515Y-66386519D01*
X132389647Y-66525900D01*
X132453797Y-66680772D01*
X132486500Y-66845184D01*
X132486500Y-67012816D01*
X132453797Y-67177228D01*
X132389647Y-67332100D01*
X132296515Y-67471481D01*
X132177981Y-67590015D01*
X132038600Y-67683147D01*
X131883728Y-67747297D01*
X131719316Y-67780000D01*
X131551684Y-67780000D01*
X131387272Y-67747297D01*
X131232400Y-67683147D01*
X131093019Y-67590015D01*
X130974485Y-67471481D01*
X130881353Y-67332100D01*
X130817203Y-67177228D01*
X130784500Y-67012816D01*
X130784500Y-66845184D01*
X130817203Y-66680772D01*
X130881353Y-66525900D01*
X130974485Y-66386519D01*
X131093019Y-66267985D01*
X131232400Y-66174853D01*
X131387272Y-66110703D01*
X131551684Y-66078000D01*
X131719316Y-66078000D01*
X131883728Y-66110703D01*
X131883728Y-66110703D01*
G37*
G36*
X72510080Y-60164081D02*
G01*
X72600980Y-60182162D01*
X72715147Y-60229452D01*
X72772232Y-60253097D01*
X72926350Y-60356075D01*
X73057425Y-60487150D01*
X73160403Y-60641268D01*
X73160403Y-60641269D01*
X73231338Y-60812520D01*
X73267500Y-60994320D01*
X73267500Y-61179680D01*
X73231338Y-61361480D01*
X73209484Y-61414239D01*
X73160403Y-61532732D01*
X73057425Y-61686850D01*
X72926350Y-61817925D01*
X72772232Y-61920903D01*
X72715147Y-61944548D01*
X72600980Y-61991838D01*
X72510080Y-62009919D01*
X72419182Y-62028000D01*
X72233818Y-62028000D01*
X72142920Y-62009919D01*
X72052020Y-61991838D01*
X71937853Y-61944548D01*
X71880768Y-61920903D01*
X71726650Y-61817925D01*
X71595575Y-61686850D01*
X71492597Y-61532732D01*
X71443516Y-61414239D01*
X71421662Y-61361480D01*
X71385500Y-61179680D01*
X71385500Y-60994320D01*
X71421662Y-60812520D01*
X71492597Y-60641269D01*
X71492597Y-60641268D01*
X71595575Y-60487150D01*
X71726650Y-60356075D01*
X71880768Y-60253097D01*
X71937853Y-60229452D01*
X72052020Y-60182162D01*
X72142920Y-60164081D01*
X72233818Y-60146000D01*
X72419182Y-60146000D01*
X72510080Y-60164081D01*
X72510080Y-60164081D01*
G37*
G36*
X113150080Y-60164081D02*
G01*
X113240980Y-60182162D01*
X113355147Y-60229452D01*
X113412232Y-60253097D01*
X113566350Y-60356075D01*
X113697425Y-60487150D01*
X113800403Y-60641268D01*
X113800403Y-60641269D01*
X113871338Y-60812520D01*
X113907500Y-60994320D01*
X113907500Y-61179680D01*
X113871338Y-61361480D01*
X113849484Y-61414239D01*
X113800403Y-61532732D01*
X113697425Y-61686850D01*
X113566350Y-61817925D01*
X113412232Y-61920903D01*
X113355147Y-61944548D01*
X113240980Y-61991838D01*
X113150080Y-62009919D01*
X113059182Y-62028000D01*
X112873818Y-62028000D01*
X112782920Y-62009919D01*
X112692020Y-61991838D01*
X112577853Y-61944548D01*
X112520768Y-61920903D01*
X112366650Y-61817925D01*
X112235575Y-61686850D01*
X112132597Y-61532732D01*
X112083516Y-61414239D01*
X112061662Y-61361480D01*
X112025500Y-61179680D01*
X112025500Y-60994320D01*
X112061662Y-60812520D01*
X112132597Y-60641269D01*
X112132597Y-60641268D01*
X112235575Y-60487150D01*
X112366650Y-60356075D01*
X112520768Y-60253097D01*
X112577853Y-60229452D01*
X112692020Y-60182162D01*
X112782920Y-60164081D01*
X112873818Y-60146000D01*
X113059182Y-60146000D01*
X113150080Y-60164081D01*
X113150080Y-60164081D01*
G37*
G36*
X80113323Y-60248313D02*
G01*
X80273742Y-60296976D01*
X80384308Y-60356075D01*
X80421578Y-60375996D01*
X80551159Y-60482341D01*
X80657504Y-60611922D01*
X80657505Y-60611924D01*
X80736524Y-60759758D01*
X80785187Y-60920177D01*
X80801617Y-61087000D01*
X80785187Y-61253823D01*
X80736524Y-61414242D01*
X80673190Y-61532731D01*
X80657504Y-61562078D01*
X80551159Y-61691659D01*
X80421578Y-61798004D01*
X80421576Y-61798005D01*
X80273742Y-61877024D01*
X80113323Y-61925687D01*
X79988304Y-61938000D01*
X79904696Y-61938000D01*
X79779677Y-61925687D01*
X79619258Y-61877024D01*
X79471424Y-61798005D01*
X79471422Y-61798004D01*
X79341841Y-61691659D01*
X79235496Y-61562078D01*
X79219810Y-61532731D01*
X79156476Y-61414242D01*
X79107813Y-61253823D01*
X79091383Y-61087000D01*
X79107813Y-60920177D01*
X79156476Y-60759758D01*
X79235495Y-60611924D01*
X79235496Y-60611922D01*
X79341841Y-60482341D01*
X79471422Y-60375996D01*
X79508692Y-60356075D01*
X79619258Y-60296976D01*
X79779677Y-60248313D01*
X79904696Y-60236000D01*
X79988304Y-60236000D01*
X80113323Y-60248313D01*
X80113323Y-60248313D01*
G37*
G36*
X111277500Y-61938000D02*
G01*
X109575500Y-61938000D01*
X109575500Y-60236000D01*
X111277500Y-60236000D01*
X111277500Y-61938000D01*
X111277500Y-61938000D01*
G37*
G36*
X75033323Y-60248313D02*
G01*
X75193742Y-60296976D01*
X75304308Y-60356075D01*
X75341578Y-60375996D01*
X75471159Y-60482341D01*
X75577504Y-60611922D01*
X75577505Y-60611924D01*
X75656524Y-60759758D01*
X75705187Y-60920177D01*
X75721617Y-61087000D01*
X75705187Y-61253823D01*
X75656524Y-61414242D01*
X75593190Y-61532731D01*
X75577504Y-61562078D01*
X75471159Y-61691659D01*
X75341578Y-61798004D01*
X75341576Y-61798005D01*
X75193742Y-61877024D01*
X75033323Y-61925687D01*
X74908304Y-61938000D01*
X74824696Y-61938000D01*
X74699677Y-61925687D01*
X74539258Y-61877024D01*
X74391424Y-61798005D01*
X74391422Y-61798004D01*
X74261841Y-61691659D01*
X74155496Y-61562078D01*
X74139810Y-61532731D01*
X74076476Y-61414242D01*
X74027813Y-61253823D01*
X74011383Y-61087000D01*
X74027813Y-60920177D01*
X74076476Y-60759758D01*
X74155495Y-60611924D01*
X74155496Y-60611922D01*
X74261841Y-60482341D01*
X74391422Y-60375996D01*
X74428692Y-60356075D01*
X74539258Y-60296976D01*
X74699677Y-60248313D01*
X74824696Y-60236000D01*
X74908304Y-60236000D01*
X75033323Y-60248313D01*
X75033323Y-60248313D01*
G37*
G36*
X77573323Y-60248313D02*
G01*
X77733742Y-60296976D01*
X77844308Y-60356075D01*
X77881578Y-60375996D01*
X78011159Y-60482341D01*
X78117504Y-60611922D01*
X78117505Y-60611924D01*
X78196524Y-60759758D01*
X78245187Y-60920177D01*
X78261617Y-61087000D01*
X78245187Y-61253823D01*
X78196524Y-61414242D01*
X78133190Y-61532731D01*
X78117504Y-61562078D01*
X78011159Y-61691659D01*
X77881578Y-61798004D01*
X77881576Y-61798005D01*
X77733742Y-61877024D01*
X77573323Y-61925687D01*
X77448304Y-61938000D01*
X77364696Y-61938000D01*
X77239677Y-61925687D01*
X77079258Y-61877024D01*
X76931424Y-61798005D01*
X76931422Y-61798004D01*
X76801841Y-61691659D01*
X76695496Y-61562078D01*
X76679810Y-61532731D01*
X76616476Y-61414242D01*
X76567813Y-61253823D01*
X76551383Y-61087000D01*
X76567813Y-60920177D01*
X76616476Y-60759758D01*
X76695495Y-60611924D01*
X76695496Y-60611922D01*
X76801841Y-60482341D01*
X76931422Y-60375996D01*
X76968692Y-60356075D01*
X77079258Y-60296976D01*
X77239677Y-60248313D01*
X77364696Y-60236000D01*
X77448304Y-60236000D01*
X77573323Y-60248313D01*
X77573323Y-60248313D01*
G37*
G36*
X82653323Y-60248313D02*
G01*
X82813742Y-60296976D01*
X82924308Y-60356075D01*
X82961578Y-60375996D01*
X83091159Y-60482341D01*
X83197504Y-60611922D01*
X83197505Y-60611924D01*
X83276524Y-60759758D01*
X83325187Y-60920177D01*
X83341617Y-61087000D01*
X83325187Y-61253823D01*
X83276524Y-61414242D01*
X83213190Y-61532731D01*
X83197504Y-61562078D01*
X83091159Y-61691659D01*
X82961578Y-61798004D01*
X82961576Y-61798005D01*
X82813742Y-61877024D01*
X82653323Y-61925687D01*
X82528304Y-61938000D01*
X82444696Y-61938000D01*
X82319677Y-61925687D01*
X82159258Y-61877024D01*
X82011424Y-61798005D01*
X82011422Y-61798004D01*
X81881841Y-61691659D01*
X81775496Y-61562078D01*
X81759810Y-61532731D01*
X81696476Y-61414242D01*
X81647813Y-61253823D01*
X81631383Y-61087000D01*
X81647813Y-60920177D01*
X81696476Y-60759758D01*
X81775495Y-60611924D01*
X81775496Y-60611922D01*
X81881841Y-60482341D01*
X82011422Y-60375996D01*
X82048692Y-60356075D01*
X82159258Y-60296976D01*
X82319677Y-60248313D01*
X82444696Y-60236000D01*
X82528304Y-60236000D01*
X82653323Y-60248313D01*
X82653323Y-60248313D01*
G37*
G36*
X102973323Y-60248313D02*
G01*
X103133742Y-60296976D01*
X103244308Y-60356075D01*
X103281578Y-60375996D01*
X103411159Y-60482341D01*
X103517504Y-60611922D01*
X103517505Y-60611924D01*
X103596524Y-60759758D01*
X103645187Y-60920177D01*
X103661617Y-61087000D01*
X103645187Y-61253823D01*
X103596524Y-61414242D01*
X103533190Y-61532731D01*
X103517504Y-61562078D01*
X103411159Y-61691659D01*
X103281578Y-61798004D01*
X103281576Y-61798005D01*
X103133742Y-61877024D01*
X102973323Y-61925687D01*
X102848304Y-61938000D01*
X102764696Y-61938000D01*
X102639677Y-61925687D01*
X102479258Y-61877024D01*
X102331424Y-61798005D01*
X102331422Y-61798004D01*
X102201841Y-61691659D01*
X102095496Y-61562078D01*
X102079810Y-61532731D01*
X102016476Y-61414242D01*
X101967813Y-61253823D01*
X101951383Y-61087000D01*
X101967813Y-60920177D01*
X102016476Y-60759758D01*
X102095495Y-60611924D01*
X102095496Y-60611922D01*
X102201841Y-60482341D01*
X102331422Y-60375996D01*
X102368692Y-60356075D01*
X102479258Y-60296976D01*
X102639677Y-60248313D01*
X102764696Y-60236000D01*
X102848304Y-60236000D01*
X102973323Y-60248313D01*
X102973323Y-60248313D01*
G37*
G36*
X90273323Y-60248313D02*
G01*
X90433742Y-60296976D01*
X90544308Y-60356075D01*
X90581578Y-60375996D01*
X90711159Y-60482341D01*
X90817504Y-60611922D01*
X90817505Y-60611924D01*
X90896524Y-60759758D01*
X90945187Y-60920177D01*
X90961617Y-61087000D01*
X90945187Y-61253823D01*
X90896524Y-61414242D01*
X90833190Y-61532731D01*
X90817504Y-61562078D01*
X90711159Y-61691659D01*
X90581578Y-61798004D01*
X90581576Y-61798005D01*
X90433742Y-61877024D01*
X90273323Y-61925687D01*
X90148304Y-61938000D01*
X90064696Y-61938000D01*
X89939677Y-61925687D01*
X89779258Y-61877024D01*
X89631424Y-61798005D01*
X89631422Y-61798004D01*
X89501841Y-61691659D01*
X89395496Y-61562078D01*
X89379810Y-61532731D01*
X89316476Y-61414242D01*
X89267813Y-61253823D01*
X89251383Y-61087000D01*
X89267813Y-60920177D01*
X89316476Y-60759758D01*
X89395495Y-60611924D01*
X89395496Y-60611922D01*
X89501841Y-60482341D01*
X89631422Y-60375996D01*
X89668692Y-60356075D01*
X89779258Y-60296976D01*
X89939677Y-60248313D01*
X90064696Y-60236000D01*
X90148304Y-60236000D01*
X90273323Y-60248313D01*
X90273323Y-60248313D01*
G37*
G36*
X95353323Y-60248313D02*
G01*
X95513742Y-60296976D01*
X95624308Y-60356075D01*
X95661578Y-60375996D01*
X95791159Y-60482341D01*
X95897504Y-60611922D01*
X95897505Y-60611924D01*
X95976524Y-60759758D01*
X96025187Y-60920177D01*
X96041617Y-61087000D01*
X96025187Y-61253823D01*
X95976524Y-61414242D01*
X95913190Y-61532731D01*
X95897504Y-61562078D01*
X95791159Y-61691659D01*
X95661578Y-61798004D01*
X95661576Y-61798005D01*
X95513742Y-61877024D01*
X95353323Y-61925687D01*
X95228304Y-61938000D01*
X95144696Y-61938000D01*
X95019677Y-61925687D01*
X94859258Y-61877024D01*
X94711424Y-61798005D01*
X94711422Y-61798004D01*
X94581841Y-61691659D01*
X94475496Y-61562078D01*
X94459810Y-61532731D01*
X94396476Y-61414242D01*
X94347813Y-61253823D01*
X94331383Y-61087000D01*
X94347813Y-60920177D01*
X94396476Y-60759758D01*
X94475495Y-60611924D01*
X94475496Y-60611922D01*
X94581841Y-60482341D01*
X94711422Y-60375996D01*
X94748692Y-60356075D01*
X94859258Y-60296976D01*
X95019677Y-60248313D01*
X95144696Y-60236000D01*
X95228304Y-60236000D01*
X95353323Y-60248313D01*
X95353323Y-60248313D01*
G37*
G36*
X97893323Y-60248313D02*
G01*
X98053742Y-60296976D01*
X98164308Y-60356075D01*
X98201578Y-60375996D01*
X98331159Y-60482341D01*
X98437504Y-60611922D01*
X98437505Y-60611924D01*
X98516524Y-60759758D01*
X98565187Y-60920177D01*
X98581617Y-61087000D01*
X98565187Y-61253823D01*
X98516524Y-61414242D01*
X98453190Y-61532731D01*
X98437504Y-61562078D01*
X98331159Y-61691659D01*
X98201578Y-61798004D01*
X98201576Y-61798005D01*
X98053742Y-61877024D01*
X97893323Y-61925687D01*
X97768304Y-61938000D01*
X97684696Y-61938000D01*
X97559677Y-61925687D01*
X97399258Y-61877024D01*
X97251424Y-61798005D01*
X97251422Y-61798004D01*
X97121841Y-61691659D01*
X97015496Y-61562078D01*
X96999810Y-61532731D01*
X96936476Y-61414242D01*
X96887813Y-61253823D01*
X96871383Y-61087000D01*
X96887813Y-60920177D01*
X96936476Y-60759758D01*
X97015495Y-60611924D01*
X97015496Y-60611922D01*
X97121841Y-60482341D01*
X97251422Y-60375996D01*
X97288692Y-60356075D01*
X97399258Y-60296976D01*
X97559677Y-60248313D01*
X97684696Y-60236000D01*
X97768304Y-60236000D01*
X97893323Y-60248313D01*
X97893323Y-60248313D01*
G37*
G36*
X100433323Y-60248313D02*
G01*
X100593742Y-60296976D01*
X100704308Y-60356075D01*
X100741578Y-60375996D01*
X100871159Y-60482341D01*
X100977504Y-60611922D01*
X100977505Y-60611924D01*
X101056524Y-60759758D01*
X101105187Y-60920177D01*
X101121617Y-61087000D01*
X101105187Y-61253823D01*
X101056524Y-61414242D01*
X100993190Y-61532731D01*
X100977504Y-61562078D01*
X100871159Y-61691659D01*
X100741578Y-61798004D01*
X100741576Y-61798005D01*
X100593742Y-61877024D01*
X100433323Y-61925687D01*
X100308304Y-61938000D01*
X100224696Y-61938000D01*
X100099677Y-61925687D01*
X99939258Y-61877024D01*
X99791424Y-61798005D01*
X99791422Y-61798004D01*
X99661841Y-61691659D01*
X99555496Y-61562078D01*
X99539810Y-61532731D01*
X99476476Y-61414242D01*
X99427813Y-61253823D01*
X99411383Y-61087000D01*
X99427813Y-60920177D01*
X99476476Y-60759758D01*
X99555495Y-60611924D01*
X99555496Y-60611922D01*
X99661841Y-60482341D01*
X99791422Y-60375996D01*
X99828692Y-60356075D01*
X99939258Y-60296976D01*
X100099677Y-60248313D01*
X100224696Y-60236000D01*
X100308304Y-60236000D01*
X100433323Y-60248313D01*
X100433323Y-60248313D01*
G37*
G36*
X85193323Y-60248313D02*
G01*
X85353742Y-60296976D01*
X85464308Y-60356075D01*
X85501578Y-60375996D01*
X85631159Y-60482341D01*
X85737504Y-60611922D01*
X85737505Y-60611924D01*
X85816524Y-60759758D01*
X85865187Y-60920177D01*
X85881617Y-61087000D01*
X85865187Y-61253823D01*
X85816524Y-61414242D01*
X85753190Y-61532731D01*
X85737504Y-61562078D01*
X85631159Y-61691659D01*
X85501578Y-61798004D01*
X85501576Y-61798005D01*
X85353742Y-61877024D01*
X85193323Y-61925687D01*
X85068304Y-61938000D01*
X84984696Y-61938000D01*
X84859677Y-61925687D01*
X84699258Y-61877024D01*
X84551424Y-61798005D01*
X84551422Y-61798004D01*
X84421841Y-61691659D01*
X84315496Y-61562078D01*
X84299810Y-61532731D01*
X84236476Y-61414242D01*
X84187813Y-61253823D01*
X84171383Y-61087000D01*
X84187813Y-60920177D01*
X84236476Y-60759758D01*
X84315495Y-60611924D01*
X84315496Y-60611922D01*
X84421841Y-60482341D01*
X84551422Y-60375996D01*
X84588692Y-60356075D01*
X84699258Y-60296976D01*
X84859677Y-60248313D01*
X84984696Y-60236000D01*
X85068304Y-60236000D01*
X85193323Y-60248313D01*
X85193323Y-60248313D01*
G37*
G36*
X87733323Y-60248313D02*
G01*
X87893742Y-60296976D01*
X88004308Y-60356075D01*
X88041578Y-60375996D01*
X88171159Y-60482341D01*
X88277504Y-60611922D01*
X88277505Y-60611924D01*
X88356524Y-60759758D01*
X88405187Y-60920177D01*
X88421617Y-61087000D01*
X88405187Y-61253823D01*
X88356524Y-61414242D01*
X88293190Y-61532731D01*
X88277504Y-61562078D01*
X88171159Y-61691659D01*
X88041578Y-61798004D01*
X88041576Y-61798005D01*
X87893742Y-61877024D01*
X87733323Y-61925687D01*
X87608304Y-61938000D01*
X87524696Y-61938000D01*
X87399677Y-61925687D01*
X87239258Y-61877024D01*
X87091424Y-61798005D01*
X87091422Y-61798004D01*
X86961841Y-61691659D01*
X86855496Y-61562078D01*
X86839810Y-61532731D01*
X86776476Y-61414242D01*
X86727813Y-61253823D01*
X86711383Y-61087000D01*
X86727813Y-60920177D01*
X86776476Y-60759758D01*
X86855495Y-60611924D01*
X86855496Y-60611922D01*
X86961841Y-60482341D01*
X87091422Y-60375996D01*
X87128692Y-60356075D01*
X87239258Y-60296976D01*
X87399677Y-60248313D01*
X87524696Y-60236000D01*
X87608304Y-60236000D01*
X87733323Y-60248313D01*
X87733323Y-60248313D01*
G37*
G36*
X105513323Y-60248313D02*
G01*
X105673742Y-60296976D01*
X105784308Y-60356075D01*
X105821578Y-60375996D01*
X105951159Y-60482341D01*
X106057504Y-60611922D01*
X106057505Y-60611924D01*
X106136524Y-60759758D01*
X106185187Y-60920177D01*
X106201617Y-61087000D01*
X106185187Y-61253823D01*
X106136524Y-61414242D01*
X106073190Y-61532731D01*
X106057504Y-61562078D01*
X105951159Y-61691659D01*
X105821578Y-61798004D01*
X105821576Y-61798005D01*
X105673742Y-61877024D01*
X105513323Y-61925687D01*
X105388304Y-61938000D01*
X105304696Y-61938000D01*
X105179677Y-61925687D01*
X105019258Y-61877024D01*
X104871424Y-61798005D01*
X104871422Y-61798004D01*
X104741841Y-61691659D01*
X104635496Y-61562078D01*
X104619810Y-61532731D01*
X104556476Y-61414242D01*
X104507813Y-61253823D01*
X104491383Y-61087000D01*
X104507813Y-60920177D01*
X104556476Y-60759758D01*
X104635495Y-60611924D01*
X104635496Y-60611922D01*
X104741841Y-60482341D01*
X104871422Y-60375996D01*
X104908692Y-60356075D01*
X105019258Y-60296976D01*
X105179677Y-60248313D01*
X105304696Y-60236000D01*
X105388304Y-60236000D01*
X105513323Y-60248313D01*
X105513323Y-60248313D01*
G37*
G36*
X108053323Y-60248313D02*
G01*
X108213742Y-60296976D01*
X108324308Y-60356075D01*
X108361578Y-60375996D01*
X108491159Y-60482341D01*
X108597504Y-60611922D01*
X108597505Y-60611924D01*
X108676524Y-60759758D01*
X108725187Y-60920177D01*
X108741617Y-61087000D01*
X108725187Y-61253823D01*
X108676524Y-61414242D01*
X108613190Y-61532731D01*
X108597504Y-61562078D01*
X108491159Y-61691659D01*
X108361578Y-61798004D01*
X108361576Y-61798005D01*
X108213742Y-61877024D01*
X108053323Y-61925687D01*
X107928304Y-61938000D01*
X107844696Y-61938000D01*
X107719677Y-61925687D01*
X107559258Y-61877024D01*
X107411424Y-61798005D01*
X107411422Y-61798004D01*
X107281841Y-61691659D01*
X107175496Y-61562078D01*
X107159810Y-61532731D01*
X107096476Y-61414242D01*
X107047813Y-61253823D01*
X107031383Y-61087000D01*
X107047813Y-60920177D01*
X107096476Y-60759758D01*
X107175495Y-60611924D01*
X107175496Y-60611922D01*
X107281841Y-60482341D01*
X107411422Y-60375996D01*
X107448692Y-60356075D01*
X107559258Y-60296976D01*
X107719677Y-60248313D01*
X107844696Y-60236000D01*
X107928304Y-60236000D01*
X108053323Y-60248313D01*
X108053323Y-60248313D01*
G37*
G36*
X92813323Y-60248313D02*
G01*
X92973742Y-60296976D01*
X93084308Y-60356075D01*
X93121578Y-60375996D01*
X93251159Y-60482341D01*
X93357504Y-60611922D01*
X93357505Y-60611924D01*
X93436524Y-60759758D01*
X93485187Y-60920177D01*
X93501617Y-61087000D01*
X93485187Y-61253823D01*
X93436524Y-61414242D01*
X93373190Y-61532731D01*
X93357504Y-61562078D01*
X93251159Y-61691659D01*
X93121578Y-61798004D01*
X93121576Y-61798005D01*
X92973742Y-61877024D01*
X92813323Y-61925687D01*
X92688304Y-61938000D01*
X92604696Y-61938000D01*
X92479677Y-61925687D01*
X92319258Y-61877024D01*
X92171424Y-61798005D01*
X92171422Y-61798004D01*
X92041841Y-61691659D01*
X91935496Y-61562078D01*
X91919810Y-61532731D01*
X91856476Y-61414242D01*
X91807813Y-61253823D01*
X91791383Y-61087000D01*
X91807813Y-60920177D01*
X91856476Y-60759758D01*
X91935495Y-60611924D01*
X91935496Y-60611922D01*
X92041841Y-60482341D01*
X92171422Y-60375996D01*
X92208692Y-60356075D01*
X92319258Y-60296976D01*
X92479677Y-60248313D01*
X92604696Y-60236000D01*
X92688304Y-60236000D01*
X92813323Y-60248313D01*
X92813323Y-60248313D01*
G37*
G36*
X127652142Y-57193742D02*
G01*
X127800101Y-57255029D01*
X127933255Y-57343999D01*
X128046501Y-57457245D01*
X128135471Y-57590399D01*
X128196758Y-57738358D01*
X128228000Y-57895425D01*
X128228000Y-58055575D01*
X128196758Y-58212642D01*
X128135471Y-58360601D01*
X128046501Y-58493755D01*
X127933255Y-58607001D01*
X127800101Y-58695971D01*
X127652142Y-58757258D01*
X127495075Y-58788500D01*
X127334925Y-58788500D01*
X127177858Y-58757258D01*
X127029899Y-58695971D01*
X126896745Y-58607001D01*
X126783499Y-58493755D01*
X126694529Y-58360601D01*
X126633242Y-58212642D01*
X126602000Y-58055575D01*
X126602000Y-57895425D01*
X126633242Y-57738358D01*
X126694529Y-57590399D01*
X126783499Y-57457245D01*
X126896745Y-57343999D01*
X127029899Y-57255029D01*
X127177858Y-57193742D01*
X127334925Y-57162500D01*
X127495075Y-57162500D01*
X127652142Y-57193742D01*
X127652142Y-57193742D01*
G37*
G36*
X72319580Y-55211081D02*
G01*
X72410480Y-55229162D01*
X72524647Y-55276452D01*
X72581732Y-55300097D01*
X72735850Y-55403075D01*
X72866925Y-55534150D01*
X72969903Y-55688268D01*
X72969903Y-55688269D01*
X73040838Y-55859520D01*
X73077000Y-56041320D01*
X73077000Y-56226680D01*
X73040838Y-56408480D01*
X73018984Y-56461239D01*
X72969903Y-56579732D01*
X72866925Y-56733850D01*
X72735850Y-56864925D01*
X72581732Y-56967903D01*
X72524647Y-56991548D01*
X72410480Y-57038838D01*
X72319580Y-57056919D01*
X72228682Y-57075000D01*
X72043318Y-57075000D01*
X71952420Y-57056919D01*
X71861520Y-57038838D01*
X71747353Y-56991548D01*
X71690268Y-56967903D01*
X71536150Y-56864925D01*
X71405075Y-56733850D01*
X71302097Y-56579732D01*
X71253016Y-56461239D01*
X71231162Y-56408480D01*
X71195000Y-56226680D01*
X71195000Y-56041320D01*
X71231162Y-55859520D01*
X71302097Y-55688269D01*
X71302097Y-55688268D01*
X71405075Y-55534150D01*
X71536150Y-55403075D01*
X71690268Y-55300097D01*
X71747353Y-55276452D01*
X71861520Y-55229162D01*
X71952420Y-55211081D01*
X72043318Y-55193000D01*
X72228682Y-55193000D01*
X72319580Y-55211081D01*
X72319580Y-55211081D01*
G37*
G36*
X112959580Y-55211081D02*
G01*
X113050480Y-55229162D01*
X113164647Y-55276452D01*
X113221732Y-55300097D01*
X113375850Y-55403075D01*
X113506925Y-55534150D01*
X113609903Y-55688268D01*
X113609903Y-55688269D01*
X113680838Y-55859520D01*
X113717000Y-56041320D01*
X113717000Y-56226680D01*
X113680838Y-56408480D01*
X113658984Y-56461239D01*
X113609903Y-56579732D01*
X113506925Y-56733850D01*
X113375850Y-56864925D01*
X113221732Y-56967903D01*
X113164647Y-56991548D01*
X113050480Y-57038838D01*
X112959580Y-57056919D01*
X112868682Y-57075000D01*
X112683318Y-57075000D01*
X112592420Y-57056919D01*
X112501520Y-57038838D01*
X112387353Y-56991548D01*
X112330268Y-56967903D01*
X112176150Y-56864925D01*
X112045075Y-56733850D01*
X111942097Y-56579732D01*
X111893016Y-56461239D01*
X111871162Y-56408480D01*
X111835000Y-56226680D01*
X111835000Y-56041320D01*
X111871162Y-55859520D01*
X111942097Y-55688269D01*
X111942097Y-55688268D01*
X112045075Y-55534150D01*
X112176150Y-55403075D01*
X112330268Y-55300097D01*
X112387353Y-55276452D01*
X112501520Y-55229162D01*
X112592420Y-55211081D01*
X112683318Y-55193000D01*
X112868682Y-55193000D01*
X112959580Y-55211081D01*
X112959580Y-55211081D01*
G37*
G36*
X100242823Y-55295313D02*
G01*
X100403242Y-55343976D01*
X100513808Y-55403075D01*
X100551078Y-55422996D01*
X100680659Y-55529341D01*
X100787004Y-55658922D01*
X100787005Y-55658924D01*
X100866024Y-55806758D01*
X100914687Y-55967177D01*
X100931117Y-56134000D01*
X100914687Y-56300823D01*
X100866024Y-56461242D01*
X100802690Y-56579731D01*
X100787004Y-56609078D01*
X100680659Y-56738659D01*
X100551078Y-56845004D01*
X100551076Y-56845005D01*
X100403242Y-56924024D01*
X100242823Y-56972687D01*
X100117804Y-56985000D01*
X100034196Y-56985000D01*
X99909177Y-56972687D01*
X99748758Y-56924024D01*
X99600924Y-56845005D01*
X99600922Y-56845004D01*
X99471341Y-56738659D01*
X99364996Y-56609078D01*
X99349310Y-56579731D01*
X99285976Y-56461242D01*
X99237313Y-56300823D01*
X99220883Y-56134000D01*
X99237313Y-55967177D01*
X99285976Y-55806758D01*
X99364995Y-55658924D01*
X99364996Y-55658922D01*
X99471341Y-55529341D01*
X99600922Y-55422996D01*
X99638192Y-55403075D01*
X99748758Y-55343976D01*
X99909177Y-55295313D01*
X100034196Y-55283000D01*
X100117804Y-55283000D01*
X100242823Y-55295313D01*
X100242823Y-55295313D01*
G37*
G36*
X107862823Y-55295313D02*
G01*
X108023242Y-55343976D01*
X108133808Y-55403075D01*
X108171078Y-55422996D01*
X108300659Y-55529341D01*
X108407004Y-55658922D01*
X108407005Y-55658924D01*
X108486024Y-55806758D01*
X108534687Y-55967177D01*
X108551117Y-56134000D01*
X108534687Y-56300823D01*
X108486024Y-56461242D01*
X108422690Y-56579731D01*
X108407004Y-56609078D01*
X108300659Y-56738659D01*
X108171078Y-56845004D01*
X108171076Y-56845005D01*
X108023242Y-56924024D01*
X107862823Y-56972687D01*
X107737804Y-56985000D01*
X107654196Y-56985000D01*
X107529177Y-56972687D01*
X107368758Y-56924024D01*
X107220924Y-56845005D01*
X107220922Y-56845004D01*
X107091341Y-56738659D01*
X106984996Y-56609078D01*
X106969310Y-56579731D01*
X106905976Y-56461242D01*
X106857313Y-56300823D01*
X106840883Y-56134000D01*
X106857313Y-55967177D01*
X106905976Y-55806758D01*
X106984995Y-55658924D01*
X106984996Y-55658922D01*
X107091341Y-55529341D01*
X107220922Y-55422996D01*
X107258192Y-55403075D01*
X107368758Y-55343976D01*
X107529177Y-55295313D01*
X107654196Y-55283000D01*
X107737804Y-55283000D01*
X107862823Y-55295313D01*
X107862823Y-55295313D01*
G37*
G36*
X110402823Y-55295313D02*
G01*
X110563242Y-55343976D01*
X110673808Y-55403075D01*
X110711078Y-55422996D01*
X110840659Y-55529341D01*
X110947004Y-55658922D01*
X110947005Y-55658924D01*
X111026024Y-55806758D01*
X111074687Y-55967177D01*
X111091117Y-56134000D01*
X111074687Y-56300823D01*
X111026024Y-56461242D01*
X110962690Y-56579731D01*
X110947004Y-56609078D01*
X110840659Y-56738659D01*
X110711078Y-56845004D01*
X110711076Y-56845005D01*
X110563242Y-56924024D01*
X110402823Y-56972687D01*
X110277804Y-56985000D01*
X110194196Y-56985000D01*
X110069177Y-56972687D01*
X109908758Y-56924024D01*
X109760924Y-56845005D01*
X109760922Y-56845004D01*
X109631341Y-56738659D01*
X109524996Y-56609078D01*
X109509310Y-56579731D01*
X109445976Y-56461242D01*
X109397313Y-56300823D01*
X109380883Y-56134000D01*
X109397313Y-55967177D01*
X109445976Y-55806758D01*
X109524995Y-55658924D01*
X109524996Y-55658922D01*
X109631341Y-55529341D01*
X109760922Y-55422996D01*
X109798192Y-55403075D01*
X109908758Y-55343976D01*
X110069177Y-55295313D01*
X110194196Y-55283000D01*
X110277804Y-55283000D01*
X110402823Y-55295313D01*
X110402823Y-55295313D01*
G37*
G36*
X105322823Y-55295313D02*
G01*
X105483242Y-55343976D01*
X105593808Y-55403075D01*
X105631078Y-55422996D01*
X105760659Y-55529341D01*
X105867004Y-55658922D01*
X105867005Y-55658924D01*
X105946024Y-55806758D01*
X105994687Y-55967177D01*
X106011117Y-56134000D01*
X105994687Y-56300823D01*
X105946024Y-56461242D01*
X105882690Y-56579731D01*
X105867004Y-56609078D01*
X105760659Y-56738659D01*
X105631078Y-56845004D01*
X105631076Y-56845005D01*
X105483242Y-56924024D01*
X105322823Y-56972687D01*
X105197804Y-56985000D01*
X105114196Y-56985000D01*
X104989177Y-56972687D01*
X104828758Y-56924024D01*
X104680924Y-56845005D01*
X104680922Y-56845004D01*
X104551341Y-56738659D01*
X104444996Y-56609078D01*
X104429310Y-56579731D01*
X104365976Y-56461242D01*
X104317313Y-56300823D01*
X104300883Y-56134000D01*
X104317313Y-55967177D01*
X104365976Y-55806758D01*
X104444995Y-55658924D01*
X104444996Y-55658922D01*
X104551341Y-55529341D01*
X104680922Y-55422996D01*
X104718192Y-55403075D01*
X104828758Y-55343976D01*
X104989177Y-55295313D01*
X105114196Y-55283000D01*
X105197804Y-55283000D01*
X105322823Y-55295313D01*
X105322823Y-55295313D01*
G37*
G36*
X74842823Y-55295313D02*
G01*
X75003242Y-55343976D01*
X75113808Y-55403075D01*
X75151078Y-55422996D01*
X75280659Y-55529341D01*
X75387004Y-55658922D01*
X75387005Y-55658924D01*
X75466024Y-55806758D01*
X75514687Y-55967177D01*
X75531117Y-56134000D01*
X75514687Y-56300823D01*
X75466024Y-56461242D01*
X75402690Y-56579731D01*
X75387004Y-56609078D01*
X75280659Y-56738659D01*
X75151078Y-56845004D01*
X75151076Y-56845005D01*
X75003242Y-56924024D01*
X74842823Y-56972687D01*
X74717804Y-56985000D01*
X74634196Y-56985000D01*
X74509177Y-56972687D01*
X74348758Y-56924024D01*
X74200924Y-56845005D01*
X74200922Y-56845004D01*
X74071341Y-56738659D01*
X73964996Y-56609078D01*
X73949310Y-56579731D01*
X73885976Y-56461242D01*
X73837313Y-56300823D01*
X73820883Y-56134000D01*
X73837313Y-55967177D01*
X73885976Y-55806758D01*
X73964995Y-55658924D01*
X73964996Y-55658922D01*
X74071341Y-55529341D01*
X74200922Y-55422996D01*
X74238192Y-55403075D01*
X74348758Y-55343976D01*
X74509177Y-55295313D01*
X74634196Y-55283000D01*
X74717804Y-55283000D01*
X74842823Y-55295313D01*
X74842823Y-55295313D01*
G37*
G36*
X77382823Y-55295313D02*
G01*
X77543242Y-55343976D01*
X77653808Y-55403075D01*
X77691078Y-55422996D01*
X77820659Y-55529341D01*
X77927004Y-55658922D01*
X77927005Y-55658924D01*
X78006024Y-55806758D01*
X78054687Y-55967177D01*
X78071117Y-56134000D01*
X78054687Y-56300823D01*
X78006024Y-56461242D01*
X77942690Y-56579731D01*
X77927004Y-56609078D01*
X77820659Y-56738659D01*
X77691078Y-56845004D01*
X77691076Y-56845005D01*
X77543242Y-56924024D01*
X77382823Y-56972687D01*
X77257804Y-56985000D01*
X77174196Y-56985000D01*
X77049177Y-56972687D01*
X76888758Y-56924024D01*
X76740924Y-56845005D01*
X76740922Y-56845004D01*
X76611341Y-56738659D01*
X76504996Y-56609078D01*
X76489310Y-56579731D01*
X76425976Y-56461242D01*
X76377313Y-56300823D01*
X76360883Y-56134000D01*
X76377313Y-55967177D01*
X76425976Y-55806758D01*
X76504995Y-55658924D01*
X76504996Y-55658922D01*
X76611341Y-55529341D01*
X76740922Y-55422996D01*
X76778192Y-55403075D01*
X76888758Y-55343976D01*
X77049177Y-55295313D01*
X77174196Y-55283000D01*
X77257804Y-55283000D01*
X77382823Y-55295313D01*
X77382823Y-55295313D01*
G37*
G36*
X79922823Y-55295313D02*
G01*
X80083242Y-55343976D01*
X80193808Y-55403075D01*
X80231078Y-55422996D01*
X80360659Y-55529341D01*
X80467004Y-55658922D01*
X80467005Y-55658924D01*
X80546024Y-55806758D01*
X80594687Y-55967177D01*
X80611117Y-56134000D01*
X80594687Y-56300823D01*
X80546024Y-56461242D01*
X80482690Y-56579731D01*
X80467004Y-56609078D01*
X80360659Y-56738659D01*
X80231078Y-56845004D01*
X80231076Y-56845005D01*
X80083242Y-56924024D01*
X79922823Y-56972687D01*
X79797804Y-56985000D01*
X79714196Y-56985000D01*
X79589177Y-56972687D01*
X79428758Y-56924024D01*
X79280924Y-56845005D01*
X79280922Y-56845004D01*
X79151341Y-56738659D01*
X79044996Y-56609078D01*
X79029310Y-56579731D01*
X78965976Y-56461242D01*
X78917313Y-56300823D01*
X78900883Y-56134000D01*
X78917313Y-55967177D01*
X78965976Y-55806758D01*
X79044995Y-55658924D01*
X79044996Y-55658922D01*
X79151341Y-55529341D01*
X79280922Y-55422996D01*
X79318192Y-55403075D01*
X79428758Y-55343976D01*
X79589177Y-55295313D01*
X79714196Y-55283000D01*
X79797804Y-55283000D01*
X79922823Y-55295313D01*
X79922823Y-55295313D01*
G37*
G36*
X95162823Y-55295313D02*
G01*
X95323242Y-55343976D01*
X95433808Y-55403075D01*
X95471078Y-55422996D01*
X95600659Y-55529341D01*
X95707004Y-55658922D01*
X95707005Y-55658924D01*
X95786024Y-55806758D01*
X95834687Y-55967177D01*
X95851117Y-56134000D01*
X95834687Y-56300823D01*
X95786024Y-56461242D01*
X95722690Y-56579731D01*
X95707004Y-56609078D01*
X95600659Y-56738659D01*
X95471078Y-56845004D01*
X95471076Y-56845005D01*
X95323242Y-56924024D01*
X95162823Y-56972687D01*
X95037804Y-56985000D01*
X94954196Y-56985000D01*
X94829177Y-56972687D01*
X94668758Y-56924024D01*
X94520924Y-56845005D01*
X94520922Y-56845004D01*
X94391341Y-56738659D01*
X94284996Y-56609078D01*
X94269310Y-56579731D01*
X94205976Y-56461242D01*
X94157313Y-56300823D01*
X94140883Y-56134000D01*
X94157313Y-55967177D01*
X94205976Y-55806758D01*
X94284995Y-55658924D01*
X94284996Y-55658922D01*
X94391341Y-55529341D01*
X94520922Y-55422996D01*
X94558192Y-55403075D01*
X94668758Y-55343976D01*
X94829177Y-55295313D01*
X94954196Y-55283000D01*
X95037804Y-55283000D01*
X95162823Y-55295313D01*
X95162823Y-55295313D01*
G37*
G36*
X97702823Y-55295313D02*
G01*
X97863242Y-55343976D01*
X97973808Y-55403075D01*
X98011078Y-55422996D01*
X98140659Y-55529341D01*
X98247004Y-55658922D01*
X98247005Y-55658924D01*
X98326024Y-55806758D01*
X98374687Y-55967177D01*
X98391117Y-56134000D01*
X98374687Y-56300823D01*
X98326024Y-56461242D01*
X98262690Y-56579731D01*
X98247004Y-56609078D01*
X98140659Y-56738659D01*
X98011078Y-56845004D01*
X98011076Y-56845005D01*
X97863242Y-56924024D01*
X97702823Y-56972687D01*
X97577804Y-56985000D01*
X97494196Y-56985000D01*
X97369177Y-56972687D01*
X97208758Y-56924024D01*
X97060924Y-56845005D01*
X97060922Y-56845004D01*
X96931341Y-56738659D01*
X96824996Y-56609078D01*
X96809310Y-56579731D01*
X96745976Y-56461242D01*
X96697313Y-56300823D01*
X96680883Y-56134000D01*
X96697313Y-55967177D01*
X96745976Y-55806758D01*
X96824995Y-55658924D01*
X96824996Y-55658922D01*
X96931341Y-55529341D01*
X97060922Y-55422996D01*
X97098192Y-55403075D01*
X97208758Y-55343976D01*
X97369177Y-55295313D01*
X97494196Y-55283000D01*
X97577804Y-55283000D01*
X97702823Y-55295313D01*
X97702823Y-55295313D01*
G37*
G36*
X92622823Y-55295313D02*
G01*
X92783242Y-55343976D01*
X92893808Y-55403075D01*
X92931078Y-55422996D01*
X93060659Y-55529341D01*
X93167004Y-55658922D01*
X93167005Y-55658924D01*
X93246024Y-55806758D01*
X93294687Y-55967177D01*
X93311117Y-56134000D01*
X93294687Y-56300823D01*
X93246024Y-56461242D01*
X93182690Y-56579731D01*
X93167004Y-56609078D01*
X93060659Y-56738659D01*
X92931078Y-56845004D01*
X92931076Y-56845005D01*
X92783242Y-56924024D01*
X92622823Y-56972687D01*
X92497804Y-56985000D01*
X92414196Y-56985000D01*
X92289177Y-56972687D01*
X92128758Y-56924024D01*
X91980924Y-56845005D01*
X91980922Y-56845004D01*
X91851341Y-56738659D01*
X91744996Y-56609078D01*
X91729310Y-56579731D01*
X91665976Y-56461242D01*
X91617313Y-56300823D01*
X91600883Y-56134000D01*
X91617313Y-55967177D01*
X91665976Y-55806758D01*
X91744995Y-55658924D01*
X91744996Y-55658922D01*
X91851341Y-55529341D01*
X91980922Y-55422996D01*
X92018192Y-55403075D01*
X92128758Y-55343976D01*
X92289177Y-55295313D01*
X92414196Y-55283000D01*
X92497804Y-55283000D01*
X92622823Y-55295313D01*
X92622823Y-55295313D01*
G37*
G36*
X102782823Y-55295313D02*
G01*
X102943242Y-55343976D01*
X103053808Y-55403075D01*
X103091078Y-55422996D01*
X103220659Y-55529341D01*
X103327004Y-55658922D01*
X103327005Y-55658924D01*
X103406024Y-55806758D01*
X103454687Y-55967177D01*
X103471117Y-56134000D01*
X103454687Y-56300823D01*
X103406024Y-56461242D01*
X103342690Y-56579731D01*
X103327004Y-56609078D01*
X103220659Y-56738659D01*
X103091078Y-56845004D01*
X103091076Y-56845005D01*
X102943242Y-56924024D01*
X102782823Y-56972687D01*
X102657804Y-56985000D01*
X102574196Y-56985000D01*
X102449177Y-56972687D01*
X102288758Y-56924024D01*
X102140924Y-56845005D01*
X102140922Y-56845004D01*
X102011341Y-56738659D01*
X101904996Y-56609078D01*
X101889310Y-56579731D01*
X101825976Y-56461242D01*
X101777313Y-56300823D01*
X101760883Y-56134000D01*
X101777313Y-55967177D01*
X101825976Y-55806758D01*
X101904995Y-55658924D01*
X101904996Y-55658922D01*
X102011341Y-55529341D01*
X102140922Y-55422996D01*
X102178192Y-55403075D01*
X102288758Y-55343976D01*
X102449177Y-55295313D01*
X102574196Y-55283000D01*
X102657804Y-55283000D01*
X102782823Y-55295313D01*
X102782823Y-55295313D01*
G37*
G36*
X87542823Y-55295313D02*
G01*
X87703242Y-55343976D01*
X87813808Y-55403075D01*
X87851078Y-55422996D01*
X87980659Y-55529341D01*
X88087004Y-55658922D01*
X88087005Y-55658924D01*
X88166024Y-55806758D01*
X88214687Y-55967177D01*
X88231117Y-56134000D01*
X88214687Y-56300823D01*
X88166024Y-56461242D01*
X88102690Y-56579731D01*
X88087004Y-56609078D01*
X87980659Y-56738659D01*
X87851078Y-56845004D01*
X87851076Y-56845005D01*
X87703242Y-56924024D01*
X87542823Y-56972687D01*
X87417804Y-56985000D01*
X87334196Y-56985000D01*
X87209177Y-56972687D01*
X87048758Y-56924024D01*
X86900924Y-56845005D01*
X86900922Y-56845004D01*
X86771341Y-56738659D01*
X86664996Y-56609078D01*
X86649310Y-56579731D01*
X86585976Y-56461242D01*
X86537313Y-56300823D01*
X86520883Y-56134000D01*
X86537313Y-55967177D01*
X86585976Y-55806758D01*
X86664995Y-55658924D01*
X86664996Y-55658922D01*
X86771341Y-55529341D01*
X86900922Y-55422996D01*
X86938192Y-55403075D01*
X87048758Y-55343976D01*
X87209177Y-55295313D01*
X87334196Y-55283000D01*
X87417804Y-55283000D01*
X87542823Y-55295313D01*
X87542823Y-55295313D01*
G37*
G36*
X90082823Y-55295313D02*
G01*
X90243242Y-55343976D01*
X90353808Y-55403075D01*
X90391078Y-55422996D01*
X90520659Y-55529341D01*
X90627004Y-55658922D01*
X90627005Y-55658924D01*
X90706024Y-55806758D01*
X90754687Y-55967177D01*
X90771117Y-56134000D01*
X90754687Y-56300823D01*
X90706024Y-56461242D01*
X90642690Y-56579731D01*
X90627004Y-56609078D01*
X90520659Y-56738659D01*
X90391078Y-56845004D01*
X90391076Y-56845005D01*
X90243242Y-56924024D01*
X90082823Y-56972687D01*
X89957804Y-56985000D01*
X89874196Y-56985000D01*
X89749177Y-56972687D01*
X89588758Y-56924024D01*
X89440924Y-56845005D01*
X89440922Y-56845004D01*
X89311341Y-56738659D01*
X89204996Y-56609078D01*
X89189310Y-56579731D01*
X89125976Y-56461242D01*
X89077313Y-56300823D01*
X89060883Y-56134000D01*
X89077313Y-55967177D01*
X89125976Y-55806758D01*
X89204995Y-55658924D01*
X89204996Y-55658922D01*
X89311341Y-55529341D01*
X89440922Y-55422996D01*
X89478192Y-55403075D01*
X89588758Y-55343976D01*
X89749177Y-55295313D01*
X89874196Y-55283000D01*
X89957804Y-55283000D01*
X90082823Y-55295313D01*
X90082823Y-55295313D01*
G37*
G36*
X85002823Y-55295313D02*
G01*
X85163242Y-55343976D01*
X85273808Y-55403075D01*
X85311078Y-55422996D01*
X85440659Y-55529341D01*
X85547004Y-55658922D01*
X85547005Y-55658924D01*
X85626024Y-55806758D01*
X85674687Y-55967177D01*
X85691117Y-56134000D01*
X85674687Y-56300823D01*
X85626024Y-56461242D01*
X85562690Y-56579731D01*
X85547004Y-56609078D01*
X85440659Y-56738659D01*
X85311078Y-56845004D01*
X85311076Y-56845005D01*
X85163242Y-56924024D01*
X85002823Y-56972687D01*
X84877804Y-56985000D01*
X84794196Y-56985000D01*
X84669177Y-56972687D01*
X84508758Y-56924024D01*
X84360924Y-56845005D01*
X84360922Y-56845004D01*
X84231341Y-56738659D01*
X84124996Y-56609078D01*
X84109310Y-56579731D01*
X84045976Y-56461242D01*
X83997313Y-56300823D01*
X83980883Y-56134000D01*
X83997313Y-55967177D01*
X84045976Y-55806758D01*
X84124995Y-55658924D01*
X84124996Y-55658922D01*
X84231341Y-55529341D01*
X84360922Y-55422996D01*
X84398192Y-55403075D01*
X84508758Y-55343976D01*
X84669177Y-55295313D01*
X84794196Y-55283000D01*
X84877804Y-55283000D01*
X85002823Y-55295313D01*
X85002823Y-55295313D01*
G37*
G36*
X82462823Y-55295313D02*
G01*
X82623242Y-55343976D01*
X82733808Y-55403075D01*
X82771078Y-55422996D01*
X82900659Y-55529341D01*
X83007004Y-55658922D01*
X83007005Y-55658924D01*
X83086024Y-55806758D01*
X83134687Y-55967177D01*
X83151117Y-56134000D01*
X83134687Y-56300823D01*
X83086024Y-56461242D01*
X83022690Y-56579731D01*
X83007004Y-56609078D01*
X82900659Y-56738659D01*
X82771078Y-56845004D01*
X82771076Y-56845005D01*
X82623242Y-56924024D01*
X82462823Y-56972687D01*
X82337804Y-56985000D01*
X82254196Y-56985000D01*
X82129177Y-56972687D01*
X81968758Y-56924024D01*
X81820924Y-56845005D01*
X81820922Y-56845004D01*
X81691341Y-56738659D01*
X81584996Y-56609078D01*
X81569310Y-56579731D01*
X81505976Y-56461242D01*
X81457313Y-56300823D01*
X81440883Y-56134000D01*
X81457313Y-55967177D01*
X81505976Y-55806758D01*
X81584995Y-55658924D01*
X81584996Y-55658922D01*
X81691341Y-55529341D01*
X81820922Y-55422996D01*
X81858192Y-55403075D01*
X81968758Y-55343976D01*
X82129177Y-55295313D01*
X82254196Y-55283000D01*
X82337804Y-55283000D01*
X82462823Y-55295313D01*
X82462823Y-55295313D01*
G37*
G36*
X127652142Y-54653742D02*
G01*
X127800101Y-54715029D01*
X127933255Y-54803999D01*
X128046501Y-54917245D01*
X128135471Y-55050399D01*
X128196758Y-55198358D01*
X128228000Y-55355425D01*
X128228000Y-55515575D01*
X128196758Y-55672642D01*
X128135471Y-55820601D01*
X128046501Y-55953755D01*
X127933255Y-56067001D01*
X127800101Y-56155971D01*
X127652142Y-56217258D01*
X127495075Y-56248500D01*
X127334925Y-56248500D01*
X127177858Y-56217258D01*
X127029899Y-56155971D01*
X126896745Y-56067001D01*
X126783499Y-55953755D01*
X126694529Y-55820601D01*
X126633242Y-55672642D01*
X126602000Y-55515575D01*
X126602000Y-55355425D01*
X126633242Y-55198358D01*
X126694529Y-55050399D01*
X126783499Y-54917245D01*
X126896745Y-54803999D01*
X127029899Y-54715029D01*
X127177858Y-54653742D01*
X127334925Y-54622500D01*
X127495075Y-54622500D01*
X127652142Y-54653742D01*
X127652142Y-54653742D01*
G37*
G36*
X127652142Y-52113742D02*
G01*
X127800101Y-52175029D01*
X127933255Y-52263999D01*
X128046501Y-52377245D01*
X128135471Y-52510399D01*
X128196758Y-52658358D01*
X128228000Y-52815425D01*
X128228000Y-52975575D01*
X128196758Y-53132642D01*
X128135471Y-53280601D01*
X128046501Y-53413755D01*
X127933255Y-53527001D01*
X127800101Y-53615971D01*
X127652142Y-53677258D01*
X127495075Y-53708500D01*
X127334925Y-53708500D01*
X127177858Y-53677258D01*
X127029899Y-53615971D01*
X126896745Y-53527001D01*
X126783499Y-53413755D01*
X126694529Y-53280601D01*
X126633242Y-53132642D01*
X126602000Y-52975575D01*
X126602000Y-52815425D01*
X126633242Y-52658358D01*
X126694529Y-52510399D01*
X126783499Y-52377245D01*
X126896745Y-52263999D01*
X127029899Y-52175029D01*
X127177858Y-52113742D01*
X127334925Y-52082500D01*
X127495075Y-52082500D01*
X127652142Y-52113742D01*
X127652142Y-52113742D01*
G37*
G36*
X127652142Y-49573742D02*
G01*
X127800101Y-49635029D01*
X127933255Y-49723999D01*
X128046501Y-49837245D01*
X128135471Y-49970399D01*
X128196758Y-50118358D01*
X128228000Y-50275425D01*
X128228000Y-50435575D01*
X128196758Y-50592642D01*
X128135471Y-50740601D01*
X128046501Y-50873755D01*
X127933255Y-50987001D01*
X127800101Y-51075971D01*
X127652142Y-51137258D01*
X127495075Y-51168500D01*
X127334925Y-51168500D01*
X127177858Y-51137258D01*
X127029899Y-51075971D01*
X126896745Y-50987001D01*
X126783499Y-50873755D01*
X126694529Y-50740601D01*
X126633242Y-50592642D01*
X126602000Y-50435575D01*
X126602000Y-50275425D01*
X126633242Y-50118358D01*
X126694529Y-49970399D01*
X126783499Y-49837245D01*
X126896745Y-49723999D01*
X127029899Y-49635029D01*
X127177858Y-49573742D01*
X127334925Y-49542500D01*
X127495075Y-49542500D01*
X127652142Y-49573742D01*
X127652142Y-49573742D01*
G37*
G36*
X127652142Y-47033742D02*
G01*
X127800101Y-47095029D01*
X127933255Y-47183999D01*
X128046501Y-47297245D01*
X128135471Y-47430399D01*
X128196758Y-47578358D01*
X128228000Y-47735425D01*
X128228000Y-47895575D01*
X128196758Y-48052642D01*
X128135471Y-48200601D01*
X128046501Y-48333755D01*
X127933255Y-48447001D01*
X127800101Y-48535971D01*
X127652142Y-48597258D01*
X127495075Y-48628500D01*
X127334925Y-48628500D01*
X127177858Y-48597258D01*
X127029899Y-48535971D01*
X126896745Y-48447001D01*
X126783499Y-48333755D01*
X126694529Y-48200601D01*
X126633242Y-48052642D01*
X126602000Y-47895575D01*
X126602000Y-47735425D01*
X126633242Y-47578358D01*
X126694529Y-47430399D01*
X126783499Y-47297245D01*
X126896745Y-47183999D01*
X127029899Y-47095029D01*
X127177858Y-47033742D01*
X127334925Y-47002500D01*
X127495075Y-47002500D01*
X127652142Y-47033742D01*
X127652142Y-47033742D01*
G37*
G36*
X127652142Y-44493742D02*
G01*
X127800101Y-44555029D01*
X127933255Y-44643999D01*
X128046501Y-44757245D01*
X128135471Y-44890399D01*
X128196758Y-45038358D01*
X128228000Y-45195425D01*
X128228000Y-45355575D01*
X128196758Y-45512642D01*
X128135471Y-45660601D01*
X128046501Y-45793755D01*
X127933255Y-45907001D01*
X127800101Y-45995971D01*
X127652142Y-46057258D01*
X127495075Y-46088500D01*
X127334925Y-46088500D01*
X127177858Y-46057258D01*
X127029899Y-45995971D01*
X126896745Y-45907001D01*
X126783499Y-45793755D01*
X126694529Y-45660601D01*
X126633242Y-45512642D01*
X126602000Y-45355575D01*
X126602000Y-45195425D01*
X126633242Y-45038358D01*
X126694529Y-44890399D01*
X126783499Y-44757245D01*
X126896745Y-44643999D01*
X127029899Y-44555029D01*
X127177858Y-44493742D01*
X127334925Y-44462500D01*
X127495075Y-44462500D01*
X127652142Y-44493742D01*
X127652142Y-44493742D01*
G37*
G36*
X112959580Y-39971081D02*
G01*
X113050480Y-39989162D01*
X113164647Y-40036452D01*
X113221732Y-40060097D01*
X113375850Y-40163075D01*
X113506925Y-40294150D01*
X113609903Y-40448268D01*
X113609903Y-40448269D01*
X113680838Y-40619520D01*
X113717000Y-40801320D01*
X113717000Y-40986680D01*
X113680838Y-41168480D01*
X113658984Y-41221239D01*
X113609903Y-41339732D01*
X113506925Y-41493850D01*
X113375850Y-41624925D01*
X113221732Y-41727903D01*
X113164647Y-41751548D01*
X113050480Y-41798838D01*
X112959580Y-41816919D01*
X112868682Y-41835000D01*
X112683318Y-41835000D01*
X112592420Y-41816919D01*
X112501520Y-41798838D01*
X112387353Y-41751548D01*
X112330268Y-41727903D01*
X112176150Y-41624925D01*
X112045075Y-41493850D01*
X111942097Y-41339732D01*
X111893016Y-41221239D01*
X111871162Y-41168480D01*
X111835000Y-40986680D01*
X111835000Y-40801320D01*
X111871162Y-40619520D01*
X111942097Y-40448269D01*
X111942097Y-40448268D01*
X112045075Y-40294150D01*
X112176150Y-40163075D01*
X112330268Y-40060097D01*
X112387353Y-40036452D01*
X112501520Y-39989162D01*
X112592420Y-39971081D01*
X112683318Y-39953000D01*
X112868682Y-39953000D01*
X112959580Y-39971081D01*
X112959580Y-39971081D01*
G37*
G36*
X72319580Y-39971081D02*
G01*
X72410480Y-39989162D01*
X72524647Y-40036452D01*
X72581732Y-40060097D01*
X72735850Y-40163075D01*
X72866925Y-40294150D01*
X72969903Y-40448268D01*
X72969903Y-40448269D01*
X73040838Y-40619520D01*
X73077000Y-40801320D01*
X73077000Y-40986680D01*
X73040838Y-41168480D01*
X73018984Y-41221239D01*
X72969903Y-41339732D01*
X72866925Y-41493850D01*
X72735850Y-41624925D01*
X72581732Y-41727903D01*
X72524647Y-41751548D01*
X72410480Y-41798838D01*
X72319580Y-41816919D01*
X72228682Y-41835000D01*
X72043318Y-41835000D01*
X71952420Y-41816919D01*
X71861520Y-41798838D01*
X71747353Y-41751548D01*
X71690268Y-41727903D01*
X71536150Y-41624925D01*
X71405075Y-41493850D01*
X71302097Y-41339732D01*
X71253016Y-41221239D01*
X71231162Y-41168480D01*
X71195000Y-40986680D01*
X71195000Y-40801320D01*
X71231162Y-40619520D01*
X71302097Y-40448269D01*
X71302097Y-40448268D01*
X71405075Y-40294150D01*
X71536150Y-40163075D01*
X71690268Y-40060097D01*
X71747353Y-40036452D01*
X71861520Y-39989162D01*
X71952420Y-39971081D01*
X72043318Y-39953000D01*
X72228682Y-39953000D01*
X72319580Y-39971081D01*
X72319580Y-39971081D01*
G37*
G36*
X79922823Y-40055313D02*
G01*
X80083242Y-40103976D01*
X80193808Y-40163075D01*
X80231078Y-40182996D01*
X80360659Y-40289341D01*
X80467004Y-40418922D01*
X80467005Y-40418924D01*
X80546024Y-40566758D01*
X80594687Y-40727177D01*
X80611117Y-40894000D01*
X80594687Y-41060823D01*
X80546024Y-41221242D01*
X80482690Y-41339731D01*
X80467004Y-41369078D01*
X80360659Y-41498659D01*
X80231078Y-41605004D01*
X80231076Y-41605005D01*
X80083242Y-41684024D01*
X79922823Y-41732687D01*
X79797804Y-41745000D01*
X79714196Y-41745000D01*
X79589177Y-41732687D01*
X79428758Y-41684024D01*
X79280924Y-41605005D01*
X79280922Y-41605004D01*
X79151341Y-41498659D01*
X79044996Y-41369078D01*
X79029310Y-41339731D01*
X78965976Y-41221242D01*
X78917313Y-41060823D01*
X78900883Y-40894000D01*
X78917313Y-40727177D01*
X78965976Y-40566758D01*
X79044995Y-40418924D01*
X79044996Y-40418922D01*
X79151341Y-40289341D01*
X79280922Y-40182996D01*
X79318192Y-40163075D01*
X79428758Y-40103976D01*
X79589177Y-40055313D01*
X79714196Y-40043000D01*
X79797804Y-40043000D01*
X79922823Y-40055313D01*
X79922823Y-40055313D01*
G37*
G36*
X111087000Y-41745000D02*
G01*
X109385000Y-41745000D01*
X109385000Y-40043000D01*
X111087000Y-40043000D01*
X111087000Y-41745000D01*
X111087000Y-41745000D01*
G37*
G36*
X107862823Y-40055313D02*
G01*
X108023242Y-40103976D01*
X108133808Y-40163075D01*
X108171078Y-40182996D01*
X108300659Y-40289341D01*
X108407004Y-40418922D01*
X108407005Y-40418924D01*
X108486024Y-40566758D01*
X108534687Y-40727177D01*
X108551117Y-40894000D01*
X108534687Y-41060823D01*
X108486024Y-41221242D01*
X108422690Y-41339731D01*
X108407004Y-41369078D01*
X108300659Y-41498659D01*
X108171078Y-41605004D01*
X108171076Y-41605005D01*
X108023242Y-41684024D01*
X107862823Y-41732687D01*
X107737804Y-41745000D01*
X107654196Y-41745000D01*
X107529177Y-41732687D01*
X107368758Y-41684024D01*
X107220924Y-41605005D01*
X107220922Y-41605004D01*
X107091341Y-41498659D01*
X106984996Y-41369078D01*
X106969310Y-41339731D01*
X106905976Y-41221242D01*
X106857313Y-41060823D01*
X106840883Y-40894000D01*
X106857313Y-40727177D01*
X106905976Y-40566758D01*
X106984995Y-40418924D01*
X106984996Y-40418922D01*
X107091341Y-40289341D01*
X107220922Y-40182996D01*
X107258192Y-40163075D01*
X107368758Y-40103976D01*
X107529177Y-40055313D01*
X107654196Y-40043000D01*
X107737804Y-40043000D01*
X107862823Y-40055313D01*
X107862823Y-40055313D01*
G37*
G36*
X105322823Y-40055313D02*
G01*
X105483242Y-40103976D01*
X105593808Y-40163075D01*
X105631078Y-40182996D01*
X105760659Y-40289341D01*
X105867004Y-40418922D01*
X105867005Y-40418924D01*
X105946024Y-40566758D01*
X105994687Y-40727177D01*
X106011117Y-40894000D01*
X105994687Y-41060823D01*
X105946024Y-41221242D01*
X105882690Y-41339731D01*
X105867004Y-41369078D01*
X105760659Y-41498659D01*
X105631078Y-41605004D01*
X105631076Y-41605005D01*
X105483242Y-41684024D01*
X105322823Y-41732687D01*
X105197804Y-41745000D01*
X105114196Y-41745000D01*
X104989177Y-41732687D01*
X104828758Y-41684024D01*
X104680924Y-41605005D01*
X104680922Y-41605004D01*
X104551341Y-41498659D01*
X104444996Y-41369078D01*
X104429310Y-41339731D01*
X104365976Y-41221242D01*
X104317313Y-41060823D01*
X104300883Y-40894000D01*
X104317313Y-40727177D01*
X104365976Y-40566758D01*
X104444995Y-40418924D01*
X104444996Y-40418922D01*
X104551341Y-40289341D01*
X104680922Y-40182996D01*
X104718192Y-40163075D01*
X104828758Y-40103976D01*
X104989177Y-40055313D01*
X105114196Y-40043000D01*
X105197804Y-40043000D01*
X105322823Y-40055313D01*
X105322823Y-40055313D01*
G37*
G36*
X102782823Y-40055313D02*
G01*
X102943242Y-40103976D01*
X103053808Y-40163075D01*
X103091078Y-40182996D01*
X103220659Y-40289341D01*
X103327004Y-40418922D01*
X103327005Y-40418924D01*
X103406024Y-40566758D01*
X103454687Y-40727177D01*
X103471117Y-40894000D01*
X103454687Y-41060823D01*
X103406024Y-41221242D01*
X103342690Y-41339731D01*
X103327004Y-41369078D01*
X103220659Y-41498659D01*
X103091078Y-41605004D01*
X103091076Y-41605005D01*
X102943242Y-41684024D01*
X102782823Y-41732687D01*
X102657804Y-41745000D01*
X102574196Y-41745000D01*
X102449177Y-41732687D01*
X102288758Y-41684024D01*
X102140924Y-41605005D01*
X102140922Y-41605004D01*
X102011341Y-41498659D01*
X101904996Y-41369078D01*
X101889310Y-41339731D01*
X101825976Y-41221242D01*
X101777313Y-41060823D01*
X101760883Y-40894000D01*
X101777313Y-40727177D01*
X101825976Y-40566758D01*
X101904995Y-40418924D01*
X101904996Y-40418922D01*
X102011341Y-40289341D01*
X102140922Y-40182996D01*
X102178192Y-40163075D01*
X102288758Y-40103976D01*
X102449177Y-40055313D01*
X102574196Y-40043000D01*
X102657804Y-40043000D01*
X102782823Y-40055313D01*
X102782823Y-40055313D01*
G37*
G36*
X100242823Y-40055313D02*
G01*
X100403242Y-40103976D01*
X100513808Y-40163075D01*
X100551078Y-40182996D01*
X100680659Y-40289341D01*
X100787004Y-40418922D01*
X100787005Y-40418924D01*
X100866024Y-40566758D01*
X100914687Y-40727177D01*
X100931117Y-40894000D01*
X100914687Y-41060823D01*
X100866024Y-41221242D01*
X100802690Y-41339731D01*
X100787004Y-41369078D01*
X100680659Y-41498659D01*
X100551078Y-41605004D01*
X100551076Y-41605005D01*
X100403242Y-41684024D01*
X100242823Y-41732687D01*
X100117804Y-41745000D01*
X100034196Y-41745000D01*
X99909177Y-41732687D01*
X99748758Y-41684024D01*
X99600924Y-41605005D01*
X99600922Y-41605004D01*
X99471341Y-41498659D01*
X99364996Y-41369078D01*
X99349310Y-41339731D01*
X99285976Y-41221242D01*
X99237313Y-41060823D01*
X99220883Y-40894000D01*
X99237313Y-40727177D01*
X99285976Y-40566758D01*
X99364995Y-40418924D01*
X99364996Y-40418922D01*
X99471341Y-40289341D01*
X99600922Y-40182996D01*
X99638192Y-40163075D01*
X99748758Y-40103976D01*
X99909177Y-40055313D01*
X100034196Y-40043000D01*
X100117804Y-40043000D01*
X100242823Y-40055313D01*
X100242823Y-40055313D01*
G37*
G36*
X97702823Y-40055313D02*
G01*
X97863242Y-40103976D01*
X97973808Y-40163075D01*
X98011078Y-40182996D01*
X98140659Y-40289341D01*
X98247004Y-40418922D01*
X98247005Y-40418924D01*
X98326024Y-40566758D01*
X98374687Y-40727177D01*
X98391117Y-40894000D01*
X98374687Y-41060823D01*
X98326024Y-41221242D01*
X98262690Y-41339731D01*
X98247004Y-41369078D01*
X98140659Y-41498659D01*
X98011078Y-41605004D01*
X98011076Y-41605005D01*
X97863242Y-41684024D01*
X97702823Y-41732687D01*
X97577804Y-41745000D01*
X97494196Y-41745000D01*
X97369177Y-41732687D01*
X97208758Y-41684024D01*
X97060924Y-41605005D01*
X97060922Y-41605004D01*
X96931341Y-41498659D01*
X96824996Y-41369078D01*
X96809310Y-41339731D01*
X96745976Y-41221242D01*
X96697313Y-41060823D01*
X96680883Y-40894000D01*
X96697313Y-40727177D01*
X96745976Y-40566758D01*
X96824995Y-40418924D01*
X96824996Y-40418922D01*
X96931341Y-40289341D01*
X97060922Y-40182996D01*
X97098192Y-40163075D01*
X97208758Y-40103976D01*
X97369177Y-40055313D01*
X97494196Y-40043000D01*
X97577804Y-40043000D01*
X97702823Y-40055313D01*
X97702823Y-40055313D01*
G37*
G36*
X95162823Y-40055313D02*
G01*
X95323242Y-40103976D01*
X95433808Y-40163075D01*
X95471078Y-40182996D01*
X95600659Y-40289341D01*
X95707004Y-40418922D01*
X95707005Y-40418924D01*
X95786024Y-40566758D01*
X95834687Y-40727177D01*
X95851117Y-40894000D01*
X95834687Y-41060823D01*
X95786024Y-41221242D01*
X95722690Y-41339731D01*
X95707004Y-41369078D01*
X95600659Y-41498659D01*
X95471078Y-41605004D01*
X95471076Y-41605005D01*
X95323242Y-41684024D01*
X95162823Y-41732687D01*
X95037804Y-41745000D01*
X94954196Y-41745000D01*
X94829177Y-41732687D01*
X94668758Y-41684024D01*
X94520924Y-41605005D01*
X94520922Y-41605004D01*
X94391341Y-41498659D01*
X94284996Y-41369078D01*
X94269310Y-41339731D01*
X94205976Y-41221242D01*
X94157313Y-41060823D01*
X94140883Y-40894000D01*
X94157313Y-40727177D01*
X94205976Y-40566758D01*
X94284995Y-40418924D01*
X94284996Y-40418922D01*
X94391341Y-40289341D01*
X94520922Y-40182996D01*
X94558192Y-40163075D01*
X94668758Y-40103976D01*
X94829177Y-40055313D01*
X94954196Y-40043000D01*
X95037804Y-40043000D01*
X95162823Y-40055313D01*
X95162823Y-40055313D01*
G37*
G36*
X87542823Y-40055313D02*
G01*
X87703242Y-40103976D01*
X87813808Y-40163075D01*
X87851078Y-40182996D01*
X87980659Y-40289341D01*
X88087004Y-40418922D01*
X88087005Y-40418924D01*
X88166024Y-40566758D01*
X88214687Y-40727177D01*
X88231117Y-40894000D01*
X88214687Y-41060823D01*
X88166024Y-41221242D01*
X88102690Y-41339731D01*
X88087004Y-41369078D01*
X87980659Y-41498659D01*
X87851078Y-41605004D01*
X87851076Y-41605005D01*
X87703242Y-41684024D01*
X87542823Y-41732687D01*
X87417804Y-41745000D01*
X87334196Y-41745000D01*
X87209177Y-41732687D01*
X87048758Y-41684024D01*
X86900924Y-41605005D01*
X86900922Y-41605004D01*
X86771341Y-41498659D01*
X86664996Y-41369078D01*
X86649310Y-41339731D01*
X86585976Y-41221242D01*
X86537313Y-41060823D01*
X86520883Y-40894000D01*
X86537313Y-40727177D01*
X86585976Y-40566758D01*
X86664995Y-40418924D01*
X86664996Y-40418922D01*
X86771341Y-40289341D01*
X86900922Y-40182996D01*
X86938192Y-40163075D01*
X87048758Y-40103976D01*
X87209177Y-40055313D01*
X87334196Y-40043000D01*
X87417804Y-40043000D01*
X87542823Y-40055313D01*
X87542823Y-40055313D01*
G37*
G36*
X90082823Y-40055313D02*
G01*
X90243242Y-40103976D01*
X90353808Y-40163075D01*
X90391078Y-40182996D01*
X90520659Y-40289341D01*
X90627004Y-40418922D01*
X90627005Y-40418924D01*
X90706024Y-40566758D01*
X90754687Y-40727177D01*
X90771117Y-40894000D01*
X90754687Y-41060823D01*
X90706024Y-41221242D01*
X90642690Y-41339731D01*
X90627004Y-41369078D01*
X90520659Y-41498659D01*
X90391078Y-41605004D01*
X90391076Y-41605005D01*
X90243242Y-41684024D01*
X90082823Y-41732687D01*
X89957804Y-41745000D01*
X89874196Y-41745000D01*
X89749177Y-41732687D01*
X89588758Y-41684024D01*
X89440924Y-41605005D01*
X89440922Y-41605004D01*
X89311341Y-41498659D01*
X89204996Y-41369078D01*
X89189310Y-41339731D01*
X89125976Y-41221242D01*
X89077313Y-41060823D01*
X89060883Y-40894000D01*
X89077313Y-40727177D01*
X89125976Y-40566758D01*
X89204995Y-40418924D01*
X89204996Y-40418922D01*
X89311341Y-40289341D01*
X89440922Y-40182996D01*
X89478192Y-40163075D01*
X89588758Y-40103976D01*
X89749177Y-40055313D01*
X89874196Y-40043000D01*
X89957804Y-40043000D01*
X90082823Y-40055313D01*
X90082823Y-40055313D01*
G37*
G36*
X92622823Y-40055313D02*
G01*
X92783242Y-40103976D01*
X92893808Y-40163075D01*
X92931078Y-40182996D01*
X93060659Y-40289341D01*
X93167004Y-40418922D01*
X93167005Y-40418924D01*
X93246024Y-40566758D01*
X93294687Y-40727177D01*
X93311117Y-40894000D01*
X93294687Y-41060823D01*
X93246024Y-41221242D01*
X93182690Y-41339731D01*
X93167004Y-41369078D01*
X93060659Y-41498659D01*
X92931078Y-41605004D01*
X92931076Y-41605005D01*
X92783242Y-41684024D01*
X92622823Y-41732687D01*
X92497804Y-41745000D01*
X92414196Y-41745000D01*
X92289177Y-41732687D01*
X92128758Y-41684024D01*
X91980924Y-41605005D01*
X91980922Y-41605004D01*
X91851341Y-41498659D01*
X91744996Y-41369078D01*
X91729310Y-41339731D01*
X91665976Y-41221242D01*
X91617313Y-41060823D01*
X91600883Y-40894000D01*
X91617313Y-40727177D01*
X91665976Y-40566758D01*
X91744995Y-40418924D01*
X91744996Y-40418922D01*
X91851341Y-40289341D01*
X91980922Y-40182996D01*
X92018192Y-40163075D01*
X92128758Y-40103976D01*
X92289177Y-40055313D01*
X92414196Y-40043000D01*
X92497804Y-40043000D01*
X92622823Y-40055313D01*
X92622823Y-40055313D01*
G37*
G36*
X82462823Y-40055313D02*
G01*
X82623242Y-40103976D01*
X82733808Y-40163075D01*
X82771078Y-40182996D01*
X82900659Y-40289341D01*
X83007004Y-40418922D01*
X83007005Y-40418924D01*
X83086024Y-40566758D01*
X83134687Y-40727177D01*
X83151117Y-40894000D01*
X83134687Y-41060823D01*
X83086024Y-41221242D01*
X83022690Y-41339731D01*
X83007004Y-41369078D01*
X82900659Y-41498659D01*
X82771078Y-41605004D01*
X82771076Y-41605005D01*
X82623242Y-41684024D01*
X82462823Y-41732687D01*
X82337804Y-41745000D01*
X82254196Y-41745000D01*
X82129177Y-41732687D01*
X81968758Y-41684024D01*
X81820924Y-41605005D01*
X81820922Y-41605004D01*
X81691341Y-41498659D01*
X81584996Y-41369078D01*
X81569310Y-41339731D01*
X81505976Y-41221242D01*
X81457313Y-41060823D01*
X81440883Y-40894000D01*
X81457313Y-40727177D01*
X81505976Y-40566758D01*
X81584995Y-40418924D01*
X81584996Y-40418922D01*
X81691341Y-40289341D01*
X81820922Y-40182996D01*
X81858192Y-40163075D01*
X81968758Y-40103976D01*
X82129177Y-40055313D01*
X82254196Y-40043000D01*
X82337804Y-40043000D01*
X82462823Y-40055313D01*
X82462823Y-40055313D01*
G37*
G36*
X74842823Y-40055313D02*
G01*
X75003242Y-40103976D01*
X75113808Y-40163075D01*
X75151078Y-40182996D01*
X75280659Y-40289341D01*
X75387004Y-40418922D01*
X75387005Y-40418924D01*
X75466024Y-40566758D01*
X75514687Y-40727177D01*
X75531117Y-40894000D01*
X75514687Y-41060823D01*
X75466024Y-41221242D01*
X75402690Y-41339731D01*
X75387004Y-41369078D01*
X75280659Y-41498659D01*
X75151078Y-41605004D01*
X75151076Y-41605005D01*
X75003242Y-41684024D01*
X74842823Y-41732687D01*
X74717804Y-41745000D01*
X74634196Y-41745000D01*
X74509177Y-41732687D01*
X74348758Y-41684024D01*
X74200924Y-41605005D01*
X74200922Y-41605004D01*
X74071341Y-41498659D01*
X73964996Y-41369078D01*
X73949310Y-41339731D01*
X73885976Y-41221242D01*
X73837313Y-41060823D01*
X73820883Y-40894000D01*
X73837313Y-40727177D01*
X73885976Y-40566758D01*
X73964995Y-40418924D01*
X73964996Y-40418922D01*
X74071341Y-40289341D01*
X74200922Y-40182996D01*
X74238192Y-40163075D01*
X74348758Y-40103976D01*
X74509177Y-40055313D01*
X74634196Y-40043000D01*
X74717804Y-40043000D01*
X74842823Y-40055313D01*
X74842823Y-40055313D01*
G37*
G36*
X77382823Y-40055313D02*
G01*
X77543242Y-40103976D01*
X77653808Y-40163075D01*
X77691078Y-40182996D01*
X77820659Y-40289341D01*
X77927004Y-40418922D01*
X77927005Y-40418924D01*
X78006024Y-40566758D01*
X78054687Y-40727177D01*
X78071117Y-40894000D01*
X78054687Y-41060823D01*
X78006024Y-41221242D01*
X77942690Y-41339731D01*
X77927004Y-41369078D01*
X77820659Y-41498659D01*
X77691078Y-41605004D01*
X77691076Y-41605005D01*
X77543242Y-41684024D01*
X77382823Y-41732687D01*
X77257804Y-41745000D01*
X77174196Y-41745000D01*
X77049177Y-41732687D01*
X76888758Y-41684024D01*
X76740924Y-41605005D01*
X76740922Y-41605004D01*
X76611341Y-41498659D01*
X76504996Y-41369078D01*
X76489310Y-41339731D01*
X76425976Y-41221242D01*
X76377313Y-41060823D01*
X76360883Y-40894000D01*
X76377313Y-40727177D01*
X76425976Y-40566758D01*
X76504995Y-40418924D01*
X76504996Y-40418922D01*
X76611341Y-40289341D01*
X76740922Y-40182996D01*
X76778192Y-40163075D01*
X76888758Y-40103976D01*
X77049177Y-40055313D01*
X77174196Y-40043000D01*
X77257804Y-40043000D01*
X77382823Y-40055313D01*
X77382823Y-40055313D01*
G37*
G36*
X85002823Y-40055313D02*
G01*
X85163242Y-40103976D01*
X85273808Y-40163075D01*
X85311078Y-40182996D01*
X85440659Y-40289341D01*
X85547004Y-40418922D01*
X85547005Y-40418924D01*
X85626024Y-40566758D01*
X85674687Y-40727177D01*
X85691117Y-40894000D01*
X85674687Y-41060823D01*
X85626024Y-41221242D01*
X85562690Y-41339731D01*
X85547004Y-41369078D01*
X85440659Y-41498659D01*
X85311078Y-41605004D01*
X85311076Y-41605005D01*
X85163242Y-41684024D01*
X85002823Y-41732687D01*
X84877804Y-41745000D01*
X84794196Y-41745000D01*
X84669177Y-41732687D01*
X84508758Y-41684024D01*
X84360924Y-41605005D01*
X84360922Y-41605004D01*
X84231341Y-41498659D01*
X84124996Y-41369078D01*
X84109310Y-41339731D01*
X84045976Y-41221242D01*
X83997313Y-41060823D01*
X83980883Y-40894000D01*
X83997313Y-40727177D01*
X84045976Y-40566758D01*
X84124995Y-40418924D01*
X84124996Y-40418922D01*
X84231341Y-40289341D01*
X84360922Y-40182996D01*
X84398192Y-40163075D01*
X84508758Y-40103976D01*
X84669177Y-40055313D01*
X84794196Y-40043000D01*
X84877804Y-40043000D01*
X85002823Y-40055313D01*
X85002823Y-40055313D01*
G37*
G36*
X74576000Y-31586500D02*
G01*
X71474000Y-31586500D01*
X71474000Y-28484500D01*
X74576000Y-28484500D01*
X74576000Y-31586500D01*
X74576000Y-31586500D01*
G37*
G36*
X137772228Y-28645703D02*
G01*
X137927100Y-28709853D01*
X138066481Y-28802985D01*
X138185015Y-28921519D01*
X138278147Y-29060900D01*
X138342297Y-29215772D01*
X138375000Y-29380184D01*
X138375000Y-29547816D01*
X138342297Y-29712228D01*
X138278147Y-29867100D01*
X138185015Y-30006481D01*
X138066481Y-30125015D01*
X137927100Y-30218147D01*
X137772228Y-30282297D01*
X137607816Y-30315000D01*
X137440184Y-30315000D01*
X137275772Y-30282297D01*
X137120900Y-30218147D01*
X136981519Y-30125015D01*
X136862985Y-30006481D01*
X136769853Y-29867100D01*
X136705703Y-29712228D01*
X136673000Y-29547816D01*
X136673000Y-29380184D01*
X136705703Y-29215772D01*
X136769853Y-29060900D01*
X136862985Y-28921519D01*
X136981519Y-28802985D01*
X137120900Y-28709853D01*
X137275772Y-28645703D01*
X137440184Y-28613000D01*
X137607816Y-28613000D01*
X137772228Y-28645703D01*
X137772228Y-28645703D01*
G37*
G36*
X143312228Y-28645703D02*
G01*
X143467100Y-28709853D01*
X143606481Y-28802985D01*
X143725015Y-28921519D01*
X143818147Y-29060900D01*
X143882297Y-29215772D01*
X143915000Y-29380184D01*
X143915000Y-29547816D01*
X143882297Y-29712228D01*
X143818147Y-29867100D01*
X143725015Y-30006481D01*
X143606481Y-30125015D01*
X143467100Y-30218147D01*
X143312228Y-30282297D01*
X143147816Y-30315000D01*
X142980184Y-30315000D01*
X142815772Y-30282297D01*
X142660900Y-30218147D01*
X142521519Y-30125015D01*
X142402985Y-30006481D01*
X142309853Y-29867100D01*
X142245703Y-29712228D01*
X142213000Y-29547816D01*
X142213000Y-29380184D01*
X142245703Y-29215772D01*
X142309853Y-29060900D01*
X142402985Y-28921519D01*
X142521519Y-28802985D01*
X142660900Y-28709853D01*
X142815772Y-28645703D01*
X142980184Y-28613000D01*
X143147816Y-28613000D01*
X143312228Y-28645703D01*
X143312228Y-28645703D01*
G37*
G36*
X140542228Y-28645703D02*
G01*
X140697100Y-28709853D01*
X140836481Y-28802985D01*
X140955015Y-28921519D01*
X141048147Y-29060900D01*
X141112297Y-29215772D01*
X141145000Y-29380184D01*
X141145000Y-29547816D01*
X141112297Y-29712228D01*
X141048147Y-29867100D01*
X140955015Y-30006481D01*
X140836481Y-30125015D01*
X140697100Y-30218147D01*
X140542228Y-30282297D01*
X140377816Y-30315000D01*
X140210184Y-30315000D01*
X140045772Y-30282297D01*
X139890900Y-30218147D01*
X139751519Y-30125015D01*
X139632985Y-30006481D01*
X139539853Y-29867100D01*
X139475703Y-29712228D01*
X139443000Y-29547816D01*
X139443000Y-29380184D01*
X139475703Y-29215772D01*
X139539853Y-29060900D01*
X139632985Y-28921519D01*
X139751519Y-28802985D01*
X139890900Y-28709853D01*
X140045772Y-28645703D01*
X140210184Y-28613000D01*
X140377816Y-28613000D01*
X140542228Y-28645703D01*
X140542228Y-28645703D01*
G37*
G36*
X135002228Y-28645703D02*
G01*
X135157100Y-28709853D01*
X135296481Y-28802985D01*
X135415015Y-28921519D01*
X135508147Y-29060900D01*
X135572297Y-29215772D01*
X135605000Y-29380184D01*
X135605000Y-29547816D01*
X135572297Y-29712228D01*
X135508147Y-29867100D01*
X135415015Y-30006481D01*
X135296481Y-30125015D01*
X135157100Y-30218147D01*
X135002228Y-30282297D01*
X134837816Y-30315000D01*
X134670184Y-30315000D01*
X134505772Y-30282297D01*
X134350900Y-30218147D01*
X134211519Y-30125015D01*
X134092985Y-30006481D01*
X133999853Y-29867100D01*
X133935703Y-29712228D01*
X133903000Y-29547816D01*
X133903000Y-29380184D01*
X133935703Y-29215772D01*
X133999853Y-29060900D01*
X134092985Y-28921519D01*
X134211519Y-28802985D01*
X134350900Y-28709853D01*
X134505772Y-28645703D01*
X134670184Y-28613000D01*
X134837816Y-28613000D01*
X135002228Y-28645703D01*
X135002228Y-28645703D01*
G37*
G36*
X132232228Y-28645703D02*
G01*
X132387100Y-28709853D01*
X132526481Y-28802985D01*
X132645015Y-28921519D01*
X132738147Y-29060900D01*
X132802297Y-29215772D01*
X132835000Y-29380184D01*
X132835000Y-29547816D01*
X132802297Y-29712228D01*
X132738147Y-29867100D01*
X132645015Y-30006481D01*
X132526481Y-30125015D01*
X132387100Y-30218147D01*
X132232228Y-30282297D01*
X132067816Y-30315000D01*
X131900184Y-30315000D01*
X131735772Y-30282297D01*
X131580900Y-30218147D01*
X131441519Y-30125015D01*
X131322985Y-30006481D01*
X131229853Y-29867100D01*
X131165703Y-29712228D01*
X131133000Y-29547816D01*
X131133000Y-29380184D01*
X131165703Y-29215772D01*
X131229853Y-29060900D01*
X131322985Y-28921519D01*
X131441519Y-28802985D01*
X131580900Y-28709853D01*
X131735772Y-28645703D01*
X131900184Y-28613000D01*
X132067816Y-28613000D01*
X132232228Y-28645703D01*
X132232228Y-28645703D01*
G37*
G36*
X129462228Y-28645703D02*
G01*
X129617100Y-28709853D01*
X129756481Y-28802985D01*
X129875015Y-28921519D01*
X129968147Y-29060900D01*
X130032297Y-29215772D01*
X130065000Y-29380184D01*
X130065000Y-29547816D01*
X130032297Y-29712228D01*
X129968147Y-29867100D01*
X129875015Y-30006481D01*
X129756481Y-30125015D01*
X129617100Y-30218147D01*
X129462228Y-30282297D01*
X129297816Y-30315000D01*
X129130184Y-30315000D01*
X128965772Y-30282297D01*
X128810900Y-30218147D01*
X128671519Y-30125015D01*
X128552985Y-30006481D01*
X128459853Y-29867100D01*
X128395703Y-29712228D01*
X128363000Y-29547816D01*
X128363000Y-29380184D01*
X128395703Y-29215772D01*
X128459853Y-29060900D01*
X128552985Y-28921519D01*
X128671519Y-28802985D01*
X128810900Y-28709853D01*
X128965772Y-28645703D01*
X129130184Y-28613000D01*
X129297816Y-28613000D01*
X129462228Y-28645703D01*
X129462228Y-28645703D01*
G37*
G36*
X123922228Y-28645703D02*
G01*
X124077100Y-28709853D01*
X124216481Y-28802985D01*
X124335015Y-28921519D01*
X124428147Y-29060900D01*
X124492297Y-29215772D01*
X124525000Y-29380184D01*
X124525000Y-29547816D01*
X124492297Y-29712228D01*
X124428147Y-29867100D01*
X124335015Y-30006481D01*
X124216481Y-30125015D01*
X124077100Y-30218147D01*
X123922228Y-30282297D01*
X123757816Y-30315000D01*
X123590184Y-30315000D01*
X123425772Y-30282297D01*
X123270900Y-30218147D01*
X123131519Y-30125015D01*
X123012985Y-30006481D01*
X122919853Y-29867100D01*
X122855703Y-29712228D01*
X122823000Y-29547816D01*
X122823000Y-29380184D01*
X122855703Y-29215772D01*
X122919853Y-29060900D01*
X123012985Y-28921519D01*
X123131519Y-28802985D01*
X123270900Y-28709853D01*
X123425772Y-28645703D01*
X123590184Y-28613000D01*
X123757816Y-28613000D01*
X123922228Y-28645703D01*
X123922228Y-28645703D01*
G37*
G36*
X121755000Y-30315000D02*
G01*
X120053000Y-30315000D01*
X120053000Y-28613000D01*
X121755000Y-28613000D01*
X121755000Y-30315000D01*
X121755000Y-30315000D01*
G37*
G36*
X146082228Y-28645703D02*
G01*
X146237100Y-28709853D01*
X146376481Y-28802985D01*
X146495015Y-28921519D01*
X146588147Y-29060900D01*
X146652297Y-29215772D01*
X146685000Y-29380184D01*
X146685000Y-29547816D01*
X146652297Y-29712228D01*
X146588147Y-29867100D01*
X146495015Y-30006481D01*
X146376481Y-30125015D01*
X146237100Y-30218147D01*
X146082228Y-30282297D01*
X145917816Y-30315000D01*
X145750184Y-30315000D01*
X145585772Y-30282297D01*
X145430900Y-30218147D01*
X145291519Y-30125015D01*
X145172985Y-30006481D01*
X145079853Y-29867100D01*
X145015703Y-29712228D01*
X144983000Y-29547816D01*
X144983000Y-29380184D01*
X145015703Y-29215772D01*
X145079853Y-29060900D01*
X145172985Y-28921519D01*
X145291519Y-28802985D01*
X145430900Y-28709853D01*
X145585772Y-28645703D01*
X145750184Y-28613000D01*
X145917816Y-28613000D01*
X146082228Y-28645703D01*
X146082228Y-28645703D01*
G37*
G36*
X148852228Y-28645703D02*
G01*
X149007100Y-28709853D01*
X149146481Y-28802985D01*
X149265015Y-28921519D01*
X149358147Y-29060900D01*
X149422297Y-29215772D01*
X149455000Y-29380184D01*
X149455000Y-29547816D01*
X149422297Y-29712228D01*
X149358147Y-29867100D01*
X149265015Y-30006481D01*
X149146481Y-30125015D01*
X149007100Y-30218147D01*
X148852228Y-30282297D01*
X148687816Y-30315000D01*
X148520184Y-30315000D01*
X148355772Y-30282297D01*
X148200900Y-30218147D01*
X148061519Y-30125015D01*
X147942985Y-30006481D01*
X147849853Y-29867100D01*
X147785703Y-29712228D01*
X147753000Y-29547816D01*
X147753000Y-29380184D01*
X147785703Y-29215772D01*
X147849853Y-29060900D01*
X147942985Y-28921519D01*
X148061519Y-28802985D01*
X148200900Y-28709853D01*
X148355772Y-28645703D01*
X148520184Y-28613000D01*
X148687816Y-28613000D01*
X148852228Y-28645703D01*
X148852228Y-28645703D01*
G37*
G36*
X151622228Y-28645703D02*
G01*
X151777100Y-28709853D01*
X151916481Y-28802985D01*
X152035015Y-28921519D01*
X152128147Y-29060900D01*
X152192297Y-29215772D01*
X152225000Y-29380184D01*
X152225000Y-29547816D01*
X152192297Y-29712228D01*
X152128147Y-29867100D01*
X152035015Y-30006481D01*
X151916481Y-30125015D01*
X151777100Y-30218147D01*
X151622228Y-30282297D01*
X151457816Y-30315000D01*
X151290184Y-30315000D01*
X151125772Y-30282297D01*
X150970900Y-30218147D01*
X150831519Y-30125015D01*
X150712985Y-30006481D01*
X150619853Y-29867100D01*
X150555703Y-29712228D01*
X150523000Y-29547816D01*
X150523000Y-29380184D01*
X150555703Y-29215772D01*
X150619853Y-29060900D01*
X150712985Y-28921519D01*
X150831519Y-28802985D01*
X150970900Y-28709853D01*
X151125772Y-28645703D01*
X151290184Y-28613000D01*
X151457816Y-28613000D01*
X151622228Y-28645703D01*
X151622228Y-28645703D01*
G37*
G36*
X154392228Y-28645703D02*
G01*
X154547100Y-28709853D01*
X154686481Y-28802985D01*
X154805015Y-28921519D01*
X154898147Y-29060900D01*
X154962297Y-29215772D01*
X154995000Y-29380184D01*
X154995000Y-29547816D01*
X154962297Y-29712228D01*
X154898147Y-29867100D01*
X154805015Y-30006481D01*
X154686481Y-30125015D01*
X154547100Y-30218147D01*
X154392228Y-30282297D01*
X154227816Y-30315000D01*
X154060184Y-30315000D01*
X153895772Y-30282297D01*
X153740900Y-30218147D01*
X153601519Y-30125015D01*
X153482985Y-30006481D01*
X153389853Y-29867100D01*
X153325703Y-29712228D01*
X153293000Y-29547816D01*
X153293000Y-29380184D01*
X153325703Y-29215772D01*
X153389853Y-29060900D01*
X153482985Y-28921519D01*
X153601519Y-28802985D01*
X153740900Y-28709853D01*
X153895772Y-28645703D01*
X154060184Y-28613000D01*
X154227816Y-28613000D01*
X154392228Y-28645703D01*
X154392228Y-28645703D01*
G37*
G36*
X126692228Y-28645703D02*
G01*
X126847100Y-28709853D01*
X126986481Y-28802985D01*
X127105015Y-28921519D01*
X127198147Y-29060900D01*
X127262297Y-29215772D01*
X127295000Y-29380184D01*
X127295000Y-29547816D01*
X127262297Y-29712228D01*
X127198147Y-29867100D01*
X127105015Y-30006481D01*
X126986481Y-30125015D01*
X126847100Y-30218147D01*
X126692228Y-30282297D01*
X126527816Y-30315000D01*
X126360184Y-30315000D01*
X126195772Y-30282297D01*
X126040900Y-30218147D01*
X125901519Y-30125015D01*
X125782985Y-30006481D01*
X125689853Y-29867100D01*
X125625703Y-29712228D01*
X125593000Y-29547816D01*
X125593000Y-29380184D01*
X125625703Y-29215772D01*
X125689853Y-29060900D01*
X125782985Y-28921519D01*
X125901519Y-28802985D01*
X126040900Y-28709853D01*
X126195772Y-28645703D01*
X126360184Y-28613000D01*
X126527816Y-28613000D01*
X126692228Y-28645703D01*
X126692228Y-28645703D01*
G37*
G36*
X161672254Y-26071818D02*
G01*
X162032170Y-26220900D01*
X162045513Y-26226427D01*
X162381436Y-26450884D01*
X162667116Y-26736564D01*
X162757765Y-26872229D01*
X162891574Y-27072489D01*
X163046182Y-27445746D01*
X163125000Y-27841993D01*
X163125000Y-28246007D01*
X163046182Y-28642254D01*
X162930506Y-28921520D01*
X162891573Y-29015513D01*
X162667116Y-29351436D01*
X162381436Y-29637116D01*
X162045513Y-29861573D01*
X162045512Y-29861574D01*
X162045511Y-29861574D01*
X161672254Y-30016182D01*
X161276007Y-30095000D01*
X160871993Y-30095000D01*
X160475746Y-30016182D01*
X160102489Y-29861574D01*
X160102488Y-29861574D01*
X160102487Y-29861573D01*
X159766564Y-29637116D01*
X159480884Y-29351436D01*
X159256427Y-29015513D01*
X159217494Y-28921520D01*
X159101818Y-28642254D01*
X159023000Y-28246007D01*
X159023000Y-27841993D01*
X159101818Y-27445746D01*
X159256426Y-27072489D01*
X159390236Y-26872229D01*
X159480884Y-26736564D01*
X159766564Y-26450884D01*
X160102487Y-26226427D01*
X160115830Y-26220900D01*
X160475746Y-26071818D01*
X160871993Y-25993000D01*
X161276007Y-25993000D01*
X161672254Y-26071818D01*
X161672254Y-26071818D01*
G37*
G36*
X114572254Y-26071818D02*
G01*
X114932170Y-26220900D01*
X114945513Y-26226427D01*
X115281436Y-26450884D01*
X115567116Y-26736564D01*
X115657765Y-26872229D01*
X115791574Y-27072489D01*
X115946182Y-27445746D01*
X116025000Y-27841993D01*
X116025000Y-28246007D01*
X115946182Y-28642254D01*
X115830506Y-28921520D01*
X115791573Y-29015513D01*
X115567116Y-29351436D01*
X115281436Y-29637116D01*
X114945513Y-29861573D01*
X114945512Y-29861574D01*
X114945511Y-29861574D01*
X114572254Y-30016182D01*
X114176007Y-30095000D01*
X113771993Y-30095000D01*
X113375746Y-30016182D01*
X113002489Y-29861574D01*
X113002488Y-29861574D01*
X113002487Y-29861573D01*
X112666564Y-29637116D01*
X112380884Y-29351436D01*
X112156427Y-29015513D01*
X112117494Y-28921520D01*
X112001818Y-28642254D01*
X111923000Y-28246007D01*
X111923000Y-27841993D01*
X112001818Y-27445746D01*
X112156426Y-27072489D01*
X112290236Y-26872229D01*
X112380884Y-26736564D01*
X112666564Y-26450884D01*
X113002487Y-26226427D01*
X113015830Y-26220900D01*
X113375746Y-26071818D01*
X113771993Y-25993000D01*
X114176007Y-25993000D01*
X114572254Y-26071818D01*
X114572254Y-26071818D01*
G37*
G36*
X144697228Y-25805703D02*
G01*
X144852100Y-25869853D01*
X144991481Y-25962985D01*
X145110015Y-26081519D01*
X145203147Y-26220900D01*
X145267297Y-26375772D01*
X145300000Y-26540184D01*
X145300000Y-26707816D01*
X145267297Y-26872228D01*
X145203147Y-27027100D01*
X145110015Y-27166481D01*
X144991481Y-27285015D01*
X144852100Y-27378147D01*
X144697228Y-27442297D01*
X144532816Y-27475000D01*
X144365184Y-27475000D01*
X144200772Y-27442297D01*
X144045900Y-27378147D01*
X143906519Y-27285015D01*
X143787985Y-27166481D01*
X143694853Y-27027100D01*
X143630703Y-26872228D01*
X143598000Y-26707816D01*
X143598000Y-26540184D01*
X143630703Y-26375772D01*
X143694853Y-26220900D01*
X143787985Y-26081519D01*
X143906519Y-25962985D01*
X144045900Y-25869853D01*
X144200772Y-25805703D01*
X144365184Y-25773000D01*
X144532816Y-25773000D01*
X144697228Y-25805703D01*
X144697228Y-25805703D01*
G37*
G36*
X153007228Y-25805703D02*
G01*
X153162100Y-25869853D01*
X153301481Y-25962985D01*
X153420015Y-26081519D01*
X153513147Y-26220900D01*
X153577297Y-26375772D01*
X153610000Y-26540184D01*
X153610000Y-26707816D01*
X153577297Y-26872228D01*
X153513147Y-27027100D01*
X153420015Y-27166481D01*
X153301481Y-27285015D01*
X153162100Y-27378147D01*
X153007228Y-27442297D01*
X152842816Y-27475000D01*
X152675184Y-27475000D01*
X152510772Y-27442297D01*
X152355900Y-27378147D01*
X152216519Y-27285015D01*
X152097985Y-27166481D01*
X152004853Y-27027100D01*
X151940703Y-26872228D01*
X151908000Y-26707816D01*
X151908000Y-26540184D01*
X151940703Y-26375772D01*
X152004853Y-26220900D01*
X152097985Y-26081519D01*
X152216519Y-25962985D01*
X152355900Y-25869853D01*
X152510772Y-25805703D01*
X152675184Y-25773000D01*
X152842816Y-25773000D01*
X153007228Y-25805703D01*
X153007228Y-25805703D01*
G37*
G36*
X147467228Y-25805703D02*
G01*
X147622100Y-25869853D01*
X147761481Y-25962985D01*
X147880015Y-26081519D01*
X147973147Y-26220900D01*
X148037297Y-26375772D01*
X148070000Y-26540184D01*
X148070000Y-26707816D01*
X148037297Y-26872228D01*
X147973147Y-27027100D01*
X147880015Y-27166481D01*
X147761481Y-27285015D01*
X147622100Y-27378147D01*
X147467228Y-27442297D01*
X147302816Y-27475000D01*
X147135184Y-27475000D01*
X146970772Y-27442297D01*
X146815900Y-27378147D01*
X146676519Y-27285015D01*
X146557985Y-27166481D01*
X146464853Y-27027100D01*
X146400703Y-26872228D01*
X146368000Y-26707816D01*
X146368000Y-26540184D01*
X146400703Y-26375772D01*
X146464853Y-26220900D01*
X146557985Y-26081519D01*
X146676519Y-25962985D01*
X146815900Y-25869853D01*
X146970772Y-25805703D01*
X147135184Y-25773000D01*
X147302816Y-25773000D01*
X147467228Y-25805703D01*
X147467228Y-25805703D01*
G37*
G36*
X122537228Y-25805703D02*
G01*
X122692100Y-25869853D01*
X122831481Y-25962985D01*
X122950015Y-26081519D01*
X123043147Y-26220900D01*
X123107297Y-26375772D01*
X123140000Y-26540184D01*
X123140000Y-26707816D01*
X123107297Y-26872228D01*
X123043147Y-27027100D01*
X122950015Y-27166481D01*
X122831481Y-27285015D01*
X122692100Y-27378147D01*
X122537228Y-27442297D01*
X122372816Y-27475000D01*
X122205184Y-27475000D01*
X122040772Y-27442297D01*
X121885900Y-27378147D01*
X121746519Y-27285015D01*
X121627985Y-27166481D01*
X121534853Y-27027100D01*
X121470703Y-26872228D01*
X121438000Y-26707816D01*
X121438000Y-26540184D01*
X121470703Y-26375772D01*
X121534853Y-26220900D01*
X121627985Y-26081519D01*
X121746519Y-25962985D01*
X121885900Y-25869853D01*
X122040772Y-25805703D01*
X122205184Y-25773000D01*
X122372816Y-25773000D01*
X122537228Y-25805703D01*
X122537228Y-25805703D01*
G37*
G36*
X125307228Y-25805703D02*
G01*
X125462100Y-25869853D01*
X125601481Y-25962985D01*
X125720015Y-26081519D01*
X125813147Y-26220900D01*
X125877297Y-26375772D01*
X125910000Y-26540184D01*
X125910000Y-26707816D01*
X125877297Y-26872228D01*
X125813147Y-27027100D01*
X125720015Y-27166481D01*
X125601481Y-27285015D01*
X125462100Y-27378147D01*
X125307228Y-27442297D01*
X125142816Y-27475000D01*
X124975184Y-27475000D01*
X124810772Y-27442297D01*
X124655900Y-27378147D01*
X124516519Y-27285015D01*
X124397985Y-27166481D01*
X124304853Y-27027100D01*
X124240703Y-26872228D01*
X124208000Y-26707816D01*
X124208000Y-26540184D01*
X124240703Y-26375772D01*
X124304853Y-26220900D01*
X124397985Y-26081519D01*
X124516519Y-25962985D01*
X124655900Y-25869853D01*
X124810772Y-25805703D01*
X124975184Y-25773000D01*
X125142816Y-25773000D01*
X125307228Y-25805703D01*
X125307228Y-25805703D01*
G37*
G36*
X128077228Y-25805703D02*
G01*
X128232100Y-25869853D01*
X128371481Y-25962985D01*
X128490015Y-26081519D01*
X128583147Y-26220900D01*
X128647297Y-26375772D01*
X128680000Y-26540184D01*
X128680000Y-26707816D01*
X128647297Y-26872228D01*
X128583147Y-27027100D01*
X128490015Y-27166481D01*
X128371481Y-27285015D01*
X128232100Y-27378147D01*
X128077228Y-27442297D01*
X127912816Y-27475000D01*
X127745184Y-27475000D01*
X127580772Y-27442297D01*
X127425900Y-27378147D01*
X127286519Y-27285015D01*
X127167985Y-27166481D01*
X127074853Y-27027100D01*
X127010703Y-26872228D01*
X126978000Y-26707816D01*
X126978000Y-26540184D01*
X127010703Y-26375772D01*
X127074853Y-26220900D01*
X127167985Y-26081519D01*
X127286519Y-25962985D01*
X127425900Y-25869853D01*
X127580772Y-25805703D01*
X127745184Y-25773000D01*
X127912816Y-25773000D01*
X128077228Y-25805703D01*
X128077228Y-25805703D01*
G37*
G36*
X130847228Y-25805703D02*
G01*
X131002100Y-25869853D01*
X131141481Y-25962985D01*
X131260015Y-26081519D01*
X131353147Y-26220900D01*
X131417297Y-26375772D01*
X131450000Y-26540184D01*
X131450000Y-26707816D01*
X131417297Y-26872228D01*
X131353147Y-27027100D01*
X131260015Y-27166481D01*
X131141481Y-27285015D01*
X131002100Y-27378147D01*
X130847228Y-27442297D01*
X130682816Y-27475000D01*
X130515184Y-27475000D01*
X130350772Y-27442297D01*
X130195900Y-27378147D01*
X130056519Y-27285015D01*
X129937985Y-27166481D01*
X129844853Y-27027100D01*
X129780703Y-26872228D01*
X129748000Y-26707816D01*
X129748000Y-26540184D01*
X129780703Y-26375772D01*
X129844853Y-26220900D01*
X129937985Y-26081519D01*
X130056519Y-25962985D01*
X130195900Y-25869853D01*
X130350772Y-25805703D01*
X130515184Y-25773000D01*
X130682816Y-25773000D01*
X130847228Y-25805703D01*
X130847228Y-25805703D01*
G37*
G36*
X133617228Y-25805703D02*
G01*
X133772100Y-25869853D01*
X133911481Y-25962985D01*
X134030015Y-26081519D01*
X134123147Y-26220900D01*
X134187297Y-26375772D01*
X134220000Y-26540184D01*
X134220000Y-26707816D01*
X134187297Y-26872228D01*
X134123147Y-27027100D01*
X134030015Y-27166481D01*
X133911481Y-27285015D01*
X133772100Y-27378147D01*
X133617228Y-27442297D01*
X133452816Y-27475000D01*
X133285184Y-27475000D01*
X133120772Y-27442297D01*
X132965900Y-27378147D01*
X132826519Y-27285015D01*
X132707985Y-27166481D01*
X132614853Y-27027100D01*
X132550703Y-26872228D01*
X132518000Y-26707816D01*
X132518000Y-26540184D01*
X132550703Y-26375772D01*
X132614853Y-26220900D01*
X132707985Y-26081519D01*
X132826519Y-25962985D01*
X132965900Y-25869853D01*
X133120772Y-25805703D01*
X133285184Y-25773000D01*
X133452816Y-25773000D01*
X133617228Y-25805703D01*
X133617228Y-25805703D01*
G37*
G36*
X136387228Y-25805703D02*
G01*
X136542100Y-25869853D01*
X136681481Y-25962985D01*
X136800015Y-26081519D01*
X136893147Y-26220900D01*
X136957297Y-26375772D01*
X136990000Y-26540184D01*
X136990000Y-26707816D01*
X136957297Y-26872228D01*
X136893147Y-27027100D01*
X136800015Y-27166481D01*
X136681481Y-27285015D01*
X136542100Y-27378147D01*
X136387228Y-27442297D01*
X136222816Y-27475000D01*
X136055184Y-27475000D01*
X135890772Y-27442297D01*
X135735900Y-27378147D01*
X135596519Y-27285015D01*
X135477985Y-27166481D01*
X135384853Y-27027100D01*
X135320703Y-26872228D01*
X135288000Y-26707816D01*
X135288000Y-26540184D01*
X135320703Y-26375772D01*
X135384853Y-26220900D01*
X135477985Y-26081519D01*
X135596519Y-25962985D01*
X135735900Y-25869853D01*
X135890772Y-25805703D01*
X136055184Y-25773000D01*
X136222816Y-25773000D01*
X136387228Y-25805703D01*
X136387228Y-25805703D01*
G37*
G36*
X139157228Y-25805703D02*
G01*
X139312100Y-25869853D01*
X139451481Y-25962985D01*
X139570015Y-26081519D01*
X139663147Y-26220900D01*
X139727297Y-26375772D01*
X139760000Y-26540184D01*
X139760000Y-26707816D01*
X139727297Y-26872228D01*
X139663147Y-27027100D01*
X139570015Y-27166481D01*
X139451481Y-27285015D01*
X139312100Y-27378147D01*
X139157228Y-27442297D01*
X138992816Y-27475000D01*
X138825184Y-27475000D01*
X138660772Y-27442297D01*
X138505900Y-27378147D01*
X138366519Y-27285015D01*
X138247985Y-27166481D01*
X138154853Y-27027100D01*
X138090703Y-26872228D01*
X138058000Y-26707816D01*
X138058000Y-26540184D01*
X138090703Y-26375772D01*
X138154853Y-26220900D01*
X138247985Y-26081519D01*
X138366519Y-25962985D01*
X138505900Y-25869853D01*
X138660772Y-25805703D01*
X138825184Y-25773000D01*
X138992816Y-25773000D01*
X139157228Y-25805703D01*
X139157228Y-25805703D01*
G37*
G36*
X150237228Y-25805703D02*
G01*
X150392100Y-25869853D01*
X150531481Y-25962985D01*
X150650015Y-26081519D01*
X150743147Y-26220900D01*
X150807297Y-26375772D01*
X150840000Y-26540184D01*
X150840000Y-26707816D01*
X150807297Y-26872228D01*
X150743147Y-27027100D01*
X150650015Y-27166481D01*
X150531481Y-27285015D01*
X150392100Y-27378147D01*
X150237228Y-27442297D01*
X150072816Y-27475000D01*
X149905184Y-27475000D01*
X149740772Y-27442297D01*
X149585900Y-27378147D01*
X149446519Y-27285015D01*
X149327985Y-27166481D01*
X149234853Y-27027100D01*
X149170703Y-26872228D01*
X149138000Y-26707816D01*
X149138000Y-26540184D01*
X149170703Y-26375772D01*
X149234853Y-26220900D01*
X149327985Y-26081519D01*
X149446519Y-25962985D01*
X149585900Y-25869853D01*
X149740772Y-25805703D01*
X149905184Y-25773000D01*
X150072816Y-25773000D01*
X150237228Y-25805703D01*
X150237228Y-25805703D01*
G37*
G36*
X141927228Y-25805703D02*
G01*
X142082100Y-25869853D01*
X142221481Y-25962985D01*
X142340015Y-26081519D01*
X142433147Y-26220900D01*
X142497297Y-26375772D01*
X142530000Y-26540184D01*
X142530000Y-26707816D01*
X142497297Y-26872228D01*
X142433147Y-27027100D01*
X142340015Y-27166481D01*
X142221481Y-27285015D01*
X142082100Y-27378147D01*
X141927228Y-27442297D01*
X141762816Y-27475000D01*
X141595184Y-27475000D01*
X141430772Y-27442297D01*
X141275900Y-27378147D01*
X141136519Y-27285015D01*
X141017985Y-27166481D01*
X140924853Y-27027100D01*
X140860703Y-26872228D01*
X140828000Y-26707816D01*
X140828000Y-26540184D01*
X140860703Y-26375772D01*
X140924853Y-26220900D01*
X141017985Y-26081519D01*
X141136519Y-25962985D01*
X141275900Y-25869853D01*
X141430772Y-25805703D01*
X141595184Y-25773000D01*
X141762816Y-25773000D01*
X141927228Y-25805703D01*
X141927228Y-25805703D01*
G37*
G36*
X73327585Y-23434302D02*
G01*
X73477410Y-23464104D01*
X73759674Y-23581021D01*
X74013705Y-23750759D01*
X74229741Y-23966795D01*
X74399479Y-24220826D01*
X74516396Y-24503090D01*
X74576000Y-24802740D01*
X74576000Y-25108260D01*
X74516396Y-25407910D01*
X74399479Y-25690174D01*
X74229741Y-25944205D01*
X74013705Y-26160241D01*
X73759674Y-26329979D01*
X73477410Y-26446896D01*
X73327585Y-26476698D01*
X73177761Y-26506500D01*
X72872239Y-26506500D01*
X72722415Y-26476698D01*
X72572590Y-26446896D01*
X72290326Y-26329979D01*
X72036295Y-26160241D01*
X71820259Y-25944205D01*
X71650521Y-25690174D01*
X71533604Y-25407910D01*
X71474000Y-25108260D01*
X71474000Y-24802740D01*
X71533604Y-24503090D01*
X71650521Y-24220826D01*
X71820259Y-23966795D01*
X72036295Y-23750759D01*
X72290326Y-23581021D01*
X72572590Y-23464104D01*
X72722415Y-23434302D01*
X72872239Y-23404500D01*
X73177761Y-23404500D01*
X73327585Y-23434302D01*
X73327585Y-23434302D01*
G37*
M02*
