G04 #@! TF.GenerationSoftware,KiCad,Pcbnew,(5.1.0)-1*
G04 #@! TF.CreationDate,2019-05-30T15:11:01+01:00*
G04 #@! TF.ProjectId,Eco-PCB-Final,45636f2d-5043-4422-9d46-696e616c2e6b,rev?*
G04 #@! TF.SameCoordinates,Original*
G04 #@! TF.FileFunction,Copper,L2,Bot*
G04 #@! TF.FilePolarity,Positive*
%FSLAX46Y46*%
G04 Gerber Fmt 4.6, Leading zero omitted, Abs format (unit mm)*
G04 Created by KiCad (PCBNEW (5.1.0)-1) date 2019-05-30 15:11:01*
%MOMM*%
%LPD*%
G04 APERTURE LIST*
%ADD10C,1.600000*%
%ADD11O,1.600000X1.600000*%
%ADD12C,1.524000*%
%ADD13R,1.600000X1.600000*%
%ADD14C,4.000000*%
%ADD15R,3.000000X3.000000*%
%ADD16C,3.000000*%
%ADD17C,0.800000*%
%ADD18C,0.250000*%
%ADD19C,0.508000*%
G04 APERTURE END LIST*
D10*
X127762000Y-73628000D03*
X127762000Y-71628000D03*
D11*
X121475500Y-66929000D03*
D10*
X131635500Y-66929000D03*
D12*
X127415000Y-45275500D03*
X127415000Y-47815500D03*
X127415000Y-50355500D03*
X127415000Y-52895500D03*
X127415000Y-55435500D03*
X127415000Y-57975500D03*
X129349500Y-128714500D03*
X129349500Y-131254500D03*
X129349500Y-133724500D03*
X129349500Y-136334500D03*
X139436500Y-67310000D03*
X139436500Y-69850000D03*
X139436500Y-72390000D03*
X139436500Y-74930000D03*
X139436500Y-77470000D03*
D10*
X119824500Y-112141000D03*
D11*
X129984500Y-112141000D03*
D10*
X119824500Y-116459000D03*
D11*
X129984500Y-116459000D03*
D12*
X97447000Y-127889000D03*
X97447000Y-130429000D03*
X97447000Y-125349000D03*
D13*
X120904000Y-29464000D03*
D10*
X123674000Y-29464000D03*
X126444000Y-29464000D03*
X129214000Y-29464000D03*
X131984000Y-29464000D03*
X134754000Y-29464000D03*
X137524000Y-29464000D03*
X140294000Y-29464000D03*
X143064000Y-29464000D03*
X145834000Y-29464000D03*
X148604000Y-29464000D03*
X151374000Y-29464000D03*
X154144000Y-29464000D03*
X122289000Y-26624000D03*
X125059000Y-26624000D03*
X127829000Y-26624000D03*
X130599000Y-26624000D03*
X133369000Y-26624000D03*
X136139000Y-26624000D03*
X138909000Y-26624000D03*
X141679000Y-26624000D03*
X144449000Y-26624000D03*
X147219000Y-26624000D03*
X149989000Y-26624000D03*
X152759000Y-26624000D03*
D14*
X161074000Y-28044000D03*
X113974000Y-28044000D03*
D13*
X110426500Y-61087000D03*
D11*
X77406500Y-76327000D03*
X107886500Y-61087000D03*
X79946500Y-76327000D03*
X105346500Y-61087000D03*
X82486500Y-76327000D03*
X102806500Y-61087000D03*
X85026500Y-76327000D03*
X100266500Y-61087000D03*
X87566500Y-76327000D03*
X97726500Y-61087000D03*
X90106500Y-76327000D03*
X95186500Y-61087000D03*
X92646500Y-76327000D03*
X92646500Y-61087000D03*
X95186500Y-76327000D03*
X90106500Y-61087000D03*
X97726500Y-76327000D03*
X87566500Y-61087000D03*
X100266500Y-76327000D03*
X85026500Y-61087000D03*
X102806500Y-76327000D03*
X82486500Y-61087000D03*
X105346500Y-76327000D03*
X79946500Y-61087000D03*
X107886500Y-76327000D03*
X77406500Y-61087000D03*
X110426500Y-76327000D03*
X74866500Y-61087000D03*
X74866500Y-76327000D03*
D12*
X90932000Y-116586000D03*
X90932000Y-114046000D03*
X90932000Y-111506000D03*
X90932000Y-108966000D03*
X90932000Y-106426000D03*
X90932000Y-103886000D03*
D13*
X110236000Y-81661000D03*
D11*
X77216000Y-96901000D03*
X107696000Y-81661000D03*
X79756000Y-96901000D03*
X105156000Y-81661000D03*
X82296000Y-96901000D03*
X102616000Y-81661000D03*
X84836000Y-96901000D03*
X100076000Y-81661000D03*
X87376000Y-96901000D03*
X97536000Y-81661000D03*
X89916000Y-96901000D03*
X94996000Y-81661000D03*
X92456000Y-96901000D03*
X92456000Y-81661000D03*
X94996000Y-96901000D03*
X89916000Y-81661000D03*
X97536000Y-96901000D03*
X87376000Y-81661000D03*
X100076000Y-96901000D03*
X84836000Y-81661000D03*
X102616000Y-96901000D03*
X82296000Y-81661000D03*
X105156000Y-96901000D03*
X79756000Y-81661000D03*
X107696000Y-96901000D03*
X77216000Y-81661000D03*
X110236000Y-96901000D03*
X74676000Y-81661000D03*
X74676000Y-96901000D03*
D12*
X136209500Y-89979500D03*
X136209500Y-92519500D03*
X136209500Y-95059500D03*
X136209500Y-97599500D03*
X135186000Y-108839000D03*
X135186000Y-111379000D03*
X135186000Y-113919000D03*
X135186000Y-116459000D03*
X135186000Y-118999000D03*
X135186000Y-121539000D03*
X135186000Y-124079000D03*
X135186000Y-126619000D03*
D11*
X74676000Y-56134000D03*
X74676000Y-40894000D03*
X110236000Y-56134000D03*
X77216000Y-40894000D03*
X107696000Y-56134000D03*
X79756000Y-40894000D03*
X105156000Y-56134000D03*
X82296000Y-40894000D03*
X102616000Y-56134000D03*
X84836000Y-40894000D03*
X100076000Y-56134000D03*
X87376000Y-40894000D03*
X97536000Y-56134000D03*
X89916000Y-40894000D03*
X94996000Y-56134000D03*
X92456000Y-40894000D03*
X92456000Y-56134000D03*
X94996000Y-40894000D03*
X89916000Y-56134000D03*
X97536000Y-40894000D03*
X87376000Y-56134000D03*
X100076000Y-40894000D03*
X84836000Y-56134000D03*
X102616000Y-40894000D03*
X82296000Y-56134000D03*
X105156000Y-40894000D03*
X79756000Y-56134000D03*
X107696000Y-40894000D03*
X77216000Y-56134000D03*
D13*
X110236000Y-40894000D03*
D15*
X73025000Y-30035500D03*
D16*
X73025000Y-24955500D03*
D17*
X102171500Y-63373000D03*
D18*
X73550999Y-56674001D02*
X73550999Y-54401501D01*
X87897500Y-63373000D02*
X86151501Y-61627001D01*
X102171500Y-63373000D02*
X87897500Y-63373000D01*
X86151501Y-61627001D02*
X86151501Y-60546999D01*
X86151501Y-60546999D02*
X82863503Y-57259001D01*
X82863503Y-57259001D02*
X74135999Y-57259001D01*
X74135999Y-57259001D02*
X73550999Y-56674001D01*
X90723501Y-54401501D02*
X92456000Y-56134000D01*
X73550999Y-54401501D02*
X90723501Y-54401501D01*
D19*
X73025000Y-30035500D02*
X106172000Y-30035500D01*
X106172000Y-30035500D02*
X113601500Y-22606000D01*
X119888000Y-141795500D02*
X108813500Y-141795500D01*
X108813500Y-141795500D02*
X97447000Y-130429000D01*
X110426500Y-76327000D02*
X109172499Y-75072999D01*
X110236000Y-95769630D02*
X106410001Y-91943631D01*
X152759000Y-47793500D02*
X152759000Y-26624000D01*
X106410001Y-91943631D02*
X106410001Y-80343499D01*
X109626501Y-77126999D02*
X110426500Y-76327000D01*
X140017500Y-108839000D02*
X152717500Y-108839000D01*
X152717500Y-108839000D02*
X152759000Y-108880500D01*
X152759000Y-132800500D02*
X143764000Y-141795500D01*
X152759000Y-58715500D02*
X152759000Y-47793500D01*
X152759000Y-97704500D02*
X152759000Y-108880500D01*
X109172499Y-75072999D02*
X109172499Y-57197501D01*
X127415000Y-47815500D02*
X152737000Y-47815500D01*
X129349500Y-141795500D02*
X119888000Y-141795500D01*
X109172499Y-57197501D02*
X109436001Y-56933999D01*
X143764000Y-141795500D02*
X129349500Y-141795500D01*
X129349500Y-136334500D02*
X129349500Y-137412130D01*
X119824500Y-141732000D02*
X119888000Y-141795500D01*
X90932000Y-126746000D02*
X105981500Y-141795500D01*
X152759000Y-108880500D02*
X152759000Y-132800500D01*
X129349500Y-137412130D02*
X129349500Y-141795500D01*
X109436001Y-56933999D02*
X110236000Y-56134000D01*
X106410001Y-80343499D02*
X109626501Y-77126999D01*
X152759000Y-61382500D02*
X152759000Y-58715500D01*
X110236000Y-96901000D02*
X110236000Y-95769630D01*
X105981500Y-141795500D02*
X108813500Y-141795500D01*
X90932000Y-116586000D02*
X90932000Y-126746000D01*
X152654000Y-97599500D02*
X152759000Y-97704500D01*
X136209500Y-97599500D02*
X152654000Y-97599500D01*
X152737000Y-47815500D02*
X152759000Y-47793500D01*
X152759000Y-97704500D02*
X152759000Y-67141500D01*
X110236000Y-106807000D02*
X110236000Y-96901000D01*
X110299500Y-106870500D02*
X110236000Y-106807000D01*
X119824500Y-106997500D02*
X119951500Y-106870500D01*
X119824500Y-112141000D02*
X119824500Y-106997500D01*
X138049000Y-106870500D02*
X119951500Y-106870500D01*
X116332000Y-116395500D02*
X116332000Y-106870500D01*
X116395500Y-116459000D02*
X116332000Y-116395500D01*
X119824500Y-116459000D02*
X116395500Y-116459000D01*
X119951500Y-106870500D02*
X116332000Y-106870500D01*
X116332000Y-106870500D02*
X110299500Y-106870500D01*
X138049000Y-108775500D02*
X138112500Y-108839000D01*
X138049000Y-106870500D02*
X138049000Y-108775500D01*
X135186000Y-108839000D02*
X138112500Y-108839000D01*
X138112500Y-108839000D02*
X140017500Y-108839000D01*
X113601500Y-22606000D02*
X154178000Y-22606000D01*
X154144000Y-22640000D02*
X154144000Y-29464000D01*
X154178000Y-22606000D02*
X154144000Y-22640000D01*
X152759000Y-64367000D02*
X121815000Y-64367000D01*
X152759000Y-64367000D02*
X152759000Y-61382500D01*
X152759000Y-67141500D02*
X152759000Y-64367000D01*
X121475500Y-64706500D02*
X121475500Y-66929000D01*
X121815000Y-64367000D02*
X121475500Y-64706500D01*
X139055500Y-66929000D02*
X139436500Y-67310000D01*
X121729500Y-71628000D02*
X127762000Y-71628000D01*
X121475500Y-66929000D02*
X121475500Y-71374000D01*
X121475500Y-71374000D02*
X121729500Y-71628000D01*
X134048500Y-66992500D02*
X133985000Y-66929000D01*
X134048500Y-71628000D02*
X134048500Y-66992500D01*
X127762000Y-71628000D02*
X134048500Y-71628000D01*
X131635500Y-66929000D02*
X133985000Y-66929000D01*
X133985000Y-66929000D02*
X139055500Y-66929000D01*
D18*
X93255999Y-82460999D02*
X92456000Y-81661000D01*
X98950999Y-88155999D02*
X93255999Y-82460999D01*
X98950999Y-108285499D02*
X98950999Y-88155999D01*
X119380000Y-128714500D02*
X98950999Y-108285499D01*
X129349500Y-128714500D02*
X119380000Y-128714500D01*
X129349500Y-131254500D02*
X130436501Y-130167499D01*
X101391501Y-109646501D02*
X101391501Y-88056501D01*
X130436501Y-128192739D02*
X129871261Y-127627499D01*
X119372499Y-127627499D02*
X101391501Y-109646501D01*
X130436501Y-130167499D02*
X130436501Y-128192739D01*
X95795999Y-82460999D02*
X94996000Y-81661000D01*
X129871261Y-127627499D02*
X119372499Y-127627499D01*
X101391501Y-88056501D02*
X95795999Y-82460999D01*
X127570763Y-53982501D02*
X124912001Y-53982501D01*
X128952010Y-55363748D02*
X127570763Y-53982501D01*
X110964000Y-42672000D02*
X110236000Y-41944000D01*
X113601500Y-42672000D02*
X110964000Y-42672000D01*
X124912001Y-53982501D02*
X113601500Y-42672000D01*
X110236000Y-41944000D02*
X110236000Y-40894000D01*
X128952010Y-63293010D02*
X128952010Y-62785010D01*
X128968500Y-63309500D02*
X128952010Y-63293010D01*
X115824000Y-63309500D02*
X128968500Y-63309500D01*
X115125500Y-64008000D02*
X115824000Y-63309500D01*
X128952010Y-62785010D02*
X128952010Y-55363748D01*
X128952010Y-62944990D02*
X128952010Y-62785010D01*
X110236000Y-81661000D02*
X110236000Y-80611000D01*
X110236000Y-80611000D02*
X112488000Y-78359000D01*
X112488000Y-78359000D02*
X115125500Y-78359000D01*
X115125500Y-78359000D02*
X115125500Y-64008000D01*
X126972297Y-56888499D02*
X113327298Y-43243500D01*
X128502001Y-58497261D02*
X128502001Y-57453739D01*
X128502001Y-57453739D02*
X127936761Y-56888499D01*
X113327298Y-43243500D02*
X110045500Y-43243500D01*
X110045500Y-43243500D02*
X107696000Y-40894000D01*
X111814999Y-77542001D02*
X113549701Y-77542001D01*
X128502001Y-62589701D02*
X128502001Y-57453739D01*
X127936761Y-56888499D02*
X126972297Y-56888499D01*
X107696000Y-81661000D02*
X111814999Y-77542001D01*
X114181501Y-76910201D02*
X114181501Y-62856499D01*
X113549701Y-77542001D02*
X114181501Y-76910201D01*
X114448299Y-62589701D02*
X128502001Y-62589701D01*
X114181501Y-62856499D02*
X114448299Y-62589701D01*
X105219500Y-58420000D02*
X87122000Y-58420000D01*
X107886500Y-61087000D02*
X105219500Y-58420000D01*
X87122000Y-58420000D02*
X84836000Y-56134000D01*
X94234000Y-36576000D02*
X89916000Y-40894000D01*
X126444000Y-29464000D02*
X125312630Y-29464000D01*
X118200630Y-36576000D02*
X94234000Y-36576000D01*
X125312630Y-29464000D02*
X118200630Y-36576000D01*
X123133999Y-28338999D02*
X122548999Y-28923999D01*
X87376000Y-40894000D02*
X92144010Y-36125990D01*
X122548999Y-31591221D02*
X118014230Y-36125990D01*
X129214000Y-29464000D02*
X128088999Y-28338999D01*
X122548999Y-28923999D02*
X122548999Y-31591221D01*
X104780510Y-36125990D02*
X104590010Y-36125990D01*
X128088999Y-28338999D02*
X123133999Y-28338999D01*
X92144010Y-36125990D02*
X104780510Y-36125990D01*
X118014230Y-36125990D02*
X104780510Y-36125990D01*
X130852630Y-29464000D02*
X121899130Y-38417500D01*
X131984000Y-29464000D02*
X130852630Y-29464000D01*
X121899130Y-38417500D02*
X102552500Y-38417500D01*
X102552500Y-38417500D02*
X100076000Y-40894000D01*
X126337370Y-57975500D02*
X117828370Y-49466500D01*
X88328500Y-49466500D02*
X79756000Y-40894000D01*
X127415000Y-57975500D02*
X126337370Y-57975500D01*
X117828370Y-49466500D02*
X88328500Y-49466500D01*
M02*
